<?xml version="1.0" encoding="UTF-8" standalone="no"?>
<svg
   width="1536"
   height="1024"
   viewBox="0 0 1536 1024"
   version="1.1"
   id="svg61"
   sodipodi:docname="27243cd2-5c65-4c1d-ab27-438d28283d3b.svg"
   inkscape:version="1.3 (0e150ed6c4, 2023-07-21)"
   xmlns:inkscape="http://www.inkscape.org/namespaces/inkscape"
   xmlns:sodipodi="http://sodipodi.sourceforge.net/DTD/sodipodi-0.dtd"
   xmlns="http://www.w3.org/2000/svg"
   xmlns:svg="http://www.w3.org/2000/svg">
  <defs
     id="defs61">
    <filter
       style="color-interpolation-filters:sRGB"
       id="filter73"
       inkscape:label="filter1" />
    <filter id="filter104">
      <feTurbulence
         type="turbulence"
         baseFrequency="0.8"
         numOctaves="4"
         seed="258"
         result="turbulence"
         id="feTurbulence103" />
    </filter>
  </defs>
  <sodipodi:namedview
     id="namedview61"
     pagecolor="#ffffff"
     bordercolor="#000000"
     borderopacity="0.25"
     inkscape:showpageshadow="2"
     inkscape:pageopacity="0.0"
     inkscape:pagecheckerboard="0"
     inkscape:deskcolor="#d1d1d1"
     inkscape:zoom="1.7942643"
     inkscape:cx="1168.7242"
     inkscape:cy="300.68034"
     inkscape:window-width="1920"
     inkscape:window-height="1009"
     inkscape:window-x="1912"
     inkscape:window-y="-8"
     inkscape:window-maximized="1"
     inkscape:current-layer="svg61" />
  <g
     id="g61">
    <path
       fill="#775C47"
       d="M313.245 125.481C341.66 122.698 351.065 139.302 374.901 149.336C381.965 152.309 397.449 154.115 401.276 158.419C408.113 166.107 382.988 188.928 377.438 192.982L386.598 201.712C388.624 199.688 391.027 197.172 393.301 195.414C405.13 186.271 421.075 162.535 425.65 192.652C428.485 211.318 443.048 223.682 448.992 240.716C454.789 257.333 453.46 277.803 444.034 292.782C439.243 300.441 434.19 307.51 430.424 315.712C426.539 324.172 426.456 334.331 422.461 342.538C415.594 349.338 406.648 339.989 401.719 335.225C396.69 330.364 391.752 325.349 386.81 320.396L376.884 329.283C383.958 336.252 399.61 349.78 402.562 358.623C405.751 368.178 381.978 369.085 375.951 371.965C355.961 381.518 346.466 393.92 322.865 396.584C296.371 398.759 283.769 384.057 262.794 372.691C257.476 369.809 234.16 367.096 235.37 358.655C236.467 351.006 254.731 335.012 260.704 329.081C258.154 326.862 254.692 323.187 252.215 320.716C247.266 324.596 241.515 330.325 237.068 334.602C210.555 360.097 214.322 333.685 207.01 315.828C200.039 298.803 186.741 289.189 184.539 268.906C181.468 240.621 197.827 226.637 208.919 203.625C216.509 187.954 211.01 163.51 235.946 187.897C240.92 192.761 246.365 197.78 251.284 202.894C254.642 200.078 257.857 196.458 260.881 193.238C253.807 186.24 238.237 172.706 235.15 163.87C231.701 153.999 258.32 151.715 264.542 148.591C282.748 139.45 292.292 129.177 313.245 125.481Z"
       id="path1" />
    <path
       fill="#E9B262"
       d="M309.343 182.23C353.108 176.803 392.93 208.034 398.104 251.84C403.278 295.646 371.826 335.298 328.002 340.221C284.532 345.104 245.281 313.955 240.149 270.504C235.017 227.052 265.932 187.613 309.343 182.23Z"
       id="path2" />
    <path
       fill="#775C47"
       d="M316.298 192.813C328.933 192.248 325.092 195.935 328.812 203.564C328.868 203.678 335.977 207.973 337.548 209.302C345.249 215.818 345.2 223.852 349.049 232.379C349.295 232.915 351.966 233.295 352.804 235.618C354.109 239.238 354.312 249.747 352.989 253.053C350.122 256.359 348.04 253.918 345.341 256.723L345.447 258.832C348.343 260.858 351.504 259.188 354.596 259.867C359.975 261.05 357.223 265.455 359.407 269.307C364.243 271.052 366.482 274.176 363.352 279.169C351.88 286.381 365.478 291.687 345.713 292.104C345.716 296.008 345.656 300.419 345.748 304.307C345.823 307.489 348.925 305.826 352.708 308.949C354.291 312.527 353.829 323.26 350.49 325.894C344.614 330.53 331.515 328.887 324.188 328.838C313.847 328.61 290.092 332.533 285.259 321.802C283.93 318.85 284.026 313.124 285.294 310.139C286.435 307.451 290.294 306.819 292.805 306.146C292.715 301.469 292.789 296.598 292.792 291.903C278.949 292.653 284.081 292.307 279.73 281.934C278.985 280.159 268.73 278.114 276.183 270.177C282.05 268.72 280.295 268.1 281.305 262.292C285.269 257.191 286.805 261.341 292.16 259.259L292.478 256.757C290.104 253.402 289.512 256.86 285.538 253.114C284.539 249.371 283.357 239.012 286.055 235.732C287.061 234.577 289.223 233.356 289.757 231.894C292.094 225.492 293.004 218.338 297.284 212.826C300.616 208.536 304.644 206.545 309.365 204.155C310.355 197.753 310.834 195.949 316.298 192.813Z"
       id="path3" />
    <path
       fill="#E9B262"
       d="M302.269 255.149L336.524 255.161C337.09 266.186 337.098 295.266 336.142 305.887L302.251 305.991L302.269 255.149Z"
       id="path4" />
    <path
       fill="#775C47"
       d="M316.579 265.35C321.848 263.768 327.395 266.788 328.927 272.073C330.458 277.358 327.385 282.877 322.088 284.359C316.861 285.82 311.432 282.797 309.922 277.583C308.411 272.369 311.381 266.911 316.579 265.35Z"
       id="path5" />
    <path
       fill="#E9B262"
       d="M316.012 210.93C331.165 210.085 335.644 218.491 338.993 231.755C333.854 232.018 326.841 231.83 321.563 231.839L299.561 231.976C302.366 220.137 304.738 215.764 316.012 210.93Z"
       id="path6" />
    <path
       fill="#E9B262"
       d="M299.406 241.107L299.705 241.098C307.334 240.956 340.867 239.494 344.657 243.179L344.506 244.703C342.381 246.582 342.267 246.096 339.173 246.573C331.516 246.362 297.013 247.998 293.243 243.969L293.471 242.584C295.484 241.1 296.612 241.435 299.406 241.107Z"
       id="path7" />
    <path
       fill="#E9B262"
       d="M294.696 315.188C303.68 314.375 313.69 314.796 322.801 314.643C328.117 314.553 341.415 313.472 344.585 317.399L343.879 319.574C330.367 319.649 316.85 319.74 303.338 319.738C300.07 319.737 294.913 320.516 293.55 317.336L294.696 315.188Z"
       id="path8" />
    <path
       fill="#E9B262"
       d="M345.325 267.727C346.779 267.946 348.56 267.891 349.306 268.775C351.529 271.406 350.327 279.788 350.073 283.288C347.245 282.947 347.762 283.423 345.839 281.9C344.463 278.042 345.198 272.105 345.325 267.727Z"
       id="path9" />
    <path
       fill="#E9B262"
       d="M290.111 267.258L291.972 268.509C293.169 272.643 293.51 280.389 290.767 283.791C286.145 280.91 286.683 270.959 290.111 267.258Z"
       id="path10" />
    <path
       fill="#C66751"
       d="M223.798 190.785C226.129 191.679 241.495 206.823 246.861 210.456C225.477 242.161 225.696 279.762 246.016 311.843C241.258 317.676 234.189 323.424 228.423 328.349L223.261 332.61C220.734 326.562 216.989 312.036 214.31 307.793C198.457 282.686 185.606 264.047 202.525 234.67C205.169 230.078 209.182 225.375 211.999 220.421C217.41 210.905 220.595 201.26 223.798 190.785Z"
       id="path11" />
    <path
       fill="#C66751"
       d="M413.308 190.558C414.326 191.607 418.646 204.377 419.622 206.997C423.456 217.282 429.257 224.72 434.667 234.263C443.421 247.457 446.034 272.43 436.399 286.197C423.993 303.925 421.013 310.922 414.989 332.228C412.953 332.162 411.904 330.586 409.995 328.94C404.661 324.048 396.661 316.915 392.758 311.002C412.89 272.68 412.815 247.551 391.681 209.294C398.706 203.245 405.672 195.56 413.308 190.558Z"
       id="path12" />
    <path
       fill="#C66751"
       d="M315.278 136.034C339.034 134.537 348.388 147.767 367.84 157.456C372.837 159.945 386.818 161.146 389.619 165.291C387.57 169.684 373.396 182.797 369.11 186.968C354.877 177.587 342.01 172.452 324.938 171.031C299.873 169.721 289.364 175.347 268.645 187.222L247.035 163.909C254.658 161.925 264.193 160.613 271.13 157.051C287.137 148.833 296.667 138.276 315.278 136.034Z"
       id="path13" />
    <path
       fill="#C66751"
       d="M268.612 335.717C270.624 336.289 275.871 339.336 277.921 340.479C309.9 358.308 339.784 352.813 369.716 335.653C376.106 341.321 385.098 350.423 389.566 357.638C379.277 360.197 374.496 361.377 365.016 365.943C360.146 368.565 353.409 372.734 349.398 375.668C317.334 399.118 293.178 378.904 265.416 362.492C261.856 360.387 250.215 358.315 248.595 355.819C250.326 353.111 265.399 338.906 268.612 335.717Z"
       id="path14" />
  </g>
  <g
     id="g65">
    <path
       fill="#775C47"
       d="M623.694 462.217C631.612 461.895 647.792 459.351 653.879 465.019C657.647 468.527 656.961 474.614 656.85 479.438C686.718 479.47 675.367 492.66 677.551 512.736C678.615 522.511 676.058 590.935 678.006 593.861C680.455 594.203 680.831 594.369 683.182 593.839C686.117 588.669 682.209 514.398 684.313 503.124C686.111 493.491 706.629 498.398 714.995 497.39C720.543 496.721 729.671 497.385 735.516 497.384L818.855 497.373L864.3 497.392C874.893 497.4 889.485 496.732 899.351 498.951C904.691 505.024 901.252 569.256 901.575 581.53C901.749 588.12 903.817 583.312 908.921 588.182C910.519 591.687 910.971 601.423 908.118 603.786C901.62 609.169 882.204 606.814 874.181 606.686L859.035 606.751C848.17 657.544 783.093 649.626 779.838 606.813C743.599 606.221 705.632 606.656 669.33 606.794C662.314 653.495 599.126 652.683 592.921 606.733C584.277 606.585 572.488 608.23 564.409 605.893C558.32 604.132 557.853 593.811 560.13 589.005C561.39 586.344 565.567 585.666 568.191 585.034C568.11 580.151 567.077 547.468 568.268 543.749C572.943 529.162 588.426 497.06 597.908 484.048C601.311 479.378 613.362 479.945 618.768 479.906C618.701 472.447 617.56 467.504 623.694 462.217Z"
       id="path15" />
    <path
       fill="#C66751"
       d="M693.332 507.832L890.991 507.811L890.96 595.465C880.692 595.592 870.338 595.529 860.063 595.537C859.245 595.575 858.123 595.362 857.759 594.582C852.5 583.513 846.444 572.086 833.753 568.298C808.157 560.657 788.807 571.358 780.27 595.54L693.497 595.458L693.332 507.832Z"
       id="path16" />
    <path
       fill="#C66751"
       d="M605.528 491.34C622.551 490.444 650.077 491.109 667.535 491.446C667.45 522.398 668.521 558.253 667.239 588.76C656.892 573.851 649.464 566.585 630.436 566.2C611.217 565.914 599.67 578.782 593.728 595.652L577.115 595.577C577.492 587.955 576.51 547.834 578.594 543.971C585.945 530.353 596.381 502.657 605.528 491.34Z"
       id="path17" />
    <path
       fill="#775C47"
       d="M610.896 496.749C619.03 496.673 640.396 495.812 645.212 498.012C651.655 500.954 651.613 538.936 645.443 544.241C641.169 547.916 633.324 546.964 628.687 546.907L594.587 546.858C591.888 544.696 587.56 541.413 588.707 537.607C591.782 527.4 603.071 503.057 610.896 496.749Z"
       id="path18" />
    <path
       fill="#E9B262"
       d="M614.138 507.169C622.208 507.56 631.058 507.569 639.192 507.741C639.6 517.249 639.229 527.356 638.965 536.904L625.875 536.981L599.797 536.958C602.758 529.465 610.365 514.672 614.138 507.169Z"
       id="path19" />
    <path
       fill="#E9B262"
       d="M816.192 575.277C831.797 573.748 845.727 585.059 847.439 600.648C849.152 616.238 838.008 630.304 822.444 632.2C812.212 633.446 802.099 629.094 795.969 620.805C789.838 612.516 788.636 601.571 792.822 592.149C797.007 582.726 805.933 576.282 816.192 575.277Z"
       id="path20" />
    <path
       fill="#775C47"
       d="M815.517 587.733C824.362 585.756 833.166 591.206 835.344 600.005C837.522 608.805 832.277 617.734 823.532 620.114C817.694 621.702 811.454 620.004 807.225 615.676C802.996 611.349 801.442 605.069 803.163 599.268C804.885 593.466 809.612 589.052 815.517 587.733Z"
       id="path21" />
    <path
       fill="#A07044"
       d="M815.97 597.652C818.234 596.43 820.983 596.53 823.153 597.912C825.323 599.295 826.574 601.744 826.424 604.314C826.273 606.883 824.744 609.169 822.428 610.289C818.955 611.968 814.777 610.565 813.021 607.129C811.266 603.694 812.575 599.484 815.97 597.652Z"
       id="path22" />
    <path
       fill="#E9B262"
       d="M625.365 576.34C640.511 573.145 655.357 582.913 658.422 598.09C661.487 613.267 651.594 628.032 636.395 630.968C621.379 633.868 606.833 624.118 603.805 609.124C600.777 594.129 610.4 579.496 625.365 576.34Z"
       id="path23" />
    <path
       fill="#775C47"
       d="M626.772 588.547C635.212 586.247 643.928 591.18 646.303 599.601C648.678 608.022 643.824 616.784 635.427 619.235C626.922 621.717 618.026 616.787 615.621 608.258C613.216 599.73 618.225 590.876 626.772 588.547Z"
       id="path24" />
    <path
       fill="#A07044"
       d="M627.884 597.625C631.336 596.06 635.402 597.61 636.936 601.076C638.47 604.543 636.884 608.596 633.404 610.099C629.969 611.584 625.979 610.021 624.464 606.598C622.949 603.175 624.475 599.171 627.884 597.625Z"
       id="path25" />
    <path
       fill="#C66751"
       d="M627.684 471.241C633.786 471.368 641.864 469.516 645.876 472.575C647.132 474.97 646.526 477.101 646.205 479.899C640.322 479.809 630.962 482.117 627.107 477.642C626.746 474.795 627.039 473.98 627.684 471.241Z"
       id="path26" />
    <path
       fill="#775C47"
       d="M681.966 439.024C727.018 438.165 775.023 439.017 820.285 439.021L876.123 439.02C884.815 439.017 893.509 438.871 902.198 438.969C906.857 439.021 909.305 441.787 909.762 446.297C906.7 455.031 882.509 452.242 873.833 452.165C874.132 460.397 873.897 469.656 873.86 477.967C881.379 477.962 895.591 477.526 902.371 478.673C904.391 482.481 905.68 486.335 901.185 488.988C899.842 489.781 897.779 489.941 896.239 489.941C856.488 489.951 816.737 489.94 776.986 489.932L719.096 489.931C710.517 489.934 685.499 492.845 681.951 484.524C683.066 476.692 693.998 477.836 699.773 477.955L699.795 452.022C693.638 452.26 682.831 453.875 678.41 449.205C676.179 444.705 677.991 441.371 681.966 439.024ZM711.086 477.938L741.02 477.94C741.022 469.375 740.944 460.687 741.053 452.134L711.039 452.128L711.086 477.938ZM781.511 477.912C781.484 469.34 781.367 460.619 781.448 452.061L752.068 452.126L752.124 477.976L781.511 477.912ZM792.604 478.013L822.21 478.002L822.054 452.129L792.517 452.161L792.604 478.013ZM862.353 452.069L833.293 452.164C833.283 457.196 832.87 473.887 833.376 477.985L862.822 477.968C862.69 472.117 863.279 456.659 862.353 452.069Z"
       id="path61" />
  </g>
  <g
     id="g62">
    <path
       fill="#775C47"
       d="M721.734 139.696C737.905 137.334 754.063 142.044 767.952 149.973C806.812 172.16 829.827 212.301 840.583 254.684C842.587 262.582 844.269 270.675 846.423 278.589C860.477 285.142 917.516 304.891 912.811 330.934C910.13 345.779 883.767 347.393 870.549 347.397C843.252 347.406 816.013 338.996 789.433 331.754C744.972 318.742 701.132 311.922 654.463 314.243C641.662 314.88 597.504 325.408 588.279 312.934C576.454 296.947 615.173 282.719 625.168 275.71L625.819 275.246C636.917 229.457 649.199 178.454 694.579 155.408C701.234 143.566 709.275 142.417 721.734 139.696Z"
       id="path27" />
    <path
       fill="#C66751"
       d="M728.775 149.606C741.893 148.808 757.28 155.943 768.226 162.857C810.611 189.629 826.143 234.201 836.476 280.81C794.151 271.05 741.715 272.942 699.707 283.852C676.614 289.849 654.498 298.326 631.685 305.009C623.951 307.275 604.663 310.903 597.843 307.018L597.494 305.551C598.914 302.815 601.544 301.415 604.153 299.58C613.247 294.126 628.638 288.215 634.795 282.262C648.027 244.159 652.691 186.109 696.198 167.025C698.581 181.068 693.525 185.783 687.392 198.223C683.987 205.131 662.147 271.566 676.232 270.224C678.378 268.902 680.939 265.536 681.121 263.081C683.468 231.377 693.689 206.581 707.251 177.794C704.989 156.155 704.035 151.946 728.775 149.606Z"
       id="path28" />
    <path
       fill="#775C47"
       d="M728.486 162.809C764.267 168.017 797.801 212.071 805.767 245.56C807.59 253.22 811.593 261.499 804.46 267.389C798.534 263.614 798.633 256.478 796.78 249.714C789.023 221.399 772.408 195.475 746.973 180.063C740.352 176.05 733.984 174.206 727.146 170.852C725.135 169.843 724.88 168.837 724.448 167.049C725.479 164.533 726.091 164.402 728.486 162.809Z"
       id="path29" />
    <path
       fill="#C66751"
       d="M763.327 285.402C786.982 284.26 811.727 286.106 835.916 290.272C859.725 295.106 885.226 304.74 901.533 323.474C903.865 326.215 903.702 330.358 900.483 332.237C894.546 335.702 886.485 322.871 881.089 319.268C866.058 309.231 850.689 304.448 833.409 299.922C797.883 291.167 751.966 294.04 715.77 298.391C708.441 299.273 675.591 308.52 671.755 303.505C687.683 292.93 744.302 286.222 763.327 285.402Z"
       id="path30" />
  </g>
  <g
     id="g68">
    <path
       fill="#775C47"
       d="M736.577 699.116C742.179 699.569 759.193 708.583 765.989 710.862C772.246 713.309 778.324 714.525 784.774 716.526C801.109 721.593 817.784 721.915 834.341 724.352C835.953 724.589 838.161 726.848 838.688 728.531C841.038 736.038 839.777 744.579 839.894 752.358C839.23 782.269 838.406 814.476 826.47 842.442C809.399 882.441 780.846 906.887 741.494 923.215C739.742 923.466 737.397 923.43 735.731 922.813C704.55 911.052 676.096 887.439 659.599 858.42C638.678 822.058 638.297 779.345 638.036 738.618C638.012 734.795 638.507 726.535 642.847 725.456C654.421 722.577 666.361 721.575 678.367 719.353C700.136 715.325 716.459 708.4 736.577 699.116Z"
       id="path31" />
    <path
       fill="#E9B262"
       d="M736.292 712.655C737.594 712.396 766.007 723.689 769.907 724.893C789.136 730.828 808.224 734.016 828.185 736.073C828.043 767.64 828.889 802.9 817.651 832.723C803.331 870.723 777.122 894.333 741.21 911.134C738.738 911.871 734.941 910.005 732.554 908.916C702.793 895.334 678.22 872.812 664.656 842.816C649.34 808.946 649.282 772.401 649.467 735.965C683.518 731.292 703.996 727.642 736.292 712.655Z"
       id="path32" />
    <path
       fill="#775C47"
       d="M737.145 725.334C738.731 725.554 750.914 731.566 754.149 732.701C774.101 739.696 794.013 745.45 815.226 746.714C815.859 815.75 807.148 864.827 740.516 898.467C731.695 899.074 704.881 877.236 698.153 870.484C664.233 836.445 662.701 792.849 662.879 747.517C682.448 745.37 719.821 735.022 737.145 725.334Z"
       id="path33" />
    <path
       fill="#C66751"
       d="M736.702 737.397C740.592 737.713 761.369 745.767 767.28 747.497C781.001 751.512 791.426 753.382 805.482 755.756C806.154 812.874 794.009 859.152 740.579 888.04C737.077 889.917 733.006 885.574 730.07 883.706C715.684 874.551 704.186 864.541 694.29 850.416C674.617 822.336 672.978 789.128 672.539 755.823C693.484 752.981 717.031 745.021 736.702 737.397Z"
       id="path34" />
    <path
       fill="#775C47"
       d="M741.642 753.099C743.682 754.781 744.867 761.325 745.673 764.283C748.187 773.51 750.89 782.248 754.834 790.968C756.755 788.403 758.807 786.074 760.897 783.648C800.804 813.746 780.872 869.208 731.832 864.875C708.56 860.894 695.524 838.56 698.432 816.033C699.657 806.544 702.597 801.73 708.024 794.331C711.772 800.045 714.289 803.781 718.627 809.037C713.937 785.377 716.229 763.38 741.642 753.099Z"
       id="path35" />
    <path
       fill="#E9B262"
       d="M736.204 765.817C737.085 767.203 738.935 779.512 740.674 783.398C745.197 793.506 752.425 801.235 759.052 810.147C762.049 805.317 762.592 803.127 764.135 797.624C776.825 815.355 775.455 836.665 757.989 851.113C755.701 853.005 754.395 853.218 751.671 852.804C753.078 837.766 750.184 833.588 745.531 819.363C744.767 818.415 745.184 818.842 743.755 818.386C733.826 820.378 727.662 843.68 726.82 852.941C709.877 843.814 705.127 830.477 709.146 812.338C712.361 816.713 716.415 821.806 722.322 821.937C732.737 817.313 723.415 792.687 727.989 780.801C731.215 772.417 729.739 774.019 736.204 765.817Z"
       id="path36" />
  </g>
  <g
     id="g67">
    <path
       fill="#775C47"
       d="M328.56 711.497C417.495 714.95 444.849 828.054 365.996 868.561C359.897 871.694 351.897 873.937 345.333 876.005C353.715 876.173 363.23 876.306 371.543 875.002C390.573 872.017 405.379 861.264 416.517 845.955C420.297 840.76 417.505 841.435 416.607 834.842C415.545 827.561 417.304 818.719 421.872 812.805C429.304 803.389 448.56 807.448 448.967 820.401C449.213 828.244 445.497 837.795 440.284 843.66C436.754 847.629 434.853 847.43 429.913 847.578C428.684 848.578 422.244 858.634 420.178 861.355C405.983 876.25 399.096 880.753 379.755 886.635C382.416 902.33 379.518 913.211 360.856 913.775C341.6 914.091 322.29 913.944 303.028 913.904C295.778 913.889 287.479 914.461 281.9 909.22C274.422 902.352 275.179 887.047 282.323 880.331C288.828 874.215 303.5 875.846 312.075 875.97C299.764 871.023 291.424 870.126 280.066 861.33C217.78 813.101 246.768 716.33 328.56 711.497Z"
       id="path37" />
    <path
       fill="#C66751"
       d="M319.018 723.045C358.493 717.38 395.115 744.713 400.924 784.176C406.733 823.64 379.541 860.371 340.109 866.326C300.471 872.312 263.516 844.941 257.677 805.272C251.838 765.603 279.338 728.74 319.018 723.045Z"
       id="path38" />
    <path
       fill="#775C47"
       d="M324.997 770.054C338.541 767.494 351.625 776.305 354.349 789.821C357.073 803.336 348.424 816.53 334.945 819.419C326.08 821.319 316.877 818.303 310.854 811.524C304.831 804.746 302.917 795.251 305.844 786.667C308.772 778.083 316.088 771.737 324.997 770.054Z"
       id="path39" />
    <path
       fill="#E9B262"
       d="M325.431 780.298C333.459 778.016 341.81 782.708 344.037 790.753C346.265 798.798 341.519 807.12 333.461 809.294C325.479 811.449 317.254 806.755 315.047 798.785C312.84 790.816 317.478 782.558 325.431 780.298Z"
       id="path40" />
    <path
       fill="#E9B262"
       d="M291.824 886.98C313.048 886.392 334.726 887.406 355.886 886.774C370.364 886.342 376.56 896.647 365.289 902.482L316.885 902.525C311.59 902.534 289.939 904.358 287.549 898.987C285.611 894.631 286.637 889.146 291.824 886.98Z"
       id="path41" />
    <path
       fill="#E9B262"
       d="M432.051 817.231C435.756 817.378 436.429 817.475 438.202 820.612C438.714 825.923 435.375 831.061 432.929 835.906C430.99 836.493 431.602 836.316 429.36 835.744C425.595 831.666 429.534 821.317 432.051 817.231Z"
       id="path42" />
  </g>
  <g
     id="g64">
    <path
       fill="#775C47"
       d="M1094.11 406.721C1096.68 406.391 1102.59 406.532 1104 408.761C1109.31 417.554 1093.55 426.485 1089.26 431.814C1084.47 437.755 1078 441.698 1082.66 449.091C1086.81 455.661 1088.54 458.868 1087.99 466.568L1147.47 527.23C1164.63 509.305 1182.95 491.19 1200.35 473.324C1200.35 472.801 1200.34 472.277 1200.33 471.754L1200.36 470.976C1200.58 463.706 1205.87 458.487 1206.2 449.17C1206.67 436.441 1182.62 424.955 1189.2 416.488C1195.1 413.501 1201.6 416.686 1207.81 418.968C1238.22 429.649 1260.46 454.453 1284.11 474.357C1300.83 488.428 1249.22 533.83 1240.79 521.938C1237.63 517.491 1228.75 501.459 1223.79 495.013C1205.75 512.127 1186.84 531.892 1169.05 549.663C1193.33 572.231 1216.41 597.287 1239.78 620.851C1244.19 625.302 1244.21 626.539 1243.88 632.434C1240.24 639.905 1228.48 651.267 1220 644.454C1210.31 636.681 1200.72 626.139 1191.82 617.251L1145.82 572.104C1122.68 595.288 1100.73 619.739 1076.96 642.278C1064.49 654.105 1042.72 635.087 1052.65 622.252C1059.38 613.559 1069.4 604.296 1077.24 596.396L1124.19 549.412L1063.79 490.298C1055.72 499.559 1052.43 511.305 1048.03 522.449C1046.02 528.564 1041.98 531.888 1035.11 528.752C1018.36 521.15 1001.56 505.955 991.203 490.924C985.767 483.035 1012.79 465.532 1018.45 459.864C1041.8 436.477 1061.83 417.214 1094.11 406.721Z"
       id="path43" />
    <path
       fill="#C66751"
       d="M1084.1 420.135C1085.11 425.507 1073.34 430.564 1071.24 438.923C1068.71 448.947 1072.35 454.259 1076.83 462.83C1073.03 467.066 1066.53 472.854 1062.23 477.098C1048.89 490.257 1044.83 501.301 1037.87 517.878C1031.29 515.216 1025.83 511.115 1020.4 506.58C1015.72 503.679 1004.92 492.149 1001.6 487.353C1007.25 482.975 1012.82 478.386 1018.2 473.68C1039 455.508 1058.4 431.639 1084.1 420.135Z"
       id="path44" />
    <path
       fill="#C66751"
       d="M1211.22 434.093C1230.86 435.338 1253.24 463.07 1269.23 473.905C1271.73 475.601 1277.04 479.608 1277.54 482.575C1275.76 489.506 1267.31 496.984 1262.01 502.029C1256.64 506.755 1254.27 509.047 1248.3 513.223C1235.01 491.984 1230.68 483.468 1211.05 466.1C1217.96 451.122 1217.56 448.996 1211.22 434.093Z"
       id="path45" />
    <path
       fill="#E9B262"
       d="M1209.57 479.127C1211.84 480.854 1215.29 484.726 1217.39 486.947C1211.64 493.949 1195.82 508.806 1188.92 515.666L1129.02 574.995L1089.08 615.6C1083.8 620.949 1073.83 631.652 1068.26 635.673C1065.12 634.278 1061.94 632.49 1060.88 628.996C1061.54 625.362 1102.68 585.428 1109.27 578.857L1209.57 479.127Z"
       id="path46" />
    <path
       fill="#E9B262"
       d="M1161.65 557.206C1171.13 565.518 1181.79 577.1 1191.1 586.056C1203.82 598.725 1216.74 611.207 1229.22 624.109C1235.34 630.43 1233.78 631.16 1227.19 636.369C1221.8 633.335 1206.42 617.246 1201.15 612.009L1154.33 565.292L1161.65 557.206Z"
       id="path47" />
    <path
       fill="#E9B262"
       d="M1079.86 474.651C1082.79 476.762 1098.61 492.78 1102.03 496.319C1114.24 508.986 1127.77 521.386 1139.82 534L1131.87 541.88C1130.26 540.908 1119.53 530.107 1117.6 528.221C1102.23 513.215 1087.01 497.957 1072.06 482.536C1074.44 479.951 1077.34 477.167 1079.86 474.651Z"
       id="path48" />
  </g>
  <g
     id="g69"
     transform="translate(-11.313708,28.284271)">
    <path
       fill="#775c47"
       d="m 1182.44,686.491 c 3.83,-0.377 11.29,0.861 9.96,5.885 -3.71,14.025 -37.78,11.745 -46.15,19.251 l -0.06,1.746 c 3.48,4.678 21.26,3.499 29.33,6.446 6,2.196 37.61,16.868 16.11,24.91 -2.08,0.775 -8.15,-4.054 -10.57,-5.829 -10.18,-7.467 -22.51,-8.441 -35.01,-7.887 l -0.49,10.297 c 15.86,5.172 26.03,16.377 26.9,33.498 0.74,14.472 0.38,29.013 0.38,43.513 l 0.01,78.469 c -0.09,24.519 -3.25,27.643 -27.59,27.38 -8.92,-0.097 -18.59,-0.034 -27.57,-0.075 -9.67,0.067 -26.83,2.131 -30.89,-8.997 -3.13,-8.597 2.19,-40.277 -1.33,-47.733 l -3.86,-0.18 c -2.99,3.126 1.25,30.251 -1.6,35.322 -6.73,11.965 -17.44,2.061 -15.88,-9.512 1.44,-10.645 -2.5,-30.134 1.35,-39.828 -8.06,-32.668 -25.8,-91.976 -0.31,-121.663 11.91,-13.87 27.8,-14.617 44.85,-15.521 1.46,-4.265 3.43,-10.757 8.06,-12.24 20.98,-6.719 43.17,-11.378 64.36,-17.252 z m -101.16,169.525 3.13,-0.29 c 1.77,-3.233 0.85,-11.287 0.84,-15.727 v -42.032 c 0,-27.473 -1.85,-41.635 25.11,-56.76 -0.08,-3.11 0.23,-6.578 -1.56,-9.008 -3.12,-2.508 -7.82,-1.582 -11.97,-1.343 -38.66,6.29 -32.51,46.66 -28.1,75.776 1.46,9.586 7.44,42.839 12.55,49.384 z"
       id="path49" />
    <path
       fill="#e9b262"
       d="m 1096.98,797.47 64.86,0.044 c 0.06,18.503 0.3,37.325 -0.16,55.796 -21.31,-0.351 -43.53,-0.071 -64.91,-0.087 z"
       id="path50" />
    <path
       fill="#c66751"
       d="m 1097.06,863.424 64.76,-0.092 c -0.06,8.725 1.13,42.568 -1.04,48.269 -7.5,2.977 -25.21,0.814 -33.98,1.21 -4.92,0.223 -25.18,1.287 -28.4,-1.485 -2.52,-7.133 -1.46,-38.371 -1.34,-47.902 z"
       id="path51" />
    <path
       fill="#c66751"
       d="m 1121.08,748.065 c 30.02,-1.309 40.83,8.968 40.85,38.871 l -25.12,0.017 -40.36,0.027 c -0.19,-19.159 3.86,-33.657 24.63,-38.915 z"
       id="path52" />
    <path
       fill="#c66751"
       d="m 1127.95,712.622 c 12.17,1.986 11.06,15.376 2.23,19.959 -13.11,-1.119 -15.83,-15.63 -2.23,-19.959 z"
       id="path53" />
  </g>
  <g
     id="g63"
     style="filter:url(#filter104)">
    <path
       fill="#A07044"
       d="M1138.06 140.875C1139.06 140.876 1142.51 141.033 1143.3 141.4C1170.27 154.073 1183.51 186.164 1182.88 214.732C1182.72 221.836 1181.2 234.173 1183.94 239.102C1192.83 236.787 1192.67 209.099 1199.79 205.022C1202.18 204.972 1203.83 205.132 1205.84 207.2C1251.23 253.852 1245.73 346.827 1172.83 362.025C1170.74 362.46 1169.12 361.727 1167.53 360.315C1166.98 354.714 1174.4 349.009 1178.35 345.677C1187.51 337.962 1189.43 327.912 1190.14 316.527C1186.15 320.625 1176.72 332.081 1170.79 331.471C1166.05 326.904 1168.37 314.094 1164.48 305.26C1159.96 294.971 1154.57 290.636 1148.82 281.242C1146.87 277.02 1145.83 273.592 1144.43 269.197C1140.84 276.465 1138.37 283.646 1138.33 291.887C1138.3 298.797 1143.34 307.75 1140.5 313.96C1130.87 323.071 1120.4 302.826 1114.86 302.994C1108.89 310.153 1114.85 333.003 1120.63 340.141C1124.02 344.33 1132.35 353.958 1129.77 359.001C1121.8 365.083 1097.25 352.147 1090.57 347.287C1050.53 318.168 1050.67 266.806 1077.95 229.117C1081.9 223.665 1086.8 210.349 1093.79 209.082C1102.36 213.561 1102.78 236.16 1108.13 239.961C1112.47 231.237 1107.78 219.201 1112.7 206.388C1119.2 189.429 1130.52 181.41 1135.82 164.276C1138.64 155.124 1133.33 148.285 1138.06 140.875Z"
       id="path54" />
    <path
       fill="#E9B262"
       d="M1147.63 157.261C1164.38 166.928 1172.8 194.605 1173.49 213.35C1173.81 222.08 1167.03 262.849 1188.9 250.132C1197.82 244.948 1202.13 230.861 1204.46 221.163C1229.89 254.545 1234.36 306.65 1202.1 336.558C1199.23 339.217 1196.35 341.515 1193.25 343.872C1197.76 332.068 1203.76 315.47 1193.66 304.556C1191.8 302.537 1191.06 301.819 1188.41 301.689C1185.28 303.968 1182.78 309.657 1178.51 313.579L1177.9 314.138C1172.1 294.573 1163.47 287.018 1154.86 269.569C1152.23 264.262 1154.97 245.711 1153.11 242.558L1151.26 242.169C1148.25 243.19 1147.38 244.327 1145.17 246.51C1130.97 265.393 1128.38 279.176 1128.8 302.008C1125.56 297.532 1121.73 287.499 1119.03 285.968C1116.48 286.471 1114.68 288.095 1112.92 289.939C1095.75 307.987 1103.78 328.939 1112.9 347.681C1091 340.375 1075.31 320.388 1070.35 298.204C1063.85 269.052 1077.74 247.809 1092.54 224.875C1093.76 234.937 1098.3 258.934 1115.17 251.687C1120.92 249.216 1121.67 234.867 1120.86 229.476C1117.65 208.257 1127.94 199.365 1139.21 183.198C1143.58 176.882 1145.88 165.556 1147.63 157.261Z"
       id="path55" />
  </g>
  <g
     id="g66">
    <path
       fill="#775C47"
       d="M369.432 473.518C380.041 472.673 380.157 477.683 382.706 486.165C392.468 483.829 432.075 473.776 438.688 477.59C442.243 481.929 446.578 501.902 447.857 508.164C448.314 510.401 448.933 513.718 447.523 515.661C443.416 521.325 402.42 528.664 393.738 530.382C394.584 534.489 395.304 538.308 392.712 542.035C389.491 546.669 380.401 549.61 375.128 548.02C371.613 546.961 368.694 544.199 365.015 543.556C356.952 542.145 287.165 562.625 271.706 565.384C259.967 567.479 254.368 565.343 244.805 558.689C234.883 569.093 232.99 587.088 243.4 597.376C267.557 621.254 309.812 601.721 338.253 597.176C350.08 595.287 356.261 594.312 368.478 594.949C382.367 596.814 412.376 606.742 406.647 626.681C401.723 643.815 378.008 626.826 368.128 625.842C365.76 625.606 362.684 624.715 360.165 624.804C322.005 627.116 286.99 647.159 248.388 634.287C209.162 621.207 196.271 572.998 222.728 541.561C226.702 536.838 231.447 534.642 237.032 532.063C238.792 522.949 242.036 512.823 251.828 509.887C277.751 502.117 305.042 498.007 331.365 491.625C339.021 489.769 347.448 487.618 355.124 486.586C358.183 476.011 358.589 475.467 369.432 473.518Z"
       id="path56" />
    <path
       fill="#E9B262"
       d="M355.44 497.612L357.302 497.516C359.464 499.867 364.55 525.843 365.797 531.143C344.545 537.737 320.281 541.267 298.669 547.689C290.206 550.203 267.448 556.424 259.379 555.132C244.617 549.274 244.939 530.338 254.802 519.693C262.68 517.045 280.932 513.687 290.074 511.73L355.44 497.612Z"
       id="path57" />
    <path
       fill="#E9B262"
       d="M236.126 543.668C237.253 544.537 239.602 547.791 238.798 549.126C231.14 561.848 224.852 567.127 227.164 583.351C228.65 593.779 231.961 601.875 240.604 608.713C273.526 632.745 314.969 609.643 350.413 605.942C364.08 604.486 380.279 605.278 391.361 614.155C394.109 616.356 396.485 618.42 396.853 621.96C395.947 624.958 396.655 623.899 394.073 625.894C388.414 622.688 380.83 616.882 374.545 615.651C327.232 606.383 265.985 654.376 227.682 606.465C213.236 588.395 216.309 557.891 236.126 543.668Z"
       id="path58" />
    <path
       fill="#E9B262"
       d="M426.158 487.894C427.538 487.56 427.688 487.748 429.106 488.08C431.852 491.812 435.18 504.842 436.551 509.708C423.626 512.822 410.26 515.647 397.257 518.543C395.568 518.869 393.867 519.142 392.17 519.427C390.035 517.849 386.425 500.014 385.561 496.255C398.722 493.272 412.9 490.397 426.158 487.894Z"
       id="path59" />
    <path
       fill="#E9B262"
       d="M366.574 484.558L370.926 484.628C372.685 485.696 373.105 486.204 373.681 488.838C376.905 503.579 381.162 518.457 383.615 533.306C383.966 535.433 383.17 536.259 382.227 537.972C380.076 538.425 379.942 538.514 377.842 538.063C375.734 534.491 365.686 487.365 366.574 484.558Z"
       id="path60" />
  </g>
</svg>
