<?xml version="1.0" encoding="UTF-8" standalone="no"?>
<svg
   id="Layer_1"
   data-name="Layer 1"
   viewBox="0 0 1024 524.42088"
   version="1.1"
   sodipodi:docname="front-trees.vg.svg"
   xml:space="preserve"
   width="1024"
   height="524.4209"
   inkscape:version="1.3 (0e150ed6c4, 2023-07-21)"
   xmlns:inkscape="http://www.inkscape.org/namespaces/inkscape"
   xmlns:sodipodi="http://sodipodi.sourceforge.net/DTD/sodipodi-0.dtd"
   xmlns="http://www.w3.org/2000/svg"
   xmlns:svg="http://www.w3.org/2000/svg"><sodipodi:namedview
     id="namedview19"
     pagecolor="#ffffff"
     bordercolor="#000000"
     borderopacity="0.25"
     inkscape:showpageshadow="2"
     inkscape:pageopacity="0.0"
     inkscape:pagecheckerboard="0"
     inkscape:deskcolor="#d1d1d1"
     inkscape:zoom="0.8588764"
     inkscape:cx="508.80429"
     inkscape:cy="284.67426"
     inkscape:window-width="1920"
     inkscape:window-height="1009"
     inkscape:window-x="1912"
     inkscape:window-y="-8"
     inkscape:window-maximized="1"
     inkscape:current-layer="Layer_1" /><defs
     id="defs5"><style
       id="style1">&#10;      .cls-1 {&#10;        fill: none;&#10;      }&#10;&#10;      .cls-2 {&#10;        fill: url(#linear-gradient);&#10;      }&#10;&#10;      .cls-3 {&#10;        fill: #fff;&#10;      }&#10;&#10;      .cls-4 {&#10;        fill: #1d3c4a;&#10;      }&#10;&#10;      .cls-5 {&#10;        fill: url(#linear-gradient-2);&#10;      }&#10;    </style><linearGradient
       id="linear-gradient"
       x1="161.74001"
       y1="241.39999"
       x2="153.33"
       y2="436.39001"
       gradientUnits="userSpaceOnUse"
       gradientTransform="translate(-65.24,-97.899083)"><stop
         offset=".06"
         stop-color="#1c3c4b"
         id="stop1" /><stop
         offset=".8"
         stop-color="#2e4853"
         id="stop2" /></linearGradient><linearGradient
       id="linear-gradient-2"
       x1="649.03998"
       y1="109.16"
       x2="579.91998"
       y2="522.63"
       gradientUnits="userSpaceOnUse"
       gradientTransform="translate(-65.24,-97.899083)"><stop
         offset=".38"
         stop-color="#1c3c4b"
         id="stop3" /><stop
         offset=".57"
         stop-color="#2e4853"
         id="stop4" /><stop
         offset=".65"
         stop-color="#2e4853"
         id="stop5" /></linearGradient></defs><path
     class="cls-4"
     d="m 1024,481.00092 v 43.42 c -17.08,-0.53 -34.09,-2.76 -50.83,-6.12 -20.25,-4.08 -40.09,-9.94 -59.57,-16.75 -40.61,-14.2 -79.27,-33.19 -119.76,-47.64 -68.78,-24.56 -140.13,-38.53 -213.02,-42.76 -68.66,-3.99 -137.63,0.68 -205.79,9.24 -80.31,11.21 -142.6,32.87 -142.6,32.87 -41.74,13.73 -78.54,26.52 -78.54,26.52 -76.2,27.64 -153.89,39.41 -153.89,39.41 v -49.49 c 0,-0.89 0.53,-1.89 1.18,-2.45 1.08,-0.94 2.85,-0.96 3.74,-2.07 1.64,-2.02 0.68,-4.83 0.72,-7.17 0.03,-1.65 0.73,-3.11 1.7,-4.41 1.17,-1.57 2.52,-2.06 2.14,-4.16 -0.58,-3.22 3.69,-4.45 2.5,-7.8 -0.28,-0.78 -0.84,-1.87 -0.51,-2.71 0.39,-1.02 1.71,-0.98 1.86,-2.16 0.22,-1.77 -0.75,-3.52 -0.34,-5.27 0.42,-1.8 2.18,-2.62 3.26,-4.02 1.45,-1.88 0.92,-4.38 1.15,-6.6 0.28,-2.78 0.57,-5.56 0.85,-8.34 0.05,-0.49 0.16,-1.07 0.61,-1.25 0.53,-0.23 1.08,0.26 1.41,0.74 1.12,1.62 1.66,3.57 2.12,5.49 0.24,1.01 0.48,2.12 0.69,3.18 0.18,0.9 0.1,1.81 0.33,2.71 0.05,0.23 0.12,0.47 0.29,0.63 0.57,0.54 1.86,-0.29 1.96,1.03 0.03,0.42 -0.22,0.81 -0.51,1.13 -0.28,0.31 -0.62,0.58 -0.83,0.95 -1.07,1.79 1.38,3.09 1.63,4.66 0.11,0.65 0.05,2.22 0.84,2.49 1.25,0.41 2.09,-0.98 2.6,-1.88 0.32,-0.57 0.57,-1.18 0.91,-1.72 0.51,-0.8 1.5,-0.9 2.16,-1.51 1.71,-1.58 1.43,-4.96 1.94,-7.08 0.48,-1.98 1.12,-3.92 1.77,-5.85 0.31,-0.91 0.53,-1.85 0.99,-2.71 0.85,-1.6 1.67,-0.67 2.13,0.76 0.76,2.34 1.12,4.85 1.66,7.25 1.24,5.43 2.52,10.86 3.84,16.28 0.65,2.7 1.32,5.41 1.98,8.12 0.51,2.05 0.9,4.75 2.53,6.27 1.6,1.5 4.27,0.75 5.25,-1.1 1.07,-2 -0.17,-4.08 -1.36,-5.7 -0.81,-1.1 -3.88,-3.95 -2.99,-5.49 0.63,-1.11 3.16,-1.15 4.25,-1.81 1.51,-0.92 1.61,-2.39 1.01,-3.96 -0.57,-1.5 -2.64,-5.14 -0.75,-6.39 1.18,-0.78 2.85,-0.38 3.94,-1.29 1.65,-1.38 0.7,-4.22 0.59,-6 -0.08,-1.16 0.03,-2.33 0.78,-3.27 0.82,-1.04 2.05,-1.52 1.86,-3.08 -0.12,-0.92 -0.56,-1.76 -0.8,-2.65 -0.23,-0.9 -0.19,-1.97 0.5,-2.59 0.9,-0.81 2.31,-0.61 3.21,-1.49 0.71,-0.68 1.08,-1.63 1.26,-2.57 0.38,-1.93 0.08,-4.15 -0.73,-5.93 0,-0.84 -0.09,-1.73 0,-2.56 0.24,-2.03 1.92,-3.28 3.16,-4.73 1.22,-1.42 2.35,-3.01 3.15,-4.71 0.77,-1.63 0.64,-3.41 1.19,-5.09 0.16,-0.49 0.4,-0.98 0.81,-1.28 0.42,-0.3 1.05,-0.35 1.43,0 0.22,0.2 0.32,0.49 0.42,0.78 0.62,1.8 1.23,3.6 1.84,5.4 0.31,0.89 0.43,1.87 0.8,2.72 0.42,0.98 1.14,1.86 1.66,2.78 0.82,1.44 0.94,3.26 1.79,4.72 0.74,1.27 3.57,2.24 3.38,3.85 -0.29,2.36 -4.77,2.78 -1.44,5.27 0.69,0.51 1.38,1.03 2.08,1.55 0.63,0.47 1.32,1.03 1.4,1.82 0.07,0.67 -0.34,1.3 -0.82,1.77 -0.71,0.7 -2.15,1.17 -1.84,2.37 0.34,1.27 2.39,1.3 3.27,1.97 0.64,0.49 0.97,1.34 0.95,2.15 -0.02,1.37 -1.13,2.1 -1.7,3.25 -1.18,2.37 3.67,2.3 3.82,4.57 0.13,1.91 -1.83,1.89 -2.75,3.07 -1.48,1.89 -0.47,3.84 1.37,4.96 1.65,1 4.69,1.09 6.45,0.39 1.73,-0.68 1.46,-1.82 1.08,-3.31 -0.25,-0.96 -0.4,-1.88 -0.01,-2.81 0.36,-0.9 1.6,-1.58 1.53,-2.62 -0.08,-1.29 -1.31,-2.59 -0.96,-3.91 0.43,-1.63 2.24,-1.3 3.22,-2.28 1.34,-1.35 0.18,-3.97 -0.23,-5.47 -0.65,-2.37 0.5,-4.27 1.22,-6.52 1.04,-3.25 1.04,-6.71 1.99,-9.96 0.78,-2.66 1.69,-5.3 2.23,-8.02 0.21,-1.03 1.01,-6.42 2.74,-3.26 1.31,2.41 1.06,5.35 2.22,7.84 1.37,2.97 3.44,5.57 4.73,8.59 1.54,3.62 2.94,7.36 4.42,11.03 0.69,1.72 1.23,3.56 1.32,5.43 0.07,1.59 -1.41,3.89 -0.15,5.25 0.42,0.44 0.97,0.76 1.35,1.23 1.35,1.67 0.28,3.86 0.4,5.75 0.16,2.39 2.27,3.85 4.48,2.36 2.97,-2.02 0.57,-6.08 2.17,-8.69 0.73,-1.19 2.14,-1.96 2.9,-3.17 0.75,-1.17 0.19,-2.87 1.03,-3.98 1.09,-1.44 3.18,-0.59 4.32,0.42 1.36,1.21 2.22,3.11 2.06,4.93 -0.18,1.95 -0.85,3.89 -0.36,5.84 0.52,2.05 1.9,3.76 2.1,5.92 0.16,1.66 -0.36,3.47 0.34,4.96 0.5,-0.34 1.47,0.99 1.51,1.69 0.04,0.73 -0.11,1.63 0.47,2.08 0.25,0.19 0.57,0.24 0.87,0.33 1.56,0.42 2.81,1.82 3.06,3.42 0.94,0.07 1.74,-0.75 2.04,-1.64 0.3,-0.89 0.24,-1.85 0.34,-2.79 0.28,-2.69 1.93,-5.21 4.29,-6.54 1.05,-0.59 2.32,-1.04 2.86,-2.12 1.21,-2.42 -2.31,-5.39 -0.99,-7.76 0.29,-0.53 0.79,-0.92 1.2,-1.37 1.11,-1.26 1.44,-3.01 1.72,-4.67 0.78,-4.52 1.56,-9.07 1.67,-13.66 0.01,-0.39 0.04,-0.82 0.34,-1.07 0.47,-0.4 1.18,-0.01 1.62,0.41 2.31,2.24 3.15,5.55 4.68,8.38 1.36,2.52 3.3,4.69 4.81,7.13 1.68,2.72 2.8,5.75 3.91,8.75 1.21,-0.14 2.39,-0.49 3.48,-1.02 -1.56,-2.15 -2.99,-5.19 -1.67,-7.5 0.66,-1.15 1.99,-1.96 2.19,-3.28 0.21,-1.4 -0.99,-2.66 -0.98,-4.07 0.01,-1.71 1.67,-2.87 3.07,-3.85 1.4,-0.99 2.84,-2.6 2.22,-4.2 -0.36,-0.91 -1.33,-1.51 -1.58,-2.46 -0.42,-1.62 1.43,-2.89 1.95,-4.48 0.66,-2.04 -0.96,-4.15 -0.81,-6.29 0.14,-1.97 1.76,-3.56 2.11,-5.5 0.2,-1.14 -0.04,-2.31 0.01,-3.47 0.06,-1.09 0.39,-2.15 0.71,-3.2 0.7,-2.26 1.4,-4.51 2.11,-6.77 0.23,-0.77 0.48,-1.55 1.01,-2.16 0.52,-0.6 1.39,-0.98 2.14,-0.69 1.13,0.44 1.25,1.95 1.29,3.16 0.1,3.04 0.8,6.06 2.07,8.83 1.36,2.99 3.43,6.2 2.34,9.31 -0.24,0.68 -0.63,1.31 -0.74,2.02 -0.22,1.36 0.59,2.65 1.22,3.88 1.47,2.85 2.11,6.13 1.82,9.33 -0.05,0.56 -0.11,1.19 0.25,1.63 0.34,0.42 0.92,0.5 1.44,0.64 1.96,0.51 3.56,2.22 3.94,4.21 0.2,1.05 0.11,2.22 1.13,2.93 0.88,0.61 2.07,0.51 2.94,-0.1 1.46,-1.02 1.82,-2.87 1.83,-4.58 0.01,-1.51 -0.21,-3.03 0.1,-4.51 0.23,-1.06 0.71,-2.05 0.96,-3.1 0.28,-1.14 0.28,-2.33 0.31,-3.51 0.11,-4.69 0.7,-9.37 1.75,-13.94 0.14,-0.62 0.43,-1.36 1.06,-1.42 0.57,-0.05 0.99,0.52 1.26,1.03 1.12,2.18 1.76,4.57 2.77,6.8 1.01,2.24 2.5,4.4 4.72,5.43 0.83,-0.46 0.84,-1.68 0.44,-2.54 -0.39,-0.86 -1.07,-1.6 -1.28,-2.53 -0.37,-1.68 0.88,-3.22 1.74,-4.72 2.14,-3.74 2,-8.31 1.79,-12.62 5.49,-6.06 0.65,-17.33 6.05,-23.46 1.82,2.01 3.63,4.02 5.45,6.03 1.34,1.49 2.73,3.05 3.27,4.99 0.5,1.78 0.23,3.71 1.15,5.41 0.39,0.72 1.02,1.32 1.81,1.53 2.36,0.64 3.9,-2.22 4.05,-4.55 0.17,-2.71 -0.27,-5.91 2.7,-7.26 0.68,-0.31 1.3,-0.79 1.74,-1.4 1.26,-1.74 -0.28,-2.57 -0.6,-3.83 -0.39,-1.48 0.99,-2.76 1.86,-4.02 3.04,-4.36 0.44,-10.71 2.77,-15.48 2.01,1.15 2.25,3.89 2.35,6.2 0.09,2.31 0.62,5.09 2.79,5.9 0.37,0.13 0.77,0.2 1.07,0.45 1.11,0.91 -0.24,2.59 -1.47,3.32 0.42,1.43 3.03,0.85 3.68,2.19 0.59,1.22 -1.02,2.29 -2.31,2.69 0.97,1.56 2.75,2.58 4.59,2.65 -0.17,1.51 -0.96,2.94 -2.15,3.9 1.26,0.3 2.57,0.63 3.53,1.49 0.97,0.86 1.43,2.44 0.66,3.47 -0.52,0.69 -1.44,0.97 -2.3,0.89 -0.37,0.54 0.2,1.23 0.78,1.53 0.58,0.29 1.3,0.55 1.46,1.18 0.15,0.57 -0.27,1.12 -0.51,1.66 -0.72,1.65 0.57,3.84 2.36,4 1.54,-1.3 3.71,-1.47 5.62,-2.1 1.92,-0.63 3.9,-2.27 3.54,-4.25 -0.99,0.43 -2.17,-0.55 -2.2,-1.62 -0.02,-1.07 0.82,-2.01 1.81,-2.43 0.99,-0.42 2.09,-0.42 3.16,-0.4 -0.99,-1.43 -2.34,-2.66 -2.94,-4.29 -0.6,-1.64 -0.01,-3.92 1.7,-4.27 -1.05,-0.06 -1.88,-1.25 -1.56,-2.25 0.32,-1.01 1.68,-1.51 2.57,-0.94 1.12,-1.49 -1.19,-3.43 -0.94,-5.28 0.07,-0.59 0.41,-1.1 0.7,-1.61 1.14,-1.95 1.79,-4.15 2.44,-6.31 1.21,-4.05 2.42,-8.1 3.62,-12.15 1.69,0.58 2.03,2.8 1.9,4.58 -0.12,1.77 -0.28,3.87 1.08,5.02 0.67,0.56 1.61,0.78 2.16,1.46 1.04,1.28 0.08,3.16 -0.89,4.5 1.35,0.9 2.87,2.53 1.97,3.88 -0.49,0.75 -1.63,1.09 -1.73,1.99 -0.1,0.94 1.01,1.46 1.78,2.01 1.95,1.38 2.14,4.63 0.37,6.23 1.31,-0.15 2.66,-0.3 3.87,0.34 0.68,0.36 1.22,1.01 1.32,1.78 0.22,1.67 -1.51,2.72 -2.95,3.49 -1.39,0.75 -2.92,2.12 -2.39,3.61 0.73,2.02 4.53,1.74 4.81,3.87 0.17,1.28 -1.15,2.18 -1.82,3.27 -1.45,2.33 0.12,5.29 1.66,7.55 0.84,1.24 1.8,2.58 3.66,2.35 1.32,-0.16 2.39,-1.13 2.91,-2.36 1.24,-2.93 -0.06,-5.92 0.16,-8.89 0.25,-3.5 2.53,-6.48 3.63,-9.81 0.78,-2.35 0.97,-4.86 1.82,-7.19 0.92,-2.53 2.6,-4.78 3.2,-7.41 0.49,-2.18 0.21,-4.44 -0.08,-6.66 2.09,0.72 2.93,3.18 3.4,5.33 0.78,3.57 1.32,7.19 1.6,10.83 0.2,2.46 0.33,5.08 1.75,7.1 0.52,0.74 1.23,1.44 1.27,2.34 0.04,0.82 -0.49,1.59 -0.43,2.41 0.07,1.07 1.07,1.81 2.02,2.32 2.48,1.32 6.13,1.86 7.63,-0.51 2.28,-3.6 -3.36,-8.83 -0.72,-12.17 0.8,-1.02 2.13,-1.42 3.22,-2.12 l -2.98,-3.85 c 1.52,0.1 3.06,-0.79 3.72,-2.17 -1,-0.59 -1.37,-1.92 -1.18,-3.06 0.2,-1.15 0.84,-2.17 1.47,-3.15 0.56,-0.86 1.49,-1.95 1.96,-2.87 0.51,-1 1.02,-2 1.52,-3 0.5,-0.98 1,-1.96 1.4,-2.98 0.8,-2.05 1.18,-4.23 1.92,-6.3 0.19,-0.53 0.29,-1 0.64,-1.44 0.35,-0.44 1.08,-0.62 1.47,-0.22 0.14,0.14 0.22,0.33 0.29,0.52 1.13,2.82 2.26,5.65 3.39,8.48 0.19,0.47 0.39,0.96 0.76,1.3 0.62,0.56 1.69,0.74 1.86,1.56 0.24,1.13 -1.5,1.59 -2.01,2.63 -0.37,0.75 0,1.66 0.57,2.27 0.57,0.6 1.31,1.01 1.93,1.57 1.27,1.16 1.88,2.99 1.57,4.69 -0.18,0.95 -0.62,1.83 -0.95,2.75 -0.37,1.04 -0.6,2.18 -0.31,3.24 0.28,1.07 1.17,2.03 2.27,2.11 1.02,0.08 2.1,-0.56 3.02,-0.11 0.9,0.45 1.04,1.71 0.73,2.66 -0.32,0.95 -0.95,1.77 -1.22,2.74 1.12,-0.16 2.26,0.87 2.2,2.01 -0.04,0.81 -0.59,1.58 0.38,2.5 0.63,0.6 1.54,0.87 2.35,0.52 1.14,-0.49 1.75,-1.87 1.59,-3.11 -0.08,-0.58 -0.3,-1.13 -0.32,-1.72 -0.07,-1.99 2.09,-3.63 1.82,-5.61 -0.13,-0.91 -0.75,-1.65 -1.31,-2.38 -1.46,-1.89 -2.65,-4.44 -1.63,-6.59 0.68,-1.43 2.33,-2.34 3.91,-2.13 0.66,0.08 1.31,0.35 1.98,0.32 0.67,-0.02 1.41,-0.48 1.4,-1.15 0,-0.28 -0.14,-0.54 -0.28,-0.79 -0.93,-1.59 -2.28,-2.98 -2.46,-4.88 -0.14,-1.41 0.81,-2.67 2.18,-3.06 1.03,-0.3 1.75,-1.59 1.56,-2.66 -0.13,-0.75 -0.6,-1.38 -0.91,-2.07 -0.32,-0.69 -0.47,-1.56 0,-2.16 0.4,-0.5 1.12,-0.65 1.51,-1.14 0.46,-0.57 0.36,-1.37 0.36,-2.09 0.01,-1.05 0.27,-2.09 0.53,-3.11 0.39,-1.54 0.78,-3.09 1.17,-4.63 1.75,2.69 2.97,5.72 3.55,8.87 0.09,0.47 0.17,0.96 0.4,1.38 0.27,0.52 0.75,0.91 1.02,1.43 0.8,1.54 -0.49,3.52 0.2,5.12 0.25,0.57 0.73,1.01 1.08,1.53 0.79,1.15 0.91,2.72 0.31,3.98 -0.32,0.65 -0.82,1.35 -0.56,2.02 0.1,0.25 0.3,0.45 0.49,0.64 0.89,0.89 1.87,1.82 3.12,1.96 -0.34,1.28 -0.69,2.55 -1.05,3.82 -0.21,0.75 0.82,1.51 1.6,1.56 0.77,0.05 1.65,-0.05 2.2,0.5 0.44,0.45 0.45,1.16 0.43,1.8 -0.06,2.3 -0.13,4.59 -0.19,6.89 -0.02,0.37 -0.02,0.76 0.11,1.11 0.33,0.84 1.4,1.17 2.29,1.03 1.36,-0.21 2.49,-1.21 3.19,-2.39 0.9,-1.51 1.21,-3.3 1.66,-4.97 0.52,-2.08 1.03,-4.15 1.55,-6.23 0.23,-0.99 0.54,-2 0.57,-3.03 0.04,-1.31 -0.38,-2.67 0.06,-3.9 0.51,-1.4 1.99,-2.25 2.48,-3.65 0.24,-0.71 0.2,-1.48 0.17,-2.23 -0.16,-3.63 0.04,-7.29 0.57,-10.89 0.17,-1.1 0.4,-2.27 1.21,-3.03 2.54,1.68 2.45,5.36 3.65,8.15 1.01,2.37 3.12,4.54 2.7,7.08 -0.23,1.36 -1.17,2.72 -0.65,3.99 0.66,1.58 3.21,1.84 3.58,3.52 0.38,1.68 -1.86,3.32 -1.13,4.88 0.38,0.83 1.42,1.11 2.34,1.14 1.9,0.05 3.81,-0.63 5.27,-1.86 0.15,-0.13 0.31,-0.28 0.38,-0.47 0.26,-0.68 -0.61,-1.19 -1.21,-1.61 -0.93,-0.64 -1.48,-1.8 -1.39,-2.92 0.09,-1.13 0.82,-2.19 1.84,-2.67 0.22,-0.11 0.48,-0.21 0.61,-0.43 0.1,-0.17 0.09,-0.4 0.06,-0.6 -0.26,-1.68 -1.61,-3.44 -0.73,-4.9 0.53,-0.86 1.65,-1.15 2.66,-1.22 1.01,-0.06 2.07,0.02 2.99,-0.41 -1,-1.18 -1.73,-2.6 -2.1,-4.11 -0.18,-0.72 -0.28,-1.46 -0.55,-2.15 -0.28,-0.73 -0.75,-1.39 -1.02,-2.13 -0.28,-0.74 -0.33,-1.64 0.17,-2.26 0.27,-0.32 0.65,-0.52 0.96,-0.79 0.79,-0.71 1.05,-1.85 1.04,-2.9 -0.02,-1.06 -0.26,-2.11 -0.29,-3.17 -0.07,-2.06 0.73,-4.13 2.14,-5.63 -0.17,-5.28 1.44,-10.92 3.24,-15.9 1.49,0.03 2.49,1.64 2.65,3.13 0.17,1.49 -0.19,3 0.01,4.48 0.3,2.17 1.78,4.05 1.97,6.23 0.1,1.15 -0.17,2.31 0.04,3.44 0.27,1.47 1.3,2.65 2.01,3.96 1.67,3.1 1.48,7.11 -0.48,10.03 1.58,0.82 3.37,1.21 5.15,1.13 1.11,-0.04 2.45,-0.17 3.08,0.74 0.44,0.65 0.28,1.51 0.07,2.26 -0.66,2.34 -1.66,4.59 -2.97,6.64 -0.3,0.48 -1.08,0.93 -1.31,0.41 0.19,1.14 1.47,1.92 2.63,1.89 1.15,-0.02 2.29,-0.42 3.44,-0.32 0.29,0.03 0.59,0.1 0.82,0.29 0.49,0.42 0.38,1.2 0.19,1.81 -0.38,1.24 -0.94,2.43 -1.65,3.52 -0.69,1.06 -1.57,2.31 -1.05,3.47 0.36,0.8 1.3,1.2 2.18,1.25 0.88,0.05 1.74,-0.17 2.62,-0.24 0.72,-0.05 1.59,0.08 1.91,0.73 0.3,0.62 -0.07,1.36 -0.5,1.91 -0.82,1.07 -1.86,1.96 -2.67,3.04 -0.8,1.08 -1.38,2.45 -1.09,3.77 0.25,1.09 1.07,1.98 1.97,2.65 1.73,1.28 3.89,1.97 6.04,1.93 0.57,-0.54 -0.25,-1.37 -0.61,-2.07 -0.47,-0.91 -0.05,-2.05 0.65,-2.8 0.69,-0.75 1.62,-1.24 2.41,-1.89 1.52,-1.25 2.52,-3.13 2.7,-5.1 0.14,-1.43 -0.14,-2.88 0.02,-4.31 0.15,-1.29 0.66,-2.51 1.1,-3.74 1.24,-3.46 1.95,-7.11 2.11,-10.79 0.02,-0.55 0.17,-1.27 0.72,-1.34 1.79,1.05 2.13,3.45 2.32,5.52 0.45,4.87 1.14,9.72 2.09,14.51 0.15,0.77 0.34,1.6 0.93,2.12 0.7,0.62 1.74,0.61 2.66,0.8 0.92,0.2 1.93,0.91 1.75,1.83 -0.13,0.66 -0.79,1.04 -1.39,1.33 -0.91,0.46 -1.83,0.91 -2.74,1.37 1.01,0.9 2.31,1.46 3.66,1.58 0.89,0.07 1.97,0.04 2.46,0.8 0.21,0.33 0.25,0.74 0.28,1.13 0.09,1.21 0.18,2.42 0.28,3.63 1.14,0.87 2.98,0.37 3.7,-0.87 0.73,-1.23 0.4,-2.92 -0.59,-3.95 -0.63,-0.66 -1.56,-1.56 -0.99,-2.26 0.36,-0.45 1.14,-0.41 1.41,-0.92 0.3,-0.58 -0.35,-1.19 -0.45,-1.83 -0.13,-0.85 0.7,-1.51 1.16,-2.24 0.42,-0.68 0.55,-1.49 0.77,-2.27 0.5,-1.79 1.56,-3.43 2.99,-4.62 -0.4,-1.89 1.54,-3.98 2.32,-5.74 0.37,-0.85 0.53,-1.78 0.69,-2.7 0.39,-2.33 0.79,-4.67 1.19,-7 1.72,-0.34 3.11,1.45 3.58,3.13 0.48,1.68 0.54,3.58 1.65,4.93 1.14,1.37 3.3,1.77 4.85,0.89 0.95,-0.73 -0.97,-2.14 -0.59,-3.27 0.13,-0.38 0.5,-0.62 0.81,-0.89 0.94,-0.83 1.37,-2.21 1.04,-3.43 -0.18,-0.7 -0.59,-1.41 -0.37,-2.1 0.3,-0.95 1.53,-1.16 2.4,-1.66 1.36,-0.78 1.94,-2.46 2.01,-4.02 0.07,-1.56 -0.26,-3.12 -0.21,-4.69 0.05,-1.49 0.44,-2.94 0.82,-4.38 1.47,-5.51 2.95,-11.01 4.42,-16.52 1.27,1.28 1.57,3.21 1.74,5.01 0.32,3.44 0.42,6.97 1.67,10.19 1.58,4.07 4.97,7.62 4.96,11.99 -0.01,1.17 -0.24,2.45 0.38,3.44 0.57,0.92 1.7,1.29 2.58,1.91 1.57,1.12 2.39,3.2 2,5.09 -0.2,0.99 -0.7,1.89 -0.96,2.86 -0.96,3.6 1.42,7.15 3.67,10.11 0.29,0.39 0.64,0.8 1.12,0.87 0.79,0.09 1.31,-0.76 1.62,-1.49 1.81,-4.25 3.63,-8.49 5.44,-12.74 0.69,2.82 -0.62,5.98 0.63,8.59 0.45,0.94 1.2,1.72 1.57,2.69 0.31,0.8 0.33,1.69 0.43,2.54 0.3,2.63 1.32,5.16 2.92,7.27 0.26,0.34 0.55,0.69 0.96,0.85 1.12,0.44 2.62,-0.73 3.5,0.11 0.44,-1.23 0.21,-2.68 -0.59,-3.71 -0.84,-1.08 -2.35,-1.99 -2.12,-3.34 0.12,-0.7 0.7,-1.21 1.06,-1.82 1.35,-2.31 -0.63,-5.6 0.87,-7.82 0.63,-0.95 1.75,-1.44 2.71,-2.04 0.97,-0.61 1.92,-1.55 1.84,-2.69 -0.09,-1.23 -1.36,-2.18 -1.32,-3.42 0.05,-1.09 1.39,-1.91 2.39,-1.45 0.32,-4.54 1.34,-9.02 3.01,-13.25 0.09,-0.25 0.2,-0.51 0.4,-0.68 0.76,-0.64 1.79,0.43 2.13,1.36 1.38,3.82 1.18,8.18 3.24,11.67 0.91,1.54 2.25,2.87 2.73,4.59 0.86,3.05 -1.17,6.09 -3.09,8.6 2.11,-1.25 5.17,-0.47 6.41,1.65 1.24,2.11 0.43,5.17 -1.69,6.39 3.14,2.04 4.01,7.11 1.38,9.77 l 6.85,4.3 c 0,-3.43 0,-6.9 0.76,-10.24 1.14,-5.07 3.98,-9.8 3.99,-15 1.87,3.38 3.19,7.06 3.87,10.85 0.4,2.25 0.64,4.67 2.35,6.33 0.91,0.87 2.2,1.33 3.41,0.97 2.76,-0.83 2.8,-5.22 3.28,-7.5 1.15,-5.49 2.58,-10.92 3.62,-16.43 0.5,-2.69 0.9,-5.61 1.45,-8.36 0.35,-1.7 0.85,-8.72 3.68,-8.31 0.53,0.08 0.86,0.58 1.1,1.06 1.1,2.19 1.63,4.59 2.43,6.9 0.84,2.43 2.14,4.52 3.36,6.76 1.62,3 1.58,6.35 1.4,9.65 -0.39,6.99 -0.52,14.96 2.43,21.47 1.13,2.49 2.89,4.93 5.28,6.34 2.67,1.58 4.57,-0.59 4.93,-3.19 0.46,-3.39 -1.49,-7.32 0.61,-10.37 2.3,-3.37 2.19,-7.37 2.62,-11.3 0.51,-1.59 0.85,-3.22 1.35,-4.81 0.29,-0.92 0.7,-1.97 1.91,-1.94 0.85,0.02 1.59,0.66 1.85,1.47 1.01,3.15 1.52,6.45 1.53,9.75 0,1.35 -0.28,2.91 -0.08,4.32 0.26,1.82 1.56,2.97 2.67,4.31 1.61,1.94 2.64,4.26 3.52,6.6 0.7,1.88 1.07,3.81 3.71,2.7 2.26,-0.96 3.13,-3.62 0.93,-5.14 -1.17,-0.81 -2.68,-0.9 -3.45,-2.25 -1.31,-2.29 1.56,-4.95 3.78,-5.9 0.7,-0.31 1.38,-0.66 1.93,-1.18 3.93,-3.67 0.43,-5.43 0.09,-8.03 -0.33,-2.54 2.34,-4.54 2.65,-7.09 0.19,-1.56 -0.55,-3.11 -0.54,-4.69 0.04,-4.01 3.05,-8.15 4.3,-11.92 1.34,-4.05 2.35,-8.34 5.04,-11.77 0.49,-0.62 1.16,-1.25 1.94,-1.14 0.65,0.09 1.1,0.67 1.46,1.21 1.98,3 2.91,6.33 3.81,9.75 2.18,8.19 4.84,15.58 5.67,24.06 0.09,0.88 0.25,1.9 1.02,2.35 0.9,0.53 2.13,-0.06 3.09,0.38 3,1.39 -0.94,5.31 -1.25,7.24 -0.39,2.35 1.47,4.51 3.5,5.75 0.43,0.26 0.91,0.54 1.07,1.02 0.15,0.45 -0.04,0.94 -0.22,1.37 -0.66,1.59 -1.33,3.17 -1.99,4.76 -0.13,0.3 -0.26,0.62 -0.21,0.95 0.28,1.94 5.19,0.7 6.29,0.53 0.26,-0.04 0.54,-0.08 0.8,0.01 0.31,0.11 0.52,0.4 0.67,0.7 0.98,1.97 0.01,4.53 1.1,6.44 0.51,0.89 1.39,1.49 2.14,2.18 2.64,2.45 1.58,6.44 3.42,9.16 1.39,2.04 3.39,1.67 4.11,-0.52 0.88,-2.7 -0.5,-4.19 1.64,-6.93 1.93,-2.47 1.49,-4.56 0.41,-7.28 -0.57,-1.43 -1.19,-2.87 -1.3,-4.4 -0.31,-4.44 3.33,-3.84 6,-5.71 2.53,-1.79 0.43,-3.32 -0.38,-5.34 -0.62,-1.54 0.12,-3.3 1.15,-4.61 1.03,-1.3 2.36,-2.37 3.19,-3.81 2.61,-4.51 -0.57,-10.64 1.76,-15.3 2.7,6.38 0.82,13.85 2.79,20.5 1.05,3.53 3.46,6.29 5.57,9.22 0.94,1.31 1.91,2.85 2.26,4.45 0.17,0.77 0.29,1.64 -0.13,2.37 -0.46,0.81 -1.56,0.82 -1.82,1.79 -0.39,1.48 0.8,3.48 2.17,4.04 1.86,0.77 3.03,-1.26 2.33,-2.83 -0.37,-0.82 -1.04,-1.45 -1.7,-2.06 2.16,-1.66 4.44,-3.51 5.14,-6.14 0.34,-1.28 0.27,-2.62 0.45,-3.93 0.28,-1.96 1.13,-3.78 1.79,-5.65 0.75,-2.14 1.11,-4.38 1.42,-6.62 0.16,-1.17 0.3,-2.33 0.48,-3.5 0.2,-1.21 1.1,-3.21 2.11,-1.36 0.44,0.8 0.27,2.56 0.44,3.49 0.38,2.18 1.34,4.16 1.92,6.27 0.67,2.47 0.5,5.07 1.11,7.54 1.12,4.48 5.38,8.42 3.57,13.33 -0.33,0.89 -0.84,1.85 -0.52,2.75 0.34,0.92 1.55,1.37 1.79,2.3 0.35,1.34 -1.18,1.4 -1.11,2.42 0.1,1.38 1.41,1.57 0.56,3.26 -0.98,1.95 0.06,5.39 1.54,6.92 1.95,2.01 4.73,-1.59 5.62,-3.1 0.82,-1.39 1.06,-3.15 0.37,-4.64 -0.65,-1.38 -2.78,-2.87 -2.59,-4.55 0.37,-3.25 3.7,0.37 4.97,0.22 0.63,-1.31 0.01,-2.7 -0.25,-4.02 -0.46,-2.26 0.97,-3.76 -0.88,-5.39 -1.03,-0.92 -0.88,-2.83 0.29,-3.56 0.61,-0.38 1.42,-0.47 1.88,-1.03 0.97,-1.15 0.01,-2.72 1.48,-3.68 0.73,-0.47 1.88,-0.62 2.54,-1.3 0.9,-0.93 1.01,-2.48 1.12,-3.69 0.29,-3.09 -0.35,-6.22 0.33,-9.28 0.06,-0.27 0.15,-0.57 0.37,-0.74 0.27,-0.21 0.67,-0.18 0.99,-0.06 1.23,0.46 1.82,1.89 1.87,3.21 0.06,1.31 -0.27,2.61 -0.23,3.92 0.09,2.67 1.68,5.04 2.33,7.63 0.93,3.73 0.77,6.37 3.84,9.08 1.01,0.89 2.05,1.86 2.48,3.15 0.71,2.13 -1.12,3.11 -2.27,4.55 -1.33,1.66 -3.8,4.52 -2.43,6.87 1.16,1.98 4.35,1.28 5.11,3.7 0.52,1.66 -0.32,3.73 -1.94,4.42 0.76,1.09 0.97,2.32 1.73,3.42 0.13,0.2 0.28,0.41 0.5,0.51 0.9,0.42 1.49,-1.17 2.46,-1.38 0.64,-0.14 1.22,0.37 1.74,0.77 0.52,0.41 1.31,0.73 1.79,0.27 0.18,-0.17 0.27,-0.42 0.34,-0.67 0.42,-1.48 0.69,-3.28 2.08,-3.95 0.73,-0.36 1.77,-0.4 2.06,-1.17 0.12,-0.3 0.07,-0.64 0.01,-0.96 -0.29,-1.42 -0.81,-2.81 -0.89,-4.26 -0.09,-1.46 0.37,-3.06 1.6,-3.84 1.02,-0.65 2.6,-0.83 2.86,-2 0.17,-0.8 -0.42,-1.53 -0.87,-2.21 -0.46,-0.67 -0.77,-1.67 -0.17,-2.22 0.56,-0.53 1.57,-0.26 2.13,-0.79 0.22,-0.22 0.32,-0.52 0.41,-0.8 0.56,-1.78 0.93,-3.63 1.11,-5.48 0.09,-0.98 0.13,-1.99 0.57,-2.87 0.43,-0.88 1.39,-1.59 2.35,-1.38 1.02,0.22 1.59,1.36 1.64,2.4 0.06,1.04 -0.25,2.06 -0.28,3.1 -0.07,2.78 1.77,5.21 2.5,7.89 0.97,3.59 -0.08,7.59 1.35,11.03 0.81,1.94 2.39,3.64 2.49,5.75 0.06,1.28 -0.41,2.74 0.38,3.75 0.72,0.9 2.05,0.92 3.12,1.35 1.99,0.81 3.45,3.24 5.57,2.89 -0.47,-0.26 -0.95,-0.52 -1.42,-0.78 l 2.94,-2.52 c 0.56,-1.77 -0.5,-3.68 -0.28,-5.53 0.28,-2.29 2.38,-3.86 3.66,-5.78 0.7,-1.05 1.17,-2.25 1.63,-3.43 0.98,-2.51 1.98,-5.14 1.74,-7.82 -0.08,-0.93 -0.31,-1.84 -0.28,-2.77 0.03,-0.92 0.37,-1.91 1.17,-2.39 1.76,2.98 2.63,6.48 2.45,9.94 -0.03,0.46 -0.07,0.94 0.1,1.37 0.19,0.49 0.62,0.83 1.01,1.18 1.99,1.8 3.32,4.36 3.48,7.05 0.16,2.68 -0.88,5.44 -2.88,7.24 1.93,0.19 3.86,1.12 4.91,2.76 1.05,1.63 1.02,4 -0.35,5.38 1.04,0.39 2.07,0.79 3.1,1.19 0.6,0.22 1.3,0.59 1.33,1.22 0.04,0.86 -1.08,1.19 -1.68,1.8 -0.63,0.65 -0.67,1.71 -0.32,2.55 0.47,1.1 1.48,1.89 2.33,2.68 0.56,0.52 1.46,0.62 2.02,0.1 1,-0.92 -0.42,-2.5 0.19,-3.6 0.58,-1.03 2.14,-0.53 3.31,-0.73 1.36,-0.24 2.28,-1.6 2.52,-2.96 0.24,-1.36 -0.03,-2.75 -0.14,-4.13 -0.12,-1.37 -0.04,-2.86 0.77,-3.98 0.44,-0.61 1.07,-1.06 1.58,-1.62 1.15,-1.23 1.68,-3.01 1.39,-4.67 -0.13,-0.76 -0.42,-1.51 -0.36,-2.28 0.05,-0.64 0.33,-1.24 0.64,-1.81 0.83,-1.5 1.88,-2.88 3.12,-4.08 1.58,3.56 2.38,7.46 2.33,11.35 -0.01,0.52 -0.02,1.07 0.19,1.55 0.15,0.33 0.39,0.59 0.63,0.86 2.95,3.4 4.69,7.83 4.84,12.33 0,0.12 -0.02,0.27 -0.12,0.32 0.4,0.93 0.32,2.06 -0.04,3.01 -0.38,1.01 -0.96,1.95 -1.28,2.98 -0.28,0.93 -0.35,1.92 -0.35,2.89 -0.01,0.47 0.05,1.03 0.47,1.26 0.6,0.34 1.55,-0.42 2.02,0.1 1.36,1.49 -6.25,10.71 -1.67,11.28 0.73,0.09 1.45,-0.2 2.19,-0.3 1.92,-0.25 4.26,1.44 5.98,0 1.26,-1.05 1.07,-3.15 0.99,-4.61 -0.12,-2.49 0.22,-4.36 1.36,-6.64 2.35,-4.67 6.38,-8.49 7.16,-13.86 0.38,-2.69 3.09,-3.24 3.32,-0.11 0.15,2.05 -0.35,4.17 0.08,6.21 0.38,1.8 1.76,3.22 2.01,5.05 0.31,2.31 -0.19,4.21 1.57,5.98 1.4,1.42 3.2,2.09 2.6,4.46 -0.62,2.47 -3.29,4.3 -3.3,6.95 -0.02,4.46 4.61,1.12 6.49,2.34 1.53,0.99 1.29,4.16 1.96,5.68 0.81,1.87 1.91,4.24 4.06,4.81 4.87,1.31 4.74,-4.2 6.2,-7.1 1.56,-3.07 2.37,-5.22 2.81,-8.64 0.42,-3.19 0.8,-6.33 2.14,-9.3 1.58,-3.5 3.17,-0.25 3.7,1.84 0.85,3.31 -0.37,6.61 0.22,9.85 0.45,2.44 1.94,4.57 2.48,7 0.54,2.39 -0.66,5.11 0.26,7.35 1.7,4.13 7.71,-2.56 8.82,-4.18 3.24,-4.76 3.91,-10.8 4.7,-16.36 0.59,-4.18 2.27,-7.94 3.6,-11.91 1.31,-3.88 1.5,-8.17 1.79,-12.23 0.37,2.66 0.75,5.31 1.12,7.96 0.64,4.63 3.39,8.29 5.58,12.27 3.2,5.84 5.09,12.12 7.46,18.31 0.6,1.56 1.45,3.5 2.91,4.53 1.09,0.76 3.92,0.91 4.3,-0.77 0.53,-2.29 -3.55,-2.65 -2.5,-5.25 0.35,-0.89 1.08,-1.57 1.81,-2.18 1,-0.83 2.2,-1.51 1.96,-2.92 -0.21,-1.27 -1.31,-1.78 -0.8,-3.24 0.8,-2.23 4.97,-4.29 4.19,-6.81 -0.9,-2.92 -1.55,-4.61 -1.12,-7.7 0.26,-1.88 0.5,-3.77 0.75,-5.65 0.4,-3.06 2.22,-5.67 3.85,-8.19 1.71,-2.64 2.28,-5 2.51,-8.08 0.1,-1.33 0.18,-5.05 2.15,-5.14 0.24,-0.01 0.45,0.18 0.59,0.39 0.6,0.92 0.16,2.13 0.14,3.24 -0.05,1.89 1.03,3.57 1.76,5.24 0.85,1.96 0.49,3.74 0.56,5.83 0.07,1.85 1.16,3.09 2.04,4.68 0.88,1.62 0.84,3.13 1.14,4.9 0.43,2.61 2.64,5.89 4.1,8.07 1,1.51 2.88,3.16 3.51,4.83 0.6,1.59 -0.7,3.11 -0.32,4.69 0.97,4.04 5.03,-1.67 5.78,-2.87 0.92,-1.48 0.18,-2.73 -0.56,-4.07 -0.72,-1.29 -1.24,-2.7 -1.43,-4.18 -0.05,-0.33 -0.07,-0.68 0.07,-0.98 0.53,-1.2 2.18,0.26 2.43,-1.09 0.25,-1.37 -0.38,-2.75 -0.37,-4.15 0.01,-2.07 1.7,-5.13 3.44,-6.24 2.7,-1.73 2.99,-3.11 1.3,-5.84 -0.49,-0.79 -0.93,-1.71 -0.74,-2.62 0.39,-1.85 2.63,-1.41 3.61,-2.74 1.43,-1.92 1.68,-4.47 2.24,-6.73 0.35,-1.38 0.89,-2.93 1.63,-4.14 1.09,-1.77 2.26,-0.72 2.66,0.82 0.51,1.96 0.04,3.93 -0.24,5.89 -0.29,2.04 -0.32,4.13 -0.25,6.2 0.07,2.22 0.35,4.54 1.62,6.35 -0.49,-0.7 0.56,-1.71 1.29,-1.78 1.48,-0.13 1.85,1.66 1.94,2.79 0.17,2.2 1.63,3.11 2.34,5.05 0.76,2.08 -0.11,4.21 -0.96,6.12 -0.43,0.99 -3.01,6.07 -0.66,6.3 0.8,0.08 1.53,-0.44 2.33,-0.41 0.4,0.01 0.82,0.22 0.97,0.59 0.08,0.2 0.07,0.43 0.05,0.65 -0.15,1.69 -0.75,3.26 -1.63,4.69 -0.78,1.26 -2.48,2.55 -2.65,4.09 -0.32,3.1 6.16,1.77 7.77,2.52 2.48,1.16 0.26,2.86 -0.6,4.22 -0.93,1.45 -0.96,3.98 0.22,5.31 1.97,2.22 5.52,0.42 6.46,-1.87 1.09,-2.65 -0.87,-5.37 -0.51,-8.11 0.48,-3.7 2.43,-7.07 3.26,-10.71 0.89,-3.86 1.46,-7.85 3.07,-11.5 0.27,-0.61 1.16,-0.5 1.29,0.15 0.73,3.64 0.84,7.35 1.2,11.03 0.23,2.31 0.99,4.51 1.27,6.83 0.3,2.5 0.43,5.05 1.16,7.48 1,3.34 2.56,6.25 3.12,9.74 0.55,3.44 0.91,7 2.76,10.05 0.61,1.01 1.32,1.96 1.82,3.03 0.77,1.65 0.36,3.59 0.69,5.35 0.85,4.64 4.15,8.65 9.34,7.61 l 1.23,0.49 z"
     id="path19" /></svg>
