<?xml version="1.0" encoding="UTF-8" standalone="no"?>
<svg
   id="Layer_1"
   data-name="Layer 1"
   viewBox="0 0 1024 524.42088"
   version="1.1"
   sodipodi:docname="mountains.svg"
   xml:space="preserve"
   width="1024"
   height="524.4209"
   inkscape:version="1.3 (0e150ed6c4, 2023-07-21)"
   xmlns:inkscape="http://www.inkscape.org/namespaces/inkscape"
   xmlns:sodipodi="http://sodipodi.sourceforge.net/DTD/sodipodi-0.dtd"
   xmlns="http://www.w3.org/2000/svg"
   xmlns:svg="http://www.w3.org/2000/svg"><sodipodi:namedview
     id="namedview19"
     pagecolor="#ffffff"
     bordercolor="#000000"
     borderopacity="0.25"
     inkscape:showpageshadow="2"
     inkscape:pageopacity="0.0"
     inkscape:pagecheckerboard="0"
     inkscape:deskcolor="#d1d1d1"
     inkscape:zoom="0.8588764"
     inkscape:cx="508.80429"
     inkscape:cy="284.67426"
     inkscape:window-width="1920"
     inkscape:window-height="1009"
     inkscape:window-x="1912"
     inkscape:window-y="-8"
     inkscape:window-maximized="1"
     inkscape:current-layer="Layer_1" /><defs
     id="defs5"><style
       id="style1">&#10;      .cls-1 {&#10;        fill: none;&#10;      }&#10;&#10;      .cls-2 {&#10;        fill: url(#linear-gradient);&#10;      }&#10;&#10;      .cls-3 {&#10;        fill: #fff6eb;&#10;      }&#10;&#10;      .cls-4 {&#10;        fill: #1d3c4a;&#10;      }&#10;&#10;      .cls-5 {&#10;        fill: url(#linear-gradient-2);&#10;      }&#10;    </style><linearGradient
       id="linear-gradient"
       x1="161.74001"
       y1="241.39999"
       x2="153.33"
       y2="436.39001"
       gradientUnits="userSpaceOnUse"
       gradientTransform="translate(-65.24,-97.899083)"><stop
         offset=".06"
         stop-color="#1c3c4b"
         id="stop1" /><stop
         offset=".8"
         stop-color="#2e4853"
         id="stop2" /></linearGradient><linearGradient
       id="linear-gradient-2"
       x1="649.03998"
       y1="109.16"
       x2="579.91998"
       y2="522.63"
       gradientUnits="userSpaceOnUse"
       gradientTransform="translate(-65.24,-97.899083)"><stop
         offset=".38"
         stop-color="#1c3c4b"
         id="stop3" /><stop
         offset=".57"
         stop-color="#2e4853"
         id="stop4" /><stop
         offset=".65"
         stop-color="#2e4853"
         id="stop5" /></linearGradient></defs><path
     class="cls-2"
     d="m 183.5,242.52092 c -2.05,3.29 -5.61,10.41 -3.49,17.65 0.81,2.8 -0.53,5.78 -3.14,7.1 L 0,357.08092 v -93.97 c 0,0 4.14,8.83 9.11,10.96 0.72,0.32 1.48,-0.33 1.26,-1.09 -1.16,-3.99 -4.18,-14.84 -4.9,-21.88 -0.05,-0.46 0.47,-0.75 0.83,-0.48 1.94,1.47 6.71,4.6 12.75,5.28 1.05,0.12 1.89,-0.84 1.69,-1.87 -0.67,-3.54 -2.67,-10.65 -7.87,-11.84 -1.15,-0.26 -2.19,-0.86 -2.83,-1.85 -0.58,-0.87 -1,-2.02 -0.61,-3.27 0,0 3.06,3.05 7.38,2.16 0.85,-0.18 1.7,-0.29 2.57,-0.26 2.12,0.08 6.31,-0.01 9.29,-1.69 1.59,-0.89 1.15,-3.3 -0.65,-3.6 -2.53,-0.43 -6.07,-1.42 -9.64,-3.68 -0.45,-0.29 -0.29,-0.99 0.24,-1.06 2,-0.25 5.22,-1.1 6.15,-3.9 0.36,-1.09 1.33,-1.86 2.45,-2.12 3.81,-0.89 10.68,-3.25 4.51,-7.85 -0.58,-0.43 -1.23,-0.78 -1.89,-1.09 -1.83,-0.88 -6.07,-3.64 -0.96,-8.63 0.83,-0.81 1.77,-1.49 2.76,-2.1 2.25,-1.38 7.54,-5.16 3.19,-8.01 0,0 -3.65,-3.08 -0.43,-7.04 1.52,-1.86 2.51,-4.09 3.12,-6.42 1.5,-5.77 3.74,-15.49 3.44,-21.18 -0.03,-0.44 0.24,-0.84 0.67,-0.96 0.51,-0.14 1.04,0.17 1.15,0.7 0.6,2.86 2.48,11.51 4.23,16.78 0.53,1.59 0.74,3.3 0.38,4.94 -0.31,1.38 -0.02,3.47 2.75,5.99 l 3.78,3.5 c 0.6,0.56 0.4,1.54 -0.37,1.83 -2.38,0.87 -6.23,2.66 -4.8,4.77 0.46,0.66 0.91,1.32 1.21,2.06 0.63,1.57 2.24,4.11 6.07,4.55 0,0 8.69,2.23 3.44,5.41 -0.42,0.26 -0.75,0.69 -0.77,1.18 -0.05,0.77 -0.62,1.95 -3.59,2.26 -0.41,0.05 -0.81,0.17 -1.15,0.39 -1.01,0.62 -2.57,2.12 0.15,4.36 0.98,0.81 2.13,1.37 3.34,1.74 1.97,0.6 5.55,1.96 5.04,3.7 -0.32,1.1 -0.13,2.29 0.78,2.99 1.12,0.86 2.82,1.38 5.06,-0.17 0.45,-0.31 0.73,-0.9 1.25,-1.21 0.64,-0.4 1.38,-0.62 2.11,-0.75 0.77,-0.13 1.86,0.09 2.48,-0.43 0.55,-0.46 0.52,-1.35 0.17,-1.98 -0.35,-0.63 -0.94,-1.08 -1.45,-1.6 -1.19,-1.21 -1.96,-2.89 -1.91,-4.59 0.06,-1.99 1.24,-3.67 3.02,-4.49 2.5,-1.16 5.96,-0.51 8.1,-2.34 0.17,-0.15 0.33,-0.33 0.41,-0.55 0.51,-1.4 -2.03,-2.83 -2.87,-3.52 -1.07,-0.86 -2.03,-1.98 -2.74,-3.16 -2.77,-4.62 3.37,-6.18 6.8,-6.28 1.48,-0.05 8.06,0 5.1,-2.78 -2.28,-2.14 -5.8,-2.68 -7.8,-5.11 -0.93,-1.12 -2.87,-4.25 -2.55,-5.77 0.4,-1.91 3.29,-0.37 4.27,0.08 2.33,1.07 7.25,2.39 9.45,0.4 1.84,-1.66 -3.11,-3.79 -4,-4.62 -1.07,-1 -2.15,-2.18 -2.6,-3.61 -0.23,-0.71 -0.16,-1.89 0.1,-2.59 0.27,-0.71 0.5,-1.15 0.15,-2.07 -1.01,-2.62 3.05,-2.53 4.57,-2.43 0,0 -6.58,-8.19 0.77,-5.53 -0.69,-0.25 -0.83,-4.47 -0.85,-5.06 -0.02,-1.15 0.06,-2.37 0.48,-3.45 0.24,-0.62 0.69,-1.12 1.21,-1.53 1.31,-1.07 1.35,-1.7 1.54,-2.97 0.16,-1.13 0.34,-2.27 0.52,-3.4 0.45,-2.77 0.94,-5.55 1.62,-8.28 0.21,-0.86 0.79,-4.56 1.98,-4.79 2.12,-0.42 2.46,10.96 2.53,12.41 0.08,1.62 0.11,3.42 0.86,4.9 0.36,0.7 0.89,1.35 1.6,1.7 0.6,0.29 1.76,0.44 2.16,1 0.64,0.9 -0.48,1.5 -1.02,2.16 -0.17,0.21 -0.33,0.44 -0.35,0.71 -0.06,1.09 1.6,1.55 2.17,2.24 0.48,0.59 0.66,1.35 0.66,2.1 0,0.9 -0.21,1.53 0.63,2.11 1.38,0.97 4.64,1.25 3.31,3.78 -0.25,0.47 -0.61,0.87 -1.01,1.23 -0.58,0.53 -0.7,1.41 -0.24,2.04 1.03,1.38 2.13,3.94 -0.46,6.92 -0.57,0.66 -0.3,1.68 0.54,1.92 4.28,1.19 12.85,4.57 0.27,10.17 -1.02,0.45 -1.12,1.89 -0.15,2.44 1.68,0.95 4.41,1.98 8.32,1.88 1.46,-0.04 2.35,1.57 1.57,2.8 -1.57,2.46 -4.2,5.69 -7.78,6.91 -0.71,0.24 -0.87,1.17 -0.27,1.63 0.26,0.2 0.55,0.41 0.87,0.65 2.08,1.52 5.2,3.66 8.13,5.19 1.16,0.6 1.47,2.11 0.61,3.1 -1.75,2 -4.2,5.24 -4.99,8.4 -0.32,1.26 1.18,2.18 2.18,1.35 3.22,-2.65 8.81,-8.36 10.41,-17.05 0,0 1.31,-5.94 2.51,-12.61 0.94,-5.19 1.82,-10.84 1.96,-14.49 0.02,-0.56 0.44,-1.01 1,-1.09 0.05,-0.01 0.1,-0.01 0.15,-0.01 0.58,0 1.08,0.43 1.14,1.02 0.22,1.88 0.73,5.85 1.51,10.37 1.56,8.94 4.21,20.03 7.96,21.31 0.34,0.12 0.51,0.48 0.34,0.79 -0.98,1.84 -3.13,6.92 2.43,7.68 0.32,0.04 0.52,0.36 0.43,0.67 -0.78,2.74 -3.4,13.74 4.5,14.37 0.47,0.04 0.67,0.63 0.31,0.95 -3.18,2.76 -11.58,10.76 -3.95,12.39 1.41,0.3 2.88,0.03 4.11,-0.7 2.01,-1.2 4.99,-3.66 6.2,-8.12 0.38,-1.37 0.73,-2.75 1.19,-4.1 1.9,-5.61 6.48,-19.99 7.53,-30.87 0.06,-0.64 0.94,-0.77 1.16,-0.17 1.37,3.71 3.92,11.38 5.83,21.87 0.61,3.32 0.85,6.69 0.81,10.07 -0.04,4.66 0.9,11.74 7.59,7.71 0.38,-0.23 0.82,0.2 0.58,0.58 z"
     id="path5"
     style="fill:url(#linear-gradient)" /><path
     class="cls-5"
     d="m 1024,256.19092 v 268.23 c -17.08,-0.53 -34.09,-2.76 -50.83,-6.12 -20.25,-4.08 -40.09,-9.94 -59.57,-16.75 -40.61,-14.2 -79.27,-33.19 -119.76,-47.64 -68.78,-24.56 -140.13,-38.53 -213.02,-42.76 -68.66,-3.99 -137.63,0.68 -205.79,9.24 -80.31,11.21 -142.6,32.87 -142.6,32.87 -41.74,13.73 -78.54,26.52 -78.54,26.52 -76.2,27.64 -153.89,39.41 -153.89,39.41 v -162.11 l 176.87,-89.81 c 2.61,-1.32 3.95,-4.3 3.14,-7.1 -2.12,-7.24 1.44,-14.36 3.49,-17.65 0.24,-0.38 -0.2,-0.81 -0.58,-0.58 -6.69,4.03 -7.63,-3.05 -7.59,-7.71 0.04,-3.38 -0.2,-6.75 -0.81,-10.07 -1.91,-10.49 -4.46,-18.16 -5.83,-21.87 -0.22,-0.6 -1.1,-0.47 -1.16,0.17 -1.05,10.88 -5.63,25.26 -7.53,30.87 -0.46,1.35 -0.81,2.73 -1.19,4.1 -1.21,4.46 -4.19,6.92 -6.2,8.12 -1.23,0.73 -2.7,1 -4.11,0.7 -7.63,-1.63 0.77,-9.63 3.95,-12.39 0.36,-0.32 0.16,-0.91 -0.31,-0.95 -7.9,-0.63 -5.28,-11.63 -4.5,-14.37 0.09,-0.31 -0.11,-0.63 -0.43,-0.67 -5.56,-0.76 -3.41,-5.84 -2.43,-7.68 0.17,-0.31 0,-0.67 -0.34,-0.79 -3.75,-1.28 -6.4,-12.37 -7.96,-21.31 4.28,-2.41 9.16,-4.03 13.56,-5.92 4.34,-1.85 8.76,-3.5 13.16,-5.18 9.58,-3.62 19.71,-7.33 27.93,-13.56 8.67,-6.58 16.63,-14.03 24.89,-21.1 16.33,-13.96 34.31,-26.08 53.05,-36.59 1.54,-0.86 3.42,-0.88 4.98,-0.04 15.46,8.27 30.22,17.48 47.37,21.92 2.28,0.59 4.71,0.19 6.68,-1.12 13.48,-8.95 45.53,-34.500003 45.53,-34.500003 4.37,-4.18 9.88,-7.91 15.9,-9.18 5.26,-1.12 10.24,-1.96 15.02,-4.64 3.54,-1.97 6.56,-4.85 9.77,-7.32 3.37,-2.59 6.79,-5.11 10.26,-7.55 21.14,-14.89 38.67,-34.01 59.55,-49.17 7.08,-5.1400002 14.47,-10.0100002 22.4,-13.74000019 1.4,-0.65 3.04,-0.5 4.31,0.38 8.38,5.76999999 21.36,18.94000019 21.36,18.94000019 6.92,5.7 13.48,11.84 19.83,18.17 5.6,5.57 10.38,12.13 16.8,16.83 5.86,4.29 12.78,7.23 18.97,11.03 6.2,3.81 12.23,7.86 18.26,11.92 8.7,5.84 17.11,12.13 25.32,18.64 6.76,5.380003 12.92,12.090003 20.34,16.550003 6.98,4.19 15.24,5.7 23.25,6.35 7.61,0.62 15.3,0.5 22.92,-0.08 3.43,-0.27 6.85,0.68 9.64,2.69 3.96,2.86 8.03,5.62 8.03,5.62 8.03,6.09 15.06,8.82 18.93,9.97 0.89,0.27 1.57,-0.81 0.95,-1.51 -3.27,-3.69 -4,-6.14 -4.14,-7.31 -0.06,-0.52 -0.31,-0.99 -0.69,-1.35 -1.89,-1.83 -1.86,-4.12 -1.58,-5.54 0.14,-0.74 0.89,-1.25 1.63,-1.13 5.11,0.85 9.26,0.45 11.78,-0.03 0.9,-0.16 1.09,-1.37 0.28,-1.81 -9.36,-5.01 -9.72,-12.41 -9.46,-15.29 0.04,-0.49 0.63,-0.69 0.97,-0.34 2.44,2.53 4.73,3.14 6.41,3.11 1.86,-0.04 2.96,-2.03 1.95,-3.59 -1.27,-1.95 -3.67,-3.550003 -5.13,-4.400003 -0.47,-0.28 -0.49,-0.97 -0.04,-1.27 2.78,-1.83 2.75,-5.28 2.48,-7.22 -0.11,-0.74 -0.33,-1.44 -0.7,-2.09 -1.02,-1.77 -1.36,-3.24 -1.45,-4.27 -0.05,-0.61 0.61,-0.97 1.14,-0.66 1.44,0.83 3.21,0.68 3.21,0.68 1.79,-0.07 2.45,-0.83 2.67,-1.56 0.21,-0.71 -0.04,-1.45 -0.5,-2.03 -2.16,-2.7 -2.42,-6.16 -2.36,-8.12 0,-0.29 0.41,-0.37 0.52,-0.1 0.27,0.69 0.6,1.12 0.93,1.39 0.7,0.58 1.58,0.36 2,-0.45 0.45,-0.87 0.54,-1.85 0.5,-2.67 -0.05,-1.01 -0.41,-1.97 -0.98,-2.8 -3.72,-5.39 -0.9,-4.23 0.55,-3.44 0.34,0.19 0.78,-0.04 0.83,-0.43 4.08,-29.03 6.58,-7.04 7.23,0.06 0.11,1.18 0.74,2.22 1.65,2.97 2.05,1.67 2.08,3.61 1.87,4.72 -0.1,0.54 0.14,1.07 0.61,1.35 1.71,0.98 2.4,2.19 2.59,3.31 0.28,1.62 -0.64,3.24 -2.12,3.97 -0.61,0.3 -1.01,0.6 -1.27,0.87 -0.65,0.69 -0.14,1.87 0.81,1.91 0.8,0.03 1.61,-0.44 2.19,-0.87 0.59,-0.44 1.39,-0.42 1.98,0.02 1.12,0.82 1.77,1.89 2.13,2.66 0.25,0.52 0.08,1.13 -0.41,1.43 -1.64,1.04 -3.39,2.42 -4.55,4 -0.57,0.77 -2.19,3.08 -0.86,3.84 1.39,0.79 2.84,-1.28 3.73,-1.99 0.74,-0.6 2.05,-1.56 2.97,-0.77 0.76,0.65 0.56,2.14 0.44,2.99 -0.04,0.31 0.15,0.6 0.45,0.67 3.35,0.79 -0.32,6.600003 -0.32,6.600003 -0.93,3.08 -3.27,4.11 -3.27,4.11 -5.6,4.29 2.15,4.01 2.15,4.01 12.83,-1.08 7.24,5.71 4.93,8.08 -0.52,0.53 -0.86,1.2 -1.05,1.93 -0.76,2.88 -2.53,3.68 -3.34,3.9 -0.47,0.12 -0.91,0.33 -1.33,0.55 -9.16,4.93 -1.2,4.61 2.32,4.29 0.91,-0.09 1.78,-0.38 2.58,-0.84 5.51,-3.13 4.78,0.28 4.11,2.1 -0.2,0.54 -0.04,1.13 0.4,1.5 1.87,1.59 0.14,4.59 -1.07,6.24 -0.49,0.68 -1.16,1.24 -1.9,1.64 -1.6,0.86 -2.52,1.74 -3.04,2.51 -0.53,0.77 0.22,1.8 1.11,1.51 3.74,-1.21 8.36,-1.56 10.37,-1.66 0.58,-0.03 1.17,-0.08 1.75,-0.16 7.07,-1.06 4.87,2.56 3.26,4.5 -0.59,0.71 -1.09,1.51 -1.45,2.37 -0.64,1.56 -2.12,2.48 -3.36,3.54 -0.98,0.82 -2.87,2.69 -1.72,4.04 0.92,1.08 2.81,0.97 4.01,0.54 13.79,-4.94 1.14,6 0.41,6 -0.93,0.66 -2.02,1.43 -2.58,2.46 -1.53,2.83 4.43,3.07 5.92,3.13 2.07,0.08 4.17,-0.14 6.19,0.44 0.62,0.17 1.23,0.48 1.63,0.98 0.86,1.08 0.46,2.77 -0.75,3.38 -1.62,0.82 -2.87,2.26 -3.61,3.25 -0.33,0.46 -0.04,1.08 0.52,1.14 5.08,0.5 11.36,5.67 11.36,5.67 4.01,2.89 8.02,4.86 10.04,5.77 1.16,0.52 2.5,0.6 3.67,0.1 0.81,-0.35 1.3,-0.83 1.59,-1.25 0.27,-0.41 0.16,-0.96 -0.24,-1.24 -1.99,-1.34 -2.36,-4.15 -2.44,-5.3 -0.02,-0.35 -0.13,-0.67 -0.29,-0.98 -2.66,-4.85 5.42,-4.76 5.42,-4.76 2.34,0.04 4.16,-0.14 5.52,-0.37 1.95,-0.33 2.24,-3.1 0.38,-3.78 -1.94,-0.7 -4.41,-0.9 -5.66,-0.96 -0.47,-0.02 -0.85,-0.38 -0.9,-0.84 l -0.14,-1.11 c -0.07,-0.6 0.41,-1.11 1.01,-1.07 6.01,0.4 9.09,0.09 10.66,-0.32 0.6,-0.15 0.56,-1.05 -0.06,-1.14 -4.46,-0.72 -6.37,-3.41 -7,-4.59 -0.18,-0.33 -0.5,-0.58 -0.87,-0.64 -1.76,-0.29 -2.79,-1.27 -3.24,-1.81 -0.18,-0.22 -0.27,-0.49 -0.27,-0.76 v -3.14 c 0,-0.68 0.56,-1.23 1.23,-1.23 h 9 c 8.41,-0.22 3.58,-4.49 1.32,-6.18 -0.54,-0.4 -1.14,-0.71 -1.79,-0.91 -4.43,-1.38 -4.18,-3.39 -3.58,-4.53 0.3,-0.56 0.13,-1.26 -0.34,-1.68 -0.97,-0.88 -1.63,-1.59 -2.08,-2.15 -0.46,-0.58 0.08,-1.43 0.79,-1.25 3.3,0.84 5.71,0.53 7.22,0.07 0.96,-0.3 1.26,-1.49 0.56,-2.21 -2.05,-2.11 -3.83,-4.14 -5.01,-5.53 -0.41,-0.48 0.03,-1.22 0.65,-1.09 2.19,0.49 4.5,0.35 5.91,0.18 0.5,-0.06 0.72,-0.67 0.37,-1.02 -1.42,-1.42 -1.45,-2.82 -1.3,-3.62 0.09,-0.45 -0.13,-0.91 -0.51,-1.17 -3.4,-2.36 -0.77,-3.86 0.76,-4.46 0.35,-0.14 0.41,-0.61 0.1,-0.83 -1.27,-0.89 -2.45,-2.08 -3.18,-2.88 -0.27,-0.29 -0.02,-0.75 0.37,-0.71 2.46,0.25 4.38,-0.45 5.69,-1.23 1.09,-0.65 1.29,-2.13 0.42,-3.05 -3.38,-3.59 0.31,-6.17 0.31,-6.17 1.37,-1.18 2.34,-2.610003 3.01,-3.950003 0.83,-1.67 1.18,-4.52 0.6,-6.28 -0.71,-2.15 -0.2,-4.33 0.18,-5.48 0.16,-0.49 0.62,-0.82 1.14,-0.82 0.52,0 0.97,0.32 1.13,0.81 1.82,5.5 2.97,12.87 3.4,15.880003 0.1,0.74 0.46,1.43 1.02,1.92 1.7,1.47 0.04,3.61 -1.07,4.73 -0.32,0.32 -0.14,0.86 0.3,0.95 8.73,1.7 6.93,6.14 5.7,8.03 -0.28,0.44 -0.06,1.03 0.43,1.19 1.68,0.56 3.01,1.36 3.97,2.08 1,0.75 1.03,2.23 0.06,3.01 -1.73,1.37 -2.97,2.85 -3.76,3.94 -0.41,0.57 0.08,1.37 0.78,1.27 6.27,-0.86 5.66,2.11 4.81,3.87 -0.34,0.7 -0.09,1.52 0.56,1.95 2.66,1.73 3.16,3.36 3.02,4.52 -0.12,1 -0.89,1.79 -1.84,2.12 -3.77,1.31 -5.89,2.97 -7.07,4.31 -1.31,1.47 -0.84,3.73 0.95,4.55 3.18,1.47 8.24,0.89 10.81,0.46 0.85,-0.15 1.62,0.56 1.53,1.42 -0.73,6.49 -5.87,11.24 -9.04,13.6 -1.18,0.87 -0.79,2.68 0.62,3.07 3.57,0.98 8.08,0.92 8.08,0.92 10.49,0 4.92,6.94 2.94,9.09 -0.3,0.32 -0.35,0.82 -0.09,1.18 1.34,1.81 -1.8,2.53 -4.24,2.81 -1.16,0.14 -1.57,1.61 -0.66,2.36 4.05,3.29 11.22,3.26 14.26,3.08 0.77,-0.05 1.36,-0.7 1.32,-1.47 -0.34,-7.14 3.06,-10.19 4.73,-11.25 0.41,-0.26 0.47,-0.83 0.15,-1.21 -2.2,-2.52 -0.95,-5.09 -0.15,-6.26 0.35,-0.52 0.54,-1.11 0.6,-1.73 0.86,-10.16 3.15,-20.38 3.88,-23.48 0.13,-0.53 0.65,-0.85 1.18,-0.73 0.43,0.09 0.75,0.46 0.77,0.91 0.28,4.91 0.63,10.08 0.8,12.48 0.05,0.68 0.19,1.35 0.51,1.96 0.3,0.57 0.48,1.31 0.58,1.88 0.1,0.57 0.41,1.07 0.84,1.46 1.53,1.35 1.96,3.72 2.07,5.27 0.06,0.91 0.5,1.76 1.22,2.33 3.54,2.81 0.11,4.69 0.11,4.69 -3.83,2.8 0.28,4.48 0.28,4.48 6.91,1.96 4.69,6.23 4.69,6.23 -0.95,1.75 -0.54,3.1 0.1,4.01 0.52,0.75 1.3,1.3 2.17,1.59 3.73,1.28 3.36,2.86 2.82,3.67 -0.22,0.34 -0.16,0.78 0.12,1.08 2.94,3.2 -4.14,5.24 -6.67,5.85 -0.74,0.18 -1.39,0.71 -1.56,1.45 -0.67,2.75 7,2.08 9.27,1.83 0.39,-0.05 0.78,-0.12 1.15,-0.25 6.32,-2.07 5.2,-5.99 4.49,-7.49 -0.18,-0.38 -0.48,-0.68 -0.83,-0.89 -3.1,-1.9 -3.73,-4.06 -3.82,-5.22 -0.05,-0.59 -0.21,-1.16 -0.5,-1.68 -2.98,-5.23 3.67,-4.87 5.67,-4.65 0.46,0.05 0.93,0.04 1.38,-0.05 2.87,-0.54 2.79,-2.05 2.41,-2.99 -0.17,-0.44 -0.51,-0.8 -0.94,-0.99 -1.64,-0.74 -2.11,-2.59 -2.25,-3.5 -0.05,-0.36 -0.23,-0.7 -0.49,-0.96 -8.95,-9.36 5.96,-10.22 8.27,-10.3 0.21,0 0.42,-0.03 0.63,-0.07 11.86,-2.58 -0.15,-4.6 -0.15,-4.6 -11.32,-1.49 -7.43,-5.51 -5.86,-6.8 0.27,-0.21 0.3,-0.6 0.06,-0.85 -4.16,-4.41 5.51,-5.52 7.22,-5.68 0.19,-0.02 0.38,-0.04 0.56,-0.08 11.79,-1.99 2.97,-6.86 2.97,-6.86 -11.4,-6.16 1.1,-11.67 1.1,-11.67 6.72,-3.78 2.24,-9.59 2.24,-9.59 -5.81,-5.12 -3.21,-6.68 -1.21,-7.15 1.31,-0.31 2.47,-1.11 3.08,-2.31 3.49,-6.8 5.85,-25.320003 6.42,-30.190003 0.08,-0.68 0.65,-1.19 1.34,-1.19 0.75,0 1.34,0.62 1.34,1.37 -0.05,17.98 9.55,29.380003 9.55,29.380003 6.02,6.18 1.79,10.48 -0.74,12.25 -0.65,0.47 -0.69,1.45 -0.07,1.96 1.84,1.51 3.39,3.41 4.41,4.8 0.85,1.17 1.93,2.13 3.12,2.95 6.33,4.31 -0.98,10.19 -0.98,10.19 -11.35,8.54 9.99,11.16 9.99,11.16 3.73,0.1 4.13,1.58 3.74,2.88 -0.31,1.08 -1.19,1.86 -2.2,2.36 -2.3,1.12 -3.2,3.71 -3.55,5.45 -0.2,0.95 -1.04,1.62 -2.01,1.59 -2.67,-0.07 -3.62,0.59 -3.9,1.25 -0.27,0.62 0.15,1.33 0.79,1.54 3.24,1.04 6.33,2.42 8.08,3.25 0.75,0.36 1.49,0.76 2.18,1.21 1.82,1.19 5.18,2.6 6.01,-0.35 0.46,-1.63 -0.12,-4.02 1.04,-5.4 0.35,-0.41 0.61,-0.89 0.67,-1.42 4.23,-37.34 7.21,-2.38 7.67,3.61 0.04,0.48 0.41,0.86 0.89,0.94 3.62,0.57 1.32,2.04 1.32,2.04 2.18,1.52 2.22,3.85 2.12,4.81 -0.03,0.33 0.05,0.65 0.19,0.95 0.95,2.07 0.49,2.78 -0.01,3.02 -0.65,0.32 -1.21,0.87 -1.25,1.59 -0.15,2.38 3.44,4.3 3.44,4.3 5.79,2.24 2.71,5.97 2.71,5.97 -3.37,4.2 1.49,4.67 1.49,4.67 6.86,-0.76 6.29,1.84 4.62,4.15 -1.27,1.75 -3.06,3.05 -5.03,3.94 -6.59,3 -1.53,6.23 2.14,7.92 1.42,0.65 2.92,1.08 4.44,1.46 4.84,1.21 4.63,4.5 3.51,7.16 -0.77,1.82 -2.01,3.42 -3.52,4.69 -5.93,5 1.65,6.94 4.66,7.48 0.65,0.12 1.31,0.18 1.97,0.17 10.09,-0.07 7.86,2.41 6.38,3.52 -0.36,0.27 -0.38,0.81 -0.04,1.12 5.13,4.79 -2.99,9.57 -7.25,11.61 -0.73,0.35 -0.6,1.43 0.19,1.61 7.31,1.61 13.34,2.81 16.04,3.34 0.89,0.17 1.53,0.95 1.53,1.85 z"
     id="path6"
     style="fill:url(#linear-gradient-2)" /><path
     class="cls-1"
     d="m 130.72,192.29092 c -1.2,6.67 -2.51,12.61 -2.51,12.61 -1.6,8.69 -7.19,14.4 -10.41,17.05 -1,0.83 -2.5,-0.09 -2.18,-1.35 0.79,-3.16 3.24,-6.4 4.99,-8.4 0.86,-0.99 0.55,-2.5 -0.61,-3.1 -2.93,-1.53 -6.05,-3.67 -8.13,-5.19 4.42,0.02 8.72,-1.44 11.96,-4.64 2.32,-2.29 4.48,-4.78 6.89,-6.98 z"
     id="path7" /><g
     id="g10"
     transform="translate(-65.24,-97.899083)"><path
       class="cls-3"
       d="m 330.07,220.44 c -3.49,-2.25 -7.07,3.03 -9.05,5.21 -1.95,1.95 -4.06,3.66 -6.24,5.36 -8.19,6.41 -16.68,12.36 -24.62,19.11 -6.63,5.63 -14.15,10.25 -19.7,17.07 -0.21,0.26 -0.47,0.65 -0.65,1.06 -0.38,0.85 -0.46,1.79 0.83,1.86 1.34,0.07 2.92,0.07 3.72,0.06 0.33,0 0.64,-0.15 0.87,-0.39 3.58,-3.73 13.86,-9.93 17.19,-11.89 0.76,-0.45 1.74,-0.15 2.12,0.64 0.35,0.73 0.63,1.64 0.81,2.35 0.2,0.77 0.19,1.57 -0.02,2.33 -0.65,2.3 -1.8,4.83 -2.49,6.26 -0.42,0.87 -0.51,1.87 -0.25,2.8 1.03,3.67 3.47,3.43 5.4,2.53 2.46,-1.15 3.64,-3.86 5.41,-5.78 1.87,-2.02 4.04,-3.77 6.43,-5.15 3.84,-2.22 8.64,-5.44 7.46,-10.62 -0.97,-4.23 2.23,-7.64 4.7,-10.65 1.54,-1.88 3.19,-3.7 4.96,-5.36 2.3,-2.3 4.5,-5.03 5.41,-8.21 0.73,-2.57 0.13,-7.03 -2.29,-8.6 z"
       id="path8" /><path
       class="cls-3"
       d="m 568.89,116.84 c -3.06,2.8 -10.06,8.51 -21.32,13.94 -4.43,2.14 -8.57,4.65 -12.37,7.8 -3.74,3.11 -7.09,6.7 -9.84,10.71 -2.75,4.01 -4.25,8.65 -6.16,13.09 -0.98,2.26 -2.24,4.52 -4.08,6.2 -2.16,1.97 -4.67,2.19 -7.39,2.92 -7.18,1.9 -13.04,6.92 -18.27,11.97 -3.36,3.25 -6.22,7.16 -10.59,9.13 -4.93,2.22 -10.55,2.29 -15.7,3.79 -3.7,1.07 -7.27,2.59 -10.59,4.53 -1.99,1.16 -3.88,2.48 -5.66,3.94 -1.91,1.58 -3.44,3.9 -5.38,5.35 0,0 -27.23,20.27 -35.35,27.67 -0.98,0.9 -0.95,2.45 0.06,3.32 0.78,0.66 1.9,0.71 2.73,0.12 4.8,-3.45 21.63,-14.93 44.59,-23.69 0.39,-0.15 0.76,0.25 0.58,0.63 -1.48,3.05 -6.05,12.51 -11.59,24.23 -0.58,1.23 0.81,2.45 1.95,1.71 7.78,-4.99 27.63,-18.92 62.44,-50.79 l 1.88,5.8 c 0.62,1.9 3.1,2.37 4.35,0.81 3.16,-3.93 8.48,-9.93 13.61,-12.99 0.91,-0.54 2,0.37 1.6,1.36 -2.9,7.1 -10.57,26.6 -12.05,37.01 -0.14,0.96 1.07,1.51 1.71,0.78 2.6,-2.97 7.38,-8.32 11.82,-12.71 2.18,-2.15 4.87,-3.71 7.85,-4.46 3.71,-0.93 9.36,-2.94 13.69,-7.06 2,-1.9 2.75,-4.76 1.93,-7.4 -0.99,-3.19 -2.45,-7.81 -3.69,-11.24 -0.87,-2.4 -0.67,-5.05 0.53,-7.3 1.48,-2.79 3.65,-6.51 5.8,-8.99 1.05,-1.21 1.25,-2.94 0.46,-4.34 -0.48,-0.85 -1.07,-1.85 -1.76,-2.89 -2.27,-3.44 -2.55,-7.83 -0.65,-11.49 2.07,-3.99 4.84,-8.93 7.45,-12.32 0,0 6.25,-8.79 8.67,-18.38 0.18,-0.73 -0.71,-1.25 -1.27,-0.74 z"
       id="path9" /><path
       class="cls-3"
       d="m 130.03,328.2 -1.13,-0.27 c -0.17,-0.04 -0.34,-0.01 -0.49,0.08 -0.75,0.48 -3.11,2.14 -4,4.71 -0.3,0.86 0.7,1.59 1.43,1.04 1.14,-0.85 2.74,-2.28 4.54,-4.55 0.29,-0.36 0.09,-0.9 -0.35,-1.01 z"
       id="path10" /></g></svg>
