<?xml version="1.0" encoding="UTF-8" standalone="no"?>
<svg
   id="Layer_1"
   data-name="Layer 1"
   viewBox="0 0 1024 524.42088"
   version="1.1"
   sodipodi:docname="Northern Trek_SVG File.svg"
   xml:space="preserve"
   width="1024"
   height="524.4209"
   inkscape:version="1.3 (0e150ed6c4, 2023-07-21)"
   xmlns:inkscape="http://www.inkscape.org/namespaces/inkscape"
   xmlns:sodipodi="http://sodipodi.sourceforge.net/DTD/sodipodi-0.dtd"
   xmlns="http://www.w3.org/2000/svg"
   xmlns:svg="http://www.w3.org/2000/svg"><sodipodi:namedview
     id="namedview19"
     pagecolor="#ffffff"
     bordercolor="#000000"
     borderopacity="0.25"
     inkscape:showpageshadow="2"
     inkscape:pageopacity="0.0"
     inkscape:pagecheckerboard="0"
     inkscape:deskcolor="#d1d1d1"
     inkscape:zoom="0.8588764"
     inkscape:cx="508.8043"
     inkscape:cy="284.67426"
     inkscape:window-width="1920"
     inkscape:window-height="1009"
     inkscape:window-x="1912"
     inkscape:window-y="-8"
     inkscape:window-maximized="1"
     inkscape:current-layer="Layer_1" /><defs
     id="defs5"><style
       id="style1">&#10;      .cls-1 {&#10;        fill: none;&#10;      }&#10;&#10;      .cls-2 {&#10;        fill: url(#linear-gradient);&#10;      }&#10;&#10;      .cls-3 {&#10;        fill: #fff;&#10;      }&#10;&#10;      .cls-4 {&#10;        fill: #1d3c4a;&#10;      }&#10;&#10;      .cls-5 {&#10;        fill: url(#linear-gradient-2);&#10;      }&#10;    </style><linearGradient
       id="linear-gradient"
       x1="161.74001"
       y1="241.39999"
       x2="153.33"
       y2="436.39001"
       gradientUnits="userSpaceOnUse"
       gradientTransform="translate(-65.24,-97.899083)"><stop
         offset=".06"
         stop-color="#1c3c4b"
         id="stop1" /><stop
         offset=".8"
         stop-color="#2e4853"
         id="stop2" /></linearGradient><linearGradient
       id="linear-gradient-2"
       x1="649.03998"
       y1="109.16"
       x2="579.91998"
       y2="522.63"
       gradientUnits="userSpaceOnUse"
       gradientTransform="translate(-65.24,-97.899083)"><stop
         offset=".38"
         stop-color="#1c3c4b"
         id="stop3" /><stop
         offset=".57"
         stop-color="#2e4853"
         id="stop4" /><stop
         offset=".65"
         stop-color="#2e4853"
         id="stop5" /></linearGradient></defs><path
     class="cls-2"
     d="m 183.5,242.52092 c -2.05,3.29 -5.61,10.41 -3.49,17.65 0.81,2.8 -0.53,5.78 -3.14,7.1 L 0,357.08092 v -93.97 c 0,0 4.14,8.83 9.11,10.96 0.72,0.32 1.48,-0.33 1.26,-1.09 -1.16,-3.99 -4.18,-14.84 -4.9,-21.88 -0.05,-0.46 0.47,-0.75 0.83,-0.48 1.94,1.47 6.71,4.6 12.75,5.28 1.05,0.12 1.89,-0.84 1.69,-1.87 -0.67,-3.54 -2.67,-10.65 -7.87,-11.84 -1.15,-0.26 -2.19,-0.86 -2.83,-1.85 -0.58,-0.87 -1,-2.02 -0.61,-3.27 0,0 3.06,3.05 7.38,2.16 0.85,-0.18 1.7,-0.29 2.57,-0.26 2.12,0.08 6.31,-0.01 9.29,-1.69 1.59,-0.89 1.15,-3.3 -0.65,-3.6 -2.53,-0.43 -6.07,-1.42 -9.64,-3.68 -0.45,-0.29 -0.29,-0.99 0.24,-1.06 2,-0.25 5.22,-1.1 6.15,-3.9 0.36,-1.09 1.33,-1.86 2.45,-2.12 3.81,-0.89 10.68,-3.25 4.51,-7.85 -0.58,-0.43 -1.23,-0.78 -1.89,-1.09 -1.83,-0.88 -6.07,-3.64 -0.96,-8.63 0.83,-0.81 1.77,-1.49 2.76,-2.1 2.25,-1.38 7.54,-5.16 3.19,-8.01 0,0 -3.65,-3.08 -0.43,-7.04 1.52,-1.86 2.51,-4.09 3.12,-6.42 1.5,-5.77 3.74,-15.49 3.44,-21.18 -0.03,-0.44 0.24,-0.84 0.67,-0.96 0.51,-0.14 1.04,0.17 1.15,0.7 0.6,2.86 2.48,11.51 4.23,16.78 0.53,1.59 0.74,3.3 0.38,4.94 -0.31,1.38 -0.02,3.47 2.75,5.99 l 3.78,3.5 c 0.6,0.56 0.4,1.54 -0.37,1.83 -2.38,0.87 -6.23,2.66 -4.8,4.77 0.46,0.66 0.91,1.32 1.21,2.06 0.63,1.57 2.24,4.11 6.07,4.55 0,0 8.69,2.23 3.44,5.41 -0.42,0.26 -0.75,0.69 -0.77,1.18 -0.05,0.77 -0.62,1.95 -3.59,2.26 -0.41,0.05 -0.81,0.17 -1.15,0.39 -1.01,0.62 -2.57,2.12 0.15,4.36 0.98,0.81 2.13,1.37 3.34,1.74 1.97,0.6 5.55,1.96 5.04,3.7 -0.32,1.1 -0.13,2.29 0.78,2.99 1.12,0.86 2.82,1.38 5.06,-0.17 0.45,-0.31 0.73,-0.9 1.25,-1.21 0.64,-0.4 1.38,-0.62 2.11,-0.75 0.77,-0.13 1.86,0.09 2.48,-0.43 0.55,-0.46 0.52,-1.35 0.17,-1.98 -0.35,-0.63 -0.94,-1.08 -1.45,-1.6 -1.19,-1.21 -1.96,-2.89 -1.91,-4.59 0.06,-1.99 1.24,-3.67 3.02,-4.49 2.5,-1.16 5.96,-0.51 8.1,-2.34 0.17,-0.15 0.33,-0.33 0.41,-0.55 0.51,-1.4 -2.03,-2.83 -2.87,-3.52 -1.07,-0.86 -2.03,-1.98 -2.74,-3.16 -2.77,-4.62 3.37,-6.18 6.8,-6.28 1.48,-0.05 8.06,0 5.1,-2.78 -2.28,-2.14 -5.8,-2.68 -7.8,-5.11 -0.93,-1.12 -2.87,-4.25 -2.55,-5.77 0.4,-1.91 3.29,-0.37 4.27,0.08 2.33,1.07 7.25,2.39 9.45,0.4 1.84,-1.66 -3.11,-3.79 -4,-4.62 -1.07,-1 -2.15,-2.18 -2.6,-3.61 -0.23,-0.71 -0.16,-1.89 0.1,-2.59 0.27,-0.71 0.5,-1.15 0.15,-2.07 -1.01,-2.62 3.05,-2.53 4.57,-2.43 0,0 -6.58,-8.19 0.77,-5.53 -0.69,-0.25 -0.83,-4.47 -0.85,-5.06 -0.02,-1.15 0.06,-2.37 0.48,-3.45 0.24,-0.62 0.69,-1.12 1.21,-1.53 1.31,-1.07 1.35,-1.7 1.54,-2.97 0.16,-1.13 0.34,-2.27 0.52,-3.4 0.45,-2.77 0.94,-5.55 1.62,-8.28 0.21,-0.86 0.79,-4.56 1.98,-4.79 2.12,-0.42 2.46,10.96 2.53,12.41 0.08,1.62 0.11,3.42 0.86,4.9 0.36,0.7 0.89,1.35 1.6,1.7 0.6,0.29 1.76,0.44 2.16,1 0.64,0.9 -0.48,1.5 -1.02,2.16 -0.17,0.21 -0.33,0.44 -0.35,0.71 -0.06,1.09 1.6,1.55 2.17,2.24 0.48,0.59 0.66,1.35 0.66,2.1 0,0.9 -0.21,1.53 0.63,2.11 1.38,0.97 4.64,1.25 3.31,3.78 -0.25,0.47 -0.61,0.87 -1.01,1.23 -0.58,0.53 -0.7,1.41 -0.24,2.04 1.03,1.38 2.13,3.94 -0.46,6.92 -0.57,0.66 -0.3,1.68 0.54,1.92 4.28,1.19 12.85,4.57 0.27,10.17 -1.02,0.45 -1.12,1.89 -0.15,2.44 1.68,0.95 4.41,1.98 8.32,1.88 1.46,-0.04 2.35,1.57 1.57,2.8 -1.57,2.46 -4.2,5.69 -7.78,6.91 -0.71,0.24 -0.87,1.17 -0.27,1.63 0.26,0.2 0.55,0.41 0.87,0.65 2.08,1.52 5.2,3.66 8.13,5.19 1.16,0.6 1.47,2.11 0.61,3.1 -1.75,2 -4.2,5.24 -4.99,8.4 -0.32,1.26 1.18,2.18 2.18,1.35 3.22,-2.65 8.81,-8.36 10.41,-17.05 0,0 1.31,-5.94 2.51,-12.61 0.94,-5.19 1.82,-10.84 1.96,-14.49 0.02,-0.56 0.44,-1.01 1,-1.09 0.05,-0.01 0.1,-0.01 0.15,-0.01 0.58,0 1.08,0.43 1.14,1.02 0.22,1.88 0.73,5.85 1.51,10.37 1.56,8.94 4.21,20.03 7.96,21.31 0.34,0.12 0.51,0.48 0.34,0.79 -0.98,1.84 -3.13,6.92 2.43,7.68 0.32,0.04 0.52,0.36 0.43,0.67 -0.78,2.74 -3.4,13.74 4.5,14.37 0.47,0.04 0.67,0.63 0.31,0.95 -3.18,2.76 -11.58,10.76 -3.95,12.39 1.41,0.3 2.88,0.03 4.11,-0.7 2.01,-1.2 4.99,-3.66 6.2,-8.12 0.38,-1.37 0.73,-2.75 1.19,-4.1 1.9,-5.61 6.48,-19.99 7.53,-30.87 0.06,-0.64 0.94,-0.77 1.16,-0.17 1.37,3.71 3.92,11.38 5.83,21.87 0.61,3.32 0.85,6.69 0.81,10.07 -0.04,4.66 0.9,11.74 7.59,7.71 0.38,-0.23 0.82,0.2 0.58,0.58 z"
     id="path5"
     style="fill:url(#linear-gradient)" /><path
     class="cls-5"
     d="m 1024,256.19092 v 268.23 c -17.08,-0.53 -34.09,-2.76 -50.83,-6.12 -20.25,-4.08 -40.09,-9.94 -59.57,-16.75 -40.61,-14.2 -79.27,-33.19 -119.76,-47.64 -68.78,-24.56 -140.13,-38.53 -213.02,-42.76 -68.66,-3.99 -137.63,0.68 -205.79,9.24 -80.31,11.21 -142.6,32.87 -142.6,32.87 -41.74,13.73 -78.54,26.52 -78.54,26.52 -76.2,27.64 -153.89,39.41 -153.89,39.41 v -162.11 l 176.87,-89.81 c 2.61,-1.32 3.95,-4.3 3.14,-7.1 -2.12,-7.24 1.44,-14.36 3.49,-17.65 0.24,-0.38 -0.2,-0.81 -0.58,-0.58 -6.69,4.03 -7.63,-3.05 -7.59,-7.71 0.04,-3.38 -0.2,-6.75 -0.81,-10.07 -1.91,-10.49 -4.46,-18.16 -5.83,-21.87 -0.22,-0.6 -1.1,-0.47 -1.16,0.17 -1.05,10.88 -5.63,25.26 -7.53,30.87 -0.46,1.35 -0.81,2.73 -1.19,4.1 -1.21,4.46 -4.19,6.92 -6.2,8.12 -1.23,0.73 -2.7,1 -4.11,0.7 -7.63,-1.63 0.77,-9.63 3.95,-12.39 0.36,-0.32 0.16,-0.91 -0.31,-0.95 -7.9,-0.63 -5.28,-11.63 -4.5,-14.37 0.09,-0.31 -0.11,-0.63 -0.43,-0.67 -5.56,-0.76 -3.41,-5.84 -2.43,-7.68 0.17,-0.31 0,-0.67 -0.34,-0.79 -3.75,-1.28 -6.4,-12.37 -7.96,-21.31 4.28,-2.41 9.16,-4.03 13.56,-5.92 4.34,-1.85 8.76,-3.5 13.16,-5.18 9.58,-3.62 19.71,-7.33 27.93,-13.56 8.67,-6.58 16.63,-14.03 24.89,-21.1 16.33,-13.96 34.31,-26.08 53.05,-36.59 1.54,-0.86 3.42,-0.88 4.98,-0.04 15.46,8.27 30.22,17.48 47.37,21.92 2.28,0.59 4.71,0.19 6.68,-1.12 13.48,-8.95 45.53,-34.500003 45.53,-34.500003 4.37,-4.18 9.88,-7.91 15.9,-9.18 5.26,-1.12 10.24,-1.96 15.02,-4.64 3.54,-1.97 6.56,-4.85 9.77,-7.32 3.37,-2.59 6.79,-5.11 10.26,-7.55 21.14,-14.89 38.67,-34.01 59.55,-49.17 7.08,-5.1400002 14.47,-10.0100002 22.4,-13.74000019 1.4,-0.65 3.04,-0.5 4.31,0.38 8.38,5.76999999 21.36,18.94000019 21.36,18.94000019 6.92,5.7 13.48,11.84 19.83,18.17 5.6,5.57 10.38,12.13 16.8,16.83 5.86,4.29 12.78,7.23 18.97,11.03 6.2,3.81 12.23,7.86 18.26,11.92 8.7,5.84 17.11,12.13 25.32,18.64 6.76,5.380003 12.92,12.090003 20.34,16.550003 6.98,4.19 15.24,5.7 23.25,6.35 7.61,0.62 15.3,0.5 22.92,-0.08 3.43,-0.27 6.85,0.68 9.64,2.69 3.96,2.86 8.03,5.62 8.03,5.62 8.03,6.09 15.06,8.82 18.93,9.97 0.89,0.27 1.57,-0.81 0.95,-1.51 -3.27,-3.69 -4,-6.14 -4.14,-7.31 -0.06,-0.52 -0.31,-0.99 -0.69,-1.35 -1.89,-1.83 -1.86,-4.12 -1.58,-5.54 0.14,-0.74 0.89,-1.25 1.63,-1.13 5.11,0.85 9.26,0.45 11.78,-0.03 0.9,-0.16 1.09,-1.37 0.28,-1.81 -9.36,-5.01 -9.72,-12.41 -9.46,-15.29 0.04,-0.49 0.63,-0.69 0.97,-0.34 2.44,2.53 4.73,3.14 6.41,3.11 1.86,-0.04 2.96,-2.03 1.95,-3.59 -1.27,-1.95 -3.67,-3.550003 -5.13,-4.400003 -0.47,-0.28 -0.49,-0.97 -0.04,-1.27 2.78,-1.83 2.75,-5.28 2.48,-7.22 -0.11,-0.74 -0.33,-1.44 -0.7,-2.09 -1.02,-1.77 -1.36,-3.24 -1.45,-4.27 -0.05,-0.61 0.61,-0.97 1.14,-0.66 1.44,0.83 3.21,0.68 3.21,0.68 1.79,-0.07 2.45,-0.83 2.67,-1.56 0.21,-0.71 -0.04,-1.45 -0.5,-2.03 -2.16,-2.7 -2.42,-6.16 -2.36,-8.12 0,-0.29 0.41,-0.37 0.52,-0.1 0.27,0.69 0.6,1.12 0.93,1.39 0.7,0.58 1.58,0.36 2,-0.45 0.45,-0.87 0.54,-1.85 0.5,-2.67 -0.05,-1.01 -0.41,-1.97 -0.98,-2.8 -3.72,-5.39 -0.9,-4.23 0.55,-3.44 0.34,0.19 0.78,-0.04 0.83,-0.43 4.08,-29.03 6.58,-7.04 7.23,0.06 0.11,1.18 0.74,2.22 1.65,2.97 2.05,1.67 2.08,3.61 1.87,4.72 -0.1,0.54 0.14,1.07 0.61,1.35 1.71,0.98 2.4,2.19 2.59,3.31 0.28,1.62 -0.64,3.24 -2.12,3.97 -0.61,0.3 -1.01,0.6 -1.27,0.87 -0.65,0.69 -0.14,1.87 0.81,1.91 0.8,0.03 1.61,-0.44 2.19,-0.87 0.59,-0.44 1.39,-0.42 1.98,0.02 1.12,0.82 1.77,1.89 2.13,2.66 0.25,0.52 0.08,1.13 -0.41,1.43 -1.64,1.04 -3.39,2.42 -4.55,4 -0.57,0.77 -2.19,3.08 -0.86,3.84 1.39,0.79 2.84,-1.28 3.73,-1.99 0.74,-0.6 2.05,-1.56 2.97,-0.77 0.76,0.65 0.56,2.14 0.44,2.99 -0.04,0.31 0.15,0.6 0.45,0.67 3.35,0.79 -0.32,6.600003 -0.32,6.600003 -0.93,3.08 -3.27,4.11 -3.27,4.11 -5.6,4.29 2.15,4.01 2.15,4.01 12.83,-1.08 7.24,5.71 4.93,8.08 -0.52,0.53 -0.86,1.2 -1.05,1.93 -0.76,2.88 -2.53,3.68 -3.34,3.9 -0.47,0.12 -0.91,0.33 -1.33,0.55 -9.16,4.93 -1.2,4.61 2.32,4.29 0.91,-0.09 1.78,-0.38 2.58,-0.84 5.51,-3.13 4.78,0.28 4.11,2.1 -0.2,0.54 -0.04,1.13 0.4,1.5 1.87,1.59 0.14,4.59 -1.07,6.24 -0.49,0.68 -1.16,1.24 -1.9,1.64 -1.6,0.86 -2.52,1.74 -3.04,2.51 -0.53,0.77 0.22,1.8 1.11,1.51 3.74,-1.21 8.36,-1.56 10.37,-1.66 0.58,-0.03 1.17,-0.08 1.75,-0.16 7.07,-1.06 4.87,2.56 3.26,4.5 -0.59,0.71 -1.09,1.51 -1.45,2.37 -0.64,1.56 -2.12,2.48 -3.36,3.54 -0.98,0.82 -2.87,2.69 -1.72,4.04 0.92,1.08 2.81,0.97 4.01,0.54 13.79,-4.94 1.14,6 0.41,6 -0.93,0.66 -2.02,1.43 -2.58,2.46 -1.53,2.83 4.43,3.07 5.92,3.13 2.07,0.08 4.17,-0.14 6.19,0.44 0.62,0.17 1.23,0.48 1.63,0.98 0.86,1.08 0.46,2.77 -0.75,3.38 -1.62,0.82 -2.87,2.26 -3.61,3.25 -0.33,0.46 -0.04,1.08 0.52,1.14 5.08,0.5 11.36,5.67 11.36,5.67 4.01,2.89 8.02,4.86 10.04,5.77 1.16,0.52 2.5,0.6 3.67,0.1 0.81,-0.35 1.3,-0.83 1.59,-1.25 0.27,-0.41 0.16,-0.96 -0.24,-1.24 -1.99,-1.34 -2.36,-4.15 -2.44,-5.3 -0.02,-0.35 -0.13,-0.67 -0.29,-0.98 -2.66,-4.85 5.42,-4.76 5.42,-4.76 2.34,0.04 4.16,-0.14 5.52,-0.37 1.95,-0.33 2.24,-3.1 0.38,-3.78 -1.94,-0.7 -4.41,-0.9 -5.66,-0.96 -0.47,-0.02 -0.85,-0.38 -0.9,-0.84 l -0.14,-1.11 c -0.07,-0.6 0.41,-1.11 1.01,-1.07 6.01,0.4 9.09,0.09 10.66,-0.32 0.6,-0.15 0.56,-1.05 -0.06,-1.14 -4.46,-0.72 -6.37,-3.41 -7,-4.59 -0.18,-0.33 -0.5,-0.58 -0.87,-0.64 -1.76,-0.29 -2.79,-1.27 -3.24,-1.81 -0.18,-0.22 -0.27,-0.49 -0.27,-0.76 v -3.14 c 0,-0.68 0.56,-1.23 1.23,-1.23 h 9 c 8.41,-0.22 3.58,-4.49 1.32,-6.18 -0.54,-0.4 -1.14,-0.71 -1.79,-0.91 -4.43,-1.38 -4.18,-3.39 -3.58,-4.53 0.3,-0.56 0.13,-1.26 -0.34,-1.68 -0.97,-0.88 -1.63,-1.59 -2.08,-2.15 -0.46,-0.58 0.08,-1.43 0.79,-1.25 3.3,0.84 5.71,0.53 7.22,0.07 0.96,-0.3 1.26,-1.49 0.56,-2.21 -2.05,-2.11 -3.83,-4.14 -5.01,-5.53 -0.41,-0.48 0.03,-1.22 0.65,-1.09 2.19,0.49 4.5,0.35 5.91,0.18 0.5,-0.06 0.72,-0.67 0.37,-1.02 -1.42,-1.42 -1.45,-2.82 -1.3,-3.62 0.09,-0.45 -0.13,-0.91 -0.51,-1.17 -3.4,-2.36 -0.77,-3.86 0.76,-4.46 0.35,-0.14 0.41,-0.61 0.1,-0.83 -1.27,-0.89 -2.45,-2.08 -3.18,-2.88 -0.27,-0.29 -0.02,-0.75 0.37,-0.71 2.46,0.25 4.38,-0.45 5.69,-1.23 1.09,-0.65 1.29,-2.13 0.42,-3.05 -3.38,-3.59 0.31,-6.17 0.31,-6.17 1.37,-1.18 2.34,-2.610003 3.01,-3.950003 0.83,-1.67 1.18,-4.52 0.6,-6.28 -0.71,-2.15 -0.2,-4.33 0.18,-5.48 0.16,-0.49 0.62,-0.82 1.14,-0.82 0.52,0 0.97,0.32 1.13,0.81 1.82,5.5 2.97,12.87 3.4,15.880003 0.1,0.74 0.46,1.43 1.02,1.92 1.7,1.47 0.04,3.61 -1.07,4.73 -0.32,0.32 -0.14,0.86 0.3,0.95 8.73,1.7 6.93,6.14 5.7,8.03 -0.28,0.44 -0.06,1.03 0.43,1.19 1.68,0.56 3.01,1.36 3.97,2.08 1,0.75 1.03,2.23 0.06,3.01 -1.73,1.37 -2.97,2.85 -3.76,3.94 -0.41,0.57 0.08,1.37 0.78,1.27 6.27,-0.86 5.66,2.11 4.81,3.87 -0.34,0.7 -0.09,1.52 0.56,1.95 2.66,1.73 3.16,3.36 3.02,4.52 -0.12,1 -0.89,1.79 -1.84,2.12 -3.77,1.31 -5.89,2.97 -7.07,4.31 -1.31,1.47 -0.84,3.73 0.95,4.55 3.18,1.47 8.24,0.89 10.81,0.46 0.85,-0.15 1.62,0.56 1.53,1.42 -0.73,6.49 -5.87,11.24 -9.04,13.6 -1.18,0.87 -0.79,2.68 0.62,3.07 3.57,0.98 8.08,0.92 8.08,0.92 10.49,0 4.92,6.94 2.94,9.09 -0.3,0.32 -0.35,0.82 -0.09,1.18 1.34,1.81 -1.8,2.53 -4.24,2.81 -1.16,0.14 -1.57,1.61 -0.66,2.36 4.05,3.29 11.22,3.26 14.26,3.08 0.77,-0.05 1.36,-0.7 1.32,-1.47 -0.34,-7.14 3.06,-10.19 4.73,-11.25 0.41,-0.26 0.47,-0.83 0.15,-1.21 -2.2,-2.52 -0.95,-5.09 -0.15,-6.26 0.35,-0.52 0.54,-1.11 0.6,-1.73 0.86,-10.16 3.15,-20.38 3.88,-23.48 0.13,-0.53 0.65,-0.85 1.18,-0.73 0.43,0.09 0.75,0.46 0.77,0.91 0.28,4.91 0.63,10.08 0.8,12.48 0.05,0.68 0.19,1.35 0.51,1.96 0.3,0.57 0.48,1.31 0.58,1.88 0.1,0.57 0.41,1.07 0.84,1.46 1.53,1.35 1.96,3.72 2.07,5.27 0.06,0.91 0.5,1.76 1.22,2.33 3.54,2.81 0.11,4.69 0.11,4.69 -3.83,2.8 0.28,4.48 0.28,4.48 6.91,1.96 4.69,6.23 4.69,6.23 -0.95,1.75 -0.54,3.1 0.1,4.01 0.52,0.75 1.3,1.3 2.17,1.59 3.73,1.28 3.36,2.86 2.82,3.67 -0.22,0.34 -0.16,0.78 0.12,1.08 2.94,3.2 -4.14,5.24 -6.67,5.85 -0.74,0.18 -1.39,0.71 -1.56,1.45 -0.67,2.75 7,2.08 9.27,1.83 0.39,-0.05 0.78,-0.12 1.15,-0.25 6.32,-2.07 5.2,-5.99 4.49,-7.49 -0.18,-0.38 -0.48,-0.68 -0.83,-0.89 -3.1,-1.9 -3.73,-4.06 -3.82,-5.22 -0.05,-0.59 -0.21,-1.16 -0.5,-1.68 -2.98,-5.23 3.67,-4.87 5.67,-4.65 0.46,0.05 0.93,0.04 1.38,-0.05 2.87,-0.54 2.79,-2.05 2.41,-2.99 -0.17,-0.44 -0.51,-0.8 -0.94,-0.99 -1.64,-0.74 -2.11,-2.59 -2.25,-3.5 -0.05,-0.36 -0.23,-0.7 -0.49,-0.96 -8.95,-9.36 5.96,-10.22 8.27,-10.3 0.21,0 0.42,-0.03 0.63,-0.07 11.86,-2.58 -0.15,-4.6 -0.15,-4.6 -11.32,-1.49 -7.43,-5.51 -5.86,-6.8 0.27,-0.21 0.3,-0.6 0.06,-0.85 -4.16,-4.41 5.51,-5.52 7.22,-5.68 0.19,-0.02 0.38,-0.04 0.56,-0.08 11.79,-1.99 2.97,-6.86 2.97,-6.86 -11.4,-6.16 1.1,-11.67 1.1,-11.67 6.72,-3.78 2.24,-9.59 2.24,-9.59 -5.81,-5.12 -3.21,-6.68 -1.21,-7.15 1.31,-0.31 2.47,-1.11 3.08,-2.31 3.49,-6.8 5.85,-25.320003 6.42,-30.190003 0.08,-0.68 0.65,-1.19 1.34,-1.19 0.75,0 1.34,0.62 1.34,1.37 -0.05,17.98 9.55,29.380003 9.55,29.380003 6.02,6.18 1.79,10.48 -0.74,12.25 -0.65,0.47 -0.69,1.45 -0.07,1.96 1.84,1.51 3.39,3.41 4.41,4.8 0.85,1.17 1.93,2.13 3.12,2.95 6.33,4.31 -0.98,10.19 -0.98,10.19 -11.35,8.54 9.99,11.16 9.99,11.16 3.73,0.1 4.13,1.58 3.74,2.88 -0.31,1.08 -1.19,1.86 -2.2,2.36 -2.3,1.12 -3.2,3.71 -3.55,5.45 -0.2,0.95 -1.04,1.62 -2.01,1.59 -2.67,-0.07 -3.62,0.59 -3.9,1.25 -0.27,0.62 0.15,1.33 0.79,1.54 3.24,1.04 6.33,2.42 8.08,3.25 0.75,0.36 1.49,0.76 2.18,1.21 1.82,1.19 5.18,2.6 6.01,-0.35 0.46,-1.63 -0.12,-4.02 1.04,-5.4 0.35,-0.41 0.61,-0.89 0.67,-1.42 4.23,-37.34 7.21,-2.38 7.67,3.61 0.04,0.48 0.41,0.86 0.89,0.94 3.62,0.57 1.32,2.04 1.32,2.04 2.18,1.52 2.22,3.85 2.12,4.81 -0.03,0.33 0.05,0.65 0.19,0.95 0.95,2.07 0.49,2.78 -0.01,3.02 -0.65,0.32 -1.21,0.87 -1.25,1.59 -0.15,2.38 3.44,4.3 3.44,4.3 5.79,2.24 2.71,5.97 2.71,5.97 -3.37,4.2 1.49,4.67 1.49,4.67 6.86,-0.76 6.29,1.84 4.62,4.15 -1.27,1.75 -3.06,3.05 -5.03,3.94 -6.59,3 -1.53,6.23 2.14,7.92 1.42,0.65 2.92,1.08 4.44,1.46 4.84,1.21 4.63,4.5 3.51,7.16 -0.77,1.82 -2.01,3.42 -3.52,4.69 -5.93,5 1.65,6.94 4.66,7.48 0.65,0.12 1.31,0.18 1.97,0.17 10.09,-0.07 7.86,2.41 6.38,3.52 -0.36,0.27 -0.38,0.81 -0.04,1.12 5.13,4.79 -2.99,9.57 -7.25,11.61 -0.73,0.35 -0.6,1.43 0.19,1.61 7.31,1.61 13.34,2.81 16.04,3.34 0.89,0.17 1.53,0.95 1.53,1.85 z"
     id="path6"
     style="fill:url(#linear-gradient-2)" /><path
     class="cls-1"
     d="m 130.72,192.29092 c -1.2,6.67 -2.51,12.61 -2.51,12.61 -1.6,8.69 -7.19,14.4 -10.41,17.05 -1,0.83 -2.5,-0.09 -2.18,-1.35 0.79,-3.16 3.24,-6.4 4.99,-8.4 0.86,-0.99 0.55,-2.5 -0.61,-3.1 -2.93,-1.53 -6.05,-3.67 -8.13,-5.19 4.42,0.02 8.72,-1.44 11.96,-4.64 2.32,-2.29 4.48,-4.78 6.89,-6.98 z"
     id="path7" /><g
     id="g10"
     transform="translate(-65.24,-97.899083)"><path
       class="cls-3"
       d="m 330.07,220.44 c -3.49,-2.25 -7.07,3.03 -9.05,5.21 -1.95,1.95 -4.06,3.66 -6.24,5.36 -8.19,6.41 -16.68,12.36 -24.62,19.11 -6.63,5.63 -14.15,10.25 -19.7,17.07 -0.21,0.26 -0.47,0.65 -0.65,1.06 -0.38,0.85 -0.46,1.79 0.83,1.86 1.34,0.07 2.92,0.07 3.72,0.06 0.33,0 0.64,-0.15 0.87,-0.39 3.58,-3.73 13.86,-9.93 17.19,-11.89 0.76,-0.45 1.74,-0.15 2.12,0.64 0.35,0.73 0.63,1.64 0.81,2.35 0.2,0.77 0.19,1.57 -0.02,2.33 -0.65,2.3 -1.8,4.83 -2.49,6.26 -0.42,0.87 -0.51,1.87 -0.25,2.8 1.03,3.67 3.47,3.43 5.4,2.53 2.46,-1.15 3.64,-3.86 5.41,-5.78 1.87,-2.02 4.04,-3.77 6.43,-5.15 3.84,-2.22 8.64,-5.44 7.46,-10.62 -0.97,-4.23 2.23,-7.64 4.7,-10.65 1.54,-1.88 3.19,-3.7 4.96,-5.36 2.3,-2.3 4.5,-5.03 5.41,-8.21 0.73,-2.57 0.13,-7.03 -2.29,-8.6 z"
       id="path8" /><path
       class="cls-3"
       d="m 568.89,116.84 c -3.06,2.8 -10.06,8.51 -21.32,13.94 -4.43,2.14 -8.57,4.65 -12.37,7.8 -3.74,3.11 -7.09,6.7 -9.84,10.71 -2.75,4.01 -4.25,8.65 -6.16,13.09 -0.98,2.26 -2.24,4.52 -4.08,6.2 -2.16,1.97 -4.67,2.19 -7.39,2.92 -7.18,1.9 -13.04,6.92 -18.27,11.97 -3.36,3.25 -6.22,7.16 -10.59,9.13 -4.93,2.22 -10.55,2.29 -15.7,3.79 -3.7,1.07 -7.27,2.59 -10.59,4.53 -1.99,1.16 -3.88,2.48 -5.66,3.94 -1.91,1.58 -3.44,3.9 -5.38,5.35 0,0 -27.23,20.27 -35.35,27.67 -0.98,0.9 -0.95,2.45 0.06,3.32 0.78,0.66 1.9,0.71 2.73,0.12 4.8,-3.45 21.63,-14.93 44.59,-23.69 0.39,-0.15 0.76,0.25 0.58,0.63 -1.48,3.05 -6.05,12.51 -11.59,24.23 -0.58,1.23 0.81,2.45 1.95,1.71 7.78,-4.99 27.63,-18.92 62.44,-50.79 l 1.88,5.8 c 0.62,1.9 3.1,2.37 4.35,0.81 3.16,-3.93 8.48,-9.93 13.61,-12.99 0.91,-0.54 2,0.37 1.6,1.36 -2.9,7.1 -10.57,26.6 -12.05,37.01 -0.14,0.96 1.07,1.51 1.71,0.78 2.6,-2.97 7.38,-8.32 11.82,-12.71 2.18,-2.15 4.87,-3.71 7.85,-4.46 3.71,-0.93 9.36,-2.94 13.69,-7.06 2,-1.9 2.75,-4.76 1.93,-7.4 -0.99,-3.19 -2.45,-7.81 -3.69,-11.24 -0.87,-2.4 -0.67,-5.05 0.53,-7.3 1.48,-2.79 3.65,-6.51 5.8,-8.99 1.05,-1.21 1.25,-2.94 0.46,-4.34 -0.48,-0.85 -1.07,-1.85 -1.76,-2.89 -2.27,-3.44 -2.55,-7.83 -0.65,-11.49 2.07,-3.99 4.84,-8.93 7.45,-12.32 0,0 6.25,-8.79 8.67,-18.38 0.18,-0.73 -0.71,-1.25 -1.27,-0.74 z"
       id="path9" /><path
       class="cls-3"
       d="m 130.03,328.2 -1.13,-0.27 c -0.17,-0.04 -0.34,-0.01 -0.49,0.08 -0.75,0.48 -3.11,2.14 -4,4.71 -0.3,0.86 0.7,1.59 1.43,1.04 1.14,-0.85 2.74,-2.28 4.54,-4.55 0.29,-0.36 0.09,-0.9 -0.35,-1.01 z"
       id="path10" /></g><g
     id="g18"
     style="display:none"><polygon
       class="cls-3"
       points="383.52,315.06 399.81,309.89 394.72,293.83 378.29,299.04 358.63,305.27 342.03,310.54 347.12,326.6 363.86,321.29 387.12,392.46 406.72,386.06 "
       id="polygon10" /><polygon
       class="cls-3"
       points="793.59,324.11 811.24,330.59 816.9,314.72 799.12,308.19 779.7,301.25 762.22,294.93 756.56,310.8 774.17,317.17 749.25,388.62 768.73,395.38 "
       id="polygon11" /><polygon
       class="cls-3"
       points="465.64,369.9 485.92,366.16 469.24,275.89 448.96,279.64 455.56,315.36 436.78,319.89 429.23,284.1 409.05,288.36 427.99,378.18 448.17,373.92 440.84,339.14 459.14,334.73 "
       id="polygon12" /><polygon
       class="cls-3"
       points="491.96,273.2 499.26,364.71 547.29,361.98 547.29,343.47 518.44,345.76 516.82,325.47 540.94,324.79 540.01,307.42 515.46,308.42 513.96,289.65 542.11,287.53 541.13,270.18 512.55,271.94 512.52,271.56 "
       id="polygon13" /><polygon
       class="cls-3"
       points="918.89,370.61 901.48,359.55 854.09,434.99 894.11,461.67 904.88,447.3 880.46,431.78 890.97,415.05 910.67,428.99 920.03,414.94 899.8,400.99 909.52,385.51 933.28,400.75 942.59,386.69 918.69,370.92 "
       id="polygon14" /><path
       class="cls-3"
       d="m 620.41,304.38 v -8.68 c 0,-13.34 -10.51,-24.3 -23.83,-24.87 l -15.08,-0.64 h -20.62 v 91.79 h 20.62 v -32.7 h 5.66 l 12.99,32.7 h 21.39 l -14.55,-35.5 c 7.98,-4.15 13.43,-12.48 13.43,-22.09 z m -20.45,-2.37 c 0,5.46 -4.43,9.89 -9.89,9.89 h -8.57 v -24.65 h 8.57 c 5.46,0 9.89,4.43 9.89,9.89 z"
       id="path14" /><path
       class="cls-3"
       d="m 869.94,378.48 3.77,-7.83 c 5.78,-12.02 1.07,-26.46 -10.69,-32.75 l -13.31,-7.12 -18.58,-8.94 -39.8,82.72 18.58,8.94 14.18,-29.47 5.1,2.45 -2.47,35.1 19.27,9.27 2.29,-38.3 c 8.99,-0.28 17.51,-5.42 21.68,-14.09 z m -15.29,-15.39 -2.11,4.39 c -2.37,4.92 -8.28,6.99 -13.2,4.62 l -7.72,-3.72 10.69,-22.22 7.72,3.72 c 4.92,2.37 6.99,8.28 4.62,13.2 z"
       id="path15" /><path
       class="cls-3"
       d="m 345.75,345.8 -3.74,-7.84 c -5.74,-12.04 -19.95,-17.41 -32.22,-12.19 l -13.89,5.91 -18.61,8.88 39.51,82.86 18.61,-8.88 -14.08,-29.52 5.11,-2.43 25.8,23.93 19.3,-9.2 -28.41,-25.79 c 5.41,-7.18 6.75,-17.04 2.61,-25.72 z m -24.15,19.85 -7.74,3.69 -10.61,-22.25 7.74,-3.69 c 4.93,-2.35 10.83,-0.26 13.18,4.67 l 2.1,4.4 c 2.35,4.93 0.26,10.83 -4.67,13.18 z"
       id="path16" /><polygon
       class="cls-3"
       points="691.62,280.05 682.95,332.36 668.14,276.46 646.29,273.2 632.77,364 653.16,367.03 660.83,315.58 675.49,370.43 696.96,373.98 711.96,283.42 "
       id="polygon16" /><polygon
       class="cls-3"
       points="191.24,395.71 175.54,409.07 209.89,449.45 157.64,424.68 141.04,439.26 201.65,508.21 217.14,494.59 182.79,455.52 234.14,479.74 250.72,465.63 "
       id="polygon17" /><polygon
       class="cls-3"
       points="952.4,509.69 965.96,452.05 1008.85,440.78 992.18,427.05 954.27,437.64 976.84,410.13 960.9,397.05 902.67,468.01 918.62,481.09 935.98,459.93 945.05,457.55 934.09,494 "
       id="polygon18" /><path
       class="cls-3"
       d="m 292.44,402.14 c -2.85,-5.3 -7.04,-10.08 -9.76,-15.3 -4.46,-8.56 -11.32,-17.69 -20.19,-22.47 -3.58,-1.93 -7.48,-3.15 -11.69,-3.35 -15.08,-0.68 -31.98,11.1 -32.78,26.99 -0.66,12.98 10.03,28.81 10.03,28.81 1.86,3.46 3.82,6.86 5.91,10.17 5.03,7.97 11.09,17.27 19.76,21.61 13.91,6.95 32.41,1.48 40.71,-11.63 3.18,-5.02 4.68,-10.98 4.11,-16.91 -0.61,-6.34 -3.1,-12.36 -6.1,-17.92 z m -18.19,29.75 c -5.08,3.21 -11.79,1.68 -15,-3.4 l -20.51,-32.54 c -3.2,-5.09 -1.68,-11.8 3.41,-15.01 1.8,-1.13 3.8,-1.67 5.78,-1.67 3.62,0 7.15,1.79 9.22,5.08 l 20.51,32.54 c 3.2,5.08 1.68,11.8 -3.41,15 z"
       id="path18" /></g><path
     class="cls-4"
     d="m 1024,481.00092 v 43.42 c -17.08,-0.53 -34.09,-2.76 -50.83,-6.12 -20.25,-4.08 -40.09,-9.94 -59.57,-16.75 -40.61,-14.2 -79.27,-33.19 -119.76,-47.64 -68.78,-24.56 -140.13,-38.53 -213.02,-42.76 -68.66,-3.99 -137.63,0.68 -205.79,9.24 -80.31,11.21 -142.6,32.87 -142.6,32.87 -41.74,13.73 -78.54,26.52 -78.54,26.52 -76.2,27.64 -153.89,39.41 -153.89,39.41 v -49.49 c 0,-0.89 0.53,-1.89 1.18,-2.45 1.08,-0.94 2.85,-0.96 3.74,-2.07 1.64,-2.02 0.68,-4.83 0.72,-7.17 0.03,-1.65 0.73,-3.11 1.7,-4.41 1.17,-1.57 2.52,-2.06 2.14,-4.16 -0.58,-3.22 3.69,-4.45 2.5,-7.8 -0.28,-0.78 -0.84,-1.87 -0.51,-2.71 0.39,-1.02 1.71,-0.98 1.86,-2.16 0.22,-1.77 -0.75,-3.52 -0.34,-5.27 0.42,-1.8 2.18,-2.62 3.26,-4.02 1.45,-1.88 0.92,-4.38 1.15,-6.6 0.28,-2.78 0.57,-5.56 0.85,-8.34 0.05,-0.49 0.16,-1.07 0.61,-1.25 0.53,-0.23 1.08,0.26 1.41,0.74 1.12,1.62 1.66,3.57 2.12,5.49 0.24,1.01 0.48,2.12 0.69,3.18 0.18,0.9 0.1,1.81 0.33,2.71 0.05,0.23 0.12,0.47 0.29,0.63 0.57,0.54 1.86,-0.29 1.96,1.03 0.03,0.42 -0.22,0.81 -0.51,1.13 -0.28,0.31 -0.62,0.58 -0.83,0.95 -1.07,1.79 1.38,3.09 1.63,4.66 0.11,0.65 0.05,2.22 0.84,2.49 1.25,0.41 2.09,-0.98 2.6,-1.88 0.32,-0.57 0.57,-1.18 0.91,-1.72 0.51,-0.8 1.5,-0.9 2.16,-1.51 1.71,-1.58 1.43,-4.96 1.94,-7.08 0.48,-1.98 1.12,-3.92 1.77,-5.85 0.31,-0.91 0.53,-1.85 0.99,-2.71 0.85,-1.6 1.67,-0.67 2.13,0.76 0.76,2.34 1.12,4.85 1.66,7.25 1.24,5.43 2.52,10.86 3.84,16.28 0.65,2.7 1.32,5.41 1.98,8.12 0.51,2.05 0.9,4.75 2.53,6.27 1.6,1.5 4.27,0.75 5.25,-1.1 1.07,-2 -0.17,-4.08 -1.36,-5.7 -0.81,-1.1 -3.88,-3.95 -2.99,-5.49 0.63,-1.11 3.16,-1.15 4.25,-1.81 1.51,-0.92 1.61,-2.39 1.01,-3.96 -0.57,-1.5 -2.64,-5.14 -0.75,-6.39 1.18,-0.78 2.85,-0.38 3.94,-1.29 1.65,-1.38 0.7,-4.22 0.59,-6 -0.08,-1.16 0.03,-2.33 0.78,-3.27 0.82,-1.04 2.05,-1.52 1.86,-3.08 -0.12,-0.92 -0.56,-1.76 -0.8,-2.65 -0.23,-0.9 -0.19,-1.97 0.5,-2.59 0.9,-0.81 2.31,-0.61 3.21,-1.49 0.71,-0.68 1.08,-1.63 1.26,-2.57 0.38,-1.93 0.08,-4.15 -0.73,-5.93 0,-0.84 -0.09,-1.73 0,-2.56 0.24,-2.03 1.92,-3.28 3.16,-4.73 1.22,-1.42 2.35,-3.01 3.15,-4.71 0.77,-1.63 0.64,-3.41 1.19,-5.09 0.16,-0.49 0.4,-0.98 0.81,-1.28 0.42,-0.3 1.05,-0.35 1.43,0 0.22,0.2 0.32,0.49 0.42,0.78 0.62,1.8 1.23,3.6 1.84,5.4 0.31,0.89 0.43,1.87 0.8,2.72 0.42,0.98 1.14,1.86 1.66,2.78 0.82,1.44 0.94,3.26 1.79,4.72 0.74,1.27 3.57,2.24 3.38,3.85 -0.29,2.36 -4.77,2.78 -1.44,5.27 0.69,0.51 1.38,1.03 2.08,1.55 0.63,0.47 1.32,1.03 1.4,1.82 0.07,0.67 -0.34,1.3 -0.82,1.77 -0.71,0.7 -2.15,1.17 -1.84,2.37 0.34,1.27 2.39,1.3 3.27,1.97 0.64,0.49 0.97,1.34 0.95,2.15 -0.02,1.37 -1.13,2.1 -1.7,3.25 -1.18,2.37 3.67,2.3 3.82,4.57 0.13,1.91 -1.83,1.89 -2.75,3.07 -1.48,1.89 -0.47,3.84 1.37,4.96 1.65,1 4.69,1.09 6.45,0.39 1.73,-0.68 1.46,-1.82 1.08,-3.31 -0.25,-0.96 -0.4,-1.88 -0.01,-2.81 0.36,-0.9 1.6,-1.58 1.53,-2.62 -0.08,-1.29 -1.31,-2.59 -0.96,-3.91 0.43,-1.63 2.24,-1.3 3.22,-2.28 1.34,-1.35 0.18,-3.97 -0.23,-5.47 -0.65,-2.37 0.5,-4.27 1.22,-6.52 1.04,-3.25 1.04,-6.71 1.99,-9.96 0.78,-2.66 1.69,-5.3 2.23,-8.02 0.21,-1.03 1.01,-6.42 2.74,-3.26 1.31,2.41 1.06,5.35 2.22,7.84 1.37,2.97 3.44,5.57 4.73,8.59 1.54,3.62 2.94,7.36 4.42,11.03 0.69,1.72 1.23,3.56 1.32,5.43 0.07,1.59 -1.41,3.89 -0.15,5.25 0.42,0.44 0.97,0.76 1.35,1.23 1.35,1.67 0.28,3.86 0.4,5.75 0.16,2.39 2.27,3.85 4.48,2.36 2.97,-2.02 0.57,-6.08 2.17,-8.69 0.73,-1.19 2.14,-1.96 2.9,-3.17 0.75,-1.17 0.19,-2.87 1.03,-3.98 1.09,-1.44 3.18,-0.59 4.32,0.42 1.36,1.21 2.22,3.11 2.06,4.93 -0.18,1.95 -0.85,3.89 -0.36,5.84 0.52,2.05 1.9,3.76 2.1,5.92 0.16,1.66 -0.36,3.47 0.34,4.96 0.5,-0.34 1.47,0.99 1.51,1.69 0.04,0.73 -0.11,1.63 0.47,2.08 0.25,0.19 0.57,0.24 0.87,0.33 1.56,0.42 2.81,1.82 3.06,3.42 0.94,0.07 1.74,-0.75 2.04,-1.64 0.3,-0.89 0.24,-1.85 0.34,-2.79 0.28,-2.69 1.93,-5.21 4.29,-6.54 1.05,-0.59 2.32,-1.04 2.86,-2.12 1.21,-2.42 -2.31,-5.39 -0.99,-7.76 0.29,-0.53 0.79,-0.92 1.2,-1.37 1.11,-1.26 1.44,-3.01 1.72,-4.67 0.78,-4.52 1.56,-9.07 1.67,-13.66 0.01,-0.39 0.04,-0.82 0.34,-1.07 0.47,-0.4 1.18,-0.01 1.62,0.41 2.31,2.24 3.15,5.55 4.68,8.38 1.36,2.52 3.3,4.69 4.81,7.13 1.68,2.72 2.8,5.75 3.91,8.75 1.21,-0.14 2.39,-0.49 3.48,-1.02 -1.56,-2.15 -2.99,-5.19 -1.67,-7.5 0.66,-1.15 1.99,-1.96 2.19,-3.28 0.21,-1.4 -0.99,-2.66 -0.98,-4.07 0.01,-1.71 1.67,-2.87 3.07,-3.85 1.4,-0.99 2.84,-2.6 2.22,-4.2 -0.36,-0.91 -1.33,-1.51 -1.58,-2.46 -0.42,-1.62 1.43,-2.89 1.95,-4.48 0.66,-2.04 -0.96,-4.15 -0.81,-6.29 0.14,-1.97 1.76,-3.56 2.11,-5.5 0.2,-1.14 -0.04,-2.31 0.01,-3.47 0.06,-1.09 0.39,-2.15 0.71,-3.2 0.7,-2.26 1.4,-4.51 2.11,-6.77 0.23,-0.77 0.48,-1.55 1.01,-2.16 0.52,-0.6 1.39,-0.98 2.14,-0.69 1.13,0.44 1.25,1.95 1.29,3.16 0.1,3.04 0.8,6.06 2.07,8.83 1.36,2.99 3.43,6.2 2.34,9.31 -0.24,0.68 -0.63,1.31 -0.74,2.02 -0.22,1.36 0.59,2.65 1.22,3.88 1.47,2.85 2.11,6.13 1.82,9.33 -0.05,0.56 -0.11,1.19 0.25,1.63 0.34,0.42 0.92,0.5 1.44,0.64 1.96,0.51 3.56,2.22 3.94,4.21 0.2,1.05 0.11,2.22 1.13,2.93 0.88,0.61 2.07,0.51 2.94,-0.1 1.46,-1.02 1.82,-2.87 1.83,-4.58 0.01,-1.51 -0.21,-3.03 0.1,-4.51 0.23,-1.06 0.71,-2.05 0.96,-3.1 0.28,-1.14 0.28,-2.33 0.31,-3.51 0.11,-4.69 0.7,-9.37 1.75,-13.94 0.14,-0.62 0.43,-1.36 1.06,-1.42 0.57,-0.05 0.99,0.52 1.26,1.03 1.12,2.18 1.76,4.57 2.77,6.8 1.01,2.24 2.5,4.4 4.72,5.43 0.83,-0.46 0.84,-1.68 0.44,-2.54 -0.39,-0.86 -1.07,-1.6 -1.28,-2.53 -0.37,-1.68 0.88,-3.22 1.74,-4.72 2.14,-3.74 2,-8.31 1.79,-12.62 5.49,-6.06 0.65,-17.33 6.05,-23.46 1.82,2.01 3.63,4.02 5.45,6.03 1.34,1.49 2.73,3.05 3.27,4.99 0.5,1.78 0.23,3.71 1.15,5.41 0.39,0.72 1.02,1.32 1.81,1.53 2.36,0.64 3.9,-2.22 4.05,-4.55 0.17,-2.71 -0.27,-5.91 2.7,-7.26 0.68,-0.31 1.3,-0.79 1.74,-1.4 1.26,-1.74 -0.28,-2.57 -0.6,-3.83 -0.39,-1.48 0.99,-2.76 1.86,-4.02 3.04,-4.36 0.44,-10.71 2.77,-15.48 2.01,1.15 2.25,3.89 2.35,6.2 0.09,2.31 0.62,5.09 2.79,5.9 0.37,0.13 0.77,0.2 1.07,0.45 1.11,0.91 -0.24,2.59 -1.47,3.32 0.42,1.43 3.03,0.85 3.68,2.19 0.59,1.22 -1.02,2.29 -2.31,2.69 0.97,1.56 2.75,2.58 4.59,2.65 -0.17,1.51 -0.96,2.94 -2.15,3.9 1.26,0.3 2.57,0.63 3.53,1.49 0.97,0.86 1.43,2.44 0.66,3.47 -0.52,0.69 -1.44,0.97 -2.3,0.89 -0.37,0.54 0.2,1.23 0.78,1.53 0.58,0.29 1.3,0.55 1.46,1.18 0.15,0.57 -0.27,1.12 -0.51,1.66 -0.72,1.65 0.57,3.84 2.36,4 1.54,-1.3 3.71,-1.47 5.62,-2.1 1.92,-0.63 3.9,-2.27 3.54,-4.25 -0.99,0.43 -2.17,-0.55 -2.2,-1.62 -0.02,-1.07 0.82,-2.01 1.81,-2.43 0.99,-0.42 2.09,-0.42 3.16,-0.4 -0.99,-1.43 -2.34,-2.66 -2.94,-4.29 -0.6,-1.64 -0.01,-3.92 1.7,-4.27 -1.05,-0.06 -1.88,-1.25 -1.56,-2.25 0.32,-1.01 1.68,-1.51 2.57,-0.94 1.12,-1.49 -1.19,-3.43 -0.94,-5.28 0.07,-0.59 0.41,-1.1 0.7,-1.61 1.14,-1.95 1.79,-4.15 2.44,-6.31 1.21,-4.05 2.42,-8.1 3.62,-12.15 1.69,0.58 2.03,2.8 1.9,4.58 -0.12,1.77 -0.28,3.87 1.08,5.02 0.67,0.56 1.61,0.78 2.16,1.46 1.04,1.28 0.08,3.16 -0.89,4.5 1.35,0.9 2.87,2.53 1.97,3.88 -0.49,0.75 -1.63,1.09 -1.73,1.99 -0.1,0.94 1.01,1.46 1.78,2.01 1.95,1.38 2.14,4.63 0.37,6.23 1.31,-0.15 2.66,-0.3 3.87,0.34 0.68,0.36 1.22,1.01 1.32,1.78 0.22,1.67 -1.51,2.72 -2.95,3.49 -1.39,0.75 -2.92,2.12 -2.39,3.61 0.73,2.02 4.53,1.74 4.81,3.87 0.17,1.28 -1.15,2.18 -1.82,3.27 -1.45,2.33 0.12,5.29 1.66,7.55 0.84,1.24 1.8,2.58 3.66,2.35 1.32,-0.16 2.39,-1.13 2.91,-2.36 1.24,-2.93 -0.06,-5.92 0.16,-8.89 0.25,-3.5 2.53,-6.48 3.63,-9.81 0.78,-2.35 0.97,-4.86 1.82,-7.19 0.92,-2.53 2.6,-4.78 3.2,-7.41 0.49,-2.18 0.21,-4.44 -0.08,-6.66 2.09,0.72 2.93,3.18 3.4,5.33 0.78,3.57 1.32,7.19 1.6,10.83 0.2,2.46 0.33,5.08 1.75,7.1 0.52,0.74 1.23,1.44 1.27,2.34 0.04,0.82 -0.49,1.59 -0.43,2.41 0.07,1.07 1.07,1.81 2.02,2.32 2.48,1.32 6.13,1.86 7.63,-0.51 2.28,-3.6 -3.36,-8.83 -0.72,-12.17 0.8,-1.02 2.13,-1.42 3.22,-2.12 l -2.98,-3.85 c 1.52,0.1 3.06,-0.79 3.72,-2.17 -1,-0.59 -1.37,-1.92 -1.18,-3.06 0.2,-1.15 0.84,-2.17 1.47,-3.15 0.56,-0.86 1.49,-1.95 1.96,-2.87 0.51,-1 1.02,-2 1.52,-3 0.5,-0.98 1,-1.96 1.4,-2.98 0.8,-2.05 1.18,-4.23 1.92,-6.3 0.19,-0.53 0.29,-1 0.64,-1.44 0.35,-0.44 1.08,-0.62 1.47,-0.22 0.14,0.14 0.22,0.33 0.29,0.52 1.13,2.82 2.26,5.65 3.39,8.48 0.19,0.47 0.39,0.96 0.76,1.3 0.62,0.56 1.69,0.74 1.86,1.56 0.24,1.13 -1.5,1.59 -2.01,2.63 -0.37,0.75 0,1.66 0.57,2.27 0.57,0.6 1.31,1.01 1.93,1.57 1.27,1.16 1.88,2.99 1.57,4.69 -0.18,0.95 -0.62,1.83 -0.95,2.75 -0.37,1.04 -0.6,2.18 -0.31,3.24 0.28,1.07 1.17,2.03 2.27,2.11 1.02,0.08 2.1,-0.56 3.02,-0.11 0.9,0.45 1.04,1.71 0.73,2.66 -0.32,0.95 -0.95,1.77 -1.22,2.74 1.12,-0.16 2.26,0.87 2.2,2.01 -0.04,0.81 -0.59,1.58 0.38,2.5 0.63,0.6 1.54,0.87 2.35,0.52 1.14,-0.49 1.75,-1.87 1.59,-3.11 -0.08,-0.58 -0.3,-1.13 -0.32,-1.72 -0.07,-1.99 2.09,-3.63 1.82,-5.61 -0.13,-0.91 -0.75,-1.65 -1.31,-2.38 -1.46,-1.89 -2.65,-4.44 -1.63,-6.59 0.68,-1.43 2.33,-2.34 3.91,-2.13 0.66,0.08 1.31,0.35 1.98,0.32 0.67,-0.02 1.41,-0.48 1.4,-1.15 0,-0.28 -0.14,-0.54 -0.28,-0.79 -0.93,-1.59 -2.28,-2.98 -2.46,-4.88 -0.14,-1.41 0.81,-2.67 2.18,-3.06 1.03,-0.3 1.75,-1.59 1.56,-2.66 -0.13,-0.75 -0.6,-1.38 -0.91,-2.07 -0.32,-0.69 -0.47,-1.56 0,-2.16 0.4,-0.5 1.12,-0.65 1.51,-1.14 0.46,-0.57 0.36,-1.37 0.36,-2.09 0.01,-1.05 0.27,-2.09 0.53,-3.11 0.39,-1.54 0.78,-3.09 1.17,-4.63 1.75,2.69 2.97,5.72 3.55,8.87 0.09,0.47 0.17,0.96 0.4,1.38 0.27,0.52 0.75,0.91 1.02,1.43 0.8,1.54 -0.49,3.52 0.2,5.12 0.25,0.57 0.73,1.01 1.08,1.53 0.79,1.15 0.91,2.72 0.31,3.98 -0.32,0.65 -0.82,1.35 -0.56,2.02 0.1,0.25 0.3,0.45 0.49,0.64 0.89,0.89 1.87,1.82 3.12,1.96 -0.34,1.28 -0.69,2.55 -1.05,3.82 -0.21,0.75 0.82,1.51 1.6,1.56 0.77,0.05 1.65,-0.05 2.2,0.5 0.44,0.45 0.45,1.16 0.43,1.8 -0.06,2.3 -0.13,4.59 -0.19,6.89 -0.02,0.37 -0.02,0.76 0.11,1.11 0.33,0.84 1.4,1.17 2.29,1.03 1.36,-0.21 2.49,-1.21 3.19,-2.39 0.9,-1.51 1.21,-3.3 1.66,-4.97 0.52,-2.08 1.03,-4.15 1.55,-6.23 0.23,-0.99 0.54,-2 0.57,-3.03 0.04,-1.31 -0.38,-2.67 0.06,-3.9 0.51,-1.4 1.99,-2.25 2.48,-3.65 0.24,-0.71 0.2,-1.48 0.17,-2.23 -0.16,-3.63 0.04,-7.29 0.57,-10.89 0.17,-1.1 0.4,-2.27 1.21,-3.03 2.54,1.68 2.45,5.36 3.65,8.15 1.01,2.37 3.12,4.54 2.7,7.08 -0.23,1.36 -1.17,2.72 -0.65,3.99 0.66,1.58 3.21,1.84 3.58,3.52 0.38,1.68 -1.86,3.32 -1.13,4.88 0.38,0.83 1.42,1.11 2.34,1.14 1.9,0.05 3.81,-0.63 5.27,-1.86 0.15,-0.13 0.31,-0.28 0.38,-0.47 0.26,-0.68 -0.61,-1.19 -1.21,-1.61 -0.93,-0.64 -1.48,-1.8 -1.39,-2.92 0.09,-1.13 0.82,-2.19 1.84,-2.67 0.22,-0.11 0.48,-0.21 0.61,-0.43 0.1,-0.17 0.09,-0.4 0.06,-0.6 -0.26,-1.68 -1.61,-3.44 -0.73,-4.9 0.53,-0.86 1.65,-1.15 2.66,-1.22 1.01,-0.06 2.07,0.02 2.99,-0.41 -1,-1.18 -1.73,-2.6 -2.1,-4.11 -0.18,-0.72 -0.28,-1.46 -0.55,-2.15 -0.28,-0.73 -0.75,-1.39 -1.02,-2.13 -0.28,-0.74 -0.33,-1.64 0.17,-2.26 0.27,-0.32 0.65,-0.52 0.96,-0.79 0.79,-0.71 1.05,-1.85 1.04,-2.9 -0.02,-1.06 -0.26,-2.11 -0.29,-3.17 -0.07,-2.06 0.73,-4.13 2.14,-5.63 -0.17,-5.28 1.44,-10.92 3.24,-15.9 1.49,0.03 2.49,1.64 2.65,3.13 0.17,1.49 -0.19,3 0.01,4.48 0.3,2.17 1.78,4.05 1.97,6.23 0.1,1.15 -0.17,2.31 0.04,3.44 0.27,1.47 1.3,2.65 2.01,3.96 1.67,3.1 1.48,7.11 -0.48,10.03 1.58,0.82 3.37,1.21 5.15,1.13 1.11,-0.04 2.45,-0.17 3.08,0.74 0.44,0.65 0.28,1.51 0.07,2.26 -0.66,2.34 -1.66,4.59 -2.97,6.64 -0.3,0.48 -1.08,0.93 -1.31,0.41 0.19,1.14 1.47,1.92 2.63,1.89 1.15,-0.02 2.29,-0.42 3.44,-0.32 0.29,0.03 0.59,0.1 0.82,0.29 0.49,0.42 0.38,1.2 0.19,1.81 -0.38,1.24 -0.94,2.43 -1.65,3.52 -0.69,1.06 -1.57,2.31 -1.05,3.47 0.36,0.8 1.3,1.2 2.18,1.25 0.88,0.05 1.74,-0.17 2.62,-0.24 0.72,-0.05 1.59,0.08 1.91,0.73 0.3,0.62 -0.07,1.36 -0.5,1.91 -0.82,1.07 -1.86,1.96 -2.67,3.04 -0.8,1.08 -1.38,2.45 -1.09,3.77 0.25,1.09 1.07,1.98 1.97,2.65 1.73,1.28 3.89,1.97 6.04,1.93 0.57,-0.54 -0.25,-1.37 -0.61,-2.07 -0.47,-0.91 -0.05,-2.05 0.65,-2.8 0.69,-0.75 1.62,-1.24 2.41,-1.89 1.52,-1.25 2.52,-3.13 2.7,-5.1 0.14,-1.43 -0.14,-2.88 0.02,-4.31 0.15,-1.29 0.66,-2.51 1.1,-3.74 1.24,-3.46 1.95,-7.11 2.11,-10.79 0.02,-0.55 0.17,-1.27 0.72,-1.34 1.79,1.05 2.13,3.45 2.32,5.52 0.45,4.87 1.14,9.72 2.09,14.51 0.15,0.77 0.34,1.6 0.93,2.12 0.7,0.62 1.74,0.61 2.66,0.8 0.92,0.2 1.93,0.91 1.75,1.83 -0.13,0.66 -0.79,1.04 -1.39,1.33 -0.91,0.46 -1.83,0.91 -2.74,1.37 1.01,0.9 2.31,1.46 3.66,1.58 0.89,0.07 1.97,0.04 2.46,0.8 0.21,0.33 0.25,0.74 0.28,1.13 0.09,1.21 0.18,2.42 0.28,3.63 1.14,0.87 2.98,0.37 3.7,-0.87 0.73,-1.23 0.4,-2.92 -0.59,-3.95 -0.63,-0.66 -1.56,-1.56 -0.99,-2.26 0.36,-0.45 1.14,-0.41 1.41,-0.92 0.3,-0.58 -0.35,-1.19 -0.45,-1.83 -0.13,-0.85 0.7,-1.51 1.16,-2.24 0.42,-0.68 0.55,-1.49 0.77,-2.27 0.5,-1.79 1.56,-3.43 2.99,-4.62 -0.4,-1.89 1.54,-3.98 2.32,-5.74 0.37,-0.85 0.53,-1.78 0.69,-2.7 0.39,-2.33 0.79,-4.67 1.19,-7 1.72,-0.34 3.11,1.45 3.58,3.13 0.48,1.68 0.54,3.58 1.65,4.93 1.14,1.37 3.3,1.77 4.85,0.89 0.95,-0.73 -0.97,-2.14 -0.59,-3.27 0.13,-0.38 0.5,-0.62 0.81,-0.89 0.94,-0.83 1.37,-2.21 1.04,-3.43 -0.18,-0.7 -0.59,-1.41 -0.37,-2.1 0.3,-0.95 1.53,-1.16 2.4,-1.66 1.36,-0.78 1.94,-2.46 2.01,-4.02 0.07,-1.56 -0.26,-3.12 -0.21,-4.69 0.05,-1.49 0.44,-2.94 0.82,-4.38 1.47,-5.51 2.95,-11.01 4.42,-16.52 1.27,1.28 1.57,3.21 1.74,5.01 0.32,3.44 0.42,6.97 1.67,10.19 1.58,4.07 4.97,7.62 4.96,11.99 -0.01,1.17 -0.24,2.45 0.38,3.44 0.57,0.92 1.7,1.29 2.58,1.91 1.57,1.12 2.39,3.2 2,5.09 -0.2,0.99 -0.7,1.89 -0.96,2.86 -0.96,3.6 1.42,7.15 3.67,10.11 0.29,0.39 0.64,0.8 1.12,0.87 0.79,0.09 1.31,-0.76 1.62,-1.49 1.81,-4.25 3.63,-8.49 5.44,-12.74 0.69,2.82 -0.62,5.98 0.63,8.59 0.45,0.94 1.2,1.72 1.57,2.69 0.31,0.8 0.33,1.69 0.43,2.54 0.3,2.63 1.32,5.16 2.92,7.27 0.26,0.34 0.55,0.69 0.96,0.85 1.12,0.44 2.62,-0.73 3.5,0.11 0.44,-1.23 0.21,-2.68 -0.59,-3.71 -0.84,-1.08 -2.35,-1.99 -2.12,-3.34 0.12,-0.7 0.7,-1.21 1.06,-1.82 1.35,-2.31 -0.63,-5.6 0.87,-7.82 0.63,-0.95 1.75,-1.44 2.71,-2.04 0.97,-0.61 1.92,-1.55 1.84,-2.69 -0.09,-1.23 -1.36,-2.18 -1.32,-3.42 0.05,-1.09 1.39,-1.91 2.39,-1.45 0.32,-4.54 1.34,-9.02 3.01,-13.25 0.09,-0.25 0.2,-0.51 0.4,-0.68 0.76,-0.64 1.79,0.43 2.13,1.36 1.38,3.82 1.18,8.18 3.24,11.67 0.91,1.54 2.25,2.87 2.73,4.59 0.86,3.05 -1.17,6.09 -3.09,8.6 2.11,-1.25 5.17,-0.47 6.41,1.65 1.24,2.11 0.43,5.17 -1.69,6.39 3.14,2.04 4.01,7.11 1.38,9.77 l 6.85,4.3 c 0,-3.43 0,-6.9 0.76,-10.24 1.14,-5.07 3.98,-9.8 3.99,-15 1.87,3.38 3.19,7.06 3.87,10.85 0.4,2.25 0.64,4.67 2.35,6.33 0.91,0.87 2.2,1.33 3.41,0.97 2.76,-0.83 2.8,-5.22 3.28,-7.5 1.15,-5.49 2.58,-10.92 3.62,-16.43 0.5,-2.69 0.9,-5.61 1.45,-8.36 0.35,-1.7 0.85,-8.72 3.68,-8.31 0.53,0.08 0.86,0.58 1.1,1.06 1.1,2.19 1.63,4.59 2.43,6.9 0.84,2.43 2.14,4.52 3.36,6.76 1.62,3 1.58,6.35 1.4,9.65 -0.39,6.99 -0.52,14.96 2.43,21.47 1.13,2.49 2.89,4.93 5.28,6.34 2.67,1.58 4.57,-0.59 4.93,-3.19 0.46,-3.39 -1.49,-7.32 0.61,-10.37 2.3,-3.37 2.19,-7.37 2.62,-11.3 0.51,-1.59 0.85,-3.22 1.35,-4.81 0.29,-0.92 0.7,-1.97 1.91,-1.94 0.85,0.02 1.59,0.66 1.85,1.47 1.01,3.15 1.52,6.45 1.53,9.75 0,1.35 -0.28,2.91 -0.08,4.32 0.26,1.82 1.56,2.97 2.67,4.31 1.61,1.94 2.64,4.26 3.52,6.6 0.7,1.88 1.07,3.81 3.71,2.7 2.26,-0.96 3.13,-3.62 0.93,-5.14 -1.17,-0.81 -2.68,-0.9 -3.45,-2.25 -1.31,-2.29 1.56,-4.95 3.78,-5.9 0.7,-0.31 1.38,-0.66 1.93,-1.18 3.93,-3.67 0.43,-5.43 0.09,-8.03 -0.33,-2.54 2.34,-4.54 2.65,-7.09 0.19,-1.56 -0.55,-3.11 -0.54,-4.69 0.04,-4.01 3.05,-8.15 4.3,-11.92 1.34,-4.05 2.35,-8.34 5.04,-11.77 0.49,-0.62 1.16,-1.25 1.94,-1.14 0.65,0.09 1.1,0.67 1.46,1.21 1.98,3 2.91,6.33 3.81,9.75 2.18,8.19 4.84,15.58 5.67,24.06 0.09,0.88 0.25,1.9 1.02,2.35 0.9,0.53 2.13,-0.06 3.09,0.38 3,1.39 -0.94,5.31 -1.25,7.24 -0.39,2.35 1.47,4.51 3.5,5.75 0.43,0.26 0.91,0.54 1.07,1.02 0.15,0.45 -0.04,0.94 -0.22,1.37 -0.66,1.59 -1.33,3.17 -1.99,4.76 -0.13,0.3 -0.26,0.62 -0.21,0.95 0.28,1.94 5.19,0.7 6.29,0.53 0.26,-0.04 0.54,-0.08 0.8,0.01 0.31,0.11 0.52,0.4 0.67,0.7 0.98,1.97 0.01,4.53 1.1,6.44 0.51,0.89 1.39,1.49 2.14,2.18 2.64,2.45 1.58,6.44 3.42,9.16 1.39,2.04 3.39,1.67 4.11,-0.52 0.88,-2.7 -0.5,-4.19 1.64,-6.93 1.93,-2.47 1.49,-4.56 0.41,-7.28 -0.57,-1.43 -1.19,-2.87 -1.3,-4.4 -0.31,-4.44 3.33,-3.84 6,-5.71 2.53,-1.79 0.43,-3.32 -0.38,-5.34 -0.62,-1.54 0.12,-3.3 1.15,-4.61 1.03,-1.3 2.36,-2.37 3.19,-3.81 2.61,-4.51 -0.57,-10.64 1.76,-15.3 2.7,6.38 0.82,13.85 2.79,20.5 1.05,3.53 3.46,6.29 5.57,9.22 0.94,1.31 1.91,2.85 2.26,4.45 0.17,0.77 0.29,1.64 -0.13,2.37 -0.46,0.81 -1.56,0.82 -1.82,1.79 -0.39,1.48 0.8,3.48 2.17,4.04 1.86,0.77 3.03,-1.26 2.33,-2.83 -0.37,-0.82 -1.04,-1.45 -1.7,-2.06 2.16,-1.66 4.44,-3.51 5.14,-6.14 0.34,-1.28 0.27,-2.62 0.45,-3.93 0.28,-1.96 1.13,-3.78 1.79,-5.65 0.75,-2.14 1.11,-4.38 1.42,-6.62 0.16,-1.17 0.3,-2.33 0.48,-3.5 0.2,-1.21 1.1,-3.21 2.11,-1.36 0.44,0.8 0.27,2.56 0.44,3.49 0.38,2.18 1.34,4.16 1.92,6.27 0.67,2.47 0.5,5.07 1.11,7.54 1.12,4.48 5.38,8.42 3.57,13.33 -0.33,0.89 -0.84,1.85 -0.52,2.75 0.34,0.92 1.55,1.37 1.79,2.3 0.35,1.34 -1.18,1.4 -1.11,2.42 0.1,1.38 1.41,1.57 0.56,3.26 -0.98,1.95 0.06,5.39 1.54,6.92 1.95,2.01 4.73,-1.59 5.62,-3.1 0.82,-1.39 1.06,-3.15 0.37,-4.64 -0.65,-1.38 -2.78,-2.87 -2.59,-4.55 0.37,-3.25 3.7,0.37 4.97,0.22 0.63,-1.31 0.01,-2.7 -0.25,-4.02 -0.46,-2.26 0.97,-3.76 -0.88,-5.39 -1.03,-0.92 -0.88,-2.83 0.29,-3.56 0.61,-0.38 1.42,-0.47 1.88,-1.03 0.97,-1.15 0.01,-2.72 1.48,-3.68 0.73,-0.47 1.88,-0.62 2.54,-1.3 0.9,-0.93 1.01,-2.48 1.12,-3.69 0.29,-3.09 -0.35,-6.22 0.33,-9.28 0.06,-0.27 0.15,-0.57 0.37,-0.74 0.27,-0.21 0.67,-0.18 0.99,-0.06 1.23,0.46 1.82,1.89 1.87,3.21 0.06,1.31 -0.27,2.61 -0.23,3.92 0.09,2.67 1.68,5.04 2.33,7.63 0.93,3.73 0.77,6.37 3.84,9.08 1.01,0.89 2.05,1.86 2.48,3.15 0.71,2.13 -1.12,3.11 -2.27,4.55 -1.33,1.66 -3.8,4.52 -2.43,6.87 1.16,1.98 4.35,1.28 5.11,3.7 0.52,1.66 -0.32,3.73 -1.94,4.42 0.76,1.09 0.97,2.32 1.73,3.42 0.13,0.2 0.28,0.41 0.5,0.51 0.9,0.42 1.49,-1.17 2.46,-1.38 0.64,-0.14 1.22,0.37 1.74,0.77 0.52,0.41 1.31,0.73 1.79,0.27 0.18,-0.17 0.27,-0.42 0.34,-0.67 0.42,-1.48 0.69,-3.28 2.08,-3.95 0.73,-0.36 1.77,-0.4 2.06,-1.17 0.12,-0.3 0.07,-0.64 0.01,-0.96 -0.29,-1.42 -0.81,-2.81 -0.89,-4.26 -0.09,-1.46 0.37,-3.06 1.6,-3.84 1.02,-0.65 2.6,-0.83 2.86,-2 0.17,-0.8 -0.42,-1.53 -0.87,-2.21 -0.46,-0.67 -0.77,-1.67 -0.17,-2.22 0.56,-0.53 1.57,-0.26 2.13,-0.79 0.22,-0.22 0.32,-0.52 0.41,-0.8 0.56,-1.78 0.93,-3.63 1.11,-5.48 0.09,-0.98 0.13,-1.99 0.57,-2.87 0.43,-0.88 1.39,-1.59 2.35,-1.38 1.02,0.22 1.59,1.36 1.64,2.4 0.06,1.04 -0.25,2.06 -0.28,3.1 -0.07,2.78 1.77,5.21 2.5,7.89 0.97,3.59 -0.08,7.59 1.35,11.03 0.81,1.94 2.39,3.64 2.49,5.75 0.06,1.28 -0.41,2.74 0.38,3.75 0.72,0.9 2.05,0.92 3.12,1.35 1.99,0.81 3.45,3.24 5.57,2.89 -0.47,-0.26 -0.95,-0.52 -1.42,-0.78 l 2.94,-2.52 c 0.56,-1.77 -0.5,-3.68 -0.28,-5.53 0.28,-2.29 2.38,-3.86 3.66,-5.78 0.7,-1.05 1.17,-2.25 1.63,-3.43 0.98,-2.51 1.98,-5.14 1.74,-7.82 -0.08,-0.93 -0.31,-1.84 -0.28,-2.77 0.03,-0.92 0.37,-1.91 1.17,-2.39 1.76,2.98 2.63,6.48 2.45,9.94 -0.03,0.46 -0.07,0.94 0.1,1.37 0.19,0.49 0.62,0.83 1.01,1.18 1.99,1.8 3.32,4.36 3.48,7.05 0.16,2.68 -0.88,5.44 -2.88,7.24 1.93,0.19 3.86,1.12 4.91,2.76 1.05,1.63 1.02,4 -0.35,5.38 1.04,0.39 2.07,0.79 3.1,1.19 0.6,0.22 1.3,0.59 1.33,1.22 0.04,0.86 -1.08,1.19 -1.68,1.8 -0.63,0.65 -0.67,1.71 -0.32,2.55 0.47,1.1 1.48,1.89 2.33,2.68 0.56,0.52 1.46,0.62 2.02,0.1 1,-0.92 -0.42,-2.5 0.19,-3.6 0.58,-1.03 2.14,-0.53 3.31,-0.73 1.36,-0.24 2.28,-1.6 2.52,-2.96 0.24,-1.36 -0.03,-2.75 -0.14,-4.13 -0.12,-1.37 -0.04,-2.86 0.77,-3.98 0.44,-0.61 1.07,-1.06 1.58,-1.62 1.15,-1.23 1.68,-3.01 1.39,-4.67 -0.13,-0.76 -0.42,-1.51 -0.36,-2.28 0.05,-0.64 0.33,-1.24 0.64,-1.81 0.83,-1.5 1.88,-2.88 3.12,-4.08 1.58,3.56 2.38,7.46 2.33,11.35 -0.01,0.52 -0.02,1.07 0.19,1.55 0.15,0.33 0.39,0.59 0.63,0.86 2.95,3.4 4.69,7.83 4.84,12.33 0,0.12 -0.02,0.27 -0.12,0.32 0.4,0.93 0.32,2.06 -0.04,3.01 -0.38,1.01 -0.96,1.95 -1.28,2.98 -0.28,0.93 -0.35,1.92 -0.35,2.89 -0.01,0.47 0.05,1.03 0.47,1.26 0.6,0.34 1.55,-0.42 2.02,0.1 1.36,1.49 -6.25,10.71 -1.67,11.28 0.73,0.09 1.45,-0.2 2.19,-0.3 1.92,-0.25 4.26,1.44 5.98,0 1.26,-1.05 1.07,-3.15 0.99,-4.61 -0.12,-2.49 0.22,-4.36 1.36,-6.64 2.35,-4.67 6.38,-8.49 7.16,-13.86 0.38,-2.69 3.09,-3.24 3.32,-0.11 0.15,2.05 -0.35,4.17 0.08,6.21 0.38,1.8 1.76,3.22 2.01,5.05 0.31,2.31 -0.19,4.21 1.57,5.98 1.4,1.42 3.2,2.09 2.6,4.46 -0.62,2.47 -3.29,4.3 -3.3,6.95 -0.02,4.46 4.61,1.12 6.49,2.34 1.53,0.99 1.29,4.16 1.96,5.68 0.81,1.87 1.91,4.24 4.06,4.81 4.87,1.31 4.74,-4.2 6.2,-7.1 1.56,-3.07 2.37,-5.22 2.81,-8.64 0.42,-3.19 0.8,-6.33 2.14,-9.3 1.58,-3.5 3.17,-0.25 3.7,1.84 0.85,3.31 -0.37,6.61 0.22,9.85 0.45,2.44 1.94,4.57 2.48,7 0.54,2.39 -0.66,5.11 0.26,7.35 1.7,4.13 7.71,-2.56 8.82,-4.18 3.24,-4.76 3.91,-10.8 4.7,-16.36 0.59,-4.18 2.27,-7.94 3.6,-11.91 1.31,-3.88 1.5,-8.17 1.79,-12.23 0.37,2.66 0.75,5.31 1.12,7.96 0.64,4.63 3.39,8.29 5.58,12.27 3.2,5.84 5.09,12.12 7.46,18.31 0.6,1.56 1.45,3.5 2.91,4.53 1.09,0.76 3.92,0.91 4.3,-0.77 0.53,-2.29 -3.55,-2.65 -2.5,-5.25 0.35,-0.89 1.08,-1.57 1.81,-2.18 1,-0.83 2.2,-1.51 1.96,-2.92 -0.21,-1.27 -1.31,-1.78 -0.8,-3.24 0.8,-2.23 4.97,-4.29 4.19,-6.81 -0.9,-2.92 -1.55,-4.61 -1.12,-7.7 0.26,-1.88 0.5,-3.77 0.75,-5.65 0.4,-3.06 2.22,-5.67 3.85,-8.19 1.71,-2.64 2.28,-5 2.51,-8.08 0.1,-1.33 0.18,-5.05 2.15,-5.14 0.24,-0.01 0.45,0.18 0.59,0.39 0.6,0.92 0.16,2.13 0.14,3.24 -0.05,1.89 1.03,3.57 1.76,5.24 0.85,1.96 0.49,3.74 0.56,5.83 0.07,1.85 1.16,3.09 2.04,4.68 0.88,1.62 0.84,3.13 1.14,4.9 0.43,2.61 2.64,5.89 4.1,8.07 1,1.51 2.88,3.16 3.51,4.83 0.6,1.59 -0.7,3.11 -0.32,4.69 0.97,4.04 5.03,-1.67 5.78,-2.87 0.92,-1.48 0.18,-2.73 -0.56,-4.07 -0.72,-1.29 -1.24,-2.7 -1.43,-4.18 -0.05,-0.33 -0.07,-0.68 0.07,-0.98 0.53,-1.2 2.18,0.26 2.43,-1.09 0.25,-1.37 -0.38,-2.75 -0.37,-4.15 0.01,-2.07 1.7,-5.13 3.44,-6.24 2.7,-1.73 2.99,-3.11 1.3,-5.84 -0.49,-0.79 -0.93,-1.71 -0.74,-2.62 0.39,-1.85 2.63,-1.41 3.61,-2.74 1.43,-1.92 1.68,-4.47 2.24,-6.73 0.35,-1.38 0.89,-2.93 1.63,-4.14 1.09,-1.77 2.26,-0.72 2.66,0.82 0.51,1.96 0.04,3.93 -0.24,5.89 -0.29,2.04 -0.32,4.13 -0.25,6.2 0.07,2.22 0.35,4.54 1.62,6.35 -0.49,-0.7 0.56,-1.71 1.29,-1.78 1.48,-0.13 1.85,1.66 1.94,2.79 0.17,2.2 1.63,3.11 2.34,5.05 0.76,2.08 -0.11,4.21 -0.96,6.12 -0.43,0.99 -3.01,6.07 -0.66,6.3 0.8,0.08 1.53,-0.44 2.33,-0.41 0.4,0.01 0.82,0.22 0.97,0.59 0.08,0.2 0.07,0.43 0.05,0.65 -0.15,1.69 -0.75,3.26 -1.63,4.69 -0.78,1.26 -2.48,2.55 -2.65,4.09 -0.32,3.1 6.16,1.77 7.77,2.52 2.48,1.16 0.26,2.86 -0.6,4.22 -0.93,1.45 -0.96,3.98 0.22,5.31 1.97,2.22 5.52,0.42 6.46,-1.87 1.09,-2.65 -0.87,-5.37 -0.51,-8.11 0.48,-3.7 2.43,-7.07 3.26,-10.71 0.89,-3.86 1.46,-7.85 3.07,-11.5 0.27,-0.61 1.16,-0.5 1.29,0.15 0.73,3.64 0.84,7.35 1.2,11.03 0.23,2.31 0.99,4.51 1.27,6.83 0.3,2.5 0.43,5.05 1.16,7.48 1,3.34 2.56,6.25 3.12,9.74 0.55,3.44 0.91,7 2.76,10.05 0.61,1.01 1.32,1.96 1.82,3.03 0.77,1.65 0.36,3.59 0.69,5.35 0.85,4.64 4.15,8.65 9.34,7.61 l 1.23,0.49 z"
     id="path19" /><g
     id="g19"
     transform="translate(76.4273,173.1781)"><path
       id="three"
       d="m 107.33211,90.694516 c -0.68268,-0.009 -1.36675,0.007 -2.05469,0.0527 -33.58697,7.44099 -33.82609,33.254974 -18.03711,57.626954 9.78899,15.10899 19.84705,35.12951 41.20703,33.60352 20.90398,-4.553 34.14718,-21.09249 25.61719,-42.23047 -4.695,-11.63499 -13.36437,-24.76461 -20.94336,-34.8086 -5.99625,-7.945304 -15.54897,-14.107144 -25.78906,-14.244144 z m -2.00196,18.001964 c 9.54499,1.69299 16.4718,14.46014 21.3418,22.36914 6.26599,10.17699 18.67712,26.45682 1.24414,32.63281 -9.47699,-1.88 -15.86643,-13.53493 -20.73242,-21.41992 -6.37099,-10.32299 -20.1125,-27.34004 -1.85352,-33.58203 z"
       style="fill:#fff6eb;fill-opacity:1" /><path
       id="six"
       fill="#fff6eb"
       d="m 505.4177,3.2698157 20.979,2.437 c 4.987,19.2170003 10.166,38.7480003 14.783,58.0320003 3.128,-17.886 5.931,-36.147 8.861,-54.09 6.856,1.214 13.749,2.261 20.628,3.341 -2.106,8.944 -3.984,21.91 -5.611,31.173 l -10.465,59.684004 c -2.42,-0.043 -17.352,-2.805 -20.77,-3.365 -4.843,-15.795004 -10.919,-41.255004 -14.692,-57.593004 l -8.064,53.796 c -6.676,-0.922 -13.704,-1.263 -20.236,-2.792 3.89,-29.148 10.039,-61.22 14.587,-90.6230003 z" /><path
       id="seven"
       d="m 688.91023,51.901546 c -12.98399,27.02898 -26.00101,54.894204 -39.375,81.701184 l 18.8457,8.39453 c 2.677,-5.804 10.06471,-23.65666 14.34571,-26.97266 l 1.50195,0.0625 c 3.663,4.633 1.86939,21.56023 1.52539,28.19922 l -0.36523,6.87891 c 6.10599,3.42299 12.11192,6.73167 18.29492,10.01367 1.837,-12.96299 2.3923,-25.74098 3.0293,-38.79297 6.23599,-0.635 8.09713,-0.74669 13.20312,-4.42969 14.29599,-10.31199 22.08111,-34.847044 5.45313,-46.832034 -10.19799,-7.35099 -24.834,-13.28666 -36.45899,-18.22266 z m 12.02539,23.38477 c 4.356,1.953 8.58343,3.35596 11.23242,7.62695 5.146,8.29399 -1.17599,16.926054 -8.45898,21.248054 -5.259,-1.047 -9.20936,-3.35925 -13.94336,-5.781254 z"
       style="fill:#fff6eb;fill-opacity:1" /><path
       id="nine"
       d="m 430.02742,0.2452957 c -3.74351,0.0211 -7.34704,0.073 -10.64453,0.0723 l -0.45899,90.8085903 20.05469,0.2168 c 0.089,-6.39899 -0.48339,-29.67685 2.59961,-33.08984 6.55299,2.45799 12.91282,26.13804 17.13281,33.33203 0.427,0.128 1.49196,0.49786 1.87696,0.50586 6.36599,0.362 13.02681,0.85944 19.38281,0.89843 -4.781,-12.03898 -9.93016,-25.8293 -15.16016,-37.52929 20.14498,-9.52299 19.98148,-45.89304 -1.8125,-52.3320303 -9.25124,-2.73375 -21.74017,-2.94609999 -32.9707,-2.88282 z m 10.01953,16.8418003 c 16.01898,0.062 23.89176,6.90236 15.75977,22.65234 -4.853,3.234 -10.25331,2.2719 -16.1543,2.0879 z"
       style="fill:#fff6eb;fill-opacity:1" /><path
       id="eleven"
       d="m 177.28132,53.774596 c -0.73458,-0.005 -1.48001,0.0238 -2.23242,0.0859 l -0.87109,0.0781 c -12.70999,3.603 -26.40268,11.89446 -38.13867,18.31446 l 38.43945,80.238284 c 6.04399,-2.908 12.46808,-6.12935 18.58008,-8.77735 l -11.02149,-22.60351 c -1.29099,-2.455 -2.36206,-3.78743 -2.03906,-6.48242 l 0.95703,-1.08985 c 6.302,-0.322 23.68973,17.93512 28.88672,22.91211 l 20.10938,-8.59375 c -9.22999,-8.72399 -20.47275,-18.08996 -30.42774,-26.12695 14.42371,-16.300174 0.52983,-47.810034 -22.24219,-47.955084 z m -4.63671,18.75977 c 9.00517,0.0972 14.8971,9.51337 11.72461,18.27148 -1.558,4.302 -5.90648,5.62392 -9.85547,7.41992 l -1.79297,0.57032 c -3.079,-1.426 -10.05186,-17.21491 -12.13086,-21.37891 2.955,-1.609 7.06689,-3.34344 10.21289,-4.77344 0.62625,-0.0793 1.24145,-0.11585 1.8418,-0.10937 z"
       style="fill:#fff6eb;fill-opacity:1" /><path
       id="thirteen"
       fill="#fff6eb"
       d="m 48.4587,127.88682 c 3.877,1.768 53.161,61.531 58.957,68.426 -5.142,3.864 -9.97,8.132 -14.85,12.326 -18.727,-8.508 -37.66,-17.716 -56.284,-26.526 l 37.749,42.292 -13.785,12.719 c -1.819,-0.457 -54.1598,-60.916 -60.2457,-67.61 5.3971,-4.93 11.4267,-9.961 16.9861,-14.772 l 52.7746,25.011 c -11.579,-13.072 -23.899,-27.505 -35.894,-40.042 4.813,-3.722 9.838,-7.963 14.592,-11.824 z" /><path
       fill="#fff6eb"
       d="m 326.1467,6.0718157 0.941,-0.122 c 0.339,0.233 0.678,0.465 1.016,0.698 5.281,25.6950003 11.733,65.1910003 16.773,89.6490003 -5.916,0.639 -13.761,2.141 -19.778,3.119004 -2.055,-11.702004 -4.767,-23.288004 -6.611,-35.005004 -6.559,1.487 -12.945,2.805 -19.543,4.108 2.618,11.044 4.89,23.932 7.025,35.143004 l -19.437,4.706 -19.204,-90.055004 20.415,-4.645 7.048,36.258 c 6.918,-1.594 13.054,-2.833 20.047,-4.056 l -7.523,-36.369 z"
       id="path1" /><path
       fill="#fff6eb"
       d="m 817.8597,129.35182 c 3.548,2.063 12.724,9.845 16.145,12.656 l -23.126,26.321 c 13.46,-3.63 26.5,-7.328 39.865,-11.297 4.734,3.38 11.804,9.719 16.439,13.635 -14.24,4.235 -27.991,8.142 -42.348,11.957 -4.926,17.402 -9.418,37.717 -13.558,55.415 l -1.157,0.574 c -4.207,-2.808 -13.144,-11.061 -17.321,-14.734 1.873,-6.137 10.349,-30.303 8.339,-34.584 l -1.498,-0.388 c -6.993,2.684 -16.837,15.465 -22.057,21.484 l -16.068,-12.524 c 18.379,-20.916 38.474,-46.671 56.345,-68.515 z"
       id="path2" /><path
       fill="#fff6eb"
       d="m 394.1377,0.17481571 c 3.412,-0.125 2.711,-0.647 4.665,1.03599999 1.599,4.594 1.373,10.8750003 1.695,16.0570003 l -27.739,1.332 1.066,19.625 c 8.173,-0.305 16.383,-0.761 24.555,-1.171 0.103,5.526 0.62,11.757 0.962,17.334 l -24.266,1.25 1.767,20.033 c 8.803,-0.957 19.348,-1.337 28.3,-1.884 l 0.428,8.748 0.457,8.697 c -16.045,0.834 -31.981,2.369 -48.014,3.315 -3.525,-27.869 -5.573,-63.159 -7.711,-91.5280003 14.301,-0.686 29.43,-1.972 43.835,-2.84399999 z"
       id="path3" /><path
       fill="#fff6eb"
       d="m 759.4997,89.488816 c 13.931,8.625 27.365,17.462004 41.058,26.470004 -3.154,4.206 -6.552,9.335 -9.592,13.712 l -22.594,-14.798 -9.959,15.629 20.051,12.914 -10.107,14.396 c -6.094,-4.172 -12.998,-8.426 -19.251,-12.457 l -6.761,11.177 -3.629,5.741 22.518,15.248 c -2.773,4.451 -5.62,10.063 -8.146,14.741 -13.425,-9.332 -26.884,-18.32 -40.495,-27.381 z"
       id="path4" /><path
       fill="#fff6eb"
       d="m 620.3507,25.094816 c 18.831,6.535 36.369,12.71 54.968,19.951 l -6.029,15.818 -17.339,-6.785 c -5.935,18.106 -11.858,35.611 -18.201,53.589004 l -6.454,18.052 c -6.388,-2.698 -12.938,-4.941 -19.471,-7.268 l 24.591,-71.331004 c -5.865,-1.881 -11.619,-3.668 -17.372,-5.885 z"
       id="path5-8" /><path
       fill="#fff6eb"
       d="m 252.7947,24.026816 c 0.952,1.077 4.526,13.599 5.22,15.888 l -16.363,5.148 c 8.038,23.2 15.712,47.063 23.233,70.438004 -6.305,1.727 -12.662,4.016 -18.863,6.131 -1.849,-4.775 -3.716,-10.566 -5.42,-15.473 -6.231,-18.142004 -12.226,-36.908004 -18.264,-55.153004 l -16.512,5.743 -5.215,-16.375 c 17.076,-5.801 34.908,-11.2 52.184,-16.347 z"
       id="path6-4" /></g></svg>
