<?xml version="1.0" encoding="UTF-8" standalone="no"?>
<svg
   id="Layer_1"
   data-name="Layer 1"
   viewBox="0 0 1024 524.42088"
   version="1.1"
   sodipodi:docname="northern-trek.svg"
   xml:space="preserve"
   width="1024"
   height="524.4209"
   inkscape:version="1.3 (0e150ed6c4, 2023-07-21)"
   xmlns:inkscape="http://www.inkscape.org/namespaces/inkscape"
   xmlns:sodipodi="http://sodipodi.sourceforge.net/DTD/sodipodi-0.dtd"
   xmlns="http://www.w3.org/2000/svg"
   xmlns:svg="http://www.w3.org/2000/svg"><sodipodi:namedview
     id="namedview19"
     pagecolor="#ffffff"
     bordercolor="#000000"
     borderopacity="0.25"
     inkscape:showpageshadow="2"
     inkscape:pageopacity="0.0"
     inkscape:pagecheckerboard="0"
     inkscape:deskcolor="#d1d1d1"
     inkscape:zoom="0.8588764"
     inkscape:cx="508.22214"
     inkscape:cy="284.67426"
     inkscape:window-width="1920"
     inkscape:window-height="1009"
     inkscape:window-x="1912"
     inkscape:window-y="-8"
     inkscape:window-maximized="1"
     inkscape:current-layer="Layer_1" /><defs
     id="defs5"><style
       id="style1">&#10;      .cls-1 {&#10;        fill: none;&#10;      }&#10;&#10;      .cls-2 {&#10;        fill: url(#linear-gradient);&#10;      }&#10;&#10;      .cls-3 {&#10;        fill: #fff;&#10;      }&#10;&#10;      .cls-4 {&#10;        fill: #1d3c4a;&#10;      }&#10;&#10;      .cls-5 {&#10;        fill: url(#linear-gradient-2);&#10;      }&#10;    </style><linearGradient
       id="linear-gradient"
       x1="161.74001"
       y1="241.39999"
       x2="153.33"
       y2="436.39001"
       gradientUnits="userSpaceOnUse"
       gradientTransform="translate(-65.24,-97.899083)"><stop
         offset=".06"
         stop-color="#1c3c4b"
         id="stop1" /><stop
         offset=".8"
         stop-color="#2e4853"
         id="stop2" /></linearGradient><linearGradient
       id="linear-gradient-2"
       x1="649.03998"
       y1="109.16"
       x2="579.91998"
       y2="522.63"
       gradientUnits="userSpaceOnUse"
       gradientTransform="translate(-65.24,-97.899083)"><stop
         offset=".38"
         stop-color="#1c3c4b"
         id="stop3" /><stop
         offset=".57"
         stop-color="#2e4853"
         id="stop4" /><stop
         offset=".65"
         stop-color="#2e4853"
         id="stop5" /></linearGradient></defs><g
     id="g19"
     transform="translate(76.4273,173.1781)"><path
       id="three"
       d="m 107.33211,90.694516 c -0.68268,-0.009 -1.36675,0.007 -2.05469,0.0527 -33.58697,7.44099 -33.82609,33.254974 -18.03711,57.626954 9.78899,15.10899 19.84705,35.12951 41.20703,33.60352 20.90398,-4.553 34.14718,-21.09249 25.61719,-42.23047 -4.695,-11.63499 -13.36437,-24.76461 -20.94336,-34.8086 -5.99625,-7.945304 -15.54897,-14.107144 -25.78906,-14.244144 z m -2.00196,18.001964 c 9.54499,1.69299 16.4718,14.46014 21.3418,22.36914 6.26599,10.17699 18.67712,26.45682 1.24414,32.63281 -9.47699,-1.88 -15.86643,-13.53493 -20.73242,-21.41992 -6.37099,-10.32299 -20.1125,-27.34004 -1.85352,-33.58203 z"
       style="fill:#fff6eb;fill-opacity:1" /><path
       id="six"
       fill="#fff6eb"
       d="m 505.4177,3.2698157 20.979,2.437 c 4.987,19.2170003 10.166,38.7480003 14.783,58.0320003 3.128,-17.886 5.931,-36.147 8.861,-54.09 6.856,1.214 13.749,2.261 20.628,3.341 -2.106,8.944 -3.984,21.91 -5.611,31.173 l -10.465,59.684004 c -2.42,-0.043 -17.352,-2.805 -20.77,-3.365 -4.843,-15.795004 -10.919,-41.255004 -14.692,-57.593004 l -8.064,53.796 c -6.676,-0.922 -13.704,-1.263 -20.236,-2.792 3.89,-29.148 10.039,-61.22 14.587,-90.6230003 z" /><path
       id="seven"
       d="m 688.91023,51.901546 c -12.98399,27.02898 -26.00101,54.894204 -39.375,81.701184 l 18.8457,8.39453 c 2.677,-5.804 10.06471,-23.65666 14.34571,-26.97266 l 1.50195,0.0625 c 3.663,4.633 1.86939,21.56023 1.52539,28.19922 l -0.36523,6.87891 c 6.10599,3.42299 12.11192,6.73167 18.29492,10.01367 1.837,-12.96299 2.3923,-25.74098 3.0293,-38.79297 6.23599,-0.635 8.09713,-0.74669 13.20312,-4.42969 14.29599,-10.31199 22.08111,-34.847044 5.45313,-46.832034 -10.19799,-7.35099 -24.834,-13.28666 -36.45899,-18.22266 z m 12.02539,23.38477 c 4.356,1.953 8.58343,3.35596 11.23242,7.62695 5.146,8.29399 -1.17599,16.926054 -8.45898,21.248054 -5.259,-1.047 -9.20936,-3.35925 -13.94336,-5.781254 z"
       style="fill:#fff6eb;fill-opacity:1" /><path
       id="nine"
       d="m 430.02742,0.2452957 c -3.74351,0.0211 -7.34704,0.073 -10.64453,0.0723 l -0.45899,90.8085903 20.05469,0.2168 c 0.089,-6.39899 -0.48339,-29.67685 2.59961,-33.08984 6.55299,2.45799 12.91282,26.13804 17.13281,33.33203 0.427,0.128 1.49196,0.49786 1.87696,0.50586 6.36599,0.362 13.02681,0.85944 19.38281,0.89843 -4.781,-12.03898 -9.93016,-25.8293 -15.16016,-37.52929 20.14498,-9.52299 19.98148,-45.89304 -1.8125,-52.3320303 -9.25124,-2.73375 -21.74017,-2.94609999 -32.9707,-2.88282 z m 10.01953,16.8418003 c 16.01898,0.062 23.89176,6.90236 15.75977,22.65234 -4.853,3.234 -10.25331,2.2719 -16.1543,2.0879 z"
       style="fill:#fff6eb;fill-opacity:1" /><path
       id="eleven"
       d="m 177.28132,53.774596 c -0.73458,-0.005 -1.48001,0.0238 -2.23242,0.0859 l -0.87109,0.0781 c -12.70999,3.603 -26.40268,11.89446 -38.13867,18.31446 l 38.43945,80.238284 c 6.04399,-2.908 12.46808,-6.12935 18.58008,-8.77735 l -11.02149,-22.60351 c -1.29099,-2.455 -2.36206,-3.78743 -2.03906,-6.48242 l 0.95703,-1.08985 c 6.302,-0.322 23.68973,17.93512 28.88672,22.91211 l 20.10938,-8.59375 c -9.22999,-8.72399 -20.47275,-18.08996 -30.42774,-26.12695 14.42371,-16.300174 0.52983,-47.810034 -22.24219,-47.955084 z m -4.63671,18.75977 c 9.00517,0.0972 14.8971,9.51337 11.72461,18.27148 -1.558,4.302 -5.90648,5.62392 -9.85547,7.41992 l -1.79297,0.57032 c -3.079,-1.426 -10.05186,-17.21491 -12.13086,-21.37891 2.955,-1.609 7.06689,-3.34344 10.21289,-4.77344 0.62625,-0.0793 1.24145,-0.11585 1.8418,-0.10937 z"
       style="fill:#fff6eb;fill-opacity:1" /><path
       id="thirteen"
       fill="#fff6eb"
       d="m 48.4587,127.88682 c 3.877,1.768 53.161,61.531 58.957,68.426 -5.142,3.864 -9.97,8.132 -14.85,12.326 -18.727,-8.508 -37.66,-17.716 -56.284,-26.526 l 37.749,42.292 -13.785,12.719 c -1.819,-0.457 -54.1598,-60.916 -60.2457,-67.61 5.3971,-4.93 11.4267,-9.961 16.9861,-14.772 l 52.7746,25.011 c -11.579,-13.072 -23.899,-27.505 -35.894,-40.042 4.813,-3.722 9.838,-7.963 14.592,-11.824 z" /><path
       fill="#fff6eb"
       d="m 326.1467,6.0718157 0.941,-0.122 c 0.339,0.233 0.678,0.465 1.016,0.698 5.281,25.6950003 11.733,65.1910003 16.773,89.6490003 -5.916,0.639 -13.761,2.141 -19.778,3.119004 -2.055,-11.702004 -4.767,-23.288004 -6.611,-35.005004 -6.559,1.487 -12.945,2.805 -19.543,4.108 2.618,11.044 4.89,23.932 7.025,35.143004 l -19.437,4.706 -19.204,-90.055004 20.415,-4.645 7.048,36.258 c 6.918,-1.594 13.054,-2.833 20.047,-4.056 l -7.523,-36.369 z"
       id="path1" /><path
       fill="#fff6eb"
       d="m 817.8597,129.35182 c 3.548,2.063 12.724,9.845 16.145,12.656 l -23.126,26.321 c 13.46,-3.63 26.5,-7.328 39.865,-11.297 4.734,3.38 11.804,9.719 16.439,13.635 -14.24,4.235 -27.991,8.142 -42.348,11.957 -4.926,17.402 -9.418,37.717 -13.558,55.415 l -1.157,0.574 c -4.207,-2.808 -13.144,-11.061 -17.321,-14.734 1.873,-6.137 10.349,-30.303 8.339,-34.584 l -1.498,-0.388 c -6.993,2.684 -16.837,15.465 -22.057,21.484 l -16.068,-12.524 c 18.379,-20.916 38.474,-46.671 56.345,-68.515 z"
       id="path2" /><path
       fill="#fff6eb"
       d="m 394.1377,0.17481571 c 3.412,-0.125 2.711,-0.647 4.665,1.03599999 1.599,4.594 1.373,10.8750003 1.695,16.0570003 l -27.739,1.332 1.066,19.625 c 8.173,-0.305 16.383,-0.761 24.555,-1.171 0.103,5.526 0.62,11.757 0.962,17.334 l -24.266,1.25 1.767,20.033 c 8.803,-0.957 19.348,-1.337 28.3,-1.884 l 0.428,8.748 0.457,8.697 c -16.045,0.834 -31.981,2.369 -48.014,3.315 -3.525,-27.869 -5.573,-63.159 -7.711,-91.5280003 14.301,-0.686 29.43,-1.972 43.835,-2.84399999 z"
       id="path3" /><path
       fill="#fff6eb"
       d="m 759.4997,89.488816 c 13.931,8.625 27.365,17.462004 41.058,26.470004 -3.154,4.206 -6.552,9.335 -9.592,13.712 l -22.594,-14.798 -9.959,15.629 20.051,12.914 -10.107,14.396 c -6.094,-4.172 -12.998,-8.426 -19.251,-12.457 l -6.761,11.177 -3.629,5.741 22.518,15.248 c -2.773,4.451 -5.62,10.063 -8.146,14.741 -13.425,-9.332 -26.884,-18.32 -40.495,-27.381 z"
       id="path4" /><path
       fill="#fff6eb"
       d="m 620.3507,25.094816 c 18.831,6.535 36.369,12.71 54.968,19.951 l -6.029,15.818 -17.339,-6.785 c -5.935,18.106 -11.858,35.611 -18.201,53.589004 l -6.454,18.052 c -6.388,-2.698 -12.938,-4.941 -19.471,-7.268 l 24.591,-71.331004 c -5.865,-1.881 -11.619,-3.668 -17.372,-5.885 z"
       id="path5-8" /><path
       fill="#fff6eb"
       d="m 252.7947,24.026816 c 0.952,1.077 4.526,13.599 5.22,15.888 l -16.363,5.148 c 8.038,23.2 15.712,47.063 23.233,70.438004 -6.305,1.727 -12.662,4.016 -18.863,6.131 -1.849,-4.775 -3.716,-10.566 -5.42,-15.473 -6.231,-18.142004 -12.226,-36.908004 -18.264,-55.153004 l -16.512,5.743 -5.215,-16.375 c 17.076,-5.801 34.908,-11.2 52.184,-16.347 z"
       id="path6-4" /></g></svg>
