<?xml version="1.0" encoding="utf-8"?>
<svg xmlns="http://www.w3.org/2000/svg" xmlns:xlink="http://www.w3.org/1999/xlink" width="1024"
    height="1536" viewBox="0 0 1024 1536">
    <path fill="#FAF0E6"
        d="M0 0L1024 0L1024 615.245L1024 627.651L1024 770.277L1024 1536L661.915 1536L8.87268 1536L0 1536L0 742.111L0 638.655L0 0Z" />
    <path fill="#FAF0E6"
        d="M0 0L1024 0L1024 615.245L1024 627.651L1024 770.277C977.902 759.383 928.729 751.151 881.993 742.804C791.044 728.226 698.381 710.732 606.187 705.628C438.359 696.337 267.443 701.507 101.079 726.321C67.3658 731.349 33.2208 735.596 0 742.111L0 638.655L0 0Z" />
    <path fill="#254652"
        d="M239.418 429.733C264.496 435.973 273.516 446.498 294.61 457.513C303.999 457.913 337.035 423.577 348.826 417.547C357.999 412.856 385.813 400.321 392.32 393.704C417.197 368.778 441.484 341.119 468.396 318.343C477.102 310.975 496.72 300.005 506.999 293.498C520.761 299.609 549.948 329.103 561.402 341.182C567.43 346.971 573.412 356.478 579.763 361.621C594.959 373.924 611.358 377.639 626.942 390.788C644.968 405.998 659.066 423.926 677.348 438.403C688.985 447.219 707.429 448.66 721.66 448.214C739.265 447.663 744.652 456.2 757.878 465.2C770.007 473.454 781.923 482.218 793.411 491.168C794.192 491.777 824.384 507.219 825.365 507.437C824.192 505.257 823.473 504.507 823.742 502.189C825.456 501.652 826.52 502.142 828.277 502.594L828.862 501.782C827.475 498.451 825.192 494.167 825.721 490.777L826.528 490.036C829.108 490.788 830.549 491.729 832.715 491.028C832.82 486.101 829.238 486.043 829.695 481.6C830.947 481.174 831.265 481.255 832.602 481.213C834.821 478.1 834.482 477.379 833.831 473.687C834.472 471.784 842.339 457.553 843.045 457.165C845.868 460.473 844.683 465.674 845.204 469.648C845.595 472.631 848.977 470.643 848.746 475.05C848.591 477.984 847.58 479.39 848.715 481.961C850.904 482.253 851.106 482.132 853.305 481.622L854.063 481.996C853.088 492.675 846.381 488.608 857.665 498.321C855.57 501.933 852.221 504.848 852.617 507.154C856.308 510.118 858.445 508.349 860.866 511.013C860.212 513.844 854.94 517.47 852.488 519.826C859.669 524.05 863.843 522.468 867.891 524.819C869.131 527.699 868.891 527.822 867.128 530.604C873.804 536.783 879.14 541.421 886.733 546.574C886.733 546.151 886.733 542.658 886.733 542.658C892.025 535.796 892.735 525.342 896.439 518.099C899.096 523.442 901.502 539.031 902.339 539.464C911.284 544.092 902.639 543.361 904.176 548.505C907.578 550.609 906.542 549.463 908.404 552.734C913.02 554.368 923.459 560.463 925.604 560.847L926.596 560.501L926.176 560.039C923.965 557.556 922.256 555.451 922.15 552.083C923.324 549.743 922.574 550.515 925.022 549.346C927.967 549.277 930.153 549.986 932.973 550.715C929.811 546.691 923.536 540.03 923.573 535.166L924.552 534.01C929.004 534.155 931.183 536.221 934.263 535.184C935.515 533.196 935.329 534.214 935.149 532.109C932.151 529.95 929.435 528.548 928.429 525.045L928.756 523.265C932.369 521.066 935.348 523.581 937.268 521.305L936.76 520.515C935.258 518.155 933.651 515.899 934.756 513.007L937.59 511.801C938.449 508.576 935.573 508.508 936.717 504.541C938.353 504.079 938.85 503.996 940.545 503.771C942.384 498.31 935.379 500.809 943.605 492.773C943.816 492.567 946.717 479.479 949.737 474.395C950.712 477.186 955.077 496.302 954.588 495.563L958.535 496.533C959.363 499.489 956.681 502.129 956.901 502.875C958.044 506.739 961.363 507.456 961.404 511.782C960.225 513.308 959.383 514.302 958.062 515.706L958.384 516.524C960.956 516.958 963.201 517.295 965.732 517.985C969.495 524.587 957.878 524.229 958.246 530.529C962.731 531.157 965.424 526.732 969.783 529.84C971.575 536.146 963.668 541.987 959.417 546.074C963.037 544.66 967.259 542.882 970.94 541.82C974.319 543.336 975.248 546.168 974.149 549.645C971.831 551.915 969.573 554.106 967.187 556.304L968.096 556.951L968.524 556.783C971.713 555.563 974.234 554.642 977.662 554.834C981.674 557.134 978.818 563.259 977.722 567.16C975.263 568.853 973.6 569.696 972.233 572.398L972.831 573.558C979.329 573.972 977.977 569.065 980.923 571.059C981.943 574.498 981.386 577.307 981.016 580.878C978.916 583.905 978.435 583.557 978.409 586.667C981.401 589.527 984.767 587.106 987.086 584.508C987.005 584.214 986.092 580.896 986.092 580.896C988.78 574.659 990.941 568.767 993.031 562.298C996.232 569.139 998.418 571.214 996.566 578.179C998.884 580.667 999.706 577.602 1001.36 580.477C1000.53 582.955 1000.19 583.324 998.701 585.534L998.9 586.288L1002.17 586.572C1004.75 591.496 998.954 591.203 1006.46 594.678C1006.35 599.139 1001.12 597.839 1003.66 602.216C1005.74 603 1006.29 602.849 1008.58 602.803C1010.28 604.272 1010.29 605.648 1010.3 608.004C1012.24 611.141 1020.13 613.695 1024 615.245L1024 627.651L1024 770.277C977.902 759.383 928.729 751.151 881.993 742.804C791.044 728.226 698.381 710.732 606.187 705.628C438.359 696.337 267.443 701.507 101.079 726.321C67.3658 731.349 33.2208 735.596 0 742.111L0 638.655C6.42269 638.237 4.03395 634.752 9.14288 636.891C10.0374 638.436 10.4501 639.578 12.0065 640.394C14.4179 639.405 14.6818 639.088 16.4983 637.194C15.8721 635.538 11.2663 632.319 8.87797 629.581L8.29074 628.902C8.34508 624.632 7.96796 620.365 7.66435 616.104C16.1847 617.927 13.8874 615.593 20.2184 620.444L21.4653 620.009L22.1723 618.367C20.8333 614.104 16.2135 612.163 13.7309 607.104C13.6843 604.405 13.3192 605.407 14.947 603.407C17.4971 602.802 20.2248 604.742 24.2775 604.985C26.8431 603.771 25.9608 604.521 27.5562 602.046C26.7994 599.048 17.3333 597.018 18.6897 592.169C22.3065 590.163 24.397 588.065 28.5137 589.046C28.837 584.897 23.0614 582.342 25.3778 578.027C27.4798 577.693 28.648 577.739 30.2719 576.492C29.7618 573.467 27.5435 573.175 27.9611 569.258C29.2022 568.164 29.8071 568.094 31.3629 567.6L31.9155 567.428C32.7488 564.989 31.7582 565.1 30.1618 561.713C31.0448 560.788 34.602 557.982 34.7744 557.362C37.2469 548.469 37.5245 544.91 41.8129 536.61C44.3161 543.85 47.2278 564.138 51.4641 567.658C56.8254 563.869 58.5263 567.513 61.637 565.042C61.2231 559.897 52.9672 556.037 54.3839 549.157C57.9684 547.683 60.4047 551.307 65.3334 549.222C67.0486 547.393 67.0456 547.926 67.5452 545.809C64.451 543.482 61.0759 542.149 59.1671 539.082C58.8739 536.619 58.5986 537.413 59.8011 535.731C63.3701 534.207 66.3165 534.067 70.1588 533.613C72.3529 530.447 65.7599 528.934 65.2121 524.31C67.6322 521.573 69.7549 523.566 71.8727 521.253L71.6167 519.141C70.0131 517.304 69.2697 516.732 68.4976 514.487C70.1026 511.353 71.1725 513.829 73.7466 510.841L71.7906 505.814C72.2774 502.176 74.3729 505.272 76.2517 500.531C78.2852 495.4 78.0351 486.357 82.1399 483.214L83.5744 484.002C87.0496 489.627 86.3275 496.501 87.2414 501.788C91.5995 505.495 90.2548 506.761 89.6563 512.21C90.9325 512.613 92.0484 512.904 93.3361 513.23L94.1404 514.846C94.1105 517.604 93.1945 519.08 92.037 521.538C98.2398 520.016 119.732 508.675 125.64 504.92C140.698 495.351 162.409 484.46 176.609 474.223C197.921 458.858 216.965 443.952 239.418 429.733Z" />
    <defs>
        <linearGradient id="gradient_0" gradientUnits="userSpaceOnUse" x1="477.30084" y1="293.16971"
            x2="450.418" y2="654.34619">
            <stop offset="0" stop-color="#1D3B4B" />
            <stop offset="1" stop-color="#46686F" />
        </linearGradient>
    </defs>
    <path fill="url(#gradient_0)"
        d="M239.418 429.733C264.496 435.973 273.516 446.498 294.61 457.513C303.999 457.913 337.035 423.577 348.826 417.547C357.999 412.856 385.813 400.321 392.32 393.704C417.197 368.778 441.484 341.119 468.396 318.343C477.102 310.975 496.72 300.005 506.999 293.498C520.761 299.609 549.948 329.103 561.402 341.182C567.43 346.971 573.412 356.478 579.763 361.621C594.959 373.924 611.358 377.639 626.942 390.788C644.968 405.998 659.066 423.926 677.348 438.403C688.985 447.219 707.429 448.66 721.66 448.214C739.265 447.663 744.652 456.2 757.878 465.2C770.007 473.454 781.923 482.218 793.411 491.168C794.192 491.777 824.384 507.219 825.365 507.437C825.263 510.357 823.624 511.663 821.7 514.46C823.815 516.567 824.678 516.741 825.318 519.35C823.831 521.783 819.427 522.61 815.78 525.227C818.464 528.316 821.508 532.534 825.204 533.913C825.459 534.346 826.222 535.57 826.358 535.96L825.447 537.642C822.081 537.007 816.291 535.315 813.449 535.823C811.236 538.171 811.207 539.839 811.897 543.001C810.949 545.835 810.651 546.872 810.137 549.843L810.293 550.758C811.764 559.034 816.424 557.238 818.824 562.765C814.141 564.187 809.173 559.116 805.21 563.396C802.652 573.534 806.174 574.559 813.978 580.73C815.197 580.737 815.587 580.749 816.808 580.619C816.471 583.231 816.898 582.244 815.165 584.194C809.401 585.427 805.97 579.967 799.95 583.42C797.216 588.289 799.636 594.801 801.067 600.231C804.228 603.081 808.247 605.55 807.989 610.046C803.449 611.919 800.271 607.515 797.849 604.237C795.725 604.835 792.315 613.843 789.411 616.903C789.622 619.304 790.33 620.172 791.525 622.292C788.658 624.459 787.824 622.076 785.307 624.386C785.917 628.41 788.726 627.591 788.06 630.709L787.385 630.669C785.301 630.563 784.784 630.367 783.007 631.236C782.037 634.461 783.403 637.557 780.647 639.288C779.496 640.012 778.904 642.214 778.465 643.464L777.75 643.595L777.661 638.319C774.265 636.169 773.957 638.18 771.768 635.612C773.618 632.833 776.559 629.28 777.221 626.293C776.453 623.434 777.12 624.319 774.945 622.694C770.865 622.282 768.535 623.742 766.214 622.771C766.141 617.561 771.539 617.905 773.236 613.105C771.984 606.78 768.888 610.448 766.288 606.454C768.079 603.932 768.606 603.991 768.933 601.124C760.896 589.336 760.847 571.671 753.811 558.698C751.367 566.332 747.861 585.705 741.21 588.433C739.88 590.9 740.509 597.621 740.985 600.623C742.455 609.903 736.933 604.845 733.137 608.655C733.601 615.671 738.66 614.682 738.523 618.534C735.08 620.996 733.601 618.884 730.767 621.416C730.116 626.115 733.725 626.798 732.241 629.26C729.224 630.316 726.938 630.413 725.706 632.615L726.221 634.77L725.496 637.363C725.081 635.072 725.15 634.811 723.695 633.114C715.926 631.464 721.197 629.942 720.422 627.746C717.373 619.098 715.198 610.4 712.923 601.542C709.062 611.631 706.951 624.074 701.301 633.913C700.029 636.128 699.742 635.664 697.094 636.135C696.818 637.787 697.042 637.63 696.154 638.905C691.052 635.813 689.753 641.46 686.396 640.538C686.581 636.877 690.73 635.513 692.202 630.538C691.015 628.582 688.797 628.837 685.487 627.219C685.111 624.405 687.842 625.332 689.931 620.931C689.32 617.64 689.548 619.375 686.131 616.747C685.855 614.463 687.136 612.871 688.312 610.744C686.995 609.183 684.768 606.572 683.938 604.791C681.704 599.992 680.861 588.576 677.213 585.145C673.044 587.321 673.525 598.512 670.833 602.18C667.923 606.144 668.979 605.874 668.836 610.312C666.634 611.017 666.044 611.055 664.318 612.494C663.682 615.754 664.099 615.293 665.334 618.83C664.467 622.731 662.332 619.152 659.977 623.982C660.794 627.409 662.074 627.081 664.598 630.468C663.267 635.147 661.588 630.515 657.267 633.012C655.174 636.979 657.169 641.886 659.784 645.13L659.483 645.621C647.102 642.769 654.551 647.657 647.994 648.433C645.932 646.728 646.484 647.635 645.917 645.025C647.751 641.364 648.786 638.915 647.955 634.653C646.238 633.219 646.336 633.773 643.242 633.991C642.503 631.86 644.801 626.977 645.671 623.781L645.148 622.877C642.55 623.65 641.085 624.249 638.346 624.271C637.218 620.616 640.973 619.583 639.51 614.671C636.054 612.74 635.929 615.318 632.507 613.932C632.48 609.335 636.207 609.912 636.288 604.473C634.982 602.567 633.874 602.846 631.114 602.133L630.563 600.832C632.214 598.542 632.652 598.213 633.217 595.544C631.724 590.624 632.507 596.098 630.18 592.563C631.03 589.683 631.505 587.866 629.787 585.045C625.616 578.194 625.638 569.86 623.243 563.137L622.372 562.901C620.397 566.038 616.671 581.954 615.948 586.127C615.064 586.328 614.253 586.348 613.348 586.359C612.592 589.762 615.444 589.088 614.542 592.352C612.555 592.478 612.073 592.482 610.178 593.021C610.083 595.585 609.761 594.563 611.719 596.779C610.687 598.049 609.73 599.175 608.644 600.399C609.383 602.58 609.606 602.896 609.503 605.137C607.325 607.259 607.013 606.482 603.097 606.567C602.01 607.927 599.856 608.9 598.191 608.253C599.119 605.436 599.672 605.293 599.011 602.712L597.114 601.99C596.517 601.136 593.075 585.573 591.747 582.005C589.057 589.524 588.402 598.704 583.065 604.239C582.452 604.874 582.862 614.46 581.138 617.511C579.274 618.542 578.278 618.796 577.436 620.614C577.794 622.863 577.783 623.618 579.3 625.332C577.691 625.933 576.321 626.882 574.84 627.781L574.474 630.264L573.068 631.127C568.834 621.938 567.924 607.262 562.327 596.606L561.917 595.84C559.098 604.991 556.544 614.094 553.957 623.307C548.62 618.964 551.601 623.059 544.11 622.745L543.679 621.737C546.278 617.679 546.476 616.521 547.607 611.77L537.093 613.233L545.681 604.282C543.691 603.765 538.632 602.753 537.406 601.441C538.535 600.174 539.535 598.989 540.604 597.672L540.298 596.089C538.852 595.158 537.764 594.741 537.227 593.162L538.489 591.292C538.39 590.353 538.432 590.056 537.788 589.331C531.885 582.69 531.925 573.229 528.426 563.435C526.981 569.645 524.671 577.278 522.742 583.475C522.241 585.085 520.677 585.123 518.714 585.804C518.658 588.501 521.3 587.836 521.773 591.136C520.606 591.616 519.614 592.059 518.477 592.588L517.965 594.477L519.398 596.783C519.41 600.247 518.912 596.623 516.136 600.399C516.119 603.645 515.718 602.444 517.533 604.974L517.247 605.8C515.084 605.577 514.393 605.297 512.519 606.185C511.16 610.974 514.909 610.889 516.544 614.982C514.481 616.744 513.55 614.418 509.681 615.815C507.004 620.54 512.758 620.961 512.781 625.149C509.977 624.579 510.095 624.106 507.999 625.041C506.865 628.537 508.118 630.405 509.868 633.342L509.312 635.031C503.431 635.935 505.863 636.297 501.197 639.989L500.311 640.188C498.552 637.7 500.433 634.955 499.344 630.561C496.742 628.711 496.6 629.245 492.98 628.845C492.881 627.345 494.722 623.628 495.415 622.157C493.517 619.511 491.203 616.284 488.472 612.477C488.918 602.658 489.443 605.698 485.186 598.548C485.659 597.419 486.063 596.417 486.49 595.262C481.315 590.155 483.775 580.248 479.678 575.248L478.471 575.458C475.795 579.018 474.891 588.6 471.918 592.89C469.627 596.195 472.368 594.672 472.609 597.565C471.063 598.457 470.346 598.785 468.693 599.464L468.262 601.028L470.374 604.199L470.008 605.308L467.065 605.339C466.158 607.932 467.978 609.237 468.526 613.055C464.838 613.875 465.141 612.747 462.894 614.989C463.118 617.571 463.826 617.747 465.532 620.059L465.33 620.891L460.272 620.379L458.803 621.857C458.517 626.023 462.449 625.582 461.048 629.491C458.423 628.565 458.146 628.003 455.648 628.485L453.988 631.179C451.894 631.136 451.456 630.895 450.081 632.042L447.535 632.7L446.888 631.886C447.632 630.017 448.089 628.978 449.057 627.218C448.647 621.619 445.476 624.547 444.17 620.279C450.93 615.441 440.056 607.251 439.351 604.804C436.914 596.344 434.524 587.617 432.183 579.105C426.91 589.71 428.989 589.831 426.112 598.705L423.507 599.41C421.138 601.733 423.866 607.066 421.592 613.021C418.958 613.902 418.327 613.743 417.565 616.431L419.86 620.454C418.285 623.15 417.333 619.509 413.872 622.075C413.817 624.92 415.597 628.848 416.666 631.686L416.327 631.813C414.149 631.129 413.654 630.982 411.434 631.509C407.954 632.898 407.127 633.314 403.35 633.689L402.03 632.242C402.505 629.735 402.687 630.653 401.69 628.536C399.44 627.793 398.053 628.458 395.715 629.086L395.043 628.49L395.513 628.043C397.263 626.36 397.668 625.956 398.925 623.913L398.635 622.323C396.537 620.913 395.521 620.428 394.009 618.339C393.192 613.106 396.221 611.195 394.861 607.163C392.896 606.487 392.918 606.537 390.811 606.49C391.274 603.54 393.645 604.523 393.519 601.435C393.044 600.928 390.48 598.189 390.41 597.85C388.849 590.361 386.649 582.579 383.894 575.42C381.387 580.723 379.888 590.371 378.672 592.092L376.11 592.967C376.897 598.007 379.74 597.057 374.379 600.462C374.484 604.71 376.978 601.487 374.274 606.871C372.231 610.937 369.469 612.545 372.098 616.497C370.173 620.323 369.526 617.15 367.92 621.2L370.674 624.801L370.178 625.44L366.524 624.86C362.687 628.162 367.229 631.947 367.761 635.404C365.25 636.738 364.249 637.088 362.998 639.786L362.169 639.553C359.93 634.854 360.039 635.747 355.298 635.891C353.477 630.907 358.799 632.332 359.206 627.197C357.751 625.514 358.29 626.047 355.383 625.707C355.369 624.023 357.088 623.488 359.02 621.442C357.89 619.075 357.004 619.146 354.426 617.627C355.734 614.449 357.658 611.298 355.981 608.142L353.295 607.635L352.849 606.787L354.753 603.718C354.889 600.637 351.726 600.961 351.538 599.944C350.844 596.188 349.816 586.566 347.626 583.74L346.375 584.155C345.366 585.688 336.8 609.74 336.629 611.177C341.14 620.706 323.727 620.138 333.288 631.955L332.989 633.279C331.557 633.648 330.154 634.029 328.73 634.424C327.009 638.338 329.647 638.118 328.513 641.714C326.163 641.137 323.621 638.075 321.732 636.209C322.46 633.128 323.439 631.21 322.75 628.037C320.682 626.264 318.428 626.494 315.303 626.017C317.283 624.353 321.78 621.346 322.374 619.221C320.436 616.061 315.794 617.021 317.325 614.366C319.557 610.527 318.106 608.444 316.173 604.979C311.462 596.536 311.142 587.07 307.926 577.742C304.714 587.891 304.854 591.049 302.628 600.878L300.447 601.417C296.378 606.61 301.633 612.387 293.91 616.37C292.986 618.421 293.055 617.401 293.646 619.53C296.433 620.949 296.972 620.821 296.363 623.868C292.212 623.668 292.415 623.6 289.701 625.891L288.963 624.845C285.842 621.648 285.871 626.202 280.277 623.461C283.711 619.751 289.034 614.851 287.559 609.33C283.843 607.304 282.569 610.802 278.443 608.774C275.661 603.954 280.117 604.314 280.86 597.723C279.078 593.289 275.294 596.756 271.683 595.131C272.26 593.009 274.472 591.607 276.367 589.855C276.938 584.197 273.916 585.284 271.937 581.515C271.47 580.625 273.115 577.801 272.454 574.388C271.401 573.74 270.367 573.123 269.303 572.495C268.359 570.117 265.341 552.727 264.515 548.81C260.721 556.83 259.239 562.735 256.559 571.087C255.911 573.104 254.318 573.277 252.405 574.044C251.898 577.248 254.578 578.316 253.596 580.642C252.13 580.627 251.389 580.477 250.097 581.18C249.65 583.758 250.896 585.645 252.017 588.326C249.126 589.139 246.467 589.333 245.332 592.112C246.073 594.545 248.36 595.702 250.563 597.296C251.481 599.389 251.466 598.368 250.678 600.457C247.342 601.498 247.071 599.679 242.711 599.636L241.695 600.734C240.632 607.263 247.362 608.126 248.015 612.562L247.251 613.145C243.903 611.459 238.766 609.461 235.605 612.026C234.689 616.929 240.11 622.06 241.026 626.462C241.263 627.598 235.567 632.471 236.21 635.729C236.398 636.685 235.727 638.722 235.274 639.789L234.2 639.227C230.641 631.895 232.872 629.219 231.438 625.23C229.681 626.119 229.675 626.151 227.762 626.539C226.735 623.32 233.763 619.692 230.894 613.479C226.911 612.373 225.404 616.205 219.998 614.894C222.217 612.409 223.891 610.852 225.101 607.74C224.232 602.515 219.464 606.143 216.311 603.37C220.121 600.806 219.686 602.972 222.406 599.387C222.782 592.997 218.416 596.158 216.36 592.63C218.23 590.724 220.217 589.458 219.993 586.841C213.715 583.14 213.948 567.866 209.444 560.656L208.39 560.425C207.336 561.802 198.674 586.413 198.203 588.757C199.31 590.044 199.47 590.043 199.831 591.748C198.457 593.606 197.801 593.407 195.397 594.349C195.331 596.669 196.113 598.18 196.929 600.368L193.134 601.919C190.406 608.074 196.692 607.345 196.456 612.598C193.215 614.433 192.847 612.229 188.828 613.723L188.342 615.362C189.212 619.999 190.229 621.803 193.688 624.786L192.991 625.313C190.607 625.553 190.299 625.573 188.146 624.55C186.7 622.451 186.469 622.106 184.429 620.598C180.184 619.463 178.887 622.363 176.047 621.425C175.878 617.294 181.173 615.814 179.388 610.094C176.502 608.376 174.182 610.673 171.091 609.327C170.7 604.749 173.81 602.54 176.958 599.759L176.798 598.315C174.696 595.987 171.588 595.013 168.648 593.77C170.643 591.816 173.359 589.545 173.387 586.79C173.429 582.766 172.03 586.014 169.656 582.902C173.897 574.921 162.518 569.019 163.269 559.767C163.482 557.142 161.551 547.982 158.959 546.86C155.243 550.104 155.395 559.244 153.51 563.566C153.618 563.317 150.452 565.739 149.234 567.379C149.934 568.676 150.593 569.964 151.262 571.276L150.881 572.01L147.308 572.436C146.567 574.897 147.74 575.681 148.019 578.318C148.455 582.425 147.071 578.564 144.715 581.567C144.519 584.699 145.137 584.965 147.479 587.718L146.973 588.874L143.176 589.213L142.2 590.858C140.344 593.194 138.146 595.458 137.658 598.356L138.332 601.687C140.764 603.917 142.818 606.004 144.203 609.017C141.734 610.721 136.436 604.27 132.742 608.15C131.941 615.721 140.391 616.882 138.553 623.001C135.103 624.197 135.34 622.15 131.71 622.91C130.95 626.513 134.805 628.509 132.644 631.823L131.444 631.681C126.775 622.323 122.982 627.665 119.597 623.667C121.656 621.608 125.599 618.372 126.143 615.733C126.898 612.067 128.731 605.948 127.08 602.653C122.033 600.079 119.261 604.364 113.192 605.013L112.719 604.094C113.539 601.835 118.459 598.361 120.52 596.741C121.165 593.999 120.016 588.483 119.549 585.417C114.975 586.998 110.228 588.894 105.685 590.623C109.969 586.399 117.619 581.697 118.319 577.02L116.923 575.718C113.662 574.735 111.629 575.957 108.154 576.288L106.576 575.25C109.649 572.103 114.14 567.194 113.005 562.655C108.457 558.94 99.8875 563.465 95.0979 565.457C99.2486 562.284 111.545 551.145 107.094 545.858C102.542 544.779 100.061 548.404 96.4801 545.346C97.1209 542.569 100.069 541.028 102.646 539.099C104.537 534.08 96.4919 532.246 92.6304 530.746C95.3913 528.635 96.7801 528.08 96.9656 524.621C95.3568 522.606 94.5463 522.535 92.037 521.538C98.2398 520.016 119.732 508.675 125.64 504.92C140.698 495.351 162.409 484.46 176.609 474.223C197.921 458.858 216.965 443.952 239.418 429.733Z" />
    <path fill="#35565F"
        d="M501.197 639.989C502.035 636.875 501.814 635.032 503.273 631.67L504.673 631.364C506.818 632.686 507.433 633.306 509.312 635.031C503.431 635.935 505.863 636.297 501.197 639.989Z" />
    <path fill="#FAF0E6"
        d="M503.192 321.015C506.067 324.3 478.832 370.211 482.87 378.791C484.879 383.06 490.849 384.634 491.828 390.188C490.281 398.902 474.805 404.669 469.225 411.395C464.351 417.27 460.856 423.787 456.363 430.012C446.556 443.598 435.021 452.284 421.867 462.32C433.668 441.014 441.3 440.572 442.118 411.812C425.497 420.979 421.519 421.443 412.317 437.433C397.667 444.521 381.872 470.711 375.645 471.154L375.784 469.361C379.989 459.82 385.128 451.718 388.809 441.554C376.783 446.273 364.383 449.58 352.359 454.021C343.754 457.2 334.09 461.854 325.66 465.734C333.544 456.787 359.993 434.364 370.331 427.829C381.293 420.898 397.369 413.399 408.176 404.321C414.624 398.904 419.376 392.279 425.259 386.415C454.754 357.008 464.163 336.686 503.192 321.015Z" />
    <path fill="#FAF0E6"
        d="M181.234 504.485C177.71 504.155 171.441 504.093 168.621 502.837L168.718 501.664C173.201 496.969 218.956 462.248 224.003 459.659L224.391 462.313C225.977 463.151 225.884 463.177 227.646 463.391C225.164 475.15 213.201 485.162 205.379 493.66C202.264 497.045 194.46 505.391 189.683 504.682C185.509 501.119 185.758 502.228 181.234 504.485Z" />
    <path fill="#F6EFEB"
        d="M224.003 459.659L225.535 460.489C228.619 457.35 228.892 455.547 231.673 452.769C230.636 455.898 229.237 460.691 227.646 463.391C225.884 463.177 225.977 463.151 224.391 462.313L224.003 459.659Z" />
    <path fill="#48696F"
        d="M867.128 530.604C873.804 536.783 879.14 541.421 886.733 546.574C886.241 549.148 884.859 549.257 884.839 552.576C885.916 554.956 886.109 554.35 885.472 556.189L883.018 556.333C881.614 558.342 882.002 557.451 881.733 559.886C882.564 561.883 883.373 563.842 884.16 565.859L883.747 566.593L882.423 565.688L876.786 569.1L876.573 570.421C878.533 572.956 883.561 577.178 883.767 578.644L880.569 578.55C878.502 578.475 875.815 579.379 874.191 580.544L870.712 578.086C873.409 574.311 875.705 567.963 873.538 563.217C872.161 560.2 867.225 561.891 863.831 561.054C863.898 559.707 870.081 553.487 871.95 550.695L872.487 549.885L872.382 540.097C868.615 539.948 864.748 539.67 860.976 539.446C863.082 536.504 865.093 533.596 867.128 530.604Z" />
    <path fill="#48696F"
        d="M908.404 552.734C913.02 554.368 923.459 560.463 925.604 560.847L923.873 563.129C915.739 561.995 915.605 569.152 919.793 573.906C922.179 576.615 924.766 578.505 926.896 581.585C924.103 585.181 921.255 580.341 919.788 580.553C917.077 580.944 913.773 585.707 908.799 582.191C909.163 579.069 913.117 577.877 915.107 573.263C913.627 570.103 909.436 572.195 906.305 567.286C909.014 565.276 913.485 562.962 913.027 559.398C910.787 557.97 908.906 558.133 906.208 557.945L905.668 557.318C906.761 555.668 907.454 554.471 908.404 552.734Z" />
    <path fill="#48696F"
        d="M1005.29 624.357C1008.54 622.438 1013.31 620.163 1012.44 615.82C1010.21 614.19 1006.2 613.75 1003.29 613.192L1002.86 612.293C1005.39 609.269 1006.45 609.073 1010.3 608.004C1012.24 611.141 1020.13 613.695 1024 615.245L1024 627.651C1023.16 626.229 1022.26 625.015 1021.3 623.679L1019.15 625.699C1014.87 624.857 1009.7 624.657 1005.29 624.357Z" />
    <path fill="#35565F"
        d="M402.03 632.242L403.35 633.689C407.127 633.314 407.954 632.898 411.434 631.509C412.523 634.637 412.045 637.334 411.196 640.515L410.134 640.953C407.95 638.498 409.981 638.99 408.973 634.691C405.186 633.729 403.973 636.638 399.844 636.596L402.03 632.242Z" />
    <path fill="#48696F"
        d="M726.221 634.77C728.446 636.463 728.943 637.651 730.387 640.02L730.362 641.925C727.412 643.717 724.787 643.684 722.622 640.793C723.136 639.089 724.123 638.527 725.496 637.363L726.221 634.77Z" />
    <path fill="#35565F"
        d="M142.2 590.858C143.607 593.31 144.694 594.264 144.724 596.781C140.025 597.769 138.824 596.696 138.332 601.687L137.658 598.356C138.146 595.458 140.344 593.194 142.2 590.858Z" />
    <path fill="#35565F"
        d="M450.081 632.042C451.456 630.895 451.894 631.136 453.988 631.179L454.386 634.468L453.866 635.117C451.415 638.213 451.76 638.107 450.98 641.874L450.852 642.547C450.338 638.489 450.091 636.112 450.081 632.042Z" />
    <path fill="#35565F"
        d="M870.712 578.086L874.191 580.544C871.075 581.369 863.465 584.32 861.513 584.012C861.711 579.556 867.331 581.879 870.712 578.086Z" />
    <path fill="#35565F"
        d="M811.897 543.001C814.681 544.956 816.448 545.918 818.864 548.334C813.905 547.77 813.854 547.208 810.137 549.843C810.651 546.872 810.949 545.835 811.897 543.001Z" />
    <path fill="#48696F"
        d="M362.169 639.553L362.998 639.786C363.263 641.85 363.523 642.641 363.015 644.609C360.676 645.628 358.611 647.821 356.982 648.248C358.335 644.474 360.382 643.12 362.169 639.553Z" />
    <path fill="#35565F"
        d="M288.963 624.845L289.701 625.891L290.255 629.634C291.92 631.507 293.231 632.504 293.479 634.919L292.498 635.307C288.509 632.12 288.967 629.606 288.963 624.845Z" />
    <path fill="#35565F"
        d="M108.154 576.288C105.943 576.804 103.485 577.893 101.654 576.65C103.897 575.057 103.429 575.56 106.576 575.25L108.154 576.288Z" />
    <path fill="#35565F"
        d="M917.154 592.635C917.68 592.517 918.666 592.556 919.254 592.55C921.573 594.312 927.597 598.199 927.166 601.098C924.812 601.478 923.752 600.574 921.599 599.423C919.304 597.543 912.906 599.311 910.941 597.051C914.007 595.612 914.792 595.061 917.154 592.635Z" />
    <path fill="#48696F"
        d="M55.616 593.709C57.7553 595.993 59.8918 595.633 62.6045 598.06L61.5426 598.9C58.913 598.558 54.8489 598.104 52.7691 596.668L52.7532 595.452L55.616 593.709Z" />
    <path fill="#35565F"
        d="M603.158 621.676C604.697 622.644 607.436 626.344 606.975 628.247L605.72 627.704C603.54 626.28 602.211 625.431 600.213 623.68L600.422 622.411L603.158 621.676Z" />
    <path fill="#F6EFEB"
        d="M51.5423 574.037C55.6791 575.455 56.7537 575.53 57.9788 579.782C53.7854 578.268 52.6593 578.136 51.5423 574.037Z" />
    <path fill="#5B5F5B"
        d="M618.762 915.975C609.661 900.834 583.395 892.322 567.132 886.468C557.505 883.003 543.817 877.913 533.536 875.124C514.533 869.97 436.325 843.278 486.084 818.487C533.442 794.893 598.714 790.541 650.807 782.962C657.307 782.065 685.964 778.655 690.999 780.723C685.19 784.255 665.42 786.27 658.109 787.601C638.15 791.234 537.016 807.995 532.315 828.689C531.747 831.192 532.46 833.735 533.841 835.846C545.873 854.228 617.82 868.86 640.367 875.627C662.856 882.378 731.908 903.441 726.697 934.98C725.153 944.327 717.647 951.319 710.254 956.508C687.639 972.381 658.732 980.744 632.374 988.089C595.043 998.491 556.943 1006.18 519.359 1015.6C494.754 1021.77 468.158 1028.08 445.474 1039.53C437.102 1043.75 424.461 1051.24 422.618 1061.4C421.825 1065.77 423.411 1069.98 425.966 1073.47C446.213 1101.09 570.424 1131.67 608.487 1144.26C688.155 1170.62 835.5 1229.43 820.941 1334.25C811.243 1404.07 714.3 1491.23 661.915 1536L8.87268 1536C19.3867 1530.75 30.8776 1526.23 41.6574 1521.4C117.137 1487.56 191.583 1451.04 264.982 1412.91C306.693 1391.24 349.26 1368.59 385.054 1337.84C409.305 1316.94 429.579 1284.89 412.392 1252.98C399.129 1228.36 373.067 1211.7 349.847 1197.47C329.536 1185.23 308.85 1175.5 288.058 1163.68C257.592 1146.36 202.557 1119.24 215.38 1075.36C221.537 1054.29 248.821 1036.36 268.074 1027.2C338.544 993.648 419.807 979.038 496.01 964.692C527.016 958.855 559.393 954.926 589.284 945.666C599.6 942.47 614.551 936.583 617.457 925.866C618.241 922.974 618.603 919.032 618.762 915.975Z" />
    <path fill="#C46450"
        d="M328.355 745.061C375.394 739.966 412.13 791.365 398.44 834.622C386.747 871.57 359.067 912.608 334.525 942.25L333.144 943.019C329.947 942.752 325.116 935.037 322.973 932.224C302.867 905.841 283.414 876.551 270.029 846.212C249.991 800.795 277.305 748.9 328.355 745.061Z" />
    <path fill="#FAF0E6"
        d="M328.182 787.034C343.586 784.679 358.001 795.201 360.45 810.586C362.898 825.972 352.462 840.447 337.088 842.988C321.581 845.552 306.95 835.008 304.48 819.49C302.01 803.972 312.645 789.409 328.182 787.034Z" />
</svg>