<?xml version="1.0" encoding="UTF-8" standalone="no"?>
<svg
   width="1024"
   height="313.11328"
   viewBox="0 0 1024 313.11328"
   version="1.1"
   id="svg27"
   sodipodi:docname="back-trees.svg"
   inkscape:version="1.3 (0e150ed6c4, 2023-07-21)"
   xmlns:inkscape="http://www.inkscape.org/namespaces/inkscape"
   xmlns:sodipodi="http://sodipodi.sourceforge.net/DTD/sodipodi-0.dtd"
   xmlns:xlink="http://www.w3.org/1999/xlink"
   xmlns="http://www.w3.org/2000/svg"
   xmlns:svg="http://www.w3.org/2000/svg">
  <sodipodi:namedview
     id="namedview27"
     pagecolor="#ffffff"
     bordercolor="#000000"
     borderopacity="0.25"
     inkscape:showpageshadow="2"
     inkscape:pageopacity="0.0"
     inkscape:pagecheckerboard="0"
     inkscape:deskcolor="#d1d1d1"
     inkscape:zoom="0.74853882"
     inkscape:cx="503.64789"
     inkscape:cy="84.83194"
     inkscape:window-width="1920"
     inkscape:window-height="1009"
     inkscape:window-x="1912"
     inkscape:window-y="-8"
     inkscape:window-maximized="1"
     inkscape:current-layer="svg27" />
  <path
     id="path3"
     d="m 843.04492,0 c -0.706,0.388 -8.57384,14.62044 -9.21484,16.52344 0.651,3.692 0.99048,4.41239 -1.22852,7.52539 -1.337,0.042 -1.65425,-0.0393 -2.90625,0.38672 -0.457,4.44282 3.12453,4.50091 3.01953,9.42773 -2.16582,0.701 -3.6075,-0.24018 -6.1875,-0.99218 l -0.80664,0.74218 c -0.529,3.39 1.75363,7.67291 3.14063,11.00391 l -0.58399,0.8125 c -1.75682,-0.452 -2.82115,-0.9413 -4.53515,-0.4043 -0.269,2.318 0.45022,3.06805 1.62304,5.24805 -0.102,2.92 -1.74201,4.22644 -3.66601,7.02344 2.115,2.107 2.97914,2.27967 3.61914,4.88867 -1.487,2.433 -5.89224,3.26013 -9.53906,5.87695 2.68382,3.089 5.728,7.30655 9.42382,8.68555 0.255,0.433 1.0183,1.65883 1.1543,2.04883 l -0.91015,1.68164 c -3.366,-0.635 -9.15605,-2.32831 -11.99805,-1.82031 -2.213,2.34782 -2.24256,4.01786 -1.55274,7.17968 2.784,1.955 4.5508,2.9162 6.9668,5.33203 -4.95883,-0.564 -5.00956,-1.12523 -8.72656,1.50977 l 0.15625,0.91406 c 1.471,8.27582 6.13125,6.48099 8.53125,12.00781 -4.683,1.422 -9.65046,-3.64896 -13.61328,0.63086 -2.558,10.13782 0.96358,11.16299 8.76758,17.33399 1.21882,0.007 1.60907,0.0187 2.83007,-0.11133 -0.337,2.612 0.0885,1.62422 -1.64453,3.57422 -5.76382,1.233 -9.19502,-4.22626 -15.21484,-0.77344 -2.734,4.869 -0.31381,11.38055 1.11719,16.81055 3.16082,2.85 7.17987,5.32041 6.92187,9.81641 -4.53982,1.87282 -7.71667,-2.53273 -10.13867,-5.81055 -2.124,0.598 -5.53563,9.60619 -8.43945,12.66601 0.211,2.401 0.92023,3.27063 2.11523,5.39063 -2.867,2.167 -3.70175,-0.21625 -6.21875,2.09375 0.61,4.02382 3.41991,3.20444 2.75391,6.32226 l -0.67578,-0.0391 c -2.084,-0.106 -2.59996,-0.30259 -4.37696,0.56641 -0.97,3.22482 0.39467,6.31978 -2.36133,8.05078 -1.15082,0.724 -1.74264,2.92774 -2.18164,4.17773 l -0.71484,0.13086 -0.0898,-5.27734 c -3.396,-2.15 -3.70358,-0.13903 -5.89258,-2.70703 1.85,-2.779 4.79112,-6.33136 5.45312,-9.31836 -0.768,-2.859 -0.10039,-1.97461 -2.27539,-3.59961 -4.07982,-0.412 -6.40947,1.04912 -8.73047,0.0781 -0.073,-5.20982 5.32449,-4.86619 7.02149,-9.66601 -1.252,-6.32482 -4.34922,-2.65835 -6.94922,-6.65235 1.791,-2.52182 2.31948,-2.46325 2.64648,-5.33007 -8.03682,-11.78782 -8.08722,-29.45314 -15.12304,-42.42578 -2.444,7.63382 -5.94879,27.0085 -12.59961,29.73632 -1.33,2.467 -0.70256,9.18746 -0.22656,12.18946 1.46982,9.27982 -4.05184,4.22125 -7.84766,8.03125 0.464,7.01582 5.52372,6.02708 5.38672,9.8789 -3.443,2.462 -4.92186,0.35082 -7.75586,2.88282 -0.651,4.69882 2.95665,5.38175 1.47265,7.84375 -3.01682,1.05582 -5.30315,1.15364 -6.53515,3.35546 l 0.51562,2.1543 c 2.225,1.693 2.72202,2.881 4.16602,5.25 l -0.0254,1.90625 c -2.95,1.792 -5.57524,1.75819 -7.74024,-1.13281 0.514,-1.704 1.50211,-2.26569 2.875,-3.42969 -0.415,-2.291 -0.34578,-2.553 -1.80078,-4.25 -7.76882,-1.65 -2.49861,-3.17119 -3.27343,-5.36719 -3.049,-8.64782 -5.22305,-17.3453 -7.49805,-26.20312 -3.861,10.08882 -5.97305,22.53032 -11.62305,32.36914 -1.272,2.215 -1.55903,1.75166 -4.20703,2.22266 -0.276,1.65182 -0.0515,1.49453 -0.93945,2.76953 -5.102,-3.092 -6.40082,2.55481 -9.75782,1.63281 0.185,-3.661 4.33269,-5.02518 5.80469,-10 -1.187,-1.956 -3.40502,-1.70036 -6.71484,-3.31836 -0.376,-2.814 2.35631,-1.88611 4.44531,-6.28711 -0.611,-3.291 -0.38378,-1.55755 -3.80078,-4.18555 -0.276,-2.28382 1.00564,-3.87495 2.18164,-6.00195 -1.317,-1.561 -3.545,-4.1723 -4.375,-5.95312 -2.234,-4.799 -3.07661,-16.21549 -6.72461,-19.64649 -4.169,2.176 -3.68886,13.36716 -6.38086,17.03516 -2.91,3.96382 -1.85309,3.69481 -1.99609,8.13281 -2.202,0.705 -2.79158,0.74264 -4.51758,2.18164 -0.636,3.26 -0.2192,2.79894 1.01562,6.33594 -0.86682,3.90082 -3.00242,0.32252 -5.35742,5.15234 0.817,3.427 2.0971,3.09933 4.6211,6.48633 -1.331,4.679 -3.00926,0.046 -7.33008,2.54297 -2.093,3.96682 -0.0992,8.87514 2.51562,12.11914 l -0.30078,0.49023 c -12.38082,-2.85182 -4.93146,2.0365 -11.48828,2.8125 -2.062,-1.70482 -1.50917,-0.7982 -2.07617,-3.4082 1.834,-3.661 2.86811,-6.11105 2.03711,-10.37305 -1.717,-1.43382 -1.61907,-0.88011 -4.71289,-0.66211 -0.739,-2.13082 1.55969,-7.01298 2.42969,-10.20898 l -0.52344,-0.9043 c -2.598,0.773 -4.06374,1.37253 -6.80274,1.39453 -1.128,-3.65482 2.62689,-4.68778 1.16407,-9.5996 -3.456,-1.931 -3.57996,0.64576 -7.00196,-0.74024 -0.027,-4.59682 3.6983,-4.02016 3.7793,-9.45898 -1.306,-1.906 -2.41383,-1.62685 -5.17383,-2.33985 l -0.55078,-1.30078 c 1.651,-2.29 2.0893,-2.61811 2.6543,-5.28711 -1.493,-4.91982 -0.71011,0.55258 -3.03711,-2.98242 0.85,-2.88 1.32542,-4.69658 -0.39258,-7.51758 -4.171,-6.85082 -4.14992,-15.18538 -6.54492,-21.9082 l -0.8711,-0.23633 c -1.97482,3.137 -5.701,19.05374 -6.42382,23.22656 -0.884,0.201 -1.69461,0.22143 -2.59961,0.23243 -0.756,3.40282 2.09731,2.72836 1.19531,5.99218 -1.987,0.126 -2.47024,0.13092 -4.36524,0.66992 -0.095,2.564 -0.41698,1.54182 1.54102,3.75782 -1.032,1.27 -1.98822,2.39514 -3.07422,3.61914 0.739,2.181 0.96238,2.49728 0.85938,4.73828 -2.178,2.122 -2.49043,1.34469 -6.40625,1.42969 -1.087,1.35982 -3.24143,2.3345 -4.90625,1.6875 0.928,-2.817 1.48131,-2.96002 0.82031,-5.54102 l -1.89844,-0.72266 c -0.597,-0.85382 -4.03919,-16.41637 -5.36719,-19.98437 -2.68982,7.51882 -3.34464,16.6976 -8.68164,22.23242 -0.613,0.635 -0.20178,10.22244 -1.92578,13.27344 -1.864,1.031 -2.86112,1.28356 -3.70312,3.10156 0.358,2.249 0.34823,3.00475 1.86523,4.71875 -1.609,0.601 -2.97994,1.55022 -4.46094,2.44922 l -0.36523,2.48242 -1.40625,0.86328 c -4.234,-9.18882 -5.14519,-23.86566 -10.74219,-34.52148 l -0.4082,-0.76563 c -2.819,9.15082 -5.37394,18.25398 -7.96094,27.4668 -5.33682,-4.343 -2.35683,-0.2485 -9.84765,-0.5625 l -0.42969,-1.00781 c 2.59882,-4.058 2.79673,-5.2158 3.92773,-9.9668 l -10.51367,1.46289 8.58789,-8.95117 c -1.99,-0.517 -7.04939,-1.52802 -8.27539,-2.83984 1.129,-1.267 2.12827,-2.45271 3.19727,-3.76953 l -0.30469,-1.58204 c -1.446,-0.931 -2.53527,-1.34873 -3.07227,-2.92773 l 1.26172,-1.86914 c -0.099,-0.939 -0.0572,-1.23789 -0.70117,-1.96289 -5.90282,-6.641 -5.86233,-16.10071 -9.36133,-25.89453 -1.445,6.20982 -3.75459,13.84224 -5.68359,20.03906 -0.501,1.61 -2.06435,1.64908 -4.02735,2.33008 -0.056,2.69682 2.5856,2.03203 3.0586,5.33203 -1.167,0.48 -2.15988,0.92217 -3.29688,1.45117 l -0.51172,1.88867 1.4336,2.30664 c 0.012,3.464 -0.48572,-0.16076 -3.26172,3.61524 -0.017,3.24582 -0.41852,2.04617 1.39648,4.57617 l -0.28711,0.82617 c -2.16282,-0.223 -2.85256,-0.50323 -4.72656,0.38477 -1.359,4.78882 2.39039,4.70405 4.02539,8.79687 -2.063,1.762 -2.99428,-0.56497 -6.86328,0.83203 -2.677,4.725 3.07661,5.14599 3.09961,9.33399 -2.804,-0.57 -2.68738,-1.04242 -4.7832,-0.10742 -1.134,3.49582 0.11914,5.36378 1.86914,8.30078 l -0.55469,1.68945 c -1.47021,0.226 -2.4218,0.41806 -3.09375,0.63672 -0.67195,0.21866 -1.06469,0.4645 -1.41992,0.79687 -0.0496,0.0464 -0.0997,0.0946 -0.14844,0.14454 -0.6498,0.66601 -1.28298,1.66175 -3.45312,3.3789 l -0.88672,0.19922 c -1.759,-2.488 0.1222,-5.23313 -0.9668,-9.62695 -2.602,-1.85 -2.74328,-1.31485 -6.36328,-1.71485 -0.099,-1.5 1.74059,-5.21845 2.43359,-6.68945 -1.898,-2.646 -4.21058,-5.87269 -6.9414,-9.67969 0.446,-9.81882 0.96971,-6.77791 -3.28711,-13.92773 0.473,-1.129 0.87768,-2.13211 1.30468,-3.28711 -5.17482,-5.107 -2.7155,-15.01385 -6.8125,-20.01367 l -1.20703,0.20898 c -2.67582,3.56 -3.57973,13.14377 -6.55273,17.43359 -2.291,3.305 0.45041,1.78101 0.69141,4.67383 -1.546,0.892 -2.26302,1.22139 -3.91602,1.90039 l -0.43164,1.5625 2.11133,3.17188 -0.36524,1.10937 -2.94336,0.0312 c -0.907,2.593 0.91294,3.89685 1.46094,7.71485 -3.688,0.82 -3.38386,-0.30841 -5.63086,1.93359 0.224,2.582 0.93072,2.75849 2.63672,5.07031 l -0.20117,0.83203 -5.0586,-0.51171 -1.46875,1.47851 c -0.286,4.166 3.6471,3.72399 2.2461,7.63281 -2.625,-0.92582 -2.90239,-1.48785 -5.40039,-1.00585 l -1.66016,2.69531 0.39844,3.28906 -0.52149,0.64844 c -2.45096,3.09596 -2.10476,2.98886 -2.88476,6.75586 l -0.12891,0.67383 c -0.514,-4.058 -0.76148,-6.43395 -0.77148,-10.50391 l -2.54492,0.65625 -0.64649,-0.8125 c 0.744,-1.869 1.19997,-2.90797 2.16797,-4.66797 -0.41,-5.59882 -3.58072,-2.67163 -4.88672,-6.93945 6.76,-4.838 -4.11336,-13.02761 -4.81836,-15.47461 -2.437,-8.45982 -4.82697,-17.1874 -7.16797,-25.69922 -5.27282,10.60482 -3.19526,10.72579 -6.07226,19.59961 l -2.60352,0.70508 c -2.369,2.32282 0.35781,7.6565 -1.91601,13.61132 -2.634,0.881 -3.26535,0.72216 -4.02735,3.41016 l 2.29493,4.02148 c -1.575,2.696 -2.52729,-0.9449 -5.98829,1.6211 -0.055,2.845 1.72593,6.77333 2.79493,9.61133 l -0.33985,0.12695 c -2.178,-0.684 -2.67258,-0.82973 -4.89258,-0.30273 1.089,3.12795 0.61072,5.8249 -0.23828,9.00585 l -1.06054,0.4375 c -2.184,-2.45495 -0.15411,-1.96276 -1.16211,-6.26171 -3.787,-0.962 -4.99991,1.94629 -9.12891,1.90429 l 2.18555,-4.35351 c 0.475,-2.507 0.65715,-1.59021 -0.33985,-3.70703 -2.24982,-0.743 -3.63661,-0.0772 -5.97461,0.55078 l -0.67187,-0.59571 0.4707,-0.44726 c 1.75,-1.683 2.15511,-2.08786 3.41211,-4.13086 l -0.29101,-1.58984 c -2.098,-1.41 -3.11318,-1.89343 -4.625,-3.98243 -0.817,-5.23282 2.21156,-7.14573 0.85156,-11.17773 -1.965,-0.676 -1.94396,-0.62488 -4.05078,-0.67188 0.463,-2.94982 2.83498,-1.96686 2.70898,-5.05468 -0.475,-0.507 -3.03937,-3.24694 -3.10937,-3.58594 -1.561,-7.48882 -3.76063,-15.27087 -6.51563,-22.42969 -2.507,5.303 -4.00683,14.95088 -5.22265,16.67188 l -2.5625,0.875 c 0.78682,5.03982 3.63035,4.09109 -1.73047,7.49609 0.105,4.248 2.59835,1.02438 -0.10547,6.4082 -2.043,4.066 -4.80478,5.67318 -2.17578,9.625 -1.925,3.826 -2.57174,0.65313 -4.17774,4.70313 l 2.75391,3.60156 -0.4961,0.63867 -3.65429,-0.58007 c -3.837,3.30182 0.70628,7.08792 1.23828,10.54492 -2.511,1.334 -3.51267,1.68286 -4.76367,4.38086 0.265,2.06394 0.52557,2.85622 0.0176,4.82422 -2.33894,1.01894 -4.4042,3.21167 -6.0332,3.63867 1.353,-3.774 3.4005,-5.12832 5.1875,-8.69532 -2.239,-4.69882 -2.13027,-3.80593 -6.87109,-3.66211 -1.821,-4.98382 3.49925,-3.55853 3.90625,-8.69335 -1.455,-1.683 -0.91527,-1.15024 -3.82227,-1.49024 -0.014,-1.684 1.70472,-2.2198 3.63672,-4.26562 -1.13,-2.367 -2.01575,-2.29546 -4.59375,-3.81446 1.308,-3.17782 3.23169,-6.32855 1.55469,-9.48437 l -2.68555,-0.50781 -0.44531,-0.84766 1.9043,-3.06836 c 0.136,-3.081 -3.0288,-2.75839 -3.2168,-3.77539 -0.694,-3.756 -1.72016,-13.37713 -3.91016,-16.20313 l -1.25195,0.41407 c -1.009,1.533 -9.57509,25.58661 -9.74609,27.02343 4.51082,9.52882 -12.90262,8.96053 -3.3418,20.77735 l -0.29883,1.32422 c -1.432,0.369 -2.83381,0.74953 -4.25781,1.14453 -1.721,3.91382 0.9172,3.69519 -0.2168,7.29101 -2.35,-0.577 -4.89225,-3.63986 -6.78125,-5.50586 0.728,-3.08082 1.70658,-4.99887 1.01758,-8.17187 -2.068,-1.773 -4.32227,-1.54253 -7.44727,-2.01953 1.98,-1.664 6.47632,-4.67188 7.07032,-6.79688 -1.938,-3.15982 -6.57983,-2.20047 -5.04883,-4.85547 2.232,-3.83882 0.78261,-5.92189 -1.15039,-9.38671 -4.711,-8.443 -5.03205,-17.90851 -8.24805,-27.23633 -3.212,10.14882 -3.07105,13.3079 -5.29687,23.13672 l -2.18164,0.53906 c -4.069,5.19282 1.18571,10.96817 -6.53711,14.95117 -0.924,2.051 -0.85468,1.03116 -0.26368,3.16016 2.787,1.419 3.3258,1.29089 2.7168,4.33789 -4.15082,-0.2 -3.94811,-0.26739 -6.66211,2.02343 l 0.55469,3.74415 c 1.665,1.87293 2.97466,2.87015 3.22266,5.28515 l -0.98047,0.38672 c -3.989,-3.187 -3.53116,-5.69994 -3.53516,-10.46094 -3.121,-3.19682 -3.09155,1.35606 -8.68555,-1.38476 3.434,-3.71 8.75625,-8.61004 7.28125,-14.13086 -3.71582,-2.026 -4.98923,1.47136 -9.11523,-0.55664 -2.782,-4.82 1.67302,-4.45996 2.41602,-11.05078 -1.782,-4.434 -5.56479,-0.9668 -9.17579,-2.5918 0.577,-2.122 2.7886,-3.52339 4.6836,-5.27539 0.571,-5.658 -2.45069,-4.57085 -4.42969,-8.33985 -0.467,-0.88982 1.17662,-3.71395 0.51562,-7.12695 -1.05282,-0.648 -2.08639,-1.26653 -3.15039,-1.89453 -0.94382,-2.378 -3.96111,-19.76677 -4.78711,-23.68359 -3.79382,8.01982 -5.27703,13.92552 -7.95703,22.27734 -0.648,2.017 -2.24147,2.19003 -4.15429,2.95703 -0.507,3.204 2.1734,4.27166 1.1914,6.59766 -1.466,-0.015 -2.20622,-0.16589 -3.49804,0.53711 -0.447,2.57782 0.79892,4.46548 1.91992,7.14648 -2.891,0.813 -5.55055,1.00616 -6.68555,3.78516 0.741,2.433 3.02747,3.59155 5.23047,5.18555 0.918,2.09282 0.90323,1.07115 0.11523,3.16015 -3.33582,1.041 -3.60697,-0.77731 -7.96679,-0.82031 l -1.01563,1.09766 c -1.063,6.52882 5.66749,7.39212 6.32031,11.82812 l -0.76367,0.58203 c -3.34782,-1.686 -8.48548,-3.68414 -11.64648,-1.11914 -0.916,4.903 4.50392,10.03568 5.41992,14.4375 0.237,1.136 -5.45745,6.00763 -4.81445,9.26563 0.188,0.95582 -0.4845,2.99354 -0.9375,4.06054 l -1.07422,-0.5625 c -3.559,-7.33182 -1.32772,-10.00727 -2.76172,-13.99609 -1.757,0.889 -1.76278,0.92059 -3.67578,1.30859 -1.027,-3.21882 6.00181,-6.84772 3.13281,-13.06054 -3.98282,-1.106 -5.49066,2.72701 -10.89648,1.41601 2.21882,-2.485 3.89351,-4.0423 5.10351,-7.1543 -0.869,-5.22482 -5.63819,-1.59809 -8.79101,-4.37109 3.80982,-2.564 3.3757,-0.39742 6.0957,-3.98242 0.376,-6.38982 -3.99105,-3.22786 -6.04687,-6.75586 1.86982,-1.906 3.85681,-3.17224 3.63281,-5.78906 -6.278,-3.701 -6.04501,-18.97573 -10.54883,-26.18555 l -1.05274,-0.23047 c -1.05382,1.377 -9.7165,25.98803 -10.1875,28.33203 1.107,1.287 1.26596,1.28524 1.62696,2.99024 -1.374,1.858 -2.0296,1.65956 -4.4336,2.60156 -0.066,2.32 0.71721,3.82958 1.53321,6.01758 l -3.79492,1.55273 c -2.728,6.155 3.55631,5.42474 3.32031,10.67774 -3.241,1.83482 -3.60796,-0.369 -7.62696,1.125 l -0.48632,1.63867 c 0.87,4.63682 1.8867,6.44083 5.3457,9.42383 l -0.69727,0.52734 c -2.38382,0.24 -2.69075,0.26128 -4.84375,-0.76172 -1.44582,-2.099 -1.67679,-2.4453 -3.71679,-3.95312 -4.245,-1.135 -5.54299,1.76612 -8.38281,0.82812 -0.169,-4.13082 5.12679,-5.61221 3.34179,-11.33203 -2.886,-1.718 -5.20605,0.57842 -8.29687,-0.76758 -0.391,-4.57782 2.71723,-6.78558 5.86523,-9.5664 l -0.1582,-1.44532 c -2.102,-2.32782 -5.21057,-3.30192 -8.15039,-4.54492 1.995,-1.954 4.71028,-4.22547 4.73828,-6.98047 0.042,-4.02382 -1.35647,-0.77472 -3.73047,-3.88672 4.241,-7.98082 -7.13772,-13.88294 -6.38672,-23.13476 0.213,-2.625 -1.71855,-11.78638 -4.31055,-12.9082 -3.71582,3.24382 -3.56439,12.38503 -5.44921,16.70703 0.108,-0.249 -3.05757,2.1725 -4.27539,3.8125 0.69982,1.29682 1.35834,2.58448 2.02734,3.89648 l -0.38086,0.73438 -3.57227,0.42578 c -0.741,2.46082 0.43194,3.24581 0.71094,5.88281 0.436,4.107 -0.94869,0.24505 -3.30469,3.24805 -0.196,3.13182 0.42168,3.39934 2.76368,6.15234 l -0.50586,1.1543 -3.79688,0.33984 -0.97656,1.64453 c 1.407,2.452 2.49539,3.40683 2.52539,5.92383 -4.699,0.988 -5.90058,-0.0847 -6.39258,4.90625 2.432,2.23 4.48627,4.31708 5.87109,7.33008 -2.46882,1.704 -7.76711,-4.74719 -11.46093,-0.86719 -0.801,7.57082 7.64854,8.73274 5.81054,14.85156 -3.44982,1.196 -3.21197,-0.85179 -6.84179,-0.0918 -0.76,3.60282 3.09459,5.59811 0.93359,8.91211 l -1.20117,-0.14063 c -4.669,-9.35782 -8.46088,-4.01585 -11.8457,-8.01367 2.05882,-2.059 6.00092,-5.29655 6.54492,-7.93555 0.755,-3.66582 2.5885,-9.78508 0.9375,-13.08008 -5.047,-2.57382 -7.81985,1.71233 -13.88867,2.36133 l -0.47266,-0.91992 c 0.82,-2.259 5.73978,-5.73352 7.80078,-7.35352 0.645,-2.74182 -0.5037,-8.25626 -0.9707,-11.32226 -4.574,1.581 -9.32046,3.47608 -13.86328,5.20508 4.28382,-4.224 11.93281,-8.92652 12.63281,-13.60352 l -1.39453,-1.30078 c -3.261,-0.983 -5.29471,0.23736 -8.76953,0.56836 -2.211,0.516 -4.669,1.60628 -6.5,0.36328 2.24291,-1.593 1.77496,-1.09039 4.92187,-1.40039 3.073,-3.147 7.56469,-8.05688 6.42969,-12.5957 -4.548,-3.715 -13.118694,0.81073 -17.908204,2.80273 4.150628,-3.173 16.447094,-14.31261 11.996094,-19.59961 -4.552,-1.079 -7.03238,2.54628 -10.613281,-0.51172 0.640782,-2.77682 3.589191,-4.31709 6.166011,-6.24609 1.891,-5.019 -6.154175,-6.85352 -10.015621,-8.35352 2.760864,-2.11082 4.148485,-2.666 4.333985,-6.125 -1.608782,-2.01482 -2.418471,-2.08698 -4.927735,-3.08398 1.157482,-2.458 2.073616,-3.93341 2.103516,-6.69141 l -0.804687,-1.61523 c -1.287682,-0.326 -2.403506,-0.61653 -3.679688,-1.01953 0.598482,-5.449 1.943948,-6.71683 -2.414062,-10.42383 -0.9139,-5.287 -0.192841,-12.16016 -3.667969,-17.78516 l -1.433594,-0.78711 c -4.104728,3.143 -3.855208,12.18559 -5.888672,17.31641 -1.878764,4.741 -3.974155,1.64538 -4.460937,5.2832 l 1.955078,5.02735 c -2.574064,2.98782 -3.643083,0.51053 -5.248047,3.64453 0.772082,2.245 1.515559,2.81747 3.119141,4.65429 l 0.255859,2.11329 c -2.117764,2.31282 -4.24011,0.31964 -6.660156,3.05664 0.547782,4.62382 7.139376,6.13673 4.945312,9.30273 -3.842228,0.454 -6.788476,0.59319 -10.357422,2.11719 -1.202482,1.682 -0.926012,0.88856 -0.632812,3.35156 1.908764,3.067 5.282807,4.39974 8.376953,6.72656 -0.4996,2.117 -0.495756,1.58507 -2.210938,3.41407 -4.92861,2.08482 -7.36479,-1.54041 -10.949218,-0.0664 -1.416682,6.87982 6.838053,10.74172 7.251953,15.88672 -3.110646,2.471 -4.810683,-1.17359 -10.171875,2.61523 -4.236228,-3.51982 -7.149198,-23.809 -9.652344,-31.04882 -4.288328,8.29982 -4.566616,11.85913 -7.039062,20.75195 -0.1724,0.62 -3.728347,3.42656 -4.611329,4.35156 1.596382,3.387 2.587189,3.27602 1.753907,5.71484 l -0.552735,0.17188 c -1.555764,0.494 -2.161279,0.5642 -3.402343,1.6582 -0.4176,3.917 1.800464,4.20938 2.310546,7.23438 -1.623864,1.247 -2.792567,1.20115 -4.894531,1.53515 -2.316364,4.315 3.460019,6.87054 3.136719,11.01954 -4.116628,-0.981 -6.207473,1.11704 -9.824219,3.12304 -1.356382,4.849 8.110388,6.87896 8.867188,9.87696 -1.595382,2.47482 -0.713751,1.7235 -3.279297,2.9375 -4.052628,-0.243 -6.780032,-2.18313 -9.330078,-1.57813 -1.627782,2 -1.263397,0.99827 -1.216797,3.69727 2.482546,5.05882 7.102424,7.00067 8.441406,11.26367 l -0.707031,1.64258 -1.246094,0.43359 c -6.330892,-4.851 -4.034499,-2.51702 -12.5546875,-4.33984 0.3036046,4.26082 0.6812931,8.529 0.6269531,12.79882 l 0.5878906,0.67774 c 2.3882938,2.738 6.9929588,5.95728 7.6191408,7.61328 -1.816464,1.894 -2.080824,2.21217 -4.492188,3.20117 -1.556364,-0.816 -1.968779,-1.95891 -2.8632809,-3.50391 C 4.0337399,177.58774 6.4225748,181.07224 0,181.49024 v 103.45703 c 33.220206,-6.515 67.365622,-10.76302 101.07812,-15.79102 166.36112,-24.81346 337.28444,-29.98222 505.10938,-20.6914 92.19238,5.10382 184.85731,22.59796 275.80469,37.17578 46.7351,8.34682 95.91071,16.57883 142.00781,27.47265 V 170.48633 c -0.84,-1.422 -1.7392,-2.6347 -2.6992,-3.9707 l -2.1504,2.01953 c -4.28,-0.842 -9.4513,-1.0418 -13.8613,-1.3418 3.25,-1.919 8.0204,-4.19411 7.1504,-8.53711 -2.23,-1.63 -6.2404,-2.0709 -9.1504,-2.6289 l -0.4297,-0.89844 c 2.53,-3.024 3.5914,-3.22006 7.4414,-4.28906 -0.01,-2.356 -0.021,-3.73218 -1.7207,-5.20118 -2.29,0.046 -2.8399,0.19807 -4.9199,-0.58593 -2.54,-4.377 2.6907,-3.07807 2.8007,-7.53907 -7.5051,-3.47482 -1.711,-3.18164 -4.291,-8.10546 l -3.26951,-0.28516 -0.19922,-0.75391 c 1.48903,-2.20982 1.82823,-2.57864 2.65823,-5.05664 -1.65436,-2.87482 -2.47517,0.19113 -4.79299,-2.29687 1.85182,-6.965 -0.33416,-9.04004 -3.53516,-15.88086 -2.09,6.46882 -4.25163,12.36083 -6.93945,18.59765 0,0 0.91314,3.31733 0.99414,3.61133 -2.319,2.598 -5.68574,5.02016 -8.67774,2.16016 0.026,-3.11 0.5076,-2.76224 2.60742,-5.78906 0.37,-3.571 0.92821,-6.38132 -0.0918,-9.82032 -2.946,-1.99382 -1.59593,2.914 -8.09375,2.5 l -0.59766,-1.16015 c 1.367,-2.702 3.03124,-3.54546 5.49024,-5.23828 1.096,-3.901 3.95145,-10.02618 -0.0606,-12.32618 -3.428,-0.192 -5.94985,0.72922 -9.13867,1.94922 l -0.42774,0.16797 -0.9082,-0.64648 c 2.386,-2.198 4.64294,-4.39016 6.96094,-6.66016 1.099,-3.477 0.17001,-6.30822 -3.20899,-7.82422 -3.68082,1.062 -7.90148,2.83991 -11.52148,4.25391 4.25082,-4.087 12.15723,-9.92838 10.36523,-16.23438 -4.35882,-3.10782 -7.05211,1.31746 -11.53711,0.68946 -0.368,-6.3 11.24933,-5.9431 7.48633,-12.54492 -2.531,-0.69 -4.77583,-1.02694 -7.34765,-1.46094 l -0.32227,-0.81836 c 1.321,-1.404 2.1628,-2.39783 3.3418,-3.92383 -0.041,-4.326 -3.36091,-5.04225 -4.50391,-8.90625 -0.22,-0.746 2.46277,-3.3858 1.63477,-6.3418 l -3.94727,-0.9707 c 0.489,0.739 -3.87656,-18.37697 -4.85156,-21.16797 -3.02,5.084 -5.91986,18.17291 -6.13086,18.37891 -8.22582,8.03582 -1.22155,5.53722 -3.06055,10.99804 -1.695,0.225 -2.19212,0.30754 -3.82812,0.76954 -1.144,3.96682 1.73204,4.03476 0.87304,7.25976 l -2.83398,1.20703 c -1.105,2.892 0.50191,5.14799 2.00391,7.50781 l 0.50781,0.78907 c -1.92,2.276 -4.89872,-0.23789 -8.51172,1.96093 l -0.32617,1.7793 c 1.006,3.503 3.72075,4.90546 6.71875,7.06446 0.18,2.10482 0.36723,1.08639 -0.88477,3.07421 -3.08,1.037 -5.25894,-1.02882 -9.71094,-1.17382 l -0.98046,1.15625 c -0.037,4.86382 6.23839,11.525 9.40039,15.54882 -2.82,-0.729 -5.00618,-1.43814 -7.95118,-1.36914 -2.44782,1.169 -1.69709,0.39633 -2.87109,2.73633 0.106,3.368 1.81439,5.47403 4.02539,7.95703 l 0.41992,0.46289 -0.99218,0.34571 -1.73047,2.28125 c -8.13386,-1.134 -8.26808,6.02334 -4.08008,10.77734 2.386,2.709 4.97365,4.59969 7.10351,7.67969 -2.79286,3.59586 -5.64237,-1.24521 -7.10937,-1.03321 -2.711,0.391 -6.01442,5.15454 -10.98828,1.63868 0.364,-3.122 4.31859,-4.31374 6.30859,-8.92774 -1.48,-3.15986 -5.67187,-1.06965 -8.80273,-5.97851 2.70886,-2.01 7.18065,-4.32286 6.72265,-7.88672 -2.23986,-1.428 -4.12231,-1.26513 -6.82031,-1.45313 l -0.53906,-0.62695 c 1.093,-1.65 1.78633,-2.84712 2.73633,-4.58398 -1.862,-3.271 -0.82652,-2.12452 -4.22852,-4.22852 -1.537,-5.144 7.10888,-4.41302 -1.83594,-9.04102 -0.837,-0.433 -3.24339,-16.02241 -5.90039,-21.36523 -3.70382,7.24282 -4.41503,17.69677 -9.70703,24.55859 v 3.91602 c -0.492,2.574 -1.87258,2.68311 -1.89258,6.00195 1.077,2.38 1.26982,1.77428 0.63282,3.61328 l -2.45508,0.14258 c -1.404,2.009 -1.01616,1.11969 -1.28516,3.55469 0.831,1.997 1.64074,3.95566 2.42774,5.97266 l -0.41407,0.73437 -1.32226,-0.90625 -5.63867,3.41211 -0.21289,1.32227 c 1.95984,2.53484 6.98931,6.75665 7.19531,8.22265 l -3.19922,-0.0937 c -2.067,-0.075 -4.75311,0.82914 -6.37695,1.99414 -3.116,0.825 -10.72574,3.7748 -12.67774,3.4668 0.198,-4.456 5.81822,-2.13293 9.19922,-5.92578 2.697,-3.775 4.99122,-10.1233 2.82422,-14.86914 -1.377,-3.017 -6.31319,-1.32511 -9.70703,-2.16211 0.067,-1.347 6.25014,-7.56738 8.11914,-10.35938 l 0.53711,-0.81054 -0.10352,-9.78711 c -3.76684,-0.149 -7.63425,-0.42835 -11.40625,-0.65235 2.106,-2.94184 4.11735,-5.84995 6.15235,-8.84179 1.76282,-2.782 2.00171,-2.90516 0.76171,-5.78516 -4.04782,-2.351 -8.22152,-0.76819 -15.40234,-4.99219 2.452,-2.356 7.72313,-5.9815 8.37695,-8.8125 -2.42082,-2.664 -4.55722,-0.89555 -8.24804,-3.85937 -0.396,-2.306 2.95187,-5.22199 5.04687,-8.83399 -11.28382,-9.71282 -4.57656,-5.6454 -3.60156,-16.32422 l -0.75781,-0.375 c -2.199,0.51 -2.40085,0.63185 -4.58985,0.33985 -1.135,-2.571 -0.12375,-3.97616 0.0312,-6.91016 0.231,-4.40682 -3.15197,-2.41952 -3.54297,-5.40234 -0.52082,-3.974 0.6648,-9.17638 -2.1582,-12.48438 z M 51.542969,116.87305 c 4.136796,1.418 5.210448,1.49214 6.435547,5.74414 -4.193396,-1.514 -5.318548,-1.64514 -6.435547,-5.74414 z m 866.638671,18.51367 c 0.38575,-0.006 0.77827,0.003 1.07227,0 2.31887,1.762 8.34311,5.64788 7.91211,8.54688 -2.354,0.38 -3.41341,-0.52283 -5.56641,-1.67383 -2.295,-1.88 -8.69333,-0.11305 -10.6582,-2.37305 3.06587,-1.439 3.85089,-1.99014 6.21289,-4.41601 0.263,-0.059 0.64159,-0.0782 1.02734,-0.084 z m -862.566406,1.1582 c 2.13928,2.284 4.277555,1.92457 6.990235,4.35157 l -1.0625,0.83984 c -2.62958,-0.342 -6.693658,-0.79642 -8.773438,-2.23242 l -0.01563,-1.2168 z m 547.542966,27.9668 c 1.539,0.968 4.27741,4.66733 3.81641,6.57031 l -1.25391,-0.54297 c -2.17998,-1.42398 -3.50981,-2.27243 -5.50781,-4.02343 l 0.20899,-1.26953 z m -195.67187,11.3086 c -1.10946,0.32193 -2.25628,0.51837 -4.13672,0.70507 1.87852,-0.18651 3.02832,-0.38366 4.13672,-0.70507 z"
     sodipodi:nodetypes="ccccccccccccccccccccccccccccccccccccccccccccccccccccccccccccccccsccccccccccccccccccccccccccccccccccccccccccccccccccccccccccccccccccccccccccccccccccccccssscccccccccccccccccccccccccccccccccccccccccccccccccccccccccccccccccccccccccccccccccccccccccccccccccccccccccccccccccccccccccccccccccccccccccccccccccccccccccccccccccccccccccscccccccccccccccccccccccccccccccccccccccccccccccccccccccccccccccsccccccccccccccccccccccccscccccccccccccccccccccccccccccccccccccccccccccccccccccccccccccccccccccccccccscccccccccccccccccccccccccccccccccsccccscccccsccccccccccccccc"
     style="fill:url(#linearGradient30);fill-opacity:1" />
  <defs
     id="defs4">
    <linearGradient
       id="linearGradient29"
       inkscape:collect="always">
      <stop
         style="stop-color:#1d3b4b;stop-opacity:1;"
         offset="0"
         id="stop29" />
      <stop
         style="stop-color:#46686f;stop-opacity:1;"
         offset="1"
         id="stop30" />
    </linearGradient>
    <linearGradient
       id="gradient_0"
       gradientUnits="userSpaceOnUse"
       x1="477.30084"
       y1="293.16971"
       x2="450.418"
       y2="654.34619">
      <stop
         offset="0"
         stop-color="#1D3B4B"
         id="stop3" />
      <stop
         offset="1"
         stop-color="#46686F"
         id="stop4" />
    </linearGradient>
    <linearGradient
       inkscape:collect="always"
       xlink:href="#linearGradient29"
       id="linearGradient30"
       x1="517.00726"
       y1="2.9239938"
       x2="516.3443"
       y2="312.86118"
       gradientUnits="userSpaceOnUse" />
  </defs>
</svg>
