<?xml version="1.0" encoding="utf-8"?>
<svg xmlns="http://www.w3.org/2000/svg" xmlns:xlink="http://www.w3.org/1999/xlink" width="1024"
    height="1536" viewBox="0 0 1024 1536">
    <path id="one" fill="#FFF6EB"
        d="M0 0L1024 0L1024 322.893L1024 593.408L1024 1536L0 1536L0 588.631L0 330.802L0 0Z" />
    <path id="two" fill="#21404F"
        d="M0 0L1024 0L1024 322.893L1024 593.408C950.888 592.039 885.089 558.674 818.62 532.453C786.753 519.882 754.257 509.09 721.008 500.798C583.479 466.501 393.084 474.37 257.71 514.667C211.757 528.346 167.176 546.049 121.443 560.301C81.9382 572.611 40.7585 581.632 0 588.631L0 330.802L0 0Z" />
    <path id="three" fill="#FFF6EB"
        d="M181.636 331.649C192.643 330.918 203.085 337.365 209.481 345.84C217.06 355.884 225.728 369.014 230.423 380.649C238.953 401.787 225.711 418.325 204.807 422.878C183.447 424.404 173.388 404.385 163.599 389.276C147.81 364.904 148.049 339.09 181.636 331.649Z" />
    <path id="four" fill="#21404F"
        d="M181.69 349.598C191.235 351.291 198.162 364.057 203.032 371.966C209.298 382.143 221.708 398.423 204.275 404.599C194.798 402.719 188.409 391.064 183.543 383.179C177.172 372.856 163.431 355.84 181.69 349.598Z" />
    <path id="five" fill="#FFF6EB"
        d="M503.967 88.4714L504.582 89.3061C500.719 102.449 492.094 110.513 486.486 126.538C488.572 130.023 489.749 132.55 491.442 136.262C488.61 140.266 485.731 145.64 483.255 149.976C484.156 155.447 488.63 163.357 488.389 167.986C487.941 176.632 469.857 179.185 465.212 183.64C459.604 189.019 456.355 193.388 450.182 198.714C452.982 184.489 460.994 170.44 463.397 158.239C459.228 155.059 451.914 170.375 444.384 170.578C442.267 168.438 442.605 167.332 441.827 163.988C430.492 173.354 389.946 209.778 378.515 214.864L377.137 214.14C381.47 205.158 385.681 196.205 390.129 187.27C375.338 193.887 361.634 201.001 347.58 208.952C345.895 209.905 343.189 210.664 341.263 210.66L340.898 209.794C342.236 207.6 386.648 171.046 391.093 170.05C406.804 166.529 419.894 161.443 434.247 146.362C434.931 145.643 448.324 140.37 451.208 139.043C465.457 103.32 476.485 108.134 503.967 88.4714Z" />
    <path id="six" fill="#FFF6EB"
        d="M581.777 244.171L602.756 246.608C607.743 265.825 612.922 285.356 617.539 304.64C620.667 286.754 623.47 268.493 626.4 250.55C633.256 251.764 640.149 252.811 647.028 253.891C644.922 262.835 643.044 275.801 641.417 285.064L630.952 344.748C628.532 344.705 613.6 341.943 610.182 341.383C605.339 325.588 599.263 300.128 595.49 283.79L587.426 337.586C580.75 336.664 573.722 336.323 567.19 334.794C571.08 305.646 577.229 273.574 581.777 244.171Z" />
    <path id="seven" fill="#FFF6EB"
        d="M765.27 292.803C776.895 297.739 791.53 303.674 801.728 311.025C818.356 323.01 810.572 347.545 796.276 357.857C791.17 361.54 789.309 361.652 783.073 362.287C782.436 375.339 781.88 388.117 780.043 401.08C773.86 397.798 767.855 394.489 761.749 391.066L762.114 384.187C762.458 377.548 764.25 360.622 760.587 355.989L759.085 355.925C754.804 359.241 747.417 377.094 744.74 382.898L725.894 374.503C739.268 347.696 752.286 319.832 765.27 292.803Z" />
    <path id="eight" fill="#21404F"
        d="M777.294 316.187C781.65 318.14 785.878 319.544 788.527 323.815C793.673 332.109 787.352 340.741 780.069 345.063C774.81 344.016 770.859 341.704 766.125 339.282L777.294 316.187Z" />
    <path id="nine" fill="#FFF6EB"
        d="M495.742 241.219C508.932 241.222 527.022 240.385 539.357 244.03C561.151 250.469 561.314 286.839 541.169 296.362C546.399 308.062 551.55 321.852 556.331 333.891C549.975 333.852 543.313 333.354 536.947 332.992C536.562 332.984 535.498 332.614 535.071 332.486C530.851 325.292 524.49 301.612 517.937 299.154C514.854 302.567 515.426 325.846 515.337 332.245L495.283 332.027L495.742 241.219Z" />
    <path id="ten" fill="#21404F"
        d="M516.407 257.989C532.426 258.051 540.298 264.891 532.166 280.641C527.313 283.875 521.913 282.912 516.012 282.728L516.407 257.989Z" />
    <path id="eleven" fill="#FFF6EB"
        d="M250.538 294.839L251.409 294.762C275.486 292.773 290.771 325.804 275.882 342.63C285.837 350.667 297.081 360.034 306.311 368.758L286.202 377.351C281.005 372.374 263.617 354.118 257.315 354.44L256.358 355.53C256.035 358.225 257.105 359.556 258.396 362.011L269.418 384.616C263.306 387.264 256.881 390.485 250.837 393.393L212.399 313.154C224.135 306.734 237.828 298.442 250.538 294.839Z" />
    <path id="twelve" fill="#21404F"
        d="M247.163 313.544C257.183 312.275 264.113 322.366 260.729 331.708C259.171 336.01 254.823 337.33 250.874 339.126L249.08 339.697C246.001 338.271 239.029 322.482 236.95 318.318C239.905 316.709 244.017 314.974 247.163 313.544Z" />
    <path id="thirteen" fill="#FFF6EB"
        d="M124.818 368.788C128.695 370.556 177.979 430.319 183.775 437.214C178.633 441.078 173.805 445.346 168.925 449.54C150.198 441.032 131.265 431.824 112.641 423.014L150.39 465.306L136.605 478.025C134.786 477.568 82.4452 417.109 76.3593 410.415C81.7564 405.485 87.786 400.454 93.3454 395.643L146.12 420.654C134.541 407.582 122.221 393.149 110.226 380.612C115.039 376.89 120.064 372.649 124.818 368.788Z" />
    <path fill="#FFF6EB"
        d="M402.506 246.973L403.447 246.851C403.786 247.084 404.125 247.316 404.463 247.549C409.744 273.244 416.196 312.74 421.236 337.198C415.32 337.837 407.475 339.339 401.458 340.317C399.403 328.615 396.691 317.029 394.847 305.312C388.288 306.799 381.902 308.117 375.304 309.42C377.922 320.464 380.194 333.352 382.329 344.563L362.892 349.269L343.688 259.214L364.103 254.569L371.151 290.827C378.069 289.233 384.205 287.994 391.198 286.771L383.675 250.402L402.506 246.973Z" />
    <path fill="#FFF6EB"
        d="M894.219 370.253C897.767 372.316 906.943 380.098 910.364 382.909L887.238 409.23C900.698 405.6 913.738 401.902 927.103 397.933C931.837 401.313 938.907 407.652 943.542 411.568C929.302 415.803 915.551 419.71 901.194 423.525C896.268 440.927 891.776 461.242 887.636 478.94L886.479 479.514C882.272 476.706 873.335 468.453 869.158 464.78C871.031 458.643 879.507 434.477 877.497 430.196L875.999 429.808C869.006 432.492 859.162 445.273 853.942 451.292L837.874 438.768C856.253 417.852 876.348 392.097 894.219 370.253Z" />
    <path fill="#FFF6EB"
        d="M470.497 241.076C473.909 240.951 473.208 240.429 475.162 242.112C476.761 246.706 476.535 252.987 476.857 258.169L449.118 259.501L450.184 279.126C458.357 278.821 466.567 278.365 474.739 277.955C474.842 283.481 475.359 289.712 475.701 295.289L451.435 296.539L453.202 316.572C462.005 315.615 472.55 315.235 481.502 314.688L481.93 323.436L482.387 332.133C466.342 332.967 450.406 334.502 434.373 335.448C430.848 307.579 428.8 272.289 426.662 243.92C440.963 243.234 456.092 241.948 470.497 241.076Z" />
    <path fill="#FFF6EB"
        d="M835.859 330.39C849.79 339.015 863.224 347.852 876.917 356.86C873.763 361.066 870.365 366.195 867.325 370.572L844.731 355.774L834.772 371.403L854.823 384.317L844.716 398.713C838.622 394.541 831.718 390.287 825.465 386.256L818.704 397.433L815.075 403.174L837.593 418.422C834.82 422.873 831.973 428.485 829.447 433.163C816.022 423.831 802.563 414.843 788.952 405.782L835.859 330.39Z" />
    <path fill="#FFF6EB"
        d="M696.71 265.996C715.541 272.531 733.079 278.706 751.678 285.947L745.649 301.765L728.31 294.98C722.375 313.086 716.452 330.591 710.109 348.569L703.655 366.621C697.267 363.923 690.717 361.68 684.184 359.353L708.775 288.022C702.91 286.141 697.156 284.354 691.403 282.137L696.71 265.996Z" />
    <path fill="#FFF6EB"
        d="M329.154 264.928C330.106 266.005 333.68 278.527 334.374 280.816L318.011 285.964C326.049 309.164 333.723 333.027 341.244 356.402C334.939 358.129 328.582 360.418 322.381 362.533C320.532 357.758 318.665 351.967 316.961 347.06C310.73 328.918 304.735 310.152 298.697 291.907L282.185 297.65L276.97 281.275C294.046 275.474 311.878 270.075 329.154 264.928Z" />
    <path fill="#FFF6EB"
        d="M262.193 190.968C266.655 191.639 268.025 196.887 266.218 200.45C262.491 207.801 256.16 213.807 251.516 220.667C252.416 230.106 251.638 229.051 244.336 235.016C239.746 238.765 235.314 242.709 230.203 245.793L229.318 245.46C225.594 240.363 232.452 232.954 228.772 228.92C225.733 229.015 225.791 229.549 222.993 231.22C219.497 233.545 210.391 240.547 206.223 239.549C206.934 233.373 254.036 198.346 262.193 190.968Z" />
    <path fill="#FFF6EB"
        d="M904.418 260.03C906.881 260.885 909.661 263.368 910.611 265.819C910.067 271.645 905.939 271.611 901.168 272.059C899.034 271.775 898.637 272.139 897.578 270.919C900.42 269.426 903.817 268.088 905.348 265.556C904.529 263.235 904.246 262.477 904.418 260.03Z" />
    <path fill="#FFF6EB"
        d="M972.029 250.026C973.204 250.224 973.134 250.28 974.075 251.041C973.064 254.515 969.627 256.859 966.775 258.977L964.698 258.596L964.56 257.273C966.245 254.446 969.423 252.171 972.029 250.026Z" />
    <path fill="#545755"
        d="M304.054 1046.02C267.704 994.992 205.641 977.874 159.952 938.027C148.599 928.126 137.336 915.005 136.418 899.289C135.747 887.813 140.984 877.606 148.551 869.302C192.114 821.496 326.923 812.791 351.848 783.515C353.992 780.996 355.51 777.976 355.062 774.582C354.259 768.504 347.939 763.973 343.085 761.057C331.445 754.066 317.926 749.813 305.224 745.208C286.944 738.581 268.513 732.199 250.731 724.303C241.956 720.407 232.548 716.168 225.121 709.982C220.991 706.543 217.121 701.965 216.747 696.368C216.473 692.266 218.222 688.469 220.821 685.397C237.669 665.485 304.439 657.155 330.356 654.706L337.909 663.856C321.111 666.776 289.031 672.529 275.197 681.117C272.011 683.095 268.247 686.115 267.532 689.992C263.142 713.781 421.299 731.935 445.323 767.252C449.085 772.781 450.323 779.383 448.933 785.924C440.312 826.508 341.227 847.816 309.434 868.868C304.164 872.358 298.305 877.308 297.222 883.911C296.366 889.133 299.005 893.788 302.482 897.43C317.375 913.029 350.97 921.72 371.367 928.317C436.501 949.385 502.501 967.972 560.283 1005.99C577.408 1017.26 593.597 1029.66 605.968 1046.17L304.054 1046.02Z" />
    <path fill="#C65E40"
        d="M581.137 664.682C598.919 663.877 620.662 664.486 638.765 664.488L747.315 664.484L853.072 664.449C871.982 664.446 891.187 663.772 910.059 664.691C912.858 664.827 915.473 665.376 918.057 666.482C923.505 668.812 928.083 673.154 930.277 678.703C933.633 687.191 933.5 759.388 929.722 767.385C926.431 774.35 919.981 777.819 913.025 780.271C904.299 781.305 878.637 780.674 868.932 780.662L782.205 780.638L650.644 780.636C628.419 780.64 605.927 780.919 583.889 780.546C571.672 780.426 561.633 769.901 561.247 757.729C560.49 733.821 560.839 709.094 561.277 685.142C561.474 674.329 571.42 667.115 581.137 664.682Z" />
    <path fill="#FFF6EB"
        d="M880.746 729.586C881.598 724.633 883.257 707.851 886.815 705.665C889.513 705.601 890.568 705.087 892.455 706.397C893.162 709.249 891.732 714.093 891.052 717.206C889.555 723.893 887.659 739.43 882.721 743.309C876.415 743.676 873.079 724.237 871.723 718.875C870.363 725.446 868.627 740.62 862.351 743.259L860.423 742.261C856.567 737.225 852.13 713.488 850.197 705.616C853.198 705.509 855.614 705.223 858.468 706.243C860.107 710.488 862.483 724.39 863.478 729.56C864.172 724.993 867.074 704.488 872.214 704.572C876.726 707.488 879.341 723.562 880.746 729.586Z" />
    <path fill="#FFF6EB"
        d="M642.915 705.082C660.434 704.373 663.331 718.523 659.556 733.192C658.248 738.274 655.15 740.647 650.558 742.88C628.446 745.557 626.066 712.994 642.915 705.082Z" />
    <path fill="#C65E40"
        d="M644.916 711.445C656.448 712.495 654.513 731.087 648.284 736.528C637.143 735.476 638.788 717.182 644.916 711.445Z" />
    <path fill="#FFF6EB"
        d="M832.063 705.085C849.617 704.344 852.136 718.998 848.483 733.18C847.179 738.243 844.188 740.591 839.663 742.82C816.998 745.635 815.168 712.77 832.063 705.085Z" />
    <path fill="#C65E40"
        d="M833.352 711.65C845.103 711.827 843.025 730.568 837.883 736.314C825.814 736.327 827.652 717.778 833.352 711.65Z" />
    <path fill="#FFF6EB"
        d="M603.104 705.585C608.947 705.468 618.706 704.743 623.347 708.683C631.018 715.196 630.149 730.483 624.815 738.097C617.77 743.946 612.057 742.758 603.088 742.667L603.104 705.585Z" />
    <path fill="#C65E40"
        d="M610.804 711.661C623.588 712.9 622.852 725.193 618.883 734.266C616.344 735.582 614.884 736.224 612.197 735.178C609.308 730.795 610.716 717.732 610.804 711.661Z" />
    <path fill="#FFF6EB"
        d="M665.205 705.534C667.454 705.485 668.815 705.541 671.057 705.743C676.376 708.751 680.612 721.417 684.182 727.659C684.375 721.032 681.692 709.197 687.334 705.645C690.176 705.558 689.697 705.102 691.203 706.515C692.413 713.726 691.76 733.821 691.711 742.377C689.054 742.705 688.321 742.868 685.708 742.404C680.745 739.209 675.961 727.317 672.945 721.415C672.997 726.171 673.844 739.501 671.481 742.569C668.959 742.82 668.548 742.878 666.108 742.249C664.166 739.456 665.145 710.676 665.205 705.534Z" />
    <path fill="#FFF6EB"
        d="M808.694 728.396C808.834 723.342 806.935 708.008 811.103 705.552C813.537 705.663 814.248 705.242 815.743 706.592C816.889 713.613 816.267 734.384 816.215 742.635C813.672 742.734 812.732 742.801 810.241 742.362C804.969 738.775 800.299 726.538 797.407 720.419C797.468 725.273 798.164 738.549 796.233 742.412C794.067 742.928 791.591 743.031 789.846 741.596C788.915 734.582 789.458 714.205 789.402 705.588C790.983 705.57 796.761 705.238 797.507 706.423C801.644 712.991 805.384 721.471 808.694 728.396Z" />
    <path fill="#FFF6EB"
        d="M706.795 705.582C709.725 705.515 712.029 705.232 714.793 706.157C716.474 710.071 724.756 739.109 724.544 742.06C722.506 742.766 720.854 742.516 718.683 742.437C716.255 740.698 716.355 739.049 715.376 735.764C711.439 735.661 708.476 735.148 705.345 737.257C704.841 739.494 704.81 739.998 703.739 741.981C701.683 743.043 698.844 743.537 696.795 742.234C696.28 739.531 705.434 710.226 706.795 705.582Z" />
    <path fill="#C65E40"
        d="M710.517 716.669C712.123 719.32 713.416 725.527 713.118 728.702L711.143 730.3C709.801 729.701 709.563 729.514 708.35 728.666C707.714 725.202 709.541 720.275 710.517 716.669Z" />
    <path fill="#FFF6EB"
        d="M751.74 705.544C756.547 705.601 769.424 705.058 772.98 705.778C773.985 707.076 773.74 708.336 773.743 710.046C770.896 714.768 767.395 710.16 761.011 712.024C759.717 713.653 759.661 716.037 760.057 717.821C761.299 723.412 768.71 718.23 772.498 720.932C772.936 723.564 773.221 723.999 772.065 726.222C767.921 728.619 762.552 724.425 759.917 728.27C759.896 730.884 759.672 732.848 760.522 735.309C766.099 737.571 770.132 732.988 774.275 737.801C774.297 745.258 757.871 742.732 751.927 742.653L751.74 705.544Z" />
    <path fill="#FFF6EB"
        d="M724.308 705.534C730.968 705.637 743.423 703.884 748.07 707.324C749 709.643 748.968 708.689 748.498 711.032C746.12 712.47 743.359 712.051 740.438 712.015L740.462 733.875C740.605 736.72 741.141 739.607 739.824 741.952C737.746 742.987 734.595 743.101 732.839 741.516C731.789 736.035 732.434 718.373 732.482 712.145C729.831 712.121 728.19 712.238 725.593 711.573C723.991 709.248 724.468 708.662 724.308 705.534Z" />
    <path fill="#C65E40"
        d="M330.356 654.706C316.14 634.733 294.078 603.635 299.808 578.695C314.524 514.638 403.05 534.737 392.313 597.917C389.061 617.053 360.702 661.05 345.552 671.678C342.527 668.893 340.644 666.936 337.909 663.856L330.356 654.706Z" />
    <path fill="#FFF6EB"
        d="M340.965 569.672C351.226 566.652 362.002 572.479 365.09 582.718C368.178 592.958 362.42 603.769 352.199 606.923C341.883 610.107 330.946 604.285 327.829 593.95C324.712 583.616 330.607 572.72 340.965 569.672Z" />
    <path fill="#21404F"
        d="M719.753 1124.43C743.377 1123.53 745.635 1157.14 724.356 1162.43C700.205 1163.02 698.523 1129.85 719.753 1124.43Z" />
    <path fill="#FFF6EB"
        d="M719.332 1130.28C734.461 1130.31 733.624 1149.07 724.875 1156.61C715.273 1156.87 712.847 1151.48 713.162 1142.15C713.338 1136.93 715.202 1133.54 719.332 1130.28Z" />
    <path fill="#21404F"
        d="M387.627 1180.57C393.873 1180.46 410.473 1178.69 413.906 1185.91C417.579 1193.62 415.304 1199.02 408.016 1203.12C410.376 1206.82 415.315 1212.15 414.833 1216.05C412.854 1217.79 411.96 1217.2 408.704 1217.31C406.339 1213.37 401.127 1203.15 396.421 1202.66C394.946 1205.8 397.072 1214.42 393.585 1217.12C391.094 1217.28 390.565 1217.48 388.347 1216.56C387.087 1214.72 387.636 1185.47 387.627 1180.57Z" />
    <path fill="#FFF6EB"
        d="M395.105 1187.15C400.088 1187.1 404.266 1185.87 407.609 1189.77C408.367 1192.57 407.849 1193.71 407.108 1196.44C402.789 1197.6 399.548 1197.54 395.13 1197.67L395.105 1187.15Z" />
    <path fill="#21404F"
        d="M422.277 1124.98C435.85 1124.58 426.236 1129.45 429.474 1136.16C432.502 1137.33 435.394 1133.11 440.402 1135.42C449.11 1139.43 447.812 1151.89 444.406 1159.01C438.1 1164.76 436.039 1161.96 429.266 1160.19C427.948 1160.47 427.685 1160.78 426.623 1161.57L426.27 1161.84C423.907 1161.73 424.127 1162.13 422.665 1160.94C421.619 1155.7 422.234 1131.77 422.277 1124.98Z" />
    <path fill="#FFF6EB"
        d="M432.78 1140.35C442.091 1141.36 441.595 1151.89 435.708 1157.36C427.052 1155.78 427.697 1145.84 432.78 1140.35Z" />
    <path fill="#21404F"
        d="M397.46 1125.05L406.325 1125.02C408.221 1130.53 420.995 1160.4 414.428 1162.47C407.12 1160.36 411.39 1157.25 407.133 1152.95L395.561 1153.07C394.726 1156.09 394.205 1159.21 392.279 1161.56C389.325 1161.86 388.857 1161.89 385.964 1161.28C386.644 1156.63 395.446 1131.15 397.46 1125.05Z" />
    <path fill="#FFF6EB"
        d="M401.448 1132.97C403.302 1135.86 405.691 1142.75 405.41 1146.37L403.583 1147.51C400.931 1147.09 400.203 1147.46 398.587 1145.82C398.045 1142.2 400.302 1137.03 401.448 1132.97Z" />
    <path fill="#21404F"
        d="M459.767 1134.93C480.286 1134.31 481.129 1157.46 465.694 1162.46C446.633 1163.01 444.381 1140.74 459.767 1134.93Z" />
    <path fill="#FFF6EB"
        d="M460.472 1140.53C463.224 1140.46 463.501 1140.32 465.839 1141.56C469.956 1146.2 469.076 1152.88 465.155 1157.27C455.417 1156.64 456.205 1146.69 460.472 1140.53Z" />
    <path fill="#21404F"
        d="M818.105 1124.41C823.738 1124.61 833.869 1128.1 833.549 1134.91C832.092 1137.29 832.93 1136.6 830.503 1137.78C825.078 1136.64 823.947 1129.85 817.18 1130.87C801.986 1138.73 818.017 1170.61 826.926 1149.09L831.932 1150.11C833.565 1152.01 833.203 1151.03 833.17 1153.64C825.332 1168.17 807.905 1164.24 804.166 1149.65C801.08 1137.61 805.401 1127.18 818.105 1124.41Z" />
    <path fill="#21404F"
        d="M838.901 1125C841.479 1124.88 843.167 1124.47 845.254 1125.83C846.957 1128.58 846.17 1133.86 846.116 1137.56C866.39 1125.18 863.625 1158.82 860.478 1161.57C857.107 1162.04 858.282 1162.29 855.513 1161.15C853.626 1158.23 854.403 1152.88 854.519 1149.13C854.619 1145.75 855.205 1143.26 852.539 1140.89C850.107 1140.58 850.023 1140.55 847.933 1141.68C843.355 1147.45 848.651 1157.82 845.025 1161.6C842.402 1161.88 842.156 1161.96 839.615 1161.45C838.279 1159.34 838.894 1129.98 838.901 1125Z" />
    <path fill="#21404F"
        d="M560.438 1124.98C563.111 1124.87 565.053 1124.46 567.263 1125.79C569.553 1130.25 564.774 1131.72 568.489 1136.98C586.913 1126.43 585.709 1156.22 579.743 1162.94L577.516 1162.47C575.096 1158.71 575.647 1153.77 575.734 1149.34C575.695 1145.22 576.713 1142.28 572.791 1140.62C569.635 1141.29 570.806 1140.71 568.348 1142.82C566.012 1148.91 570.39 1157.35 565.612 1161.69C562.743 1161.77 562.957 1162.2 560.773 1161.04C560.061 1156.82 560.43 1130.82 560.438 1124.98Z" />
    <path fill="#21404F"
        d="M154.558 1134.92C171.501 1134.13 169.744 1148.48 168.286 1161.34C164.317 1164.89 163.551 1159.43 160.911 1160.18C154.088 1162.13 153.367 1164.44 146.513 1159.28C140.236 1145.42 155.401 1147.52 161.346 1143.47L161.174 1142.01L159.702 1140.94C155.237 1140.48 149.553 1144.74 146.731 1142.84C146.935 1137.64 150.261 1136.24 154.558 1134.92Z" />
    <path fill="#FFF6EB"
        d="M155.509 1150.51L159.52 1150.57C161.528 1152.01 161.088 1151.25 161.47 1153.33C160.577 1155.73 159.901 1155.99 157.818 1157.69C154.761 1157.39 153.584 1157.11 152.265 1154.34C153.278 1151.61 152.85 1152.52 155.509 1150.51Z" />
    <path fill="#21404F"
        d="M874.431 1134.97C891.91 1133.96 890.683 1147.23 888.931 1160.93C883.149 1162.75 872.415 1162.86 867.053 1159.26C861.702 1145.15 874.995 1147.99 881.378 1143.89L881.683 1142.18C878.568 1137.77 872.489 1144.59 867.675 1143.28C866.756 1138.41 870.735 1136.64 874.431 1134.97Z" />
    <path fill="#FFF6EB"
        d="M875.526 1150.55C878.607 1150.38 879.857 1149.9 881.987 1152.21C881.763 1154.91 881.406 1155.14 879.802 1157.47C876.481 1157.33 874.613 1157.7 872.957 1154.39C873.719 1151.77 873.382 1152.65 875.526 1150.55Z" />
    <path fill="#21404F"
        d="M514.543 1190.37C520.932 1190.13 529.738 1192.05 530.54 1201.7C531.015 1207.41 517.665 1204.64 513.382 1208.15C514.004 1210.61 513.975 1209.96 516.144 1212.03C518.47 1212.75 518.801 1212.87 521.071 1212.07C522.234 1210.9 523.193 1209.59 524.853 1209.22C526.461 1209.87 527.061 1210.28 528.493 1211.17L528.325 1213.09C525.135 1217.89 518.076 1218.42 512.964 1216.84C503.8 1214 504.39 1205.69 506.909 1198.27C508.58 1193.35 510.199 1192.61 514.543 1190.37Z" />
    <path fill="#FFF6EB"
        d="M515.071 1195.98C518.175 1195.9 521.851 1196.04 522.272 1199.77L521.123 1201.14C518.466 1201.21 516.876 1201.37 514.243 1200.74L513.622 1199.35L515.071 1195.98Z" />
    <path fill="#21404F"
        d="M126.547 1134.93C139.001 1134.64 141.099 1138.79 141.693 1150.43C137.586 1150.34 127.689 1149.4 124.923 1151.73L125.472 1153.68C127.396 1155.91 127.655 1156.22 130.403 1157.21C134.294 1156.49 133.717 1155.05 137.2 1153.58C139.767 1154.94 139.553 1154.34 140.808 1156.48C140.29 1158.66 140.115 1158.93 138.041 1160.19C119.62 1171.35 108.697 1143.17 126.547 1134.93Z" />
    <path fill="#FFF6EB"
        d="M128.915 1139.54C131.87 1140.58 132.984 1141.3 134.414 1144.06L133.864 1145.29L131.844 1145.68C128.914 1145.68 127.372 1145.99 125.545 1144.16C125.881 1141.93 127.195 1141.14 128.915 1139.54Z" />
    <path fill="#21404F"
        d="M597.255 1134.86C604.637 1134.99 613.302 1139.21 611.502 1147.66C606.469 1153.08 598.194 1148.29 594.996 1152.65C598.076 1161.69 603.937 1154.15 607.907 1153.37C610.36 1155.47 610.169 1154.64 610.566 1157.13C609.484 1158.8 607.286 1160.71 605.475 1161.53C588.569 1169.18 578.489 1141.19 597.255 1134.86Z" />
    <path fill="#FFF6EB"
        d="M598.37 1139.58C601.22 1140.43 604.078 1141.68 603.558 1144.97L601.806 1145.81C598.482 1145.59 597.439 1146 595.202 1144.15C595.908 1141.47 596.299 1141.71 598.37 1139.58Z" />
    <path fill="#21404F"
        d="M489.947 1190.32C504.044 1189.23 502.115 1201.04 502.165 1211.56C502.175 1213.6 501.702 1215.67 500.138 1216.95C493.73 1217.4 493.844 1217.29 494.343 1210.44C494.658 1206.13 495.119 1201.98 493.632 1197.84C491.585 1195.73 492.61 1196.37 489.126 1195.81C482.592 1202.51 489.033 1210.77 484.176 1216.92C481.483 1217.84 482.602 1217.68 479.347 1216.9C478.051 1214.19 478.477 1196.94 478.936 1193.1C479.353 1189.63 484.462 1192.5 486.989 1192.15C486.989 1192.15 489.57 1190.55 489.947 1190.32Z" />
    <path fill="#21404F"
        d="M943.774 1135.36C946.358 1135.23 947.503 1135.09 950.08 1135.62C954.371 1138.98 954.804 1148.46 956.453 1154.98C957.661 1149.33 959.115 1141.09 961.343 1136.03C963.249 1135.05 965.194 1135.43 967.423 1135.53C968.609 1138.74 964.41 1148.7 963.098 1152.42C961.136 1159.06 957.901 1175.8 947.142 1171.04C946.56 1167.79 946.204 1168.63 947.435 1166.23C949.48 1165.6 950.526 1165.53 951.852 1163.98C952.634 1159.06 945.638 1140.89 943.774 1135.36Z" />
    <path fill="#21404F"
        d="M480.38 1135.29C488.009 1135.23 488.105 1134.44 487.768 1142.41C487.604 1146.28 486.947 1151.72 488.301 1155.36C489.246 1156.27 489.498 1157.03 490.777 1156.85C503.159 1155.15 491.545 1141.6 498.614 1135.6C501.328 1135.17 500.707 1134.88 502.969 1135.73C504.219 1138.1 503.758 1141.11 503.669 1143.94C503.747 1147.83 504.555 1159.15 502.667 1161.82C499.423 1162.41 496.619 1160.1 495.471 1160.64C476.663 1169.57 480.156 1146.52 480.38 1135.29Z" />
    <path fill="#21404F"
        d="M742.684 1135.39C745.552 1135.27 746.887 1135.04 749.681 1135.83C751.656 1141 747.048 1155.16 753.512 1157.26C763.843 1154.27 755.035 1143.63 760.008 1135.89C762.431 1134.8 761.807 1135.17 764.844 1135.49C766.466 1137.12 765.921 1137.66 765.969 1140.56C766.034 1146.5 766.361 1155.5 765.694 1161.1L764.562 1161.94C762.362 1162.08 758.871 1160.79 759.132 1160.72C741.252 1165.16 742.438 1159.42 742.684 1135.39Z" />
    <path fill="#21404F"
        d="M420.925 1190.69L425.522 1190.65C431.873 1194.17 426.449 1204.5 428.362 1210.52C435.525 1217.31 438.545 1205.18 436.745 1199.85C435.856 1197.22 436.575 1193.3 438.661 1191.06C440.929 1190.34 440.999 1190.37 443.234 1191.04C444.654 1193.26 444.108 1194.3 444.082 1197.36C444.091 1201.91 445.167 1213.97 443.047 1217.13C440.912 1217.65 438.111 1216.42 435.849 1215.72C418.135 1227.64 420.756 1200.04 420.925 1190.69Z" />
    <path fill="#21404F"
        d="M205.423 1134.8C209.639 1134.7 213.251 1135.2 214.905 1139.63C216.908 1144.99 217.681 1155.51 215.29 1160.66C213.016 1162.48 213.782 1162.44 211.41 1162.51C207.965 1159.86 210.324 1147.94 207.653 1142.06C205.308 1140.33 206.162 1140.85 202.437 1141.14C196.588 1148.75 204.634 1158.09 197.135 1162.69C190.9 1161.36 192.67 1140.93 193.801 1135.98C201.813 1135.73 197.939 1138.21 205.423 1134.8Z" />
    <path fill="#21404F"
        d="M461.187 1190.31C462.624 1190.21 465.069 1190.04 466.417 1190.35C475.829 1192.55 473.283 1210.8 471.691 1216.88C469.503 1217.46 469.405 1217.38 467.16 1216.77C462.544 1211.61 468.129 1205.69 464.722 1197.59C462.624 1195.69 463.384 1196.28 459.933 1195.99C454.13 1202.65 458.392 1209.96 456.635 1216.73C454.417 1217.46 453.078 1217.16 450.773 1216.97C449.447 1214.57 449.829 1194.65 450.659 1191.25C457.231 1190.31 454.364 1194.25 461.187 1190.31Z" />
    <path fill="#21404F"
        d="M92.6645 1125.73C94.8302 1125.73 98.1377 1125.37 99.7154 1126.55C100.522 1133.09 100.068 1147.95 100.04 1155.11C104.466 1155.2 110.25 1154.05 113.791 1155.83C115.361 1158.3 114.833 1158.48 114.799 1161.74L92.625 1161.77C92.7826 1149.86 92.6579 1137.67 92.6645 1125.73Z" />
    <path fill="#21404F"
        d="M511.645 1127.79C514.084 1127.72 515.587 1127.79 518.022 1128C520.244 1130.84 517.348 1131.52 519.488 1135.14L522.947 1135.58C524.335 1137.22 523.878 1136.76 523.762 1139.63C517.124 1143.78 518.013 1148.4 519.457 1155.28C520.965 1156.19 522.114 1156.81 523.687 1157.61L524.634 1160.97C505.683 1167.43 514.088 1148.98 510.798 1141.19L508.177 1140.52C506.948 1138.57 507.353 1139.11 507.599 1136.26C512.639 1133.68 511.628 1132.98 511.645 1127.79Z" />
    <path fill="#21404F"
        d="M928.497 1127.91C930.67 1127.85 932.617 1127.97 934.778 1128.08C936.679 1130.51 934.265 1132.3 936.181 1135.11C937.835 1135.45 938.52 1135.52 940.22 1135.66C941.28 1137.79 940.935 1137.17 940.594 1139.96C934.449 1142.29 933.737 1151.46 936.456 1155.66C938.562 1156.28 938.754 1156.28 940.483 1157.57L940.789 1161.23C923.149 1167.6 930.469 1148.62 927.741 1141.25L925.696 1140.54C924.235 1138.66 924.653 1139.44 924.641 1136.6C929.089 1133.21 928.341 1133.02 928.497 1127.91Z" />
    <path fill="#21404F"
        d="M543.201 1127.88C545.159 1127.85 547.232 1127.95 549.198 1128.01C551.576 1130.54 548.708 1132.19 550.688 1135.03C552.309 1135.39 553.424 1135.57 555.068 1135.79C556.002 1137.81 555.627 1137.45 555.187 1140.12C548.487 1142.47 548.644 1150.11 550.956 1155.64C555.404 1157.31 554.988 1156.85 555.542 1161.35L554.656 1161.58C538.683 1165.56 544.317 1151.11 542.536 1141.39L540.142 1140.55C538.743 1138.66 539.144 1139.41 539.246 1136.55C543.781 1133.22 542.885 1133.11 543.201 1127.88Z" />
    <path fill="#0F202E"
        d="M92.0352 1199.99C105.582 1199.74 114.098 1205.16 106.161 1218.92C100.983 1222.42 98.3955 1221.77 92.0983 1221.69L92.0352 1199.99Z" />
    <path fill="#FFF6EB"
        d="M94.9384 1202.46C106.022 1202.24 108.686 1208.64 103.637 1217.83C100.095 1219 98.4838 1220.15 95.4212 1217.76C93.9938 1214.28 94.8016 1206.78 94.9384 1202.46Z" />
    <path fill="#21404F"
        d="M545.515 1190.05C547.224 1190.17 547.517 1190.31 549.119 1190.78C550.268 1193.17 549.829 1192.8 549.555 1195.89C547.634 1197.24 545.052 1197.62 543.767 1198.67C539.887 1201.84 542.52 1209.92 541.355 1216.49C539.966 1217.5 536.975 1217.31 535.091 1217.38C533.832 1214.76 534.418 1195.25 534.853 1191.64C536.464 1190.33 535.563 1190.74 537.686 1190.46C542.206 1193.85 541.588 1193.3 545.515 1190.05Z" />
    <path fill="#21404F"
        d="M783.475 1134.47C785.435 1134.75 785.738 1135.11 787.332 1136.22C788.957 1141.32 780.289 1143.06 779.779 1144.64C778.543 1148.48 780.146 1155.71 779.055 1160.87C777.821 1162.07 775.379 1162.05 773.535 1162.27L772.823 1161.75C771.317 1159.33 771.665 1139.54 772.382 1136.1C776.599 1133.49 775.675 1139.95 783.475 1134.47Z" />
    <path fill="#21404F"
        d="M186.313 1134.46C187.962 1134.77 187.999 1134.97 189.267 1136.02C190.913 1141.3 182.815 1142.42 181.981 1145.21C180.789 1149.2 182.309 1155.89 181.238 1160.99C179.449 1162.15 176.518 1161.79 174.244 1161.76C174.197 1156.25 173.687 1140.51 175.022 1135.63L176.345 1135.16C179.458 1135.83 178.324 1135.41 181.075 1138.09C182.929 1136.6 184.324 1135.71 186.313 1134.46Z" />
    <path fill="#21404F"
        d="M906.541 1134.35C907.862 1134.68 908.246 1135.03 909.397 1135.75C911.723 1141.02 903.648 1141.96 902.626 1144.55C901.096 1148.44 902.992 1155.82 901.698 1160.92C899.901 1162.08 897.58 1161.77 895.125 1161.9C894.498 1157.12 894.705 1140.77 895.347 1136.09C897.897 1134.36 898.499 1135.45 900.423 1136.99C903.455 1137.15 903.529 1136.34 906.541 1134.35Z" />
    <path fill="#0F202E"
        d="M806.182 1286.08C809.282 1286.31 811.922 1286.49 814.994 1287.02C818.753 1294.01 817.292 1316.63 802.719 1305.76L804.811 1304.74C806.551 1305.34 807.683 1305.85 809.358 1306.61C811.694 1305.98 811.749 1305.92 813.468 1304.13C812.479 1301.38 792.774 1300.14 806.182 1286.08Z" />
    <path fill="#FFF6EB"
        d="M807.15 1288.21C808.983 1288.28 809.524 1288.48 811.238 1288.96C814.99 1292.34 813.619 1296.65 811.318 1300.47C803.218 1299.39 803.967 1293.94 807.15 1288.21Z" />
    <path fill="#0F202E"
        d="M542.09 1300.27C544.338 1300.26 548.738 1300.83 551.117 1301.09C554.417 1307.09 553.742 1331.49 538.936 1319.9L540.882 1319.29C544.074 1320.25 544.799 1320.87 547.656 1320.11C549.201 1318.48 549.184 1318.38 549.465 1316.07L548.631 1315.27L548.112 1315.47C544.961 1316.65 543.983 1317.03 541.186 1315.78C537.069 1311.15 538.161 1304.67 542.09 1300.27Z" />
    <path fill="#FFF6EB"
        d="M543.091 1302.28C545.166 1302.38 545.347 1302.46 547.332 1303.15C551.198 1306.71 549.676 1310.7 547.302 1314.68C546.041 1314.42 544.849 1314.07 543.607 1313.73C539.163 1310.13 540.914 1306.64 543.091 1302.28Z" />
    <path fill="#0F202E"
        d="M450.672 1379.71C452.396 1379.61 459.381 1379.98 460.078 1381.15C462.957 1385.99 461.243 1398.71 456.507 1402.08C453.122 1404.5 449.445 1401.32 448.03 1397.85C451.915 1398.2 452.635 1401.52 456.995 1399.21C458.036 1397.07 458.068 1396.99 458.035 1394.65C444.982 1398.53 444.863 1386.77 450.672 1379.71Z" />
    <path fill="#FFF6EB"
        d="M451.427 1381.88C453.347 1381.81 453.842 1381.96 455.749 1382.34C459.804 1385.79 458.568 1388.86 456.911 1393.42C455.425 1393.51 454.255 1393.35 452.787 1393.2C448.203 1389.76 449.602 1386.68 451.427 1381.88Z" />
    <path fill="#0F202E"
        d="M790.523 1245.53C793.946 1245.93 794.755 1247.82 798.044 1246.21C801.253 1251.35 800.622 1274.16 789.118 1268.05C787.043 1266.94 787.248 1266.17 786.649 1264.18C789.836 1265.71 792.084 1267.26 795.509 1265.68C796.627 1263.61 796.561 1263.49 796.344 1261.06C782.385 1264.34 783.121 1251.16 790.523 1245.53Z" />
    <path fill="#FFF6EB"
        d="M791.307 1247.49C798.408 1249.75 798.426 1255.34 793.788 1260.47C792.314 1260.11 791.51 1259.62 790.181 1258.94C786.643 1254.62 788.011 1251.39 791.307 1247.49Z" />
    <path fill="#0F202E"
        d="M883.996 1198.62L886.182 1199.43C887.283 1201.35 886.774 1203.16 886.544 1205.47C889.07 1209.23 891.216 1204.31 896.88 1208.86C898.709 1212.67 897.609 1216.04 896.514 1219.9C893.47 1222.16 889.336 1223.32 885.916 1221.21C882.547 1216.59 883.866 1204.8 883.996 1198.62Z" />
    <path fill="#FFF6EB"
        d="M888.902 1207.79C896.838 1208.87 896.211 1214.71 892.638 1220.24C890.902 1220.14 890.295 1219.83 888.699 1219.25C884.947 1215.51 886.155 1211.78 888.902 1207.79Z" />
    <path fill="#0F202E"
        d="M301.002 1278.2C302.053 1278.62 302.835 1278.66 303.002 1279.47C303.915 1283.92 303.921 1296.63 302.743 1300.47C299.218 1300.59 297.753 1301.03 294.348 1301.87C286.709 1296.69 286.87 1284 299.513 1285.92L300.333 1286.05C301.205 1284.51 300.963 1280.3 301.002 1278.2Z" />
    <path fill="#FFF6EB"
        d="M293.988 1287.51C302.627 1287.27 302.121 1293.42 298.806 1299.45L295.19 1299.01C290.51 1295.35 291.747 1292.43 293.988 1287.51Z" />
    <path fill="#0F202E"
        d="M750.285 1278.93C751.115 1279.28 751.866 1279.37 752.022 1280.06C753 1284.38 753.076 1297.6 751.861 1301.28C747.807 1301.72 746.703 1302.34 742.329 1302.37C738.556 1298.59 736.478 1289.97 742.256 1286.72C745.151 1285.09 747.394 1287.65 749.927 1287.03L750.285 1278.93Z" />
    <path fill="#FFF6EB"
        d="M743.31 1288.28C745.872 1288.31 746.008 1288.26 748.23 1289.41C751.334 1293.49 750.565 1296.07 747.722 1300.39C746.053 1300.38 745.409 1300.14 743.834 1299.73C739.841 1295.75 740.925 1293.02 743.31 1288.28Z" />
    <path fill="#FFF6EB"
        d="M232.993 1246.43C233.041 1243.45 232.772 1241.4 234.218 1238.84C236.561 1241.84 236.526 1257.31 234.872 1260.66C233.181 1260.76 233.993 1260.93 232.434 1259.87C220.233 1268.08 216.359 1239.97 232.993 1246.43Z" />
    <path fill="#0F202E"
        d="M232.993 1246.43C233.041 1243.45 232.772 1241.4 234.218 1238.84C236.561 1241.84 236.526 1257.31 234.872 1260.66C233.181 1260.76 233.993 1260.93 232.434 1259.87L231.45 1259C233.552 1254.03 233.834 1252.99 232.098 1247.71L232.993 1246.43Z" />
    <path fill="#0F202E"
        d="M232.434 1259.87C220.233 1268.08 216.359 1239.97 232.993 1246.43L232.098 1247.71C224.236 1246.88 221.885 1252.98 226.521 1258.17C228.677 1259.33 229.001 1259.29 231.45 1259L232.434 1259.87Z" />
    <path fill="#FFF6EB"
        d="M218.458 1299.91L217.328 1300.96L216.404 1300.48C215.817 1298.02 215.773 1281.85 216.309 1279.21L217.599 1278.77C219.705 1281.74 217.266 1283.31 219.248 1286.75C233.277 1279.17 233.344 1308.22 218.458 1299.91Z" />
    <path fill="#0F202E"
        d="M219.248 1286.75C233.277 1279.17 233.344 1308.22 218.458 1299.91L219.371 1298.88C221.586 1299.32 221.676 1299.34 223.873 1298.94C229.558 1295.24 228.579 1288.22 220.562 1287.47L219.248 1286.75Z" />
    <path fill="#0F202E"
        d="M218.458 1299.91L217.328 1300.96L216.404 1300.48C215.817 1298.02 215.773 1281.85 216.309 1279.21L217.599 1278.77C219.705 1281.74 217.266 1283.31 219.248 1286.75L220.562 1287.47C217.698 1292.22 218.178 1293.39 219.371 1298.88L218.458 1299.91Z" />
    <path fill="#21404F"
        d="M913.506 1135.23C916.176 1135.2 918.358 1134.88 920.689 1136.05C921.366 1140.33 921.06 1156.49 921.062 1161.69C918.355 1161.8 916.576 1162.09 913.999 1161.24C913.196 1156.79 913.506 1140.62 913.506 1135.23Z" />
    <path fill="#0F202E"
        d="M515.174 1260C525.637 1261.31 526.673 1271.79 518.068 1276.95C507.62 1275.97 505.984 1264.77 515.174 1260Z" />
    <path fill="#FFF6EB"
        d="M515.242 1261.81C523.014 1263.79 522.18 1270.42 517.381 1275.37C510.366 1272.53 510.398 1267.04 515.242 1261.81Z" />
    <path fill="#0F202E"
        d="M762.691 1245.74C773.7 1245.89 775.216 1256.95 766.93 1262.45C755.847 1261.46 754.82 1251.24 762.691 1245.74Z" />
    <path fill="#FFF6EB"
        d="M763.557 1247.58C771.329 1248.98 770.493 1255.7 766.115 1260.61C758.765 1258.73 759.004 1252.59 763.557 1247.58Z" />
    <path fill="#0F202E"
        d="M710.181 1245.68C721.273 1245.97 722.742 1256.64 714.331 1262.47C703.676 1261.81 702.415 1251.64 710.181 1245.68Z" />
    <path fill="#FFF6EB"
        d="M711.057 1247.58C718.891 1249.04 717.872 1255.7 713.6 1260.65C706.301 1258.66 706.557 1252.6 711.057 1247.58Z" />
    <path fill="#0F202E"
        d="M904.503 1205.96C916.194 1205.61 918.037 1216.37 909.691 1222.27C898.901 1222.47 897.783 1212.54 904.503 1205.96Z" />
    <path fill="#FFF6EB"
        d="M905.459 1207.77C906.902 1207.96 907.73 1208.21 909.124 1208.57C913.333 1212.58 912.342 1215.26 909.758 1220.04C907.442 1220.16 907.171 1220.11 905.083 1219.11C901.455 1215.53 903.136 1211.54 905.459 1207.77Z" />
    <path fill="#0F202E"
        d="M823.584 1286.27C835.205 1285.62 837.226 1295.74 829.433 1302.37C818.26 1302.65 816.84 1293.27 823.584 1286.27Z" />
    <path fill="#FFF6EB"
        d="M824.393 1288.15C826.256 1288.21 826.845 1288.44 828.591 1288.92C832.693 1292.96 831.555 1295.76 828.792 1300.35C827.047 1300.33 826.52 1300.13 824.882 1299.7C820.784 1295.68 821.827 1292.86 824.393 1288.15Z" />
    <path fill="#0F202E"
        d="M895.507 1245.65C906.607 1245.98 908.206 1256.69 899.628 1262.45C888.806 1261.31 887.869 1251.88 895.507 1245.65Z" />
    <path fill="#FFF6EB"
        d="M896.35 1247.52C904.096 1248.99 903.03 1255.03 899.636 1260.35C891.543 1259.38 891.808 1252.79 896.35 1247.52Z" />
    <path fill="#0F202E"
        d="M96.6065 1324.34C107.079 1325.08 108.424 1335.92 99.9707 1341.24C89.4517 1340.57 87.8661 1329.75 96.6065 1324.34Z" />
    <path fill="#FFF6EB"
        d="M96.6291 1326.24C104.556 1327.69 103.675 1333.81 99.9142 1339.22C91.7648 1338.1 92.5996 1331.6 96.6291 1326.24Z" />
    <path fill="#0F202E"
        d="M458.282 1259.98C468.936 1262.64 468.476 1272.39 459.748 1277.21C449.702 1275.04 448.653 1263.75 458.282 1259.98Z" />
    <path fill="#FFF6EB"
        d="M457.54 1261.83C465.052 1263.54 464.429 1269.29 460.849 1274.68C452.353 1274.09 453.087 1267.1 457.54 1261.83Z" />
    <path fill="#0F202E"
        d="M441.04 1340.27C452.718 1339.32 455.108 1347.58 448.366 1355.73C436.771 1357.12 434.769 1347.8 441.04 1340.27Z" />
    <path fill="#FFF6EB"
        d="M444.031 1341.26C451.384 1344.25 450.272 1349.59 446.003 1354.79C438.35 1352.42 438.731 1346.26 444.031 1341.26Z" />
    <path fill="#0F202E"
        d="M407.28 1340.22C418.906 1338.89 420.837 1348.45 414.047 1355.93C402.666 1356.67 400.692 1347.7 407.28 1340.22Z" />
    <path fill="#FFF6EB"
        d="M409.508 1341.26C417.238 1343.29 416.061 1349.44 412.293 1354.71C404.442 1352.75 404.993 1346.58 409.508 1341.26Z" />
    <path fill="#0F202E"
        d="M819.14 1206.03C830.567 1205.51 832.523 1215.62 824.992 1222.13C814.173 1223.11 812.181 1213.01 819.14 1206.03Z" />
    <path fill="#FFF6EB"
        d="M820.002 1207.91C822.301 1207.96 822.379 1207.99 824.497 1208.95C828.179 1212.58 826.671 1216.29 824.309 1220.15C816.032 1220.07 816.713 1213.45 820.002 1207.91Z" />
    <path fill="#08121C"
        d="M163.269 1285.42C174.88 1285.36 176.531 1294.76 169.061 1301.55C157.77 1301.44 156.057 1292.45 163.269 1285.42Z" />
    <path fill="#FFF6EB"
        d="M164.18 1287.32C166.488 1287.3 166.75 1287.37 168.77 1288.49C172.012 1292.37 170.875 1295.93 168.006 1299.73C166.261 1299.59 165.637 1299.26 164.037 1298.65C160.294 1295.08 161.646 1291.2 164.18 1287.32Z" />
    <path fill="#0F202E"
        d="M152.699 1205.92C164.363 1204.86 166.366 1214.67 159.202 1221.8C147.966 1221.97 145.931 1213.6 152.699 1205.92Z" />
    <path fill="#FFF6EB"
        d="M155.204 1206.96C162.71 1209.95 161.624 1215.31 157.133 1220.54C149.536 1217.84 150.475 1212.06 155.204 1206.96Z" />
    <path fill="#0F202E"
        d="M577.593 1300.49C589.107 1299.84 591.226 1308.61 584.288 1316.2C572.79 1317.05 570.955 1308.06 577.593 1300.49Z" />
    <path fill="#FFF6EB"
        d="M579.745 1301.92C581.909 1302.37 581.981 1302.41 583.832 1303.67C586.998 1308.26 585.245 1311.57 581.836 1315.28C575.232 1312.46 574.564 1306.75 579.745 1301.92Z" />
    <path fill="#0F202E"
        d="M121.376 1244.86C132.054 1245.86 133.093 1256.23 124.664 1261.73C114.058 1260.6 112.942 1250.15 121.376 1244.86Z" />
    <path fill="#FFF6EB"
        d="M121.536 1246.79C123.019 1247.04 123.864 1247.5 125.222 1248.09C129.057 1252.17 127.405 1255.55 124.704 1259.67C116.553 1258.44 117.442 1252.13 121.536 1246.79Z" />
    <path fill="#0F202E"
        d="M392.884 1253.97C398.074 1253.84 400.105 1254.59 403.492 1258.74L403.244 1259.81L401.784 1260.07C389.388 1248.19 383.081 1268.14 394.406 1274.31C399.548 1274.69 400.422 1272.08 401.627 1267.37C399.251 1267.16 398.89 1267.18 396.701 1266.34L396.421 1265.57C398.921 1264.36 401.064 1264.71 403.897 1264.79C403.85 1267.5 404.203 1274.46 402.773 1276.08L401.37 1274.29C385.033 1283.19 380.79 1261.02 392.884 1253.97Z" />
    <path fill="#0F202E"
        d="M387.184 1300.11L389.171 1301.31C393.338 1300.79 404.302 1300.16 407.635 1302.49C409.339 1305.23 409.764 1313.55 407.475 1316.09C403.152 1313.83 408.237 1308.26 405.205 1303.4C402.437 1302.2 403.566 1302.49 400.014 1302.99C398.592 1306.96 400.193 1314.18 397.28 1316.09C394.757 1313.52 398.975 1305.25 393.627 1302.33C389.844 1304.65 389.588 1311.05 388.236 1315.75L387.459 1315.17C387.036 1310.01 387.138 1305.27 387.184 1300.11Z" />
    <path fill="#0F202E"
        d="M708.491 1286.22C710.293 1286.13 712.121 1286.23 713.928 1286.29C718.723 1288.61 719.756 1296.9 718.161 1301.43C713.522 1301.78 710.958 1303.02 706.62 1301.7C701.469 1290.74 711.681 1295.27 715.162 1290.99L714.716 1289.24C712.506 1288.11 709.197 1289.35 706.413 1289.97L706.294 1288.98L708.491 1286.22Z" />
    <path fill="#FFF6EB"
        d="M709.647 1294.3C712.766 1294.61 713.234 1294.09 715.121 1295.94C715.169 1298.1 714.226 1299.09 713.019 1300.99C710.525 1300.38 709.767 1300.46 708.232 1298.6C708.149 1296.05 708.168 1296.85 709.647 1294.3Z" />
    <path fill="#0F202E"
        d="M861.533 1245.63C863.771 1245.67 864.366 1245.77 866.575 1246.21C874.423 1251.1 872.87 1267.25 858.205 1260.96C857.476 1258.19 857.073 1257.15 858.273 1254.61C860.47 1252.41 863.112 1252.93 866.693 1251.79L867.273 1250.19L866.656 1248.92C863.702 1247.84 861.94 1249.12 858.419 1249.22L858.929 1247.97L858.597 1249.13C859.913 1248.39 858.333 1247.85 861.533 1245.63Z" />
    <path fill="#FFF6EB"
        d="M865.554 1253.96C867.154 1254.61 866.409 1254.12 867.546 1255.86L867.198 1257.47C865.432 1259.77 864.835 1259.89 862.097 1260.95C860.432 1258.26 860.265 1258.92 860.36 1256.28C861.678 1254.6 863.363 1254.51 865.554 1253.96Z" />
    <path fill="#0F202E"
        d="M92.2266 1285.19L94.0767 1286.47C94.0673 1286.47 110.612 1285.66 110.341 1285.64C114.599 1288.27 114.911 1296.59 113.182 1300.78L111.84 1301.05C110.06 1298.25 112.519 1293.52 110.03 1288.73C107.782 1287.2 108.486 1287.68 105.165 1287.81C103.882 1291.12 103.691 1297.15 103.367 1300.88C102.426 1299.82 100.055 1289.96 99.2593 1287.53L98.3207 1287.33C94.8656 1289.31 94.4464 1296.79 92.7537 1301.04C92.0021 1295.04 92.1281 1291.2 92.2266 1285.19Z" />
    <path fill="#0F202E"
        d="M806.966 1245.76C816.308 1245.51 816.874 1252.88 816.365 1260.65L815.382 1261.44C811.429 1261.8 806.924 1262.71 803.596 1260.78C801.521 1252.48 807.174 1254.09 812.496 1250.42L812.205 1249.09C808.001 1246.07 807.589 1249.97 804.092 1249.71C804.724 1247.14 804.605 1247.89 806.966 1245.76Z" />
    <path fill="#FFF6EB"
        d="M809.715 1253.65C812.382 1254.44 811.678 1253.8 812.923 1255.79C812.661 1258.1 811.392 1259.15 809.849 1260.98C807.268 1259.95 806.494 1259.72 805.596 1257.04C807.03 1254.46 806.614 1255.25 809.715 1253.65Z" />
    <path fill="#0F202E"
        d="M790.242 1205.81L792.273 1207.09C794.033 1206.8 806.877 1206.3 808.569 1206.72C812.416 1209.64 813.215 1218.76 810.997 1221.7C806.003 1220.52 811.853 1214.22 807.831 1208.61C805.507 1207.95 805.02 1208.27 802.776 1209.13C802.192 1211.84 801.501 1221.17 801.299 1221.64C800.322 1218.03 798.85 1210.48 796.987 1207.94L795.778 1208.25C793.734 1210.96 792.101 1218.16 791.056 1221.81L790.556 1221.54L791.143 1221.61L790.499 1221.11C789.982 1215.39 790.095 1211.52 790.242 1205.81Z" />
    <path fill="#0F202E"
        d="M740.677 1206C743.361 1205.87 744.192 1205.74 746.774 1206.4C750.808 1209.31 752.229 1216.8 749.974 1221.18C745.534 1221.71 743.105 1222.68 738.859 1221.46C737.72 1218.98 737.179 1217.56 737.822 1215.03C740.891 1212.4 742.209 1213.7 746.757 1211.8L747.331 1210.39L746.54 1208.73C743.92 1207.8 741.764 1209.16 738.532 1209.72C738.61 1208.09 739.585 1207.3 740.677 1206Z" />
    <path fill="#FFF6EB"
        d="M741.919 1214.04C745.007 1214.34 745.504 1213.93 747.257 1215.69C747.332 1217.82 746.326 1218.78 745.058 1220.63C742.549 1220.07 742.012 1220.17 740.422 1218.36C740.326 1215.8 740.351 1216.61 741.919 1214.04Z" />
    <path fill="#0F202E"
        d="M162.374 1324.51C165.117 1324.45 166.202 1324.27 168.747 1325.48C171.792 1328.34 173.502 1338.18 170.868 1340.99L168.719 1339.62C164.802 1340.87 164.016 1341.28 160.058 1340.3C155.117 1329.07 164.368 1334.1 168.725 1329.71L168.572 1328.18C166.264 1326.54 167.341 1326.98 164.341 1326.72C162.7 1327.7 162.069 1328.23 160.152 1328.53C160.29 1326.15 160.389 1326.78 162.374 1324.51Z" />
    <path fill="#FFF6EB"
        d="M165.176 1332.43C166.078 1332.64 167.184 1333.01 168.092 1333.29L168.853 1334.94C168.283 1337.25 167.024 1338.12 165.308 1339.82C162.668 1338.49 162.181 1338.16 161.349 1335.78C162.727 1333.27 162.296 1334.05 165.176 1332.43Z" />
    <path fill="#0F202E"
        d="M414.169 1300.6C416.907 1300.28 418.198 1300 420.965 1300.56C425.462 1303.2 426.633 1311.15 424.439 1315.53C419.657 1315.99 418.134 1316.65 413.336 1315.88C408.852 1304.87 418.221 1308.62 421.831 1305.65L421.956 1303.1L421.061 1302.26C418.327 1302.5 416.625 1303.16 414.036 1303.98L413.382 1303.19L414.169 1300.6Z" />
    <path fill="#FFF6EB"
        d="M415.592 1308.83C417.87 1308.71 419.627 1308.33 421.583 1309.35C422.168 1311.63 421.59 1311.88 420.668 1314.4C417.986 1314.45 417.273 1314.73 415.281 1313.22C414.607 1310.71 414.742 1311.62 415.592 1308.83Z" />
    <path fill="#0F202E"
        d="M192.53 1245.02C195.288 1244.94 195.864 1244.85 198.409 1245.84C201.653 1248.76 203.225 1257.09 200.752 1260.84C195.907 1261.02 192.823 1261.91 188.834 1259.6C188.566 1256.85 188.437 1256.34 189.545 1253.85C194.151 1250.46 195.778 1254.69 198.934 1249.11L198.381 1247.79C196.662 1247.31 191.596 1248.52 189.487 1248.87C189.903 1247.03 190.975 1246.52 192.53 1245.02Z" />
    <path fill="#FFF6EB"
        d="M191.808 1254C194.149 1253.8 195.688 1253.44 197.863 1254.27C198.654 1256.33 198.062 1256.79 197.399 1259.27C194.878 1259.35 194.725 1259.38 192.35 1258.64C190.972 1256.39 191.356 1257.25 191.808 1254Z" />
    <path fill="#0F202E"
        d="M484.376 1340.25C485.696 1340.14 488.989 1339.76 490.12 1340.13C495.671 1341.93 495.667 1351 494.83 1355.4L493.75 1356.04L491.714 1354.78C488.064 1356.16 487.563 1356.34 483.668 1355.92C482.025 1353 481.465 1351.68 482.451 1348.56C486.01 1345.29 489.702 1349.02 492.097 1343.89L491.076 1341.59L492.275 1342.99L492.091 1342.01C489.519 1341.3 486.358 1342.88 483.385 1343.77L482.907 1342.94L484.376 1340.25Z" />
    <path fill="#FFF6EB"
        d="M485.224 1348.49C487.583 1348.37 489.398 1347.97 491.4 1349.06C491.922 1351.35 491.331 1351.69 490.434 1354.17C487.843 1354.27 487.705 1354.33 485.404 1353.29C484.242 1350.83 484.559 1351.72 485.224 1348.49Z" />
    <path fill="#0F202E"
        d="M839.727 1286.24C842.161 1286.09 843.102 1286.15 845.532 1286.41C850.106 1288.96 851.402 1296.91 849.274 1301.42C844.857 1301.91 841.978 1303.08 837.849 1301.55C836.872 1299.05 836.439 1297.42 837.393 1295.02C840.492 1291.96 845.1 1294.83 846.651 1290.98L845.744 1288.98C842.84 1288.1 841.42 1289.15 838.082 1290.1C837.949 1288.45 838.775 1287.65 839.727 1286.24Z" />
    <path fill="#FFF6EB"
        d="M841.033 1294.58C844.058 1294.58 844.037 1294.13 846.51 1295.53C846.652 1298.1 846.157 1298.15 844.931 1300.64C842.044 1300.47 841.378 1300.32 839.547 1298.62C839.525 1296.09 839.405 1297 841.033 1294.58Z" />
    <path fill="#0F202E"
        d="M870.471 1205.9C872.818 1205.87 873.552 1205.9 875.859 1206.31C879.703 1208.94 881.463 1216.99 879.325 1221.12C874.611 1221.75 871.928 1222.5 867.421 1221.05C865.909 1211.58 871.089 1214.82 876.558 1210.07L875.844 1208.99C872.948 1208.32 871.011 1209.03 868.085 1209.69C868.115 1207.76 868.722 1207.83 870.471 1205.9Z" />
    <path fill="#FFF6EB"
        d="M870.895 1214.23C873.944 1214.3 874.035 1213.85 876.503 1215.29C876.657 1217.83 876.123 1217.94 874.893 1220.41C871.845 1219.87 872.001 1220.36 869.744 1218.49C869.542 1215.84 869.453 1216.83 870.895 1214.23Z" />
    <path fill="#0F202E"
        d="M210.549 1324.46C215.687 1324.61 218.991 1325.49 220.339 1331.32C218.697 1335.16 211.905 1332.04 209.012 1334.38C209.24 1336.88 208.921 1335.94 210.856 1338.04C213.459 1338.91 212.47 1338.99 214.724 1338.1C215.864 1337.38 216.405 1337.29 217.685 1336.89L218.375 1337.88C216.162 1341.14 211.787 1341.69 208.396 1339.92C204.4 1334.57 205.804 1328.68 210.549 1324.46Z" />
    <path fill="#FFF6EB"
        d="M210.513 1326.48C212.806 1326.6 213.056 1326.7 215.265 1327.42C216.875 1329.46 216.434 1328.53 216.62 1331.34C214.235 1331.39 212.098 1331.67 209.91 1330.85C209.166 1328.79 209.548 1329.17 210.513 1326.48Z" />
    <path fill="#0F202E"
        d="M413.107 1259.97C417.37 1260.46 422.443 1261.99 420.808 1267.4C418.516 1269.31 414.071 1269.7 410.941 1270.28L410.509 1271.44C413.795 1275.23 413.794 1274.76 418.5 1273.98L419.187 1272.91L420.289 1273.18C417.326 1284.15 398.09 1269.48 413.107 1259.97Z" />
    <path fill="#FFF6EB"
        d="M413.189 1261.76C416.033 1262.35 417.406 1262.94 418.465 1265.62L417.735 1267.1C415.339 1267.11 413.852 1267.3 411.583 1266.49L411.205 1265.07L413.189 1261.76Z" />
    <path fill="#0F202E"
        d="M589.573 1259.95C593.756 1261.06 597.364 1262.74 596.884 1267.95C592.603 1271.23 588.176 1265.71 585.612 1271.83C588.496 1275.37 592.21 1274.36 595.499 1272.15C596.421 1273.71 595.996 1274.36 595.261 1275.73C584.241 1279.32 575.906 1264.62 589.573 1259.95Z" />
    <path fill="#FFF6EB"
        d="M588.837 1261.79C591.454 1262.46 593.347 1263.12 593.778 1265.93L592.612 1267.23C590.201 1267.17 588.559 1267.39 586.499 1266.21C586.746 1263.74 587.038 1264.13 588.837 1261.79Z" />
    <path fill="#0F202E"
        d="M155.043 1244.92C159.218 1245.18 165.738 1247.71 163.987 1252.77C159.009 1255.72 154.735 1250.94 152.63 1256.55C154.568 1260.02 158.936 1258.83 161.804 1257.68L162.16 1257.48L163.069 1257.83C158.788 1268.49 141.641 1255.51 155.043 1244.92Z" />
    <path fill="#FFF6EB"
        d="M155.273 1246.82C158.361 1247.12 159.579 1247.51 160.885 1250.29L160.29 1251.86C157.568 1251.89 156.607 1252.02 153.914 1251.33C153.311 1249.17 153.736 1249.56 155.273 1246.82Z" />
    <path fill="#0F202E"
        d="M417.596 1379.92C423.537 1379.66 425.776 1379.47 428.14 1385.98C426.599 1390.34 420.71 1386.66 416.927 1389.29L416.782 1390.82C418.774 1393.55 419.659 1393.79 422.68 1393.15L425.348 1392.08L426.241 1392.65L425.673 1393.94C413.945 1400.84 410.809 1387.85 417.596 1379.92Z" />
    <path fill="#FFF6EB"
        d="M419.978 1381.1C422.506 1381.91 424.002 1382.55 424.56 1385.16L423.087 1386.65C420.765 1386.47 419.407 1386.6 417.46 1385.34C417.702 1382.94 418.012 1383.35 419.978 1381.1Z" />
    <path fill="#0F202E"
        d="M248.19 1205.26C248.577 1205.35 248.963 1205.44 249.349 1205.53L249.886 1205.67C253.014 1206.49 256.409 1209.71 255.65 1213.02C251.799 1215.64 247.192 1212.45 244.431 1216.02C246.148 1220.43 248.978 1219.97 252.697 1218.82L253.214 1218.17L254.281 1218.17C254.339 1219.92 254.338 1219.35 252.768 1221.11C241.652 1226 237.06 1209.4 248.19 1205.26Z" />
    <path fill="#FFF6EB"
        d="M247.44 1207.09C250.081 1207.73 251.988 1208.4 252.389 1211.22L251.256 1212.4C248.777 1212.34 247.716 1212.46 245.371 1211.64C245.2 1209.6 246.07 1209.13 247.44 1207.09Z" />
    <path fill="#0F202E"
        d="M183.682 1205.97C188.119 1205.55 194.842 1206.44 193.699 1212.55C191.5 1214.28 186.611 1214.57 183.467 1215.16L182.715 1216.4C183.712 1218.96 185.547 1219.54 187.914 1219.8C189.215 1219.07 190.009 1218.74 191.356 1218.18L192.223 1218.72C190.743 1221.77 186.313 1222.58 183.268 1221.36C178.085 1216.99 179.755 1210.53 183.682 1205.97Z" />
    <path fill="#FFF6EB"
        d="M185.972 1206.99C188.555 1207.92 189.822 1208.67 190.857 1211.18L189.742 1212.29C187.299 1212.3 185.735 1212.55 183.575 1211.45C183.642 1209.11 184.25 1209.12 185.972 1206.99Z" />
    <path fill="#0F202E"
        d="M515.266 1340.24C520.786 1339.77 524.082 1339.89 526.003 1346.27C523.436 1350.02 518.323 1347.03 514.99 1349.68C515.029 1352.07 514.82 1351.16 516.397 1353.31C518.976 1354.18 517.869 1354.1 520.618 1353.53C521.631 1352.81 522.345 1352.52 523.457 1351.98L524.252 1352.76C522.009 1356.15 518.629 1356.82 514.931 1355.7C510.41 1351.45 511.568 1344.68 515.266 1340.24Z" />
    <path fill="#FFF6EB"
        d="M517.528 1341.24C520.125 1341.89 522.008 1342.76 522.518 1345.48L521.346 1346.64C518.964 1346.6 517.3 1346.83 515.254 1345.7C515.455 1343.25 515.789 1343.59 517.528 1341.24Z" />
    <path fill="#0F202E"
        d="M846.763 1206.01C851.172 1205.87 857.639 1206.84 856.328 1212.93C853.985 1214.73 849.383 1214.91 846.061 1215.55L845.408 1216.74C846.784 1219.14 848.227 1220.05 850.88 1219.86C851.909 1219.34 853.009 1218.85 854.057 1218.36L855.115 1218.85L854.623 1220.04C842.718 1227.52 839.762 1213.31 846.763 1206.01Z" />
    <path fill="#FFF6EB"
        d="M847.195 1207.85C849.675 1207.9 850.041 1207.9 852.322 1208.84C853.848 1210.99 853.5 1209.97 853.469 1212.66C850.816 1212.72 849.702 1212.81 847.026 1212.38L846.235 1210.99L847.195 1207.85Z" />
    <path fill="#0F202E"
        d="M236.084 1285.42C240.257 1285.17 246.833 1286.72 246.255 1291.92C243.052 1294.29 238.731 1292.9 235.419 1295.23L235.399 1296.96C237.421 1299.37 236.556 1298.57 240.145 1299.79C241.843 1298.47 241.921 1298.4 243.945 1297.76L244.629 1298.37C242.945 1301.27 238.098 1302.56 234.967 1300.98C230.566 1296.22 232.104 1289.84 236.084 1285.42Z" />
    <path fill="#FFF6EB"
        d="M238.428 1287.09C241.023 1287.69 242.458 1288.29 242.835 1291L241.41 1292.26C238.32 1292.02 237.713 1292.49 235.53 1290.82C236.26 1288.36 236.126 1289.07 238.428 1287.09Z" />
    <path fill="#0F202E"
        d="M495.592 1379.88C501.239 1379.45 502.606 1379.97 506.25 1384.7C505.686 1388.95 498.575 1386.87 494.904 1389.77L495.022 1391.41C496.602 1393.47 496.905 1393.41 499.551 1394.15C500.807 1393.35 501.772 1392.87 503.08 1392.21L504.097 1392.74L503.269 1394.03C490.97 1400.73 489.145 1386.81 495.592 1379.88Z" />
    <path fill="#FFF6EB"
        d="M497.315 1381.09C500.133 1381.72 501.397 1382.25 502.47 1384.9L501.752 1386.31C499.4 1386.32 497.486 1386.6 495.443 1385.56C495.295 1383.19 495.64 1383.6 497.315 1381.09Z" />
    <path fill="#0F202E"
        d="M725.421 1206.01C730.011 1205.87 736.393 1207.11 734.751 1213.31C732.503 1214.76 727.985 1214.62 724.716 1215.17L724.008 1216.2C725.444 1219.31 726.181 1219.96 729.368 1219.94C730.521 1219.3 731.591 1218.85 732.788 1218.32L733.741 1219.02C731.633 1222 727.478 1223.07 724.141 1221.42C719.621 1216.76 721.315 1210.3 725.421 1206.01Z" />
    <path fill="#FFF6EB"
        d="M725.682 1207.85C728.143 1207.91 728.51 1207.91 730.766 1208.86C732.264 1210.89 731.871 1209.97 731.937 1212.71C729.305 1212.72 728.157 1212.78 725.512 1212.31L724.727 1210.98L725.682 1207.85Z" />
    <path fill="#0F202E"
        d="M539.623 1273.35C540.376 1270.07 541.771 1262.85 544.53 1260.85L545.253 1261.43L544.623 1263.91C543.617 1267.29 542.525 1272.77 540.317 1275.09L538.896 1275C536.847 1272.76 536.021 1268.15 535.227 1265.05C534.338 1268.67 533.809 1272.83 531.207 1275.28L529.772 1274.97C527.725 1272.11 526.195 1264.34 525.258 1260.49L527.274 1261.2C528.42 1263.03 530.167 1269.93 531.067 1272.65C531.81 1269.32 532.474 1264.36 534.785 1262.08L536.093 1262.35C538.109 1265.01 538.852 1269.92 539.623 1273.35Z" />
    <path fill="#0F202E"
        d="M465.29 1372.63C471.039 1374.81 466.078 1376.67 468.494 1381.08C471.3 1379.98 471.731 1379.78 474.722 1379.86C480.968 1382.95 478.951 1394.08 476.18 1395.3C475.468 1391.91 475.621 1388.59 475.62 1385.14C475.476 1384.47 474.896 1383.43 474.573 1382.77C472.637 1381.65 472.755 1381.68 470.523 1381.88C466.43 1385.49 469.175 1389.42 467.194 1395.4L466.07 1395.52C464.618 1393.28 465.265 1376.75 465.29 1372.63Z" />
    <path fill="#0F202E"
        d="M477.629 1252.69L479.068 1253.48C480.653 1255.87 480.046 1264.47 479.987 1267.65C482.271 1265.16 484.688 1261.94 488.066 1261.67C487.727 1263.8 485.003 1265.94 483.319 1267.58L488.874 1274.63C489.455 1275.13 489.2 1274.95 489.429 1276L487.602 1276.27C485.383 1275.41 484.163 1272.31 481.724 1269.94L480.542 1270.14C480.171 1272.25 479.809 1274.14 479.331 1276.22L478.278 1276.43L477.362 1275.45C476.677 1270.77 476.839 1257.34 477.629 1252.69Z" />
    <path fill="#0F202E"
        d="M387.936 1332.46C392.303 1335.14 388.21 1338.06 390.452 1341.36C393.263 1340.25 393.734 1340.02 396.731 1340C402.184 1342.83 400.911 1350.07 399.161 1354.99L398.32 1355.33C397.2 1352.23 397.511 1348.19 397.548 1344.81C396.853 1343.06 395.959 1342.14 394.277 1341.54C389.755 1343.78 390.248 1349.93 388.083 1355.82C386.741 1352.89 386.717 1336.19 387.936 1332.46Z" />
    <path fill="#08121C"
        d="M249.725 1278.54C254.592 1280.17 250.306 1283.03 252.364 1286.82C256.119 1285.19 256.908 1284.86 260.343 1286.06C263.841 1289.41 263.565 1297.49 260.49 1300.55C259.867 1297.42 259.97 1294.15 259.921 1290.94C259.337 1288.75 258.731 1287.81 257.042 1286.66C252.596 1287.97 251.7 1295.95 250.466 1300.35L249.892 1300.54C249.607 1293.92 249.193 1285.01 249.725 1278.54Z" />
    <path fill="#08121C"
        d="M567.316 1252.94C571.893 1255.6 567.637 1257.9 569.809 1261.83C572.625 1260.72 573.264 1260.36 576.361 1260.53C582.212 1263.6 580.55 1270.35 578.616 1275.47L577.743 1275.85C577.152 1272.7 577.253 1269.76 577.217 1266.56C577.161 1264.96 576.928 1264.81 576.165 1263.42C573.886 1262.42 573.746 1262.24 571.444 1262.78C567.843 1265.78 570.497 1271.12 568.901 1276.04L567.609 1276.24C566.223 1273.99 567.048 1256.31 567.316 1252.94Z" />
    <path fill="#08121C"
        d="M225.867 1198.68C230.709 1200.93 226.417 1202.83 228.359 1207.27C231.996 1206.2 234.96 1203.65 237.992 1208.36C239.396 1210.54 239.138 1219.91 236.769 1221.1C235.737 1217.98 236.03 1214.76 236.051 1211.43C235.347 1208.99 235.908 1209.86 234.075 1208.04C231.452 1207.71 232.507 1207.52 230.102 1208.83C228.152 1211.76 227.655 1217.25 226.661 1221.16C225.167 1219.11 225.779 1202.22 225.867 1198.68Z" />
    <path fill="#0F202E"
        d="M723.934 1245.47C727.352 1248.17 724.052 1254.35 726.669 1259.13C728.75 1260.35 727.689 1260.21 729.93 1259.75C734.085 1255.21 732.456 1251.43 734.207 1246.33L735.546 1246.54L735.859 1249.31C735.879 1251.88 736.392 1259.66 735.174 1261.29C722.418 1264.17 720.018 1256.08 723.934 1245.47Z" />
    <path fill="#0F202E"
        d="M918.474 1205.58L919.475 1206.01C921.962 1209.48 918.841 1216.14 923.415 1220.33L924.973 1220.19C931.601 1214.78 925.936 1210.11 928.909 1206.08L930.334 1206.42L930.927 1208.1C931.005 1212.54 931.135 1216.65 930.786 1221.1L929.841 1221.85L927.988 1220.4C915.533 1226.33 917.855 1213.69 918.474 1205.58Z" />
    <path fill="#0F202E"
        d="M826.232 1245.67C830.988 1246.07 832.908 1247.21 833.004 1252.43C833.069 1255.91 833.528 1259 831.869 1262.22L830.991 1261.97C829.107 1257.63 831.514 1254.8 829.963 1250.03C827.847 1247.83 828.846 1248.53 825.345 1247.71C821.186 1252.52 823.92 1254.39 820.973 1261.51L820.411 1261.09C820.186 1257.51 819.594 1251.47 820.094 1248.11C823.489 1246.19 820.878 1248.94 826.232 1245.67Z" />
    <path fill="#0F202E"
        d="M498.266 1300.18C503.741 1303.42 505.751 1298.29 510.168 1302.78C511.455 1306.44 511.252 1312.13 510.38 1315.88L509.743 1315.68C508.001 1312.12 508.413 1309.66 508.56 1305.7C508.308 1304.53 507.926 1304.16 507.288 1303.12C504.616 1302.15 505.636 1302.08 503.311 1302.98C501.36 1305.28 500.095 1312.37 499.291 1315.69L498.595 1315.98L498.806 1316.6L499.235 1315.81L498.522 1315.2C498.034 1309.79 498.156 1305.57 498.266 1300.18Z" />
    <path fill="#08121C"
        d="M211.77 1244.89C222.465 1245.42 218.962 1260.29 217.448 1261.31C212.721 1257.04 219.879 1253.58 212.962 1246.35C205.943 1250.81 209.631 1253.02 207.373 1260.82L206.209 1260.83C205.12 1259.06 205.638 1250.55 205.8 1248.01C208.431 1245.21 206.847 1248.13 211.77 1244.89Z" />
    <path fill="#0F202E"
        d="M429.244 1300.23C432.94 1302.37 432.089 1301.21 437.737 1300.25C444.191 1302.01 443.303 1312.13 440.168 1315.4C439.341 1312.08 439.534 1308.6 439.536 1305.16C438.406 1303.17 438.231 1302.97 436.215 1301.9L434.365 1302.63C432.209 1304.99 431.063 1312.22 430.279 1315.69L429.691 1315.95C428.948 1310.94 429.146 1305.31 429.244 1300.23Z" />
    <path fill="#08121C"
        d="M176.983 1285.04L179.247 1286.88C181.679 1286.12 182.989 1285.64 185.582 1285.37C191.834 1287.64 190.977 1298.31 187.858 1300.65C186.668 1297.95 187.047 1295.1 187.108 1292.06C187.022 1289.94 187.081 1290.04 185.928 1288.27C183.295 1286.95 184.213 1286.92 181.803 1287.41C178.842 1290.14 179.685 1296.42 178.977 1300.76L177.751 1301.18C176.296 1299.45 176.959 1288.22 176.983 1285.04Z" />
    <path fill="#08121C"
        d="M273.153 1285.27C277.344 1287.72 275.387 1286.08 281.713 1285.24C288.135 1287.35 287.186 1298.11 284.117 1300.64C283.474 1297.41 283.573 1293.43 283.536 1290.07C282.859 1288.55 282.119 1288.08 280.902 1286.84C276.166 1286.68 275.269 1296.93 274.09 1301.11C272.862 1299.86 273.155 1287.9 273.153 1285.27Z" />
    <path fill="#0F202E"
        d="M765.676 1205.75L767.61 1207.43C779.147 1205.11 780.707 1209.67 777.843 1220.86L776.948 1220.87C775.419 1218.1 775.902 1215.04 776.023 1211.81C775.811 1210.8 775.36 1209.99 774.93 1209.04C772.451 1207.86 773.464 1208.15 770.599 1208.34C766.75 1211.75 768.668 1215.63 767.687 1221.49L766.582 1221.97C764.546 1219.3 765.425 1209.4 765.676 1205.75Z" />
    <path fill="#0F202E"
        d="M851.831 1246.15L854.161 1246.41L854.848 1247.62C853.818 1251.02 847.912 1256.76 845.169 1259.73C847.784 1259.56 852.932 1258.81 854.59 1261.12C852.263 1262.36 850.657 1262.05 847.993 1262C845.015 1262 845.311 1262.46 843.174 1261.13L843.037 1259.32C844.556 1255.84 849.182 1251.44 851.931 1248.52C849.641 1248.6 845.268 1249.17 843.909 1247.24C846.27 1245.71 848.874 1246.12 851.831 1246.15Z" />
    <path fill="#0F202E"
        d="M522.239 1300.2C525.919 1302.45 524.955 1301.19 530.807 1300.24C536.984 1302.85 535.944 1313.86 533.28 1315.43C532.126 1312.51 532.469 1308.41 532.514 1305.16C531.812 1303.81 531.322 1303.53 530.233 1302.44C524.639 1301.1 524.492 1312.11 522.812 1316.72C521.877 1313.15 522.153 1304.24 522.239 1300.2Z" />
    <path fill="#0F202E"
        d="M909.192 1245.77C912.511 1248.91 912.729 1246.04 917.4 1245.82C923.812 1248.33 922.17 1259.91 919.555 1261.31C918.704 1258.43 918.933 1254.25 918.952 1251.12C918.091 1249.09 917.082 1248.33 915.136 1247.61L913.432 1248.48C911.279 1251.11 910.161 1257.84 909.314 1261.45L908.903 1260.88C908.523 1256.69 907.782 1249.64 909.192 1245.77Z" />
    <path fill="#0F202E"
        d="M499.56 1259.86C506.955 1261.19 507.668 1270.58 505.113 1275.91L503.952 1276.07C502.225 1273.09 504.915 1268.61 502.449 1263.87C500.248 1262.15 500.993 1262.68 497.744 1262.42C494.698 1266.59 496.154 1270.55 493.943 1275.93L493.402 1275.73C493.157 1272 491.795 1264.43 494.147 1261.97C496.707 1261.81 497.38 1261.22 499.56 1259.86Z" />
    <path fill="#08121C"
        d="M175.875 1324.68C181.201 1326.58 175.807 1334.72 181.19 1339.13C183.317 1338.92 182.966 1338.64 184.974 1336.93C186.898 1332.78 184.571 1327.43 187.227 1324.96L188.015 1325.52L188.359 1328.06C188.429 1331.23 189.168 1338.51 187.347 1340.63L185.299 1339.29C182.058 1341.22 181.324 1342.32 177.947 1340.3C174.874 1335.35 175.643 1330.4 175.875 1324.68Z" />
    <path fill="#08121C"
        d="M528.971 1339.87C533.091 1342.32 531.633 1340.53 537.91 1340.01C543.887 1342.94 542.857 1353.4 539.981 1355.1C539.235 1352.22 539.377 1347.88 539.357 1344.78C538.575 1342.98 537.975 1342.6 536.569 1341.27C532.065 1341.44 530.835 1351.66 529.745 1355.56C528.761 1354.26 528.983 1342.4 528.971 1339.87Z" />
    <path fill="#08121C"
        d="M464 1299.92C469.205 1303.19 463.676 1309.29 468.971 1314.58C471.5 1314.17 470.848 1314.16 473.139 1312.33C475.367 1307.81 472.279 1303.3 475.287 1300.4L476.109 1301L476.379 1303.31C476.454 1306.77 477.119 1313.71 475.487 1316.44C469.961 1313.12 468.16 1317.74 464.248 1314.2C463.051 1310.5 463.743 1303.93 464 1299.92Z" />
    <path fill="#0F202E"
        d="M481.017 1300.15L483.16 1301.45C487.366 1300.99 490.053 1299.73 493.002 1303.06C494.201 1306.97 494.011 1311.93 493.109 1315.89L492.483 1315.69C490.789 1312.11 491.179 1309.68 491.314 1305.71C490.919 1303.94 490.764 1303.99 489.458 1302.79C486.995 1302.21 487.961 1302.08 485.801 1303.07C483.683 1305.75 482.661 1312.25 481.562 1316.14C480.825 1309.96 480.904 1306.31 481.017 1300.15Z" />
    <path fill="#0F202E"
        d="M195.403 1324.37C198.762 1324.69 201.615 1324.43 203.038 1327.82L202.328 1328.56C198.763 1327.16 196.686 1325.29 194.308 1328.63C197.158 1332.88 202.855 1331.09 203.93 1336.81C202.771 1339.38 202.284 1339.61 199.928 1341.21C196.472 1340.9 193.739 1340.91 191.734 1337.75L192.326 1336.9C194.997 1337.76 196.243 1338.13 199.066 1338.63C201.153 1337.79 200.447 1338.49 201.396 1336.63C199.083 1332.67 192.649 1334.31 191.781 1328.77C192.713 1326.27 193.239 1326 195.403 1324.37Z" />
    <path fill="#0F202E"
        d="M782.652 1286.18C786.792 1286.1 788.189 1285.69 791.387 1288.33C790.415 1289.47 786.071 1288.53 782.534 1289.4L782.422 1290.47C785.97 1294.35 790.899 1292.94 792.39 1297.65C791.569 1300.25 791.013 1300.58 788.938 1302.4C785.129 1302.74 783.234 1302.47 780.609 1299.61L780.644 1298.86C783.352 1299.36 786.454 1300.31 788.875 1299.42L789.575 1297.74C787.16 1294.33 783.055 1296.2 780.32 1291.25C780.391 1288.72 781.012 1288.32 782.652 1286.18Z" />
    <path fill="#0F202E"
        d="M94.9951 1244.95C96.9597 1245.04 98.2326 1245.35 100.164 1245.75C101.613 1247.03 102.026 1246.91 102.254 1248.37C99.4943 1248.04 96.8493 1247.39 94.3461 1248.34L93.8157 1249.74C96.0056 1253.14 101.458 1251.14 103.413 1256.49C102.873 1259.14 102.15 1259.61 100.2 1261.55C96.9876 1261.66 92.0283 1261.47 91.4455 1257.73L92.2851 1257.2C94.9307 1258.33 97.5088 1260.06 100.066 1258.72L100.552 1256.69C98.0851 1252.96 92.5741 1254.89 91.1329 1249.67C92.1115 1247.03 92.7758 1246.75 94.9951 1244.95Z" />
    <path fill="#08121C"
        d="M169.926 1244.99C172.629 1245.11 177.024 1245.18 178.061 1248.01L177.049 1248.87C175.352 1248.3 173.823 1247.73 172.154 1247.08C169.84 1247.66 170.818 1247.07 169.255 1249.11C171.251 1253.37 178.992 1251.99 178.729 1258C177.11 1260.44 176.253 1260.69 173.653 1261.96C170.838 1261.42 167.824 1260.85 166.928 1257.76C170.232 1258.49 173.025 1259.52 175.916 1258.04L176.223 1256.62C173.563 1253.31 168.042 1254.97 166.658 1249.61C167.377 1247.02 167.813 1246.88 169.926 1244.99Z" />
    <path fill="#08121C"
        d="M140.576 1285.45L142.237 1285.39C146.247 1285.29 146.662 1285.04 149.635 1287.88C146.809 1287.8 143.259 1287.75 141.109 1289.61C143.345 1293.33 149.422 1292.02 150.459 1297.27C149.383 1299.93 148.698 1300.24 146.33 1301.95C144.094 1301.7 142.952 1301.45 140.767 1300.9C139.325 1299.48 138.918 1299.55 138.482 1297.91C141.462 1298.66 144.907 1300.11 147.494 1298.29L147.637 1296.52C144.326 1292.93 140.396 1295.27 138.246 1290.44C138.6 1287.8 138.89 1287.65 140.576 1285.45Z" />
    <path fill="#08121C"
        d="M862.26 1286.26C864.971 1286.16 865.807 1286.12 868.46 1286.6C870.149 1287.85 870.472 1287.6 870.765 1289.14C867.37 1288.6 863.948 1287.13 862.43 1290.61C864.926 1294.66 872.167 1293.14 871.998 1298.8C870.612 1301.09 869.66 1301.46 867.437 1302.89C864.313 1302.32 861.237 1302.18 859.917 1298.98L860.583 1298.21C863.126 1299.37 864.232 1300.01 867.078 1300.35C869.237 1299.12 868.494 1299.99 869.371 1297.65C866.496 1294.17 862.677 1296.32 860.026 1291.26C860.239 1288.63 860.568 1288.46 862.26 1286.26Z" />
    <path fill="#08121C"
        d="M195.544 1285.52C198.619 1285.29 202.687 1284.7 204.289 1287.99C201.157 1288.01 198.883 1287.9 195.818 1288.62L195.416 1289.66C198.937 1293.78 203.162 1291.72 205.398 1296.18C205.17 1298.78 204.649 1299.26 203.093 1301.41C198.213 1301.7 197.306 1302.26 193.595 1298.76C194.335 1297.77 199.494 1298.94 203.044 1298.17C203.379 1294.19 196.14 1294.86 193.404 1290.98C193.449 1288.21 193.889 1287.93 195.544 1285.52Z" />
    <path fill="#08121C"
        d="M126.234 1285.44C128.968 1285.41 133.502 1284.85 134.729 1288.02C131.914 1287.93 129.028 1287.48 126.611 1288.67L126.304 1290.12C129.479 1293.89 134.735 1292.06 135.892 1297.3C134.956 1299.75 134.24 1300.12 132.151 1301.78C128.449 1301.78 126.477 1301.12 123.434 1299.02L123.508 1297.91L125.022 1297.18C127.112 1298.6 127.956 1299.45 130.48 1299.71C132.655 1298.49 132.024 1299.21 133.182 1297.1C130.897 1293.86 126.891 1295.3 123.955 1290.5C124.055 1287.82 124.435 1287.64 126.234 1285.44Z" />
    <path fill="#08121C"
        d="M120.648 1206C125.046 1205.49 125.971 1205.38 129.494 1207.95L129.458 1208.53C126.724 1208.42 123.579 1207.96 121.18 1208.99L120.992 1210.67C124.251 1214.03 128.48 1212.08 130.37 1216.7C130.005 1219.25 129.58 1219.67 128.061 1221.8C122.681 1222.04 122.452 1222.48 118.791 1219.18L118.892 1218.38C122.031 1219.07 125.413 1220.53 127.726 1218.12C126.937 1213.25 122.011 1215.83 118.499 1211.46C118.48 1208.7 118.97 1208.4 120.648 1206Z" />
    <path fill="#08121C"
        d="M521.852 1380C525.554 1379.69 529.008 1379.01 531.189 1382.73L529.66 1383.55L525.95 1381.61C523.443 1381.71 524.551 1381.3 522.565 1383.01L522.452 1384.61C525.52 1388.13 529.665 1386.12 531.715 1390.68C531.381 1393.25 530.926 1393.69 529.365 1395.81L528.528 1395.86C524.19 1396.07 523.342 1396.32 520.125 1393.39L520.337 1392.8C523.478 1392.91 526.677 1393.31 529.59 1392.35C529.103 1388.11 523.088 1389.61 519.854 1385.47C519.83 1382.71 520.262 1382.43 521.852 1380Z" />
    <path fill="#0F202E"
        d="M136.429 1206.04C139.428 1205.71 140.209 1205.54 143.217 1206.23C145.031 1207.57 145.491 1207.71 146.41 1209.68C144.971 1209.99 141 1208.45 139.24 1207.91C136.988 1209.04 136.9 1209.07 135.71 1211.2C134.887 1216.32 136.56 1218.89 141.28 1220.5C143.404 1217.99 142.732 1218 145.361 1217.23L145.835 1218.37C140.935 1227.66 126.325 1217.97 136.429 1206.04Z" />
    <path fill="#0F202E"
        d="M147.568 1324.45C150.649 1324.54 154.345 1325.17 156.208 1327.87C152.239 1330.63 148.411 1324.48 145.095 1329.73C144.629 1335.61 146.365 1337.87 151.567 1339.2C152.787 1337.39 152.718 1337.45 154.477 1336.17L155.439 1336.65C154.721 1339.6 152.924 1340.92 150.011 1341.46C141.275 1340.1 140.545 1329.81 147.568 1324.45Z" />
    <path fill="#0F202E"
        d="M433.243 1373.08C435.029 1373.09 437.402 1372.76 438.564 1373.64C436.108 1375.7 433.976 1376.5 435.349 1379.72L438.442 1380.44L438.52 1381.6L435.312 1382.49C434.341 1384.79 434.818 1390.73 434.895 1393.58C434.897 1394.81 434.758 1394.77 434.004 1395.79C430.946 1394.21 432.679 1385.67 430.493 1381.22C432.124 1377.84 432.363 1376.74 433.243 1373.08Z" />
    <path fill="#08121C"
        d="M706.857 1199.48L708.761 1200.55C709.582 1203.58 709.3 1215.47 709.307 1219.44C713.538 1219.25 717.15 1218.34 720.182 1221.4C716.694 1222 710.33 1221.85 706.576 1221.88C706.579 1214.37 706.551 1206.98 706.857 1199.48Z" />
    <path fill="#0F202E"
        d="M389.826 1372.79C392.493 1372.76 391.392 1372.31 393.268 1374.11L393.798 1373.84L392.991 1373.11L394.091 1373.67L391.334 1376.06C390.462 1378.46 390.41 1377.55 391.12 1379.71L394.193 1380.46L394.31 1381.67L391.213 1382.57C390.261 1384.88 390.726 1391.36 390.793 1394.23L390.077 1395.66L389.122 1395.86C387.009 1392.94 388.654 1384.91 386.573 1380.95C386.322 1380.48 389.254 1374.25 389.826 1372.79Z" />
    <path fill="#08121C"
        d="M165.458 1205.5C166.179 1205.73 167.164 1206.22 167.879 1206.55C169.921 1210.14 170.858 1214.88 171.883 1218.95C173.324 1214.81 174.389 1210.37 176.484 1206.61C177.398 1206.34 177.691 1206.25 178.548 1205.72L177.952 1206.61L178.426 1207.08L178.138 1207.69C176.934 1211.49 175.368 1219.97 171.129 1220.58C168.228 1217.87 166.573 1209.66 165.458 1205.5Z" />
    <path fill="#0F202E"
        d="M217.565 1201.24C217.882 1201.57 221.172 1206.89 221.24 1207.27C218.739 1210.94 217.579 1212.95 219.09 1217.37C220.437 1221.32 220.97 1217.46 223.225 1221.7C221.678 1221.78 220.537 1221.67 219.011 1221.56C213.696 1218.17 217.62 1215.49 215.686 1208.67L213.461 1207.77L213.356 1206.44L215.545 1205.64C216.177 1203.32 216.173 1203.15 217.565 1201.24Z" />
    <path fill="#0F202E"
        d="M483.886 1374.91L485.477 1375.84C485.876 1377.19 486.074 1378.17 486.342 1379.53L489.637 1380.48L489.515 1381.67L486.367 1382.48C485.68 1385.12 485.661 1390.39 486.59 1392.96C488.666 1393.65 489.066 1393.79 490.426 1395.5C487.162 1396.05 486.506 1395.88 484.226 1394.37C482.82 1391.75 483.449 1386.7 483.178 1382.93C482.235 1382.34 481.578 1381.9 480.685 1381.24C483.001 1378.9 483.474 1378.35 483.886 1374.91Z" />
    <path fill="#0F202E"
        d="M477.284 1332.19C479.358 1333.06 479.195 1332.59 479.969 1334.13C477.071 1336.11 476.016 1336.29 476.823 1339.79L479.666 1340.54L479.954 1341.66C479.073 1342.26 478.864 1342.27 477.843 1342.48L476.843 1342.68C476.092 1345.26 476.46 1352.08 476.507 1355.1C476.017 1355.53 475.508 1355.62 474.833 1355.87L474.141 1354.9C474.596 1345.72 469.498 1338.94 477.284 1332.19Z" />
    <path fill="#0F202E"
        d="M772.227 1281.42L773.593 1282.37C773.88 1283.98 773.911 1284.31 774.505 1285.89L777.553 1286.59L777.691 1287.9C771.925 1290.93 771.399 1299.29 778.341 1300.32C777.519 1301.6 777.191 1301.67 775.999 1302.64C770.75 1303.27 771.298 1293.26 771.084 1289.47L769.442 1288.45L769.386 1287.03C771.31 1285.08 771.505 1284.04 772.227 1281.42Z" />
    <path fill="#0F202E"
        d="M107.982 1240.69L109.548 1241.76C110.617 1247.94 110.55 1243.93 114.04 1246.44L113.767 1247.33L110.56 1248.24C108.136 1252.16 109.236 1255.04 111.484 1258.75C113.164 1259.33 113.352 1259.59 114.43 1260.89C112.362 1261.41 112.156 1261.32 109.991 1261.06C105.547 1257.78 108.499 1255.1 107.207 1248.42C105.956 1247.87 105.952 1247.88 104.894 1247.03C107.087 1244.61 107.515 1244.08 107.982 1240.69Z" />
    <path fill="#0F202E"
        d="M426.314 1255.74L427.884 1256.68C428.107 1258.68 428.06 1258.7 428.83 1260.52L431.488 1260.8L431.982 1261.75C427.789 1267.01 425.466 1266.68 429.207 1273.79C431.157 1274.24 431.666 1274.3 433.088 1275.71C430.089 1276.86 429.091 1276.94 426.634 1275.15C425.341 1272.3 426.074 1267.74 425.641 1263.69L423.734 1262.67L423.429 1261.55C425.704 1259.41 425.84 1258.81 426.314 1255.74Z" />
    <path fill="#0F202E"
        d="M443.871 1255.67L445.463 1256.88C446.653 1263.07 446.736 1258.95 449.687 1261.57C443.5 1267.09 442.661 1272.02 450.916 1275.47C448.187 1276.82 447.101 1276.97 444.526 1275.46C442.956 1272.52 443.377 1267.33 443.294 1263.7C442.497 1263.14 441.786 1262.62 441.014 1262.03C443.203 1259.56 443.554 1259.02 443.871 1255.67Z" />
    <path fill="#0F202E"
        d="M566.179 1295.55L567.454 1296.64C567.736 1298.35 567.684 1298.5 568.472 1300.11L571.021 1300.62L571.594 1301.58C567.235 1305.27 565.73 1308.74 568.869 1313.76C570.728 1314.1 571.253 1314.2 572.636 1315.5C570.393 1316.4 570.28 1316.35 567.815 1316.12C564.603 1313.52 565.493 1311.13 565.544 1307.25C565.616 1301.75 564.754 1304.39 563.033 1301.58C565.332 1299.29 565.686 1298.76 566.179 1295.55Z" />
    <path fill="#0F202E"
        d="M937.354 1202.49L938.177 1202.39C938.612 1203.61 938.794 1204.31 939.103 1205.54L941.669 1206.5C939.352 1210.87 937.208 1213.1 938.828 1218.01C940.894 1220.29 939.857 1219.57 943.399 1220.37C941.877 1222.12 940.145 1223.04 938.027 1221.8C935.921 1218.95 936.12 1212.9 935.992 1209.27C934.912 1208.74 934.365 1208.48 933.37 1207.81C934.57 1204.36 934.528 1208.01 937.354 1202.49Z" />
    <path fill="#0F202E"
        d="M558.013 1255.71L559.427 1256.88C559.906 1260.7 559.727 1260.34 563.177 1260.91L563.747 1261.81C556.893 1266.94 556.971 1272.15 565.057 1275.47C562.375 1276.84 561.358 1276.85 558.768 1275.73C556.879 1273.04 557.377 1267.56 557.402 1264.1C556.593 1263.08 556.133 1262.71 555.023 1262.02C557.179 1259.58 557.573 1259 558.013 1255.71Z" />
    <path fill="#0F202E"
        d="M876.271 1241.54L877.351 1242.43C878.981 1248.68 878.955 1244.62 881.666 1246.9C875.805 1252.79 874.53 1257.32 883.003 1261.18C880.754 1262.16 880.417 1262.13 877.957 1261.92C873.801 1258.58 876.419 1255.35 875.1 1249L872.918 1248.13C873.589 1244.21 874.199 1248.31 876.271 1241.54Z" />
    <path fill="#0F202E"
        d="M499.712 1332.44L500.817 1333.04C502.845 1335.75 501.869 1352.6 501.475 1356.59C500.801 1356.26 499.941 1355.84 499.726 1355.13C498.405 1350.77 498.889 1336.41 499.712 1332.44Z" />
    <path fill="#0F202E"
        d="M506.255 1332.81L507.789 1333.45C509.573 1335.89 508.545 1352.44 508.343 1356.35L507.116 1355.88C505.342 1353.58 506.178 1336.97 506.255 1332.81Z" />
    <path fill="#08121C"
        d="M854.459 1279.12C857.713 1280.92 856.279 1298.7 856.167 1302.57C855.343 1302.22 854.462 1302.08 854.294 1301.4C853.142 1296.8 853.488 1283.39 854.459 1279.12Z" />
    <path fill="#08121C"
        d="M118.78 1339.22C116.288 1340.63 115.927 1340.88 113.088 1340.94C107.501 1338.4 107.964 1331.3 109.172 1326.15L110.437 1325.45C112.682 1328.16 109.666 1333.93 112.876 1338.1C115.477 1339.1 114.737 1338.76 117.94 1338.11L118.78 1339.22Z" />
    <path fill="#08121C"
        d="M424.617 1341.22C427.171 1340.38 428.293 1339.77 430.93 1340.53C436.302 1344.22 436.134 1350.11 433.644 1355.53L432.202 1355.56C430 1350.5 434.202 1345.78 429.718 1342.03C427.095 1342.06 426.836 1342.44 424.515 1343.92L424.617 1341.22Z" />
    <path fill="#0F202E"
        d="M740.404 1245.74C745.328 1249.71 742.355 1245.31 747.734 1246.3C747.617 1249.35 744.182 1247.13 742.721 1252.31C742.776 1255.8 743.026 1258.11 741.819 1261.42L741.052 1260.59C739.65 1255.04 740.11 1251.38 740.404 1245.74Z" />
    <path fill="#0F202E"
        d="M455.429 1339.9C460.588 1342.84 458.75 1339.11 463.153 1340.36C461.416 1343.51 459.301 1341.53 457.782 1346.92C457.977 1350.74 458.019 1351.45 457.163 1355.18L456.431 1355.13C454.817 1349.58 455.243 1345.61 455.429 1339.9Z" />
    <path fill="#21404F"
        d="M913.311 1124.23C915.948 1124.13 917.727 1123.84 920.198 1124.75C921.613 1127.17 921.125 1127.84 921.126 1130.92C918.446 1131.06 916.858 1131.35 914.299 1130.51C912.799 1128.04 913.327 1127.49 913.311 1124.23Z" />
    <path fill="#0F202E"
        d="M453.402 1300.15C458.361 1303.36 456.194 1299.67 460.368 1300.88C455.923 1306.06 455.747 1305.05 455.936 1311.94C456.173 1313.9 456.125 1315.41 454.399 1316.4C452.772 1313.83 453.359 1303.81 453.402 1300.15Z" />
    <path fill="#0F202E"
        d="M203.676 1205C205.171 1206.65 204.922 1205.76 205.021 1207.54C195.202 1210.51 202.812 1216.56 198.429 1222.61C196.794 1219.49 196.887 1210.21 197.575 1206.7L198.438 1206.17L199.934 1207.33L203.676 1205Z" />
    <path fill="#0F202E"
        d="M776.016 1246.02L778.065 1247.12C780.196 1246.4 780.557 1246.35 782.809 1246.11C781.645 1249.83 778.731 1247.45 777.948 1253.81C778.129 1257.29 778.284 1258.11 777.158 1261.45L776.371 1260.85C775.217 1255.91 775.053 1251.03 776.016 1246.02Z" />
    <path fill="#0F202E"
        d="M139.787 1244.93L141.23 1245.64L141.439 1246.76C139.454 1247.72 138.553 1248.31 136.707 1249.53C135.534 1252.29 135.904 1257.85 135.536 1261.64C132.329 1260.12 132.577 1247.04 134.789 1245.55L136.13 1246.9L139.787 1244.93Z" />
    <path fill="#0F202E"
        d="M132.386 1324.94C132.871 1324.85 133.274 1325.14 133.884 1325.37L133.691 1326.56C126.464 1329.61 128.194 1333.61 128.439 1340.73L126.967 1340.62C125.27 1338.35 125.069 1327.88 127.115 1325.47C129.489 1325.87 130.079 1325.66 132.386 1324.94Z" />
    <path fill="#08121C"
        d="M725.849 1287.58C727.975 1286.23 728.308 1286.2 730.838 1286.03C736.465 1288.42 736.088 1296.4 734.614 1301.43L733.543 1301.45C732.06 1295.58 734.252 1291.41 730.05 1288.44L727.017 1288.28L725.849 1287.58Z" />
    <path fill="#0F202E"
        d="M404.055 1379.57L405.921 1380.82C407.899 1380.55 409.988 1380.17 411.675 1381.23L408.151 1382.67C406.406 1384.91 406.942 1384.13 406.552 1387.31C406.734 1390.93 406.835 1391.64 405.842 1395.19L405.183 1394.95C403.707 1389.3 403.995 1385.34 404.055 1379.57Z" />
    <path fill="#08121C"
        d="M833.098 1205.69C837.721 1209.89 835.29 1205.38 840.417 1206.3C838.339 1210.04 837.36 1207.19 835.052 1212.8C835.234 1216.37 835.375 1217.35 834.546 1220.87L833.883 1221.05C832.181 1215.28 832.739 1211.65 833.098 1205.69Z" />
    <path fill="#08121C"
        d="M754.684 1206.05C760.321 1208.74 758.363 1205.19 761.834 1206.25C758.342 1210.78 757.719 1208.68 757.002 1214.06C757.14 1217.2 757.256 1218.05 756.391 1221.2L755.658 1221.17C754.231 1215.7 754.571 1211.65 754.684 1206.05Z" />
    <path fill="#08121C"
        d="M509.006 1379.76L511.587 1381.27L515.442 1379.39L516.269 1380.04C513.254 1384.5 511.989 1381.7 511.474 1388.06C511.604 1391.22 511.71 1391.98 510.745 1395.13L509.96 1394.97C508.599 1389.27 508.895 1385.54 509.006 1379.76Z" />
    <path fill="#0F202E"
        d="M727.017 1288.28C724.121 1292.55 725.037 1296.31 723.771 1301.48L723.007 1301.9C722.284 1299.26 721.266 1288.09 723.207 1286.38L724.857 1287.89L725.849 1287.58L727.017 1288.28Z" />
    <path fill="#0F202E"
        d="M144.189 1245.1L145.742 1245.59C147.966 1248.07 146.931 1257.65 146.769 1261.43C145.066 1261.16 145.834 1261.49 144.468 1260.23C143.67 1255.93 144.073 1249.63 144.189 1245.1Z" />
    <path fill="#08121C"
        d="M153.538 1284.92C154.915 1285.57 154.486 1285.34 155.631 1286.4C156.563 1291.44 155.977 1296.72 155.61 1301.83L154.059 1301.06C152.286 1298.53 153.299 1288.48 153.538 1284.92Z" />
    <path fill="#0F202E"
        d="M441.321 1379.5C442.632 1379.87 442.544 1379.91 443.54 1380.86C444.42 1385.16 443.943 1391.36 443.791 1395.88L442.372 1395.66C440.043 1393.11 441.149 1383.43 441.321 1379.5Z" />
    <path fill="#0F202E"
        d="M117.94 1338.11C119.894 1333.61 118.377 1329.85 120.11 1325.5L120.915 1325.29C121.789 1330.18 122.176 1334.97 121.308 1339.9L120.304 1340.64C119.94 1340.32 119.041 1339.57 118.78 1339.22L117.94 1338.11Z" />
    <path fill="#0F202E"
        d="M397.462 1379.48C399.174 1380.14 398.436 1379.64 399.65 1381.18C400.194 1385.34 400.703 1392.97 398.732 1396.68C396.108 1392.69 397.178 1384.6 397.462 1379.48Z" />
    <path fill="#0F202E"
        d="M764.437 1285.81L765.702 1286.47C767.552 1288.82 766.552 1299.3 766.368 1302.78C765.323 1302.16 765.192 1301.95 764.28 1301.14C763.394 1295.84 763.768 1291.12 764.437 1285.81Z" />
    <path fill="#0F202E"
        d="M424.515 1343.92C423.844 1346.27 423.899 1352.02 423.362 1355.43C421.155 1352.66 419.836 1342.75 422.661 1340.42L424.617 1341.22L424.515 1343.92Z" />
    <path fill="#08121C"
        d="M884.77 1245.89L886.194 1246.26C888.387 1248.79 887.343 1258.37 887.193 1262.2L885.464 1261.74C884.126 1259.37 884.712 1249.37 884.77 1245.89Z" />
    <path fill="#0F202E"
        d="M838.082 1245.54L839.349 1246.93C840.03 1251.56 839.882 1258.12 839.124 1262.74C837.87 1261.81 838.247 1262.07 837.328 1260.71C836.85 1256.67 836.49 1249.23 838.082 1245.54Z" />
    <path fill="#0F202E"
        d="M515.582 1300.02L517.089 1300.71C518.704 1303.68 517.767 1312.88 517.488 1316.69C513.78 1315.42 515.411 1303.62 515.582 1300.02Z" />
    <path fill="#08121C"
        d="M266.954 1284.98L268.659 1286.16C269.746 1290.34 269.07 1297.44 268.794 1301.83L267.338 1301.02C265.717 1298.61 266.696 1288.44 266.954 1284.98Z" />
    <path fill="#08121C"
        d="M118.239 1285.04C119.091 1285.64 119.179 1285.88 119.873 1286.69C120.554 1291.41 120.224 1297.28 119.698 1302.02L118.044 1300.38C117.277 1295.49 117.58 1289.93 118.239 1285.04Z" />
    <path fill="#08121C"
        d="M112.878 1205.42L114.557 1206.88C115.422 1211.99 114.993 1217.2 114.43 1222.33L112.86 1220.88C112.045 1215.99 112.501 1210.37 112.878 1205.42Z" />
</svg>